#VRML V2.0 utf8
Transform { translation 0.0000 -9.5000 1.6732 children Shape { appearance Appearance { material Material { diffuseColor 0.08 0.08 0.08 } } geometry Box { size 1.0000 20.0000 3.3465 } } }
Transform { translation 10.0000 -9.5000 1.6732 children Shape { appearance Appearance { material Material { diffuseColor 0.08 0.08 0.08 } } geometry Box { size 1.0000 20.0000 3.3465 } } }
Transform { translation 5.0000 -7.9961 3.6614 children Shape { appearance Appearance { material Material { diffuseColor 0.08 0.08 0.08 } } geometry Box { size 10.7087 23.0709 0.6299 } } }
Transform { translation 5.0000 -1.4783 4.1339 children Shape { appearance Appearance { material Material { diffuseColor 0.1 0.45 0.2 } } geometry Box { size 7.0866 10.0354 0.3150 } } }
Transform { translation 5.0000 -2.7559 4.7441 children Shape { appearance Appearance { material Material { diffuseColor 0.85 0.85 0.85 } } geometry Box { size 6.2992 6.6929 0.9055 } } }
Transform { translation 5.0000 -18.1496 4.6063 children Shape { appearance Appearance { material Material { diffuseColor 0.85 0.85 0.85 } } geometry Box { size 3.5433 2.9921 1.2598 } } }
Transform { translation 1.1614 -18.2087 4.2717 children Shape { appearance Appearance { material Material { diffuseColor 0.85 0.85 0.85 } } geometry Box { size 1.3780 1.3780 0.5906 } } }
Transform { translation 8.8386 -18.2087 4.2717 children Shape { appearance Appearance { material Material { diffuseColor 0.85 0.85 0.85 } } geometry Box { size 1.3780 1.3780 0.5906 } } }
