#VRML V2.0 utf8
Transform { translation -0.8858 0.0000 4.9213 children Shape { appearance Appearance { material Material { diffuseColor 0.8 0.8 0.82 } } geometry Box { size 0.9843 7.8740 9.8425 } } }
Transform { translation 3.0512 3.7008 4.9213 children Shape { appearance Appearance { material Material { diffuseColor 0.8 0.8 0.82 } } geometry Box { size 6.8898 0.4724 9.8425 } } }
Transform { translation 3.0512 1.2205 4.9213 children Shape { appearance Appearance { material Material { diffuseColor 0.8 0.8 0.82 } } geometry Box { size 6.8898 0.4724 9.8425 } } }
Transform { translation 3.0512 -1.2205 4.9213 children Shape { appearance Appearance { material Material { diffuseColor 0.8 0.8 0.82 } } geometry Box { size 6.8898 0.4724 9.8425 } } }
Transform { translation 3.0512 -3.7008 4.9213 children Shape { appearance Appearance { material Material { diffuseColor 0.8 0.8 0.82 } } geometry Box { size 6.8898 0.4724 9.8425 } } }
Transform { translation 0.0787 2.4606 4.9213 children Shape { appearance Appearance { material Material { diffuseColor 0.8 0.8 0.82 } } geometry Box { size 0.9449 0.9449 9.8425 } } }
Transform { translation 0.0000 2.4606 -1.2008 rotation 1 0 0 1.5708 children Shape { appearance Appearance { material Material { diffuseColor 0.8 0.8 0.82 } } geometry Cylinder { radius 0.2756 height 2.4016 } } }
Transform { translation 0.0787 -2.4606 4.9213 children Shape { appearance Appearance { material Material { diffuseColor 0.8 0.8 0.82 } } geometry Box { size 0.9449 0.9449 9.8425 } } }
Transform { translation 0.0000 -2.4606 -1.2008 rotation 1 0 0 1.5708 children Shape { appearance Appearance { material Material { diffuseColor 0.8 0.8 0.82 } } geometry Cylinder { radius 0.2756 height 2.4016 } } }
