#VRML V2.0 utf8
Transform { translation 4.0000 -2.3819 1.2992 children Shape { appearance Appearance { material Material { diffuseColor 0.05 0.25 0.75 } } geometry Box { size 9.0551 9.8031 0.6299 } } }
Transform { translation 4.0000 -0.7480 4.2717 children Shape { appearance Appearance { material Material { diffuseColor 0.85 0.85 0.85 } } geometry Box { size 6.3386 8.5039 5.3150 } } }
Transform { translation 4.0000 3.5138 3.9370 children Shape { appearance Appearance { material Material { diffuseColor 0.08 0.08 0.08 } } geometry Box { size 2.7559 0.0197 3.1496 } } }
Transform { translation 4.0000 -6.2205 1.7913 children Shape { appearance Appearance { material Material { diffuseColor 0.08 0.08 0.08 } } geometry Box { size 1.9685 1.5748 0.3543 } } }
Transform { translation 0.0000 -0.0000 0.4921 children Shape { appearance Appearance { material Material { diffuseColor 0.08 0.08 0.08 } } geometry Box { size 1.0000 1.0000 0.9843 } } }
Transform { translation 8.0000 -0.0000 0.4921 children Shape { appearance Appearance { material Material { diffuseColor 0.08 0.08 0.08 } } geometry Box { size 1.0000 1.0000 0.9843 } } }
Transform { translation 0.0000 -1.0000 0.4921 children Shape { appearance Appearance { material Material { diffuseColor 0.08 0.08 0.08 } } geometry Box { size 1.0000 1.0000 0.9843 } } }
Transform { translation 8.0000 -1.0000 0.4921 children Shape { appearance Appearance { material Material { diffuseColor 0.08 0.08 0.08 } } geometry Box { size 1.0000 1.0000 0.9843 } } }
Transform { translation 0.0000 -2.0000 0.4921 children Shape { appearance Appearance { material Material { diffuseColor 0.08 0.08 0.08 } } geometry Box { size 1.0000 1.0000 0.9843 } } }
Transform { translation 8.0000 -2.0000 0.4921 children Shape { appearance Appearance { material Material { diffuseColor 0.08 0.08 0.08 } } geometry Box { size 1.0000 1.0000 0.9843 } } }
Transform { translation 0.0000 -3.0000 0.4921 children Shape { appearance Appearance { material Material { diffuseColor 0.08 0.08 0.08 } } geometry Box { size 1.0000 1.0000 0.9843 } } }
Transform { translation 8.0000 -3.0000 0.4921 children Shape { appearance Appearance { material Material { diffuseColor 0.08 0.08 0.08 } } geometry Box { size 1.0000 1.0000 0.9843 } } }
Transform { translation 0.0000 -4.0000 0.4921 children Shape { appearance Appearance { material Material { diffuseColor 0.08 0.08 0.08 } } geometry Box { size 1.0000 1.0000 0.9843 } } }
Transform { translation 8.0000 -4.0000 0.4921 children Shape { appearance Appearance { material Material { diffuseColor 0.08 0.08 0.08 } } geometry Box { size 1.0000 1.0000 0.9843 } } }
Transform { translation 0.0000 -5.0000 0.4921 children Shape { appearance Appearance { material Material { diffuseColor 0.08 0.08 0.08 } } geometry Box { size 1.0000 1.0000 0.9843 } } }
Transform { translation 8.0000 -5.0000 0.4921 children Shape { appearance Appearance { material Material { diffuseColor 0.08 0.08 0.08 } } geometry Box { size 1.0000 1.0000 0.9843 } } }
