  0
SECTION
  2
BLOCKS
  0
ENDSEC
  0
SECTION
  2
ENTITIES
  0
LINE
  8
0
 10
80.3153
 20
-57.6464
 11
80.4883
 21
-57.6236
  0
LINE
  8
0
 10
80.4883
 20
-57.6236
 11
80.6586
 21
-57.5858
  0
LINE
  8
0
 10
80.6586
 20
-57.5858
 11
80.825
 21
-57.5334
  0
LINE
  8
0
 10
80.825
 20
-57.5334
 11
80.9862
 21
-57.4666
  0
LINE
  8
0
 10
80.9862
 20
-57.4666
 11
81.141
 21
-57.386
  0
LINE
  8
0
 10
81.141
 20
-57.386
 11
81.2881
 21
-57.2923
  0
LINE
  8
0
 10
81.2881
 20
-57.2923
 11
81.4265
 21
-57.1861
  0
LINE
  8
0
 10
81.4265
 20
-57.1861
 11
81.5552
 21
-57.0682
  0
LINE
  8
0
 10
81.5552
 20
-57.0682
 11
81.6731
 21
-56.9396
  0
LINE
  8
0
 10
81.6731
 20
-56.9396
 11
81.7793
 21
-56.8011
  0
LINE
  8
0
 10
81.7793
 20
-56.8011
 11
81.873
 21
-56.654
  0
LINE
  8
0
 10
81.873
 20
-56.654
 11
81.9536
 21
-56.4992
  0
LINE
  8
0
 10
81.9536
 20
-56.4992
 11
82.0204
 21
-56.338
  0
LINE
  8
0
 10
82.0204
 20
-56.338
 11
82.0728
 21
-56.1716
  0
LINE
  8
0
 10
82.0728
 20
-56.1716
 11
82.1106
 21
-56.0013
  0
LINE
  8
0
 10
82.1106
 20
-56.0013
 11
82.1334
 21
-55.8283
  0
LINE
  8
0
 10
82.1334
 20
-55.8283
 11
82.141
 21
-55.654
  0
LINE
  8
0
 10
82.141
 20
-55.654
 11
82.141
 21
58.634
  0
LINE
  8
0
 10
82.141
 20
58.634
 11
82.1334
 21
58.8083
  0
LINE
  8
0
 10
82.1334
 20
58.8083
 11
82.1106
 21
58.9813
  0
LINE
  8
0
 10
82.1106
 20
58.9813
 11
82.0728
 21
59.1516
  0
LINE
  8
0
 10
82.0728
 20
59.1516
 11
82.0204
 21
59.318
  0
LINE
  8
0
 10
82.0204
 20
59.318
 11
81.9536
 21
59.4792
  0
LINE
  8
0
 10
81.9536
 20
59.4792
 11
81.873
 21
59.634
  0
LINE
  8
0
 10
81.873
 20
59.634
 11
81.7793
 21
59.7811
  0
LINE
  8
0
 10
81.7793
 20
59.7811
 11
81.6731
 21
59.9196
  0
LINE
  8
0
 10
81.6731
 20
59.9196
 11
81.5552
 21
60.0482
  0
LINE
  8
0
 10
81.5552
 20
60.0482
 11
81.4265
 21
60.1661
  0
LINE
  8
0
 10
81.4265
 20
60.1661
 11
81.2881
 21
60.2723
  0
LINE
  8
0
 10
81.2881
 20
60.2723
 11
81.141
 21
60.366
  0
LINE
  8
0
 10
81.141
 20
60.366
 11
80.9862
 21
60.4466
  0
LINE
  8
0
 10
80.9862
 20
60.4466
 11
80.825
 21
60.5134
  0
LINE
  8
0
 10
80.825
 20
60.5134
 11
80.6586
 21
60.5658
  0
LINE
  8
0
 10
80.6586
 20
60.5658
 11
80.4883
 21
60.6036
  0
LINE
  8
0
 10
80.4883
 20
60.6036
 11
80.3153
 21
60.6264
  0
LINE
  8
0
 10
80.3153
 20
60.6264
 11
80.141
 21
60.634
  0
LINE
  8
0
 10
80.141
 20
60.634
 11
-77.411
 21
60.634
  0
LINE
  8
0
 10
-77.411
 20
60.634
 11
-77.5853
 21
60.6264
  0
LINE
  8
0
 10
-77.5853
 20
60.6264
 11
-77.7583
 21
60.6036
  0
LINE
  8
0
 10
-77.7583
 20
60.6036
 11
-77.9286
 21
60.5658
  0
LINE
  8
0
 10
-77.9286
 20
60.5658
 11
-78.095
 21
60.5134
  0
LINE
  8
0
 10
-78.095
 20
60.5134
 11
-78.2562
 21
60.4466
  0
LINE
  8
0
 10
-78.2562
 20
60.4466
 11
-78.411
 21
60.366
  0
LINE
  8
0
 10
-78.411
 20
60.366
 11
-78.5581
 21
60.2723
  0
LINE
  8
0
 10
-78.5581
 20
60.2723
 11
-78.6965
 21
60.1661
  0
LINE
  8
0
 10
-78.6965
 20
60.1661
 11
-78.8252
 21
60.0482
  0
LINE
  8
0
 10
-78.8252
 20
60.0482
 11
-78.9431
 21
59.9196
  0
LINE
  8
0
 10
-78.9431
 20
59.9196
 11
-79.0493
 21
59.7811
  0
LINE
  8
0
 10
-79.0493
 20
59.7811
 11
-79.143
 21
59.634
  0
LINE
  8
0
 10
-79.143
 20
59.634
 11
-79.2236
 21
59.4792
  0
LINE
  8
0
 10
-79.2236
 20
59.4792
 11
-79.2904
 21
59.318
  0
LINE
  8
0
 10
-79.2904
 20
59.318
 11
-79.3428
 21
59.1516
  0
LINE
  8
0
 10
-79.3428
 20
59.1516
 11
-79.3806
 21
58.9813
  0
LINE
  8
0
 10
-79.3806
 20
58.9813
 11
-79.4034
 21
58.8083
  0
LINE
  8
0
 10
-79.4034
 20
58.8083
 11
-79.411
 21
58.634
  0
LINE
  8
0
 10
-79.411
 20
58.634
 11
-79.411
 21
-55.654
  0
LINE
  8
0
 10
-79.411
 20
-55.654
 11
-79.4034
 21
-55.8283
  0
LINE
  8
0
 10
-79.4034
 20
-55.8283
 11
-79.3806
 21
-56.0013
  0
LINE
  8
0
 10
-79.3806
 20
-56.0013
 11
-79.3428
 21
-56.1716
  0
LINE
  8
0
 10
-79.3428
 20
-56.1716
 11
-79.2904
 21
-56.338
  0
LINE
  8
0
 10
-79.2904
 20
-56.338
 11
-79.2236
 21
-56.4992
  0
LINE
  8
0
 10
-79.2236
 20
-56.4992
 11
-79.143
 21
-56.654
  0
LINE
  8
0
 10
-79.143
 20
-56.654
 11
-79.0493
 21
-56.8011
  0
LINE
  8
0
 10
-79.0493
 20
-56.8011
 11
-78.9431
 21
-56.9396
  0
LINE
  8
0
 10
-78.9431
 20
-56.9396
 11
-78.8252
 21
-57.0682
  0
LINE
  8
0
 10
-78.8252
 20
-57.0682
 11
-78.6965
 21
-57.1861
  0
LINE
  8
0
 10
-78.6965
 20
-57.1861
 11
-78.5581
 21
-57.2923
  0
LINE
  8
0
 10
-78.5581
 20
-57.2923
 11
-78.411
 21
-57.386
  0
LINE
  8
0
 10
-78.411
 20
-57.386
 11
-78.2562
 21
-57.4666
  0
LINE
  8
0
 10
-78.2562
 20
-57.4666
 11
-78.095
 21
-57.5334
  0
LINE
  8
0
 10
-78.095
 20
-57.5334
 11
-77.9286
 21
-57.5858
  0
LINE
  8
0
 10
-77.9286
 20
-57.5858
 11
-77.7583
 21
-57.6236
  0
LINE
  8
0
 10
-77.7583
 20
-57.6236
 11
-77.5853
 21
-57.6464
  0
LINE
  8
0
 10
-77.5853
 20
-57.6464
 11
-77.411
 21
-57.654
  0
LINE
  8
0
 10
-77.411
 20
-57.654
 11
80.141
 21
-57.654
  0
LINE
  8
0
 10
80.141
 20
-57.654
 11
80.3153
 21
-57.6464
  0
LINE
  8
0
 10
67.1828
 20
44.1305
 11
67.0358
 21
44.1498
  0
LINE
  8
0
 10
67.0358
 20
44.1498
 11
66.891
 21
44.1819
  0
LINE
  8
0
 10
66.891
 20
44.1819
 11
66.7496
 21
44.2265
  0
LINE
  8
0
 10
66.7496
 20
44.2265
 11
66.6125
 21
44.2833
  0
LINE
  8
0
 10
66.6125
 20
44.2833
 11
66.481
 21
44.3517
  0
LINE
  8
0
 10
66.481
 20
44.3517
 11
66.3559
 21
44.4314
  0
LINE
  8
0
 10
66.3559
 20
44.4314
 11
66.2383
 21
44.5217
  0
LINE
  8
0
 10
66.2383
 20
44.5217
 11
66.1289
 21
44.6219
  0
LINE
  8
0
 10
66.1289
 20
44.6219
 11
66.0287
 21
44.7312
  0
LINE
  8
0
 10
66.0287
 20
44.7312
 11
65.9384
 21
44.8489
  0
LINE
  8
0
 10
65.9384
 20
44.8489
 11
65.8587
 21
44.974
  0
LINE
  8
0
 10
65.8587
 20
44.974
 11
65.7903
 21
45.1055
  0
LINE
  8
0
 10
65.7903
 20
45.1055
 11
65.7335
 21
45.2426
  0
LINE
  8
0
 10
65.7335
 20
45.2426
 11
65.6889
 21
45.384
  0
LINE
  8
0
 10
65.6889
 20
45.384
 11
65.6568
 21
45.5288
  0
LINE
  8
0
 10
65.6568
 20
45.5288
 11
65.6375
 21
45.6758
  0
LINE
  8
0
 10
65.6375
 20
45.6758
 11
65.631
 21
45.824
  0
LINE
  8
0
 10
65.631
 20
45.824
 11
65.6375
 21
45.9722
  0
LINE
  8
0
 10
65.6375
 20
45.9722
 11
65.6568
 21
46.1192
  0
LINE
  8
0
 10
65.6568
 20
46.1192
 11
65.6889
 21
46.264
  0
LINE
  8
0
 10
65.6889
 20
46.264
 11
65.7335
 21
46.4054
  0
LINE
  8
0
 10
65.7335
 20
46.4054
 11
65.7903
 21
46.5424
  0
LINE
  8
0
 10
65.7903
 20
46.5424
 11
65.8587
 21
46.674
  0
LINE
  8
0
 10
65.8587
 20
46.674
 11
65.9384
 21
46.7991
  0
LINE
  8
0
 10
65.9384
 20
46.7991
 11
66.0287
 21
46.9167
  0
LINE
  8
0
 10
66.0287
 20
46.9167
 11
66.1289
 21
47.0261
  0
LINE
  8
0
 10
66.1289
 20
47.0261
 11
66.2383
 21
47.1263
  0
LINE
  8
0
 10
66.2383
 20
47.1263
 11
66.3559
 21
47.2166
  0
LINE
  8
0
 10
66.3559
 20
47.2166
 11
66.481
 21
47.2962
  0
LINE
  8
0
 10
66.481
 20
47.2962
 11
66.6125
 21
47.3647
  0
LINE
  8
0
 10
66.6125
 20
47.3647
 11
66.7496
 21
47.4215
  0
LINE
  8
0
 10
66.7496
 20
47.4215
 11
66.891
 21
47.4661
  0
LINE
  8
0
 10
66.891
 20
47.4661
 11
67.0358
 21
47.4982
  0
LINE
  8
0
 10
67.0358
 20
47.4982
 11
67.1828
 21
47.5175
  0
LINE
  8
0
 10
67.1828
 20
47.5175
 11
67.331
 21
47.524
  0
LINE
  8
0
 10
67.331
 20
47.524
 11
67.4792
 21
47.5175
  0
LINE
  8
0
 10
67.4792
 20
47.5175
 11
67.6262
 21
47.4982
  0
LINE
  8
0
 10
67.6262
 20
47.4982
 11
67.771
 21
47.4661
  0
LINE
  8
0
 10
67.771
 20
47.4661
 11
67.9124
 21
47.4215
  0
LINE
  8
0
 10
67.9124
 20
47.4215
 11
68.0494
 21
47.3647
  0
LINE
  8
0
 10
68.0494
 20
47.3647
 11
68.181
 21
47.2962
  0
LINE
  8
0
 10
68.181
 20
47.2962
 11
68.3061
 21
47.2166
  0
LINE
  8
0
 10
68.3061
 20
47.2166
 11
68.4237
 21
47.1263
  0
LINE
  8
0
 10
68.4237
 20
47.1263
 11
68.5331
 21
47.0261
  0
LINE
  8
0
 10
68.5331
 20
47.0261
 11
68.6333
 21
46.9167
  0
LINE
  8
0
 10
68.6333
 20
46.9167
 11
68.7236
 21
46.7991
  0
LINE
  8
0
 10
68.7236
 20
46.7991
 11
68.8032
 21
46.674
  0
LINE
  8
0
 10
68.8032
 20
46.674
 11
68.8717
 21
46.5424
  0
LINE
  8
0
 10
68.8717
 20
46.5424
 11
68.9285
 21
46.4054
  0
LINE
  8
0
 10
68.9285
 20
46.4054
 11
68.9731
 21
46.264
  0
LINE
  8
0
 10
68.9731
 20
46.264
 11
69.0052
 21
46.1192
  0
LINE
  8
0
 10
69.0052
 20
46.1192
 11
69.0245
 21
45.9722
  0
LINE
  8
0
 10
69.0245
 20
45.9722
 11
69.031
 21
45.824
  0
LINE
  8
0
 10
69.031
 20
45.824
 11
69.0245
 21
45.6758
  0
LINE
  8
0
 10
69.0245
 20
45.6758
 11
69.0052
 21
45.5288
  0
LINE
  8
0
 10
69.0052
 20
45.5288
 11
68.9731
 21
45.384
  0
LINE
  8
0
 10
68.9731
 20
45.384
 11
68.9285
 21
45.2426
  0
LINE
  8
0
 10
68.9285
 20
45.2426
 11
68.8717
 21
45.1055
  0
LINE
  8
0
 10
68.8717
 20
45.1055
 11
68.8032
 21
44.974
  0
LINE
  8
0
 10
68.8032
 20
44.974
 11
68.7236
 21
44.8489
  0
LINE
  8
0
 10
68.7236
 20
44.8489
 11
68.6333
 21
44.7312
  0
LINE
  8
0
 10
68.6333
 20
44.7312
 11
68.5331
 21
44.6219
  0
LINE
  8
0
 10
68.5331
 20
44.6219
 11
68.4237
 21
44.5217
  0
LINE
  8
0
 10
68.4237
 20
44.5217
 11
68.3061
 21
44.4314
  0
LINE
  8
0
 10
68.3061
 20
44.4314
 11
68.181
 21
44.3517
  0
LINE
  8
0
 10
68.181
 20
44.3517
 11
68.0494
 21
44.2833
  0
LINE
  8
0
 10
68.0494
 20
44.2833
 11
67.9124
 21
44.2265
  0
LINE
  8
0
 10
67.9124
 20
44.2265
 11
67.771
 21
44.1819
  0
LINE
  8
0
 10
67.771
 20
44.1819
 11
67.6262
 21
44.1498
  0
LINE
  8
0
 10
67.6262
 20
44.1498
 11
67.4792
 21
44.1305
  0
LINE
  8
0
 10
67.4792
 20
44.1305
 11
67.331
 21
44.124
  0
LINE
  8
0
 10
67.331
 20
44.124
 11
67.1828
 21
44.1305
  0
LINE
  8
0
 10
-64.7492
 20
44.1305
 11
-64.8962
 21
44.1498
  0
LINE
  8
0
 10
-64.8962
 20
44.1498
 11
-65.041
 21
44.1819
  0
LINE
  8
0
 10
-65.041
 20
44.1819
 11
-65.1824
 21
44.2265
  0
LINE
  8
0
 10
-65.1824
 20
44.2265
 11
-65.3194
 21
44.2833
  0
LINE
  8
0
 10
-65.3194
 20
44.2833
 11
-65.451
 21
44.3517
  0
LINE
  8
0
 10
-65.451
 20
44.3517
 11
-65.5761
 21
44.4314
  0
LINE
  8
0
 10
-65.5761
 20
44.4314
 11
-65.6937
 21
44.5217
  0
LINE
  8
0
 10
-65.6937
 20
44.5217
 11
-65.8031
 21
44.6219
  0
LINE
  8
0
 10
-65.8031
 20
44.6219
 11
-65.9033
 21
44.7312
  0
LINE
  8
0
 10
-65.9033
 20
44.7312
 11
-65.9935
 21
44.8489
  0
LINE
  8
0
 10
-65.9935
 20
44.8489
 11
-66.0732
 21
44.974
  0
LINE
  8
0
 10
-66.0732
 20
44.974
 11
-66.1417
 21
45.1055
  0
LINE
  8
0
 10
-66.1417
 20
45.1055
 11
-66.1985
 21
45.2426
  0
LINE
  8
0
 10
-66.1985
 20
45.2426
 11
-66.2431
 21
45.384
  0
LINE
  8
0
 10
-66.2431
 20
45.384
 11
-66.2752
 21
45.5288
  0
LINE
  8
0
 10
-66.2752
 20
45.5288
 11
-66.2945
 21
45.6758
  0
LINE
  8
0
 10
-66.2945
 20
45.6758
 11
-66.301
 21
45.824
  0
LINE
  8
0
 10
-66.301
 20
45.824
 11
-66.2945
 21
45.9722
  0
LINE
  8
0
 10
-66.2945
 20
45.9722
 11
-66.2752
 21
46.1192
  0
LINE
  8
0
 10
-66.2752
 20
46.1192
 11
-66.2431
 21
46.264
  0
LINE
  8
0
 10
-66.2431
 20
46.264
 11
-66.1985
 21
46.4054
  0
LINE
  8
0
 10
-66.1985
 20
46.4054
 11
-66.1417
 21
46.5424
  0
LINE
  8
0
 10
-66.1417
 20
46.5424
 11
-66.0732
 21
46.674
  0
LINE
  8
0
 10
-66.0732
 20
46.674
 11
-65.9935
 21
46.7991
  0
LINE
  8
0
 10
-65.9935
 20
46.7991
 11
-65.9033
 21
46.9167
  0
LINE
  8
0
 10
-65.9033
 20
46.9167
 11
-65.8031
 21
47.0261
  0
LINE
  8
0
 10
-65.8031
 20
47.0261
 11
-65.6937
 21
47.1263
  0
LINE
  8
0
 10
-65.6937
 20
47.1263
 11
-65.5761
 21
47.2166
  0
LINE
  8
0
 10
-65.5761
 20
47.2166
 11
-65.451
 21
47.2962
  0
LINE
  8
0
 10
-65.451
 20
47.2962
 11
-65.3194
 21
47.3647
  0
LINE
  8
0
 10
-65.3194
 20
47.3647
 11
-65.1824
 21
47.4215
  0
LINE
  8
0
 10
-65.1824
 20
47.4215
 11
-65.041
 21
47.4661
  0
LINE
  8
0
 10
-65.041
 20
47.4661
 11
-64.8962
 21
47.4982
  0
LINE
  8
0
 10
-64.8962
 20
47.4982
 11
-64.7492
 21
47.5175
  0
LINE
  8
0
 10
-64.7492
 20
47.5175
 11
-64.601
 21
47.524
  0
LINE
  8
0
 10
-64.601
 20
47.524
 11
-64.4528
 21
47.5175
  0
LINE
  8
0
 10
-64.4528
 20
47.5175
 11
-64.3058
 21
47.4982
  0
LINE
  8
0
 10
-64.3058
 20
47.4982
 11
-64.161
 21
47.4661
  0
LINE
  8
0
 10
-64.161
 20
47.4661
 11
-64.0196
 21
47.4215
  0
LINE
  8
0
 10
-64.0196
 20
47.4215
 11
-63.8825
 21
47.3647
  0
LINE
  8
0
 10
-63.8825
 20
47.3647
 11
-63.751
 21
47.2962
  0
LINE
  8
0
 10
-63.751
 20
47.2962
 11
-63.6259
 21
47.2166
  0
LINE
  8
0
 10
-63.6259
 20
47.2166
 11
-63.5083
 21
47.1263
  0
LINE
  8
0
 10
-63.5083
 20
47.1263
 11
-63.3989
 21
47.0261
  0
LINE
  8
0
 10
-63.3989
 20
47.0261
 11
-63.2987
 21
46.9167
  0
LINE
  8
0
 10
-63.2987
 20
46.9167
 11
-63.2084
 21
46.7991
  0
LINE
  8
0
 10
-63.2084
 20
46.7991
 11
-63.1288
 21
46.674
  0
LINE
  8
0
 10
-63.1288
 20
46.674
 11
-63.0603
 21
46.5424
  0
LINE
  8
0
 10
-63.0603
 20
46.5424
 11
-63.0035
 21
46.4054
  0
LINE
  8
0
 10
-63.0035
 20
46.4054
 11
-62.9589
 21
46.264
  0
LINE
  8
0
 10
-62.9589
 20
46.264
 11
-62.9268
 21
46.1192
  0
LINE
  8
0
 10
-62.9268
 20
46.1192
 11
-62.9075
 21
45.9722
  0
LINE
  8
0
 10
-62.9075
 20
45.9722
 11
-62.901
 21
45.824
  0
LINE
  8
0
 10
-62.901
 20
45.824
 11
-62.9075
 21
45.6758
  0
LINE
  8
0
 10
-62.9075
 20
45.6758
 11
-62.9268
 21
45.5288
  0
LINE
  8
0
 10
-62.9268
 20
45.5288
 11
-62.9589
 21
45.384
  0
LINE
  8
0
 10
-62.9589
 20
45.384
 11
-63.0035
 21
45.2426
  0
LINE
  8
0
 10
-63.0035
 20
45.2426
 11
-63.0603
 21
45.1055
  0
LINE
  8
0
 10
-63.0603
 20
45.1055
 11
-63.1288
 21
44.974
  0
LINE
  8
0
 10
-63.1288
 20
44.974
 11
-63.2084
 21
44.8489
  0
LINE
  8
0
 10
-63.2084
 20
44.8489
 11
-63.2987
 21
44.7312
  0
LINE
  8
0
 10
-63.2987
 20
44.7312
 11
-63.3989
 21
44.6219
  0
LINE
  8
0
 10
-63.3989
 20
44.6219
 11
-63.5083
 21
44.5217
  0
LINE
  8
0
 10
-63.5083
 20
44.5217
 11
-63.6259
 21
44.4314
  0
LINE
  8
0
 10
-63.6259
 20
44.4314
 11
-63.751
 21
44.3517
  0
LINE
  8
0
 10
-63.751
 20
44.3517
 11
-63.8825
 21
44.2833
  0
LINE
  8
0
 10
-63.8825
 20
44.2833
 11
-64.0196
 21
44.2265
  0
LINE
  8
0
 10
-64.0196
 20
44.2265
 11
-64.161
 21
44.1819
  0
LINE
  8
0
 10
-64.161
 20
44.1819
 11
-64.3058
 21
44.1498
  0
LINE
  8
0
 10
-64.3058
 20
44.1498
 11
-64.4528
 21
44.1305
  0
LINE
  8
0
 10
-64.4528
 20
44.1305
 11
-64.601
 21
44.124
  0
LINE
  8
0
 10
-64.601
 20
44.124
 11
-64.7492
 21
44.1305
  0
LINE
  8
0
 10
-59.835
 20
-34.85
 11
-59.835
 21
42.55
  0
LINE
  8
0
 10
-59.835
 20
42.55
 11
-32.635
 21
42.55
  0
LINE
  8
0
 10
-32.635
 20
42.55
 11
-32.635
 21
43.75
  0
LINE
  8
0
 10
-32.635
 20
43.75
 11
38.365
 21
43.75
  0
LINE
  8
0
 10
38.365
 20
43.75
 11
38.365
 21
42.55
  0
LINE
  8
0
 10
38.365
 20
42.55
 11
62.565
 21
42.55
  0
LINE
  8
0
 10
62.565
 20
42.55
 11
62.565
 21
-34.85
  0
LINE
  8
0
 10
62.565
 20
-34.85
 11
-59.835
 21
-34.85
  0
LINE
  8
0
 10
67.1828
 20
-44.5375
 11
67.0358
 21
-44.5182
  0
LINE
  8
0
 10
67.0358
 20
-44.5182
 11
66.891
 21
-44.4861
  0
LINE
  8
0
 10
66.891
 20
-44.4861
 11
66.7496
 21
-44.4415
  0
LINE
  8
0
 10
66.7496
 20
-44.4415
 11
66.6125
 21
-44.3847
  0
LINE
  8
0
 10
66.6125
 20
-44.3847
 11
66.481
 21
-44.3162
  0
LINE
  8
0
 10
66.481
 20
-44.3162
 11
66.3559
 21
-44.2366
  0
LINE
  8
0
 10
66.3559
 20
-44.2366
 11
66.2383
 21
-44.1463
  0
LINE
  8
0
 10
66.2383
 20
-44.1463
 11
66.1289
 21
-44.0461
  0
LINE
  8
0
 10
66.1289
 20
-44.0461
 11
66.0287
 21
-43.9367
  0
LINE
  8
0
 10
66.0287
 20
-43.9367
 11
65.9384
 21
-43.8191
  0
LINE
  8
0
 10
65.9384
 20
-43.8191
 11
65.8587
 21
-43.694
  0
LINE
  8
0
 10
65.8587
 20
-43.694
 11
65.7903
 21
-43.5624
  0
LINE
  8
0
 10
65.7903
 20
-43.5624
 11
65.7335
 21
-43.4254
  0
LINE
  8
0
 10
65.7335
 20
-43.4254
 11
65.6889
 21
-43.284
  0
LINE
  8
0
 10
65.6889
 20
-43.284
 11
65.6568
 21
-43.1392
  0
LINE
  8
0
 10
65.6568
 20
-43.1392
 11
65.6375
 21
-42.9922
  0
LINE
  8
0
 10
65.6375
 20
-42.9922
 11
65.631
 21
-42.844
  0
LINE
  8
0
 10
65.631
 20
-42.844
 11
65.6375
 21
-42.6958
  0
LINE
  8
0
 10
65.6375
 20
-42.6958
 11
65.6568
 21
-42.5488
  0
LINE
  8
0
 10
65.6568
 20
-42.5488
 11
65.6889
 21
-42.404
  0
LINE
  8
0
 10
65.6889
 20
-42.404
 11
65.7335
 21
-42.2626
  0
LINE
  8
0
 10
65.7335
 20
-42.2626
 11
65.7903
 21
-42.1255
  0
LINE
  8
0
 10
65.7903
 20
-42.1255
 11
65.8587
 21
-41.994
  0
LINE
  8
0
 10
65.8587
 20
-41.994
 11
65.9384
 21
-41.8689
  0
LINE
  8
0
 10
65.9384
 20
-41.8689
 11
66.0287
 21
-41.7513
  0
LINE
  8
0
 10
66.0287
 20
-41.7513
 11
66.1289
 21
-41.6419
  0
LINE
  8
0
 10
66.1289
 20
-41.6419
 11
66.2383
 21
-41.5417
  0
LINE
  8
0
 10
66.2383
 20
-41.5417
 11
66.3559
 21
-41.4514
  0
LINE
  8
0
 10
66.3559
 20
-41.4514
 11
66.481
 21
-41.3717
  0
LINE
  8
0
 10
66.481
 20
-41.3717
 11
66.6125
 21
-41.3033
  0
LINE
  8
0
 10
66.6125
 20
-41.3033
 11
66.7496
 21
-41.2465
  0
LINE
  8
0
 10
66.7496
 20
-41.2465
 11
66.891
 21
-41.2019
  0
LINE
  8
0
 10
66.891
 20
-41.2019
 11
67.0358
 21
-41.1698
  0
LINE
  8
0
 10
67.0358
 20
-41.1698
 11
67.1828
 21
-41.1505
  0
LINE
  8
0
 10
67.1828
 20
-41.1505
 11
67.331
 21
-41.144
  0
LINE
  8
0
 10
67.331
 20
-41.144
 11
67.4792
 21
-41.1505
  0
LINE
  8
0
 10
67.4792
 20
-41.1505
 11
67.6262
 21
-41.1698
  0
LINE
  8
0
 10
67.6262
 20
-41.1698
 11
67.771
 21
-41.2019
  0
LINE
  8
0
 10
67.771
 20
-41.2019
 11
67.9124
 21
-41.2465
  0
LINE
  8
0
 10
67.9124
 20
-41.2465
 11
68.0494
 21
-41.3033
  0
LINE
  8
0
 10
68.0494
 20
-41.3033
 11
68.181
 21
-41.3717
  0
LINE
  8
0
 10
68.181
 20
-41.3717
 11
68.3061
 21
-41.4514
  0
LINE
  8
0
 10
68.3061
 20
-41.4514
 11
68.4237
 21
-41.5417
  0
LINE
  8
0
 10
68.4237
 20
-41.5417
 11
68.5331
 21
-41.6419
  0
LINE
  8
0
 10
68.5331
 20
-41.6419
 11
68.6333
 21
-41.7513
  0
LINE
  8
0
 10
68.6333
 20
-41.7513
 11
68.7236
 21
-41.8689
  0
LINE
  8
0
 10
68.7236
 20
-41.8689
 11
68.8032
 21
-41.994
  0
LINE
  8
0
 10
68.8032
 20
-41.994
 11
68.8717
 21
-42.1255
  0
LINE
  8
0
 10
68.8717
 20
-42.1255
 11
68.9285
 21
-42.2626
  0
LINE
  8
0
 10
68.9285
 20
-42.2626
 11
68.9731
 21
-42.404
  0
LINE
  8
0
 10
68.9731
 20
-42.404
 11
69.0052
 21
-42.5488
  0
LINE
  8
0
 10
69.0052
 20
-42.5488
 11
69.0245
 21
-42.6958
  0
LINE
  8
0
 10
69.0245
 20
-42.6958
 11
69.031
 21
-42.844
  0
LINE
  8
0
 10
69.031
 20
-42.844
 11
69.0245
 21
-42.9922
  0
LINE
  8
0
 10
69.0245
 20
-42.9922
 11
69.0052
 21
-43.1392
  0
LINE
  8
0
 10
69.0052
 20
-43.1392
 11
68.9731
 21
-43.284
  0
LINE
  8
0
 10
68.9731
 20
-43.284
 11
68.9285
 21
-43.4254
  0
LINE
  8
0
 10
68.9285
 20
-43.4254
 11
68.8717
 21
-43.5624
  0
LINE
  8
0
 10
68.8717
 20
-43.5624
 11
68.8032
 21
-43.694
  0
LINE
  8
0
 10
68.8032
 20
-43.694
 11
68.7236
 21
-43.8191
  0
LINE
  8
0
 10
68.7236
 20
-43.8191
 11
68.6333
 21
-43.9367
  0
LINE
  8
0
 10
68.6333
 20
-43.9367
 11
68.5331
 21
-44.0461
  0
LINE
  8
0
 10
68.5331
 20
-44.0461
 11
68.4237
 21
-44.1463
  0
LINE
  8
0
 10
68.4237
 20
-44.1463
 11
68.3061
 21
-44.2366
  0
LINE
  8
0
 10
68.3061
 20
-44.2366
 11
68.181
 21
-44.3162
  0
LINE
  8
0
 10
68.181
 20
-44.3162
 11
68.0494
 21
-44.3847
  0
LINE
  8
0
 10
68.0494
 20
-44.3847
 11
67.9124
 21
-44.4415
  0
LINE
  8
0
 10
67.9124
 20
-44.4415
 11
67.771
 21
-44.4861
  0
LINE
  8
0
 10
67.771
 20
-44.4861
 11
67.6262
 21
-44.5182
  0
LINE
  8
0
 10
67.6262
 20
-44.5182
 11
67.4792
 21
-44.5375
  0
LINE
  8
0
 10
67.4792
 20
-44.5375
 11
67.331
 21
-44.544
  0
LINE
  8
0
 10
67.331
 20
-44.544
 11
67.1828
 21
-44.5375
  0
LINE
  8
0
 10
-64.7492
 20
-44.5375
 11
-64.8962
 21
-44.5182
  0
LINE
  8
0
 10
-64.8962
 20
-44.5182
 11
-65.041
 21
-44.4861
  0
LINE
  8
0
 10
-65.041
 20
-44.4861
 11
-65.1824
 21
-44.4415
  0
LINE
  8
0
 10
-65.1824
 20
-44.4415
 11
-65.3194
 21
-44.3847
  0
LINE
  8
0
 10
-65.3194
 20
-44.3847
 11
-65.451
 21
-44.3162
  0
LINE
  8
0
 10
-65.451
 20
-44.3162
 11
-65.5761
 21
-44.2366
  0
LINE
  8
0
 10
-65.5761
 20
-44.2366
 11
-65.6937
 21
-44.1463
  0
LINE
  8
0
 10
-65.6937
 20
-44.1463
 11
-65.8031
 21
-44.0461
  0
LINE
  8
0
 10
-65.8031
 20
-44.0461
 11
-65.9033
 21
-43.9367
  0
LINE
  8
0
 10
-65.9033
 20
-43.9367
 11
-65.9935
 21
-43.8191
  0
LINE
  8
0
 10
-65.9935
 20
-43.8191
 11
-66.0732
 21
-43.694
  0
LINE
  8
0
 10
-66.0732
 20
-43.694
 11
-66.1417
 21
-43.5624
  0
LINE
  8
0
 10
-66.1417
 20
-43.5624
 11
-66.1985
 21
-43.4254
  0
LINE
  8
0
 10
-66.1985
 20
-43.4254
 11
-66.2431
 21
-43.284
  0
LINE
  8
0
 10
-66.2431
 20
-43.284
 11
-66.2752
 21
-43.1392
  0
LINE
  8
0
 10
-66.2752
 20
-43.1392
 11
-66.2945
 21
-42.9922
  0
LINE
  8
0
 10
-66.2945
 20
-42.9922
 11
-66.301
 21
-42.844
  0
LINE
  8
0
 10
-66.301
 20
-42.844
 11
-66.2945
 21
-42.6958
  0
LINE
  8
0
 10
-66.2945
 20
-42.6958
 11
-66.2752
 21
-42.5488
  0
LINE
  8
0
 10
-66.2752
 20
-42.5488
 11
-66.2431
 21
-42.404
  0
LINE
  8
0
 10
-66.2431
 20
-42.404
 11
-66.1985
 21
-42.2626
  0
LINE
  8
0
 10
-66.1985
 20
-42.2626
 11
-66.1417
 21
-42.1255
  0
LINE
  8
0
 10
-66.1417
 20
-42.1255
 11
-66.0732
 21
-41.994
  0
LINE
  8
0
 10
-66.0732
 20
-41.994
 11
-65.9935
 21
-41.8689
  0
LINE
  8
0
 10
-65.9935
 20
-41.8689
 11
-65.9033
 21
-41.7513
  0
LINE
  8
0
 10
-65.9033
 20
-41.7513
 11
-65.8031
 21
-41.6419
  0
LINE
  8
0
 10
-65.8031
 20
-41.6419
 11
-65.6937
 21
-41.5417
  0
LINE
  8
0
 10
-65.6937
 20
-41.5417
 11
-65.5761
 21
-41.4514
  0
LINE
  8
0
 10
-65.5761
 20
-41.4514
 11
-65.451
 21
-41.3717
  0
LINE
  8
0
 10
-65.451
 20
-41.3717
 11
-65.3194
 21
-41.3033
  0
LINE
  8
0
 10
-65.3194
 20
-41.3033
 11
-65.1824
 21
-41.2465
  0
LINE
  8
0
 10
-65.1824
 20
-41.2465
 11
-65.041
 21
-41.2019
  0
LINE
  8
0
 10
-65.041
 20
-41.2019
 11
-64.8962
 21
-41.1698
  0
LINE
  8
0
 10
-64.8962
 20
-41.1698
 11
-64.7492
 21
-41.1505
  0
LINE
  8
0
 10
-64.7492
 20
-41.1505
 11
-64.601
 21
-41.144
  0
LINE
  8
0
 10
-64.601
 20
-41.144
 11
-64.4528
 21
-41.1505
  0
LINE
  8
0
 10
-64.4528
 20
-41.1505
 11
-64.3058
 21
-41.1698
  0
LINE
  8
0
 10
-64.3058
 20
-41.1698
 11
-64.161
 21
-41.2019
  0
LINE
  8
0
 10
-64.161
 20
-41.2019
 11
-64.0196
 21
-41.2465
  0
LINE
  8
0
 10
-64.0196
 20
-41.2465
 11
-63.8825
 21
-41.3033
  0
LINE
  8
0
 10
-63.8825
 20
-41.3033
 11
-63.751
 21
-41.3717
  0
LINE
  8
0
 10
-63.751
 20
-41.3717
 11
-63.6259
 21
-41.4514
  0
LINE
  8
0
 10
-63.6259
 20
-41.4514
 11
-63.5083
 21
-41.5417
  0
LINE
  8
0
 10
-63.5083
 20
-41.5417
 11
-63.3989
 21
-41.6419
  0
LINE
  8
0
 10
-63.3989
 20
-41.6419
 11
-63.2987
 21
-41.7513
  0
LINE
  8
0
 10
-63.2987
 20
-41.7513
 11
-63.2084
 21
-41.8689
  0
LINE
  8
0
 10
-63.2084
 20
-41.8689
 11
-63.1288
 21
-41.994
  0
LINE
  8
0
 10
-63.1288
 20
-41.994
 11
-63.0603
 21
-42.1255
  0
LINE
  8
0
 10
-63.0603
 20
-42.1255
 11
-63.0035
 21
-42.2626
  0
LINE
  8
0
 10
-63.0035
 20
-42.2626
 11
-62.9589
 21
-42.404
  0
LINE
  8
0
 10
-62.9589
 20
-42.404
 11
-62.9268
 21
-42.5488
  0
LINE
  8
0
 10
-62.9268
 20
-42.5488
 11
-62.9075
 21
-42.6958
  0
LINE
  8
0
 10
-62.9075
 20
-42.6958
 11
-62.901
 21
-42.844
  0
LINE
  8
0
 10
-62.901
 20
-42.844
 11
-62.9075
 21
-42.9922
  0
LINE
  8
0
 10
-62.9075
 20
-42.9922
 11
-62.9268
 21
-43.1392
  0
LINE
  8
0
 10
-62.9268
 20
-43.1392
 11
-62.9589
 21
-43.284
  0
LINE
  8
0
 10
-62.9589
 20
-43.284
 11
-63.0035
 21
-43.4254
  0
LINE
  8
0
 10
-63.0035
 20
-43.4254
 11
-63.0603
 21
-43.5624
  0
LINE
  8
0
 10
-63.0603
 20
-43.5624
 11
-63.1288
 21
-43.694
  0
LINE
  8
0
 10
-63.1288
 20
-43.694
 11
-63.2084
 21
-43.8191
  0
LINE
  8
0
 10
-63.2084
 20
-43.8191
 11
-63.2987
 21
-43.9367
  0
LINE
  8
0
 10
-63.2987
 20
-43.9367
 11
-63.3989
 21
-44.0461
  0
LINE
  8
0
 10
-63.3989
 20
-44.0461
 11
-63.5083
 21
-44.1463
  0
LINE
  8
0
 10
-63.5083
 20
-44.1463
 11
-63.6259
 21
-44.2366
  0
LINE
  8
0
 10
-63.6259
 20
-44.2366
 11
-63.751
 21
-44.3162
  0
LINE
  8
0
 10
-63.751
 20
-44.3162
 11
-63.8825
 21
-44.3847
  0
LINE
  8
0
 10
-63.8825
 20
-44.3847
 11
-64.0196
 21
-44.4415
  0
LINE
  8
0
 10
-64.0196
 20
-44.4415
 11
-64.161
 21
-44.4861
  0
LINE
  8
0
 10
-64.161
 20
-44.4861
 11
-64.3058
 21
-44.5182
  0
LINE
  8
0
 10
-64.3058
 20
-44.5182
 11
-64.4528
 21
-44.5375
  0
LINE
  8
0
 10
-64.4528
 20
-44.5375
 11
-64.601
 21
-44.544
  0
LINE
  8
0
 10
-64.601
 20
-44.544
 11
-64.7492
 21
-44.5375
  0
ENDSEC
  0
SECTION
  2
OBJECTS
  0
DICTIONARY
  0
ENDSEC
  0
EOF
