G04 #@! TF.GenerationSoftware,KiCad,Pcbnew,10.0.6*
G04 #@! TF.CreationDate,2026-10-01T10:28:19+09:00*
G04 #@! TF.ProjectId,w5500-esp32,77353530-302d-4657-9370-33322e6b6963,rev?*
G04 #@! TF.SameCoordinates,Original*
G04 #@! TF.FileFunction,Copper,L4,Bot*
G04 #@! TF.FilePolarity,Positive*
%FSLAX46Y46*%
G04 Gerber Fmt 4.6, Leading zero omitted, Abs format (unit mm)*
G04 Created by KiCad (PCBNEW 10.0.6) date 2026-10-01 10:28:19*
%MOMM*%
%LPD*%
G01*
G04 APERTURE LIST*
G04 Aperture macros list*
%AMRoundRect*
0 Rectangle with rounded corners*
0 $1 Rounding radius*
0 $2 $3 $4 $5 $6 $7 $8 $9 X,Y pos of 4 corners*
0 Add a 4 corners polygon primitive as box body*
4,1,4,$2,$3,$4,$5,$6,$7,$8,$9,$2,$3,0*
0 Add four circle primitives for the rounded corners*
1,1,$1+$1,$2,$3*
1,1,$1+$1,$4,$5*
1,1,$1+$1,$6,$7*
1,1,$1+$1,$8,$9*
0 Add four rect primitives between the rounded corners*
20,1,$1+$1,$2,$3,$4,$5,0*
20,1,$1+$1,$4,$5,$6,$7,0*
20,1,$1+$1,$6,$7,$8,$9,0*
20,1,$1+$1,$8,$9,$2,$3,0*%
G04 Aperture macros list end*
G04 #@! TA.AperFunction,ComponentPad*
%ADD10RoundRect,0.250000X-0.600000X-0.750000X0.600000X-0.750000X0.600000X0.750000X-0.600000X0.750000X0*%
G04 #@! TD*
G04 #@! TA.AperFunction,ComponentPad*
%ADD11O,1.700000X2.000000*%
G04 #@! TD*
G04 #@! TA.AperFunction,ComponentPad*
%ADD12R,1.700000X1.700000*%
G04 #@! TD*
G04 #@! TA.AperFunction,ComponentPad*
%ADD13C,1.700000*%
G04 #@! TD*
G04 #@! TA.AperFunction,ComponentPad*
%ADD14RoundRect,0.250000X-0.550000X-0.550000X0.550000X-0.550000X0.550000X0.550000X-0.550000X0.550000X0*%
G04 #@! TD*
G04 #@! TA.AperFunction,ComponentPad*
%ADD15C,1.600000*%
G04 #@! TD*
G04 #@! TA.AperFunction,ComponentPad*
%ADD16RoundRect,0.250000X0.750000X-0.600000X0.750000X0.600000X-0.750000X0.600000X-0.750000X-0.600000X0*%
G04 #@! TD*
G04 #@! TA.AperFunction,ComponentPad*
%ADD17O,2.000000X1.700000*%
G04 #@! TD*
G04 #@! TA.AperFunction,ComponentPad*
%ADD18R,2.000000X1.905000*%
G04 #@! TD*
G04 #@! TA.AperFunction,ComponentPad*
%ADD19O,2.000000X1.905000*%
G04 #@! TD*
G04 #@! TA.AperFunction,ComponentPad*
%ADD20RoundRect,0.250000X-1.125000X-1.125000X1.125000X-1.125000X1.125000X1.125000X-1.125000X1.125000X0*%
G04 #@! TD*
G04 #@! TA.AperFunction,ComponentPad*
%ADD21C,2.750000*%
G04 #@! TD*
G04 #@! TA.AperFunction,ComponentPad*
%ADD22R,1.500000X1.500000*%
G04 #@! TD*
G04 #@! TA.AperFunction,ComponentPad*
%ADD23C,1.500000*%
G04 #@! TD*
G04 #@! TA.AperFunction,ViaPad*
%ADD24C,0.800000*%
G04 #@! TD*
G04 #@! TA.AperFunction,Conductor*
%ADD25C,0.300000*%
G04 #@! TD*
G04 #@! TA.AperFunction,Conductor*
%ADD26C,0.800000*%
G04 #@! TD*
G04 #@! TA.AperFunction,Conductor*
%ADD27C,0.600000*%
G04 #@! TD*
G04 #@! TA.AperFunction,Conductor*
%ADD28C,4.000000*%
G04 #@! TD*
G04 #@! TA.AperFunction,Conductor*
%ADD29C,2.000000*%
G04 #@! TD*
G04 APERTURE END LIST*
D10*
X80000000Y-88000000D03*
D11*
X82500000Y-88000000D03*
D12*
X75840000Y-53360000D03*
D13*
X75840000Y-55900000D03*
X75840000Y-58440000D03*
X75840000Y-60980000D03*
X75840000Y-63520000D03*
X75840000Y-66060000D03*
X96160000Y-53360000D03*
X96160000Y-55900000D03*
X96160000Y-58440000D03*
X96160000Y-60980000D03*
X96160000Y-63520000D03*
X96160000Y-66060000D03*
D14*
X110500000Y-85960000D03*
D15*
X112500000Y-85960000D03*
D14*
X110500000Y-128260000D03*
D15*
X112500000Y-128260000D03*
X68000000Y-91460000D03*
X68000000Y-86380000D03*
X68000000Y-82460000D03*
X68000000Y-77380000D03*
X68000000Y-100460000D03*
X68000000Y-95380000D03*
D16*
X69000000Y-134500000D03*
D17*
X69000000Y-132000000D03*
D15*
X71500000Y-118460000D03*
X71500000Y-113380000D03*
D18*
X112000000Y-94420000D03*
D19*
X112000000Y-96960000D03*
X112000000Y-99500000D03*
D18*
X112000000Y-116420000D03*
D19*
X112000000Y-118960000D03*
X112000000Y-121500000D03*
D15*
X71500000Y-100460000D03*
X71500000Y-95380000D03*
X68000000Y-64460000D03*
X68000000Y-59380000D03*
D20*
X109000000Y-141660000D03*
D21*
X114400000Y-141660000D03*
D13*
X77300000Y-159960000D03*
X77300000Y-157420000D03*
X77300000Y-154880000D03*
X77300000Y-152340000D03*
X77300000Y-149800000D03*
X77300000Y-147260000D03*
X77300000Y-144720000D03*
X77300000Y-142180000D03*
X77300000Y-139640000D03*
X77300000Y-137100000D03*
X77300000Y-134560000D03*
X77300000Y-132020000D03*
X77300000Y-129480000D03*
X77300000Y-126940000D03*
X77300000Y-124400000D03*
X77300000Y-121860000D03*
X77300000Y-119320000D03*
X77300000Y-116780000D03*
X77300000Y-114240000D03*
X77300000Y-111700000D03*
X102700000Y-159960000D03*
X102700000Y-157420000D03*
X102700000Y-154880000D03*
X102700000Y-152340000D03*
X102700000Y-149800000D03*
X102700000Y-147260000D03*
X102700000Y-144720000D03*
X102700000Y-142180000D03*
X102700000Y-139640000D03*
X102700000Y-137100000D03*
X102700000Y-134560000D03*
X102700000Y-132020000D03*
X102700000Y-129480000D03*
X102700000Y-126940000D03*
X102700000Y-124400000D03*
X102700000Y-121860000D03*
X102700000Y-119320000D03*
X102700000Y-116780000D03*
X102700000Y-114240000D03*
X102700000Y-111700000D03*
D22*
X110200000Y-135460000D03*
D23*
X112740000Y-135460000D03*
X115280000Y-135460000D03*
D18*
X112000000Y-72420000D03*
D19*
X112000000Y-74960000D03*
X112000000Y-77500000D03*
D14*
X110500000Y-107960000D03*
D15*
X112500000Y-107960000D03*
X68000000Y-73460000D03*
X68000000Y-68380000D03*
D22*
X117300000Y-135460000D03*
D23*
X119840000Y-135460000D03*
X122380000Y-135460000D03*
D10*
X92000000Y-88000000D03*
D11*
X94500000Y-88000000D03*
D15*
X71500000Y-109460000D03*
X71500000Y-104380000D03*
D20*
X114000000Y-52460000D03*
D21*
X119400000Y-52460000D03*
D24*
X73284900Y-98967500D03*
X97390600Y-108370900D03*
X107123600Y-112046900D03*
X105821900Y-101386300D03*
D25*
X72620000Y-95380000D02*
X80000000Y-88000000D01*
X71500000Y-95380000D02*
X72620000Y-95380000D01*
D26*
X111650100Y-75309900D02*
X101839200Y-65499000D01*
X112000000Y-74960000D02*
X111650100Y-75309900D01*
X110175900Y-85635900D02*
X110500000Y-85960000D01*
X110175900Y-76784100D02*
X110175900Y-85635900D01*
X74422000Y-98967500D02*
X87429500Y-85960000D01*
X111650100Y-75309900D02*
X110175900Y-76784100D01*
X87429500Y-85960000D02*
X110500000Y-85960000D01*
X101839200Y-64119200D02*
X96160000Y-58440000D01*
X101839200Y-65499000D02*
X101839200Y-64119200D01*
X73284900Y-98967500D02*
X74422000Y-98967500D01*
D25*
X103274300Y-124400000D02*
X102700000Y-124400000D01*
X108201900Y-113467500D02*
X104098300Y-117571100D01*
X97390600Y-108370900D02*
X76509100Y-108370900D01*
X97390600Y-108370900D02*
X104935100Y-108370900D01*
X76509100Y-108370900D02*
X71500000Y-113380000D01*
X108201900Y-111637700D02*
X108201900Y-113467500D01*
X104935100Y-108370900D02*
X108201900Y-111637700D01*
X104098300Y-123576000D02*
X103274300Y-124400000D01*
X104098300Y-117571100D02*
X104098300Y-123576000D01*
X68446800Y-102620700D02*
X100850500Y-102620700D01*
X66616700Y-100790600D02*
X68446800Y-102620700D01*
X100850500Y-102620700D02*
X115280000Y-117050200D01*
X66616700Y-92843300D02*
X66616700Y-100790600D01*
X68000000Y-91460000D02*
X66616700Y-92843300D01*
X115280000Y-117050200D02*
X115280000Y-135460000D01*
X66031800Y-84428200D02*
X66031800Y-101002600D01*
X100585700Y-103178300D02*
X112000000Y-114592600D01*
X66031800Y-101002600D02*
X68207500Y-103178300D01*
X112000000Y-114592600D02*
X112000000Y-116420000D01*
X68000000Y-82460000D02*
X66031800Y-84428200D01*
X68207500Y-103178300D02*
X100585700Y-103178300D01*
X122380000Y-123328200D02*
X101111700Y-102059900D01*
X69599900Y-102059900D02*
X68000000Y-100460000D01*
X101111700Y-102059900D02*
X69599900Y-102059900D01*
X122380000Y-135460000D02*
X122380000Y-123328200D01*
D27*
X78480800Y-157420000D02*
X89944900Y-145955900D01*
X89944900Y-122107900D02*
X102023300Y-110029500D01*
X102023300Y-110029500D02*
X105106200Y-110029500D01*
X105106200Y-110029500D02*
X107123600Y-112046900D01*
X77300000Y-157420000D02*
X78480800Y-157420000D01*
X89944900Y-145955900D02*
X89944900Y-122107900D01*
D26*
X71500000Y-100460000D02*
X104895600Y-100460000D01*
X104895600Y-100460000D02*
X105821900Y-101386300D01*
D28*
X106500000Y-141660000D02*
X109000000Y-141660000D01*
D29*
X112000000Y-118960000D02*
X106500000Y-118960000D01*
D28*
X106500000Y-118960000D02*
X106500000Y-141660000D01*
D25*
X122841900Y-136626900D02*
X123531700Y-135937100D01*
X121006900Y-136626900D02*
X122841900Y-136626900D01*
X99545100Y-89945100D02*
X96425600Y-89945100D01*
X96425600Y-89945100D02*
X93945100Y-89945100D01*
X119840000Y-135460000D02*
X121006900Y-136626900D01*
X123531700Y-135937100D02*
X123531700Y-113931700D01*
X123531700Y-113931700D02*
X99545100Y-89945100D01*
X93945100Y-89945100D02*
X92000000Y-88000000D01*
M02*
