G04 #@! TF.GenerationSoftware,KiCad,Pcbnew,10.0.6*
G04 #@! TF.CreationDate,2026-10-01T01:35:08+09:00*
G04 #@! TF.ProjectId,w5500-esp32,77353530-302d-4657-9370-33322e6b6963,rev?*
G04 #@! TF.SameCoordinates,Original*
G04 #@! TF.FileFunction,Copper,L2,Inr*
G04 #@! TF.FilePolarity,Positive*
%FSLAX46Y46*%
G04 Gerber Fmt 4.6, Leading zero omitted, Abs format (unit mm)*
G04 Created by KiCad (PCBNEW 10.0.6) date 2026-10-01 01:35:08*
%MOMM*%
%LPD*%
G01*
G04 APERTURE LIST*
G04 Aperture macros list*
%AMRoundRect*
0 Rectangle with rounded corners*
0 $1 Rounding radius*
0 $2 $3 $4 $5 $6 $7 $8 $9 X,Y pos of 4 corners*
0 Add a 4 corners polygon primitive as box body*
4,1,4,$2,$3,$4,$5,$6,$7,$8,$9,$2,$3,0*
0 Add four circle primitives for the rounded corners*
1,1,$1+$1,$2,$3*
1,1,$1+$1,$4,$5*
1,1,$1+$1,$6,$7*
1,1,$1+$1,$8,$9*
0 Add four rect primitives between the rounded corners*
20,1,$1+$1,$2,$3,$4,$5,0*
20,1,$1+$1,$4,$5,$6,$7,0*
20,1,$1+$1,$6,$7,$8,$9,0*
20,1,$1+$1,$8,$9,$2,$3,0*%
G04 Aperture macros list end*
G04 #@! TA.AperFunction,ComponentPad*
%ADD10RoundRect,0.250000X-0.600000X-0.750000X0.600000X-0.750000X0.600000X0.750000X-0.600000X0.750000X0*%
G04 #@! TD*
G04 #@! TA.AperFunction,ComponentPad*
%ADD11O,1.700000X2.000000*%
G04 #@! TD*
G04 #@! TA.AperFunction,ComponentPad*
%ADD12R,1.700000X1.700000*%
G04 #@! TD*
G04 #@! TA.AperFunction,ComponentPad*
%ADD13C,1.700000*%
G04 #@! TD*
G04 #@! TA.AperFunction,ComponentPad*
%ADD14RoundRect,0.250000X-0.550000X-0.550000X0.550000X-0.550000X0.550000X0.550000X-0.550000X0.550000X0*%
G04 #@! TD*
G04 #@! TA.AperFunction,ComponentPad*
%ADD15C,1.600000*%
G04 #@! TD*
G04 #@! TA.AperFunction,ComponentPad*
%ADD16RoundRect,0.250000X0.750000X-0.600000X0.750000X0.600000X-0.750000X0.600000X-0.750000X-0.600000X0*%
G04 #@! TD*
G04 #@! TA.AperFunction,ComponentPad*
%ADD17O,2.000000X1.700000*%
G04 #@! TD*
G04 #@! TA.AperFunction,ComponentPad*
%ADD18R,2.000000X1.905000*%
G04 #@! TD*
G04 #@! TA.AperFunction,ComponentPad*
%ADD19O,2.000000X1.905000*%
G04 #@! TD*
G04 #@! TA.AperFunction,ComponentPad*
%ADD20RoundRect,0.250000X-1.125000X-1.125000X1.125000X-1.125000X1.125000X1.125000X-1.125000X1.125000X0*%
G04 #@! TD*
G04 #@! TA.AperFunction,ComponentPad*
%ADD21C,2.750000*%
G04 #@! TD*
G04 #@! TA.AperFunction,ComponentPad*
%ADD22R,1.500000X1.500000*%
G04 #@! TD*
G04 #@! TA.AperFunction,ComponentPad*
%ADD23C,1.500000*%
G04 #@! TD*
G04 #@! TA.AperFunction,ViaPad*
%ADD24C,0.800000*%
G04 #@! TD*
G04 APERTURE END LIST*
D10*
X80000000Y-88000000D03*
D11*
X82500000Y-88000000D03*
D12*
X75840000Y-53360000D03*
D13*
X75840000Y-55900000D03*
X75840000Y-58440000D03*
X75840000Y-60980000D03*
X75840000Y-63520000D03*
X75840000Y-66060000D03*
X96160000Y-53360000D03*
X96160000Y-55900000D03*
X96160000Y-58440000D03*
X96160000Y-60980000D03*
X96160000Y-63520000D03*
X96160000Y-66060000D03*
D14*
X110500000Y-85960000D03*
D15*
X112500000Y-85960000D03*
D14*
X110500000Y-128260000D03*
D15*
X112500000Y-128260000D03*
X68000000Y-91460000D03*
X68000000Y-86380000D03*
X68000000Y-82460000D03*
X68000000Y-77380000D03*
X68000000Y-100460000D03*
X68000000Y-95380000D03*
D16*
X69000000Y-134500000D03*
D17*
X69000000Y-132000000D03*
D15*
X71500000Y-118460000D03*
X71500000Y-113380000D03*
D18*
X112000000Y-94420000D03*
D19*
X112000000Y-96960000D03*
X112000000Y-99500000D03*
D18*
X112000000Y-116420000D03*
D19*
X112000000Y-118960000D03*
X112000000Y-121500000D03*
D15*
X71500000Y-100460000D03*
X71500000Y-95380000D03*
X68000000Y-64460000D03*
X68000000Y-59380000D03*
D20*
X109000000Y-141660000D03*
D21*
X114400000Y-141660000D03*
D13*
X77300000Y-159960000D03*
X77300000Y-157420000D03*
X77300000Y-154880000D03*
X77300000Y-152340000D03*
X77300000Y-149800000D03*
X77300000Y-147260000D03*
X77300000Y-144720000D03*
X77300000Y-142180000D03*
X77300000Y-139640000D03*
X77300000Y-137100000D03*
X77300000Y-134560000D03*
X77300000Y-132020000D03*
X77300000Y-129480000D03*
X77300000Y-126940000D03*
X77300000Y-124400000D03*
X77300000Y-121860000D03*
X77300000Y-119320000D03*
X77300000Y-116780000D03*
X77300000Y-114240000D03*
X77300000Y-111700000D03*
X102700000Y-159960000D03*
X102700000Y-157420000D03*
X102700000Y-154880000D03*
X102700000Y-152340000D03*
X102700000Y-149800000D03*
X102700000Y-147260000D03*
X102700000Y-144720000D03*
X102700000Y-142180000D03*
X102700000Y-139640000D03*
X102700000Y-137100000D03*
X102700000Y-134560000D03*
X102700000Y-132020000D03*
X102700000Y-129480000D03*
X102700000Y-126940000D03*
X102700000Y-124400000D03*
X102700000Y-121860000D03*
X102700000Y-119320000D03*
X102700000Y-116780000D03*
X102700000Y-114240000D03*
X102700000Y-111700000D03*
D22*
X110200000Y-135460000D03*
D23*
X112740000Y-135460000D03*
X115280000Y-135460000D03*
D18*
X112000000Y-72420000D03*
D19*
X112000000Y-74960000D03*
X112000000Y-77500000D03*
D14*
X110500000Y-107960000D03*
D15*
X112500000Y-107960000D03*
X68000000Y-73460000D03*
X68000000Y-68380000D03*
D22*
X117300000Y-135460000D03*
D23*
X119840000Y-135460000D03*
X122380000Y-135460000D03*
D10*
X92000000Y-88000000D03*
D11*
X94500000Y-88000000D03*
D15*
X71500000Y-109460000D03*
X71500000Y-104380000D03*
D20*
X114000000Y-52460000D03*
D21*
X119400000Y-52460000D03*
D24*
X97451800Y-108992400D03*
X70904000Y-102713700D03*
X113864700Y-83745700D03*
X100161500Y-127091000D03*
X106500000Y-110934700D03*
X92000000Y-93559300D03*
G04 #@! TA.AperFunction,Conductor*
G36*
X135442539Y-46980185D02*
G01*
X135488294Y-47032989D01*
X135499500Y-47084500D01*
X135499500Y-160835500D01*
X135479815Y-160902539D01*
X135427011Y-160948294D01*
X135375500Y-160959500D01*
X103885876Y-160959500D01*
X103818837Y-160939815D01*
X103773082Y-160887011D01*
X103763138Y-160817853D01*
X103785558Y-160762615D01*
X103854620Y-160667557D01*
X103951095Y-160478217D01*
X104016757Y-160276130D01*
X104016757Y-160276127D01*
X104050000Y-160066246D01*
X104050000Y-159853753D01*
X104016757Y-159643872D01*
X104016757Y-159643869D01*
X103951095Y-159441782D01*
X103894660Y-159331024D01*
X103200000Y-160025684D01*
X103200000Y-159894174D01*
X103165925Y-159767007D01*
X103100099Y-159652993D01*
X103007007Y-159559901D01*
X102892993Y-159494075D01*
X102765826Y-159460000D01*
X102634174Y-159460000D01*
X102507007Y-159494075D01*
X102392993Y-159559901D01*
X102299901Y-159652993D01*
X102234075Y-159767007D01*
X102200000Y-159894174D01*
X102200000Y-160025686D01*
X101505337Y-159331023D01*
X101448905Y-159441780D01*
X101448905Y-159441781D01*
X101383242Y-159643869D01*
X101383242Y-159643872D01*
X101350000Y-159853753D01*
X101350000Y-160066246D01*
X101383242Y-160276127D01*
X101383242Y-160276130D01*
X101448904Y-160478217D01*
X101545379Y-160667557D01*
X101614442Y-160762615D01*
X101637922Y-160828421D01*
X101622096Y-160896475D01*
X101571991Y-160945170D01*
X101514124Y-160959500D01*
X78362887Y-160959500D01*
X78295848Y-160939815D01*
X78250093Y-160887011D01*
X78240149Y-160817853D01*
X78262569Y-160762615D01*
X78369524Y-160615405D01*
X78458884Y-160440025D01*
X78519709Y-160252826D01*
X78525533Y-160216054D01*
X78550500Y-160058422D01*
X78550500Y-159861577D01*
X78519709Y-159667173D01*
X78463465Y-159494075D01*
X78458884Y-159479975D01*
X78458882Y-159479972D01*
X78458882Y-159479970D01*
X78382990Y-159331024D01*
X78369524Y-159304595D01*
X78253828Y-159145354D01*
X78114646Y-159006172D01*
X78035025Y-158948324D01*
X77955403Y-158890474D01*
X77778787Y-158800485D01*
X77770783Y-158792926D01*
X77760482Y-158789050D01*
X77745832Y-158769362D01*
X77727990Y-158752511D01*
X77725344Y-158741826D01*
X77718773Y-158732995D01*
X77717093Y-158708509D01*
X77711195Y-158684690D01*
X77714745Y-158674271D01*
X77713992Y-158663289D01*
X77725815Y-158641784D01*
X77733732Y-158618555D01*
X77738111Y-158614660D01*
X102071023Y-158614660D01*
X102079884Y-158670602D01*
X102079884Y-158709398D01*
X102071023Y-158765337D01*
X102700000Y-159394314D01*
X102700001Y-159394314D01*
X103328975Y-158765337D01*
X103320115Y-158709398D01*
X103320115Y-158670602D01*
X103328975Y-158614660D01*
X103053026Y-158338711D01*
X131149500Y-158338711D01*
X131149500Y-158581288D01*
X131181161Y-158821785D01*
X131243947Y-159056104D01*
X131336773Y-159280205D01*
X131336777Y-159280214D01*
X131358974Y-159318661D01*
X131458064Y-159490289D01*
X131458066Y-159490292D01*
X131458067Y-159490293D01*
X131605733Y-159682736D01*
X131605739Y-159682743D01*
X131777256Y-159854260D01*
X131777263Y-159854266D01*
X131890321Y-159941018D01*
X131969711Y-160001936D01*
X132179788Y-160123224D01*
X132403900Y-160216054D01*
X132638211Y-160278838D01*
X132818586Y-160302584D01*
X132878711Y-160310500D01*
X132878712Y-160310500D01*
X133121289Y-160310500D01*
X133169388Y-160304167D01*
X133361789Y-160278838D01*
X133596100Y-160216054D01*
X133820212Y-160123224D01*
X134030289Y-160001936D01*
X134222738Y-159854265D01*
X134394265Y-159682738D01*
X134541936Y-159490289D01*
X134663224Y-159280212D01*
X134756054Y-159056100D01*
X134818838Y-158821789D01*
X134850500Y-158581288D01*
X134850500Y-158338712D01*
X134818838Y-158098211D01*
X134756054Y-157863900D01*
X134663224Y-157639788D01*
X134541936Y-157429711D01*
X134458960Y-157321574D01*
X134394266Y-157237263D01*
X134394260Y-157237256D01*
X134222743Y-157065739D01*
X134222736Y-157065733D01*
X134030293Y-156918067D01*
X134030292Y-156918066D01*
X134030289Y-156918064D01*
X133820212Y-156796776D01*
X133806323Y-156791023D01*
X133596104Y-156703947D01*
X133361785Y-156641161D01*
X133121289Y-156609500D01*
X133121288Y-156609500D01*
X132878712Y-156609500D01*
X132878711Y-156609500D01*
X132638214Y-156641161D01*
X132403895Y-156703947D01*
X132179794Y-156796773D01*
X132179785Y-156796777D01*
X131969706Y-156918067D01*
X131777263Y-157065733D01*
X131777256Y-157065739D01*
X131605739Y-157237256D01*
X131605733Y-157237263D01*
X131458067Y-157429706D01*
X131336777Y-157639785D01*
X131336773Y-157639794D01*
X131243947Y-157863895D01*
X131181161Y-158098214D01*
X131149500Y-158338711D01*
X103053026Y-158338711D01*
X102700001Y-157985686D01*
X102700000Y-157985686D01*
X102071023Y-158614660D01*
X77738111Y-158614660D01*
X77743234Y-158610104D01*
X77747656Y-158602064D01*
X77772576Y-158584013D01*
X77775971Y-158580995D01*
X77779623Y-158579014D01*
X77780025Y-158578884D01*
X77955405Y-158489524D01*
X78114646Y-158373828D01*
X78253828Y-158234646D01*
X78369524Y-158075405D01*
X78458884Y-157900025D01*
X78519709Y-157712826D01*
X78531277Y-157639788D01*
X78550500Y-157518422D01*
X78550500Y-157321580D01*
X78550499Y-157321574D01*
X78549260Y-157313753D01*
X101350000Y-157313753D01*
X101350000Y-157526246D01*
X101383242Y-157736127D01*
X101383242Y-157736130D01*
X101448904Y-157938217D01*
X101448906Y-157938220D01*
X101505338Y-158048975D01*
X102134314Y-157420000D01*
X102068488Y-157354174D01*
X102200000Y-157354174D01*
X102200000Y-157485826D01*
X102234075Y-157612993D01*
X102299901Y-157727007D01*
X102392993Y-157820099D01*
X102507007Y-157885925D01*
X102634174Y-157920000D01*
X102765826Y-157920000D01*
X102892993Y-157885925D01*
X103007007Y-157820099D01*
X103100099Y-157727007D01*
X103165925Y-157612993D01*
X103200000Y-157485826D01*
X103200000Y-157419999D01*
X103265686Y-157419999D01*
X103265686Y-157420001D01*
X103894660Y-158048975D01*
X103951092Y-157938222D01*
X104016757Y-157736130D01*
X104016757Y-157736127D01*
X104050000Y-157526246D01*
X104050000Y-157313753D01*
X104016757Y-157103872D01*
X104016757Y-157103869D01*
X103951095Y-156901782D01*
X103894660Y-156791023D01*
X103265686Y-157419999D01*
X103200000Y-157419999D01*
X103200000Y-157354174D01*
X103165925Y-157227007D01*
X103100099Y-157112993D01*
X103007007Y-157019901D01*
X102892993Y-156954075D01*
X102765826Y-156920000D01*
X102634174Y-156920000D01*
X102507007Y-156954075D01*
X102392993Y-157019901D01*
X102299901Y-157112993D01*
X102234075Y-157227007D01*
X102200000Y-157354174D01*
X102068488Y-157354174D01*
X101505337Y-156791023D01*
X101448905Y-156901780D01*
X101448905Y-156901781D01*
X101383242Y-157103869D01*
X101383242Y-157103872D01*
X101350000Y-157313753D01*
X78549260Y-157313753D01*
X78519709Y-157127173D01*
X78458882Y-156939970D01*
X78385919Y-156796773D01*
X78369524Y-156764595D01*
X78253828Y-156605354D01*
X78114646Y-156466172D01*
X78035025Y-156408324D01*
X77955403Y-156350474D01*
X77778787Y-156260485D01*
X77770783Y-156252926D01*
X77760482Y-156249050D01*
X77745832Y-156229362D01*
X77727990Y-156212511D01*
X77725344Y-156201826D01*
X77718773Y-156192995D01*
X77717093Y-156168509D01*
X77711195Y-156144690D01*
X77714745Y-156134271D01*
X77713992Y-156123289D01*
X77725815Y-156101784D01*
X77733732Y-156078555D01*
X77738111Y-156074660D01*
X102071023Y-156074660D01*
X102079884Y-156130602D01*
X102079884Y-156169398D01*
X102071023Y-156225337D01*
X102700000Y-156854314D01*
X102700001Y-156854314D01*
X103328975Y-156225337D01*
X103320115Y-156169398D01*
X103320115Y-156130602D01*
X103328975Y-156074660D01*
X102700001Y-155445686D01*
X102700000Y-155445686D01*
X102071023Y-156074660D01*
X77738111Y-156074660D01*
X77743234Y-156070104D01*
X77747656Y-156062064D01*
X77772576Y-156044013D01*
X77775971Y-156040995D01*
X77779623Y-156039014D01*
X77780025Y-156038884D01*
X77955405Y-155949524D01*
X78114646Y-155833828D01*
X78253828Y-155694646D01*
X78369524Y-155535405D01*
X78458884Y-155360025D01*
X78519709Y-155172826D01*
X78535521Y-155072993D01*
X78550500Y-154978422D01*
X78550500Y-154781580D01*
X78550499Y-154781574D01*
X78549260Y-154773753D01*
X101350000Y-154773753D01*
X101350000Y-154986246D01*
X101383242Y-155196127D01*
X101383242Y-155196130D01*
X101448904Y-155398217D01*
X101448906Y-155398220D01*
X101505338Y-155508975D01*
X102134314Y-154880000D01*
X102068488Y-154814174D01*
X102200000Y-154814174D01*
X102200000Y-154945826D01*
X102234075Y-155072993D01*
X102299901Y-155187007D01*
X102392993Y-155280099D01*
X102507007Y-155345925D01*
X102634174Y-155380000D01*
X102765826Y-155380000D01*
X102892993Y-155345925D01*
X103007007Y-155280099D01*
X103100099Y-155187007D01*
X103165925Y-155072993D01*
X103200000Y-154945826D01*
X103200000Y-154879999D01*
X103265686Y-154879999D01*
X103265686Y-154880001D01*
X103894660Y-155508975D01*
X103951092Y-155398222D01*
X104016757Y-155196130D01*
X104016757Y-155196127D01*
X104050000Y-154986246D01*
X104050000Y-154773753D01*
X104016757Y-154563872D01*
X104016757Y-154563869D01*
X103951095Y-154361782D01*
X103894660Y-154251023D01*
X103265686Y-154879999D01*
X103200000Y-154879999D01*
X103200000Y-154814174D01*
X103165925Y-154687007D01*
X103100099Y-154572993D01*
X103007007Y-154479901D01*
X102892993Y-154414075D01*
X102765826Y-154380000D01*
X102634174Y-154380000D01*
X102507007Y-154414075D01*
X102392993Y-154479901D01*
X102299901Y-154572993D01*
X102234075Y-154687007D01*
X102200000Y-154814174D01*
X102068488Y-154814174D01*
X101505337Y-154251023D01*
X101448905Y-154361780D01*
X101448905Y-154361781D01*
X101383242Y-154563869D01*
X101383242Y-154563872D01*
X101350000Y-154773753D01*
X78549260Y-154773753D01*
X78519709Y-154587173D01*
X78458882Y-154399970D01*
X78411743Y-154307455D01*
X78369524Y-154224595D01*
X78253828Y-154065354D01*
X78114646Y-153926172D01*
X78035025Y-153868324D01*
X77955403Y-153810474D01*
X77778787Y-153720485D01*
X77770783Y-153712926D01*
X77760482Y-153709050D01*
X77745832Y-153689362D01*
X77727990Y-153672511D01*
X77725344Y-153661826D01*
X77718773Y-153652995D01*
X77717093Y-153628509D01*
X77711195Y-153604690D01*
X77714745Y-153594271D01*
X77713992Y-153583289D01*
X77725815Y-153561784D01*
X77733732Y-153538555D01*
X77738111Y-153534660D01*
X102071023Y-153534660D01*
X102079884Y-153590602D01*
X102079884Y-153629398D01*
X102071023Y-153685337D01*
X102700000Y-154314314D01*
X102700001Y-154314314D01*
X103328975Y-153685337D01*
X103320115Y-153629398D01*
X103320115Y-153590602D01*
X103328975Y-153534660D01*
X102700001Y-152905686D01*
X102700000Y-152905686D01*
X102071023Y-153534660D01*
X77738111Y-153534660D01*
X77743234Y-153530104D01*
X77747656Y-153522064D01*
X77772576Y-153504013D01*
X77775971Y-153500995D01*
X77779623Y-153499014D01*
X77780025Y-153498884D01*
X77955405Y-153409524D01*
X78114646Y-153293828D01*
X78253828Y-153154646D01*
X78369524Y-152995405D01*
X78458884Y-152820025D01*
X78519709Y-152632826D01*
X78535521Y-152532993D01*
X78550500Y-152438422D01*
X78550500Y-152241580D01*
X78550499Y-152241574D01*
X78549260Y-152233753D01*
X101350000Y-152233753D01*
X101350000Y-152446246D01*
X101383242Y-152656127D01*
X101383242Y-152656130D01*
X101448904Y-152858217D01*
X101448906Y-152858220D01*
X101505338Y-152968975D01*
X102134314Y-152340000D01*
X102068488Y-152274174D01*
X102200000Y-152274174D01*
X102200000Y-152405826D01*
X102234075Y-152532993D01*
X102299901Y-152647007D01*
X102392993Y-152740099D01*
X102507007Y-152805925D01*
X102634174Y-152840000D01*
X102765826Y-152840000D01*
X102892993Y-152805925D01*
X103007007Y-152740099D01*
X103100099Y-152647007D01*
X103165925Y-152532993D01*
X103200000Y-152405826D01*
X103200000Y-152339999D01*
X103265686Y-152339999D01*
X103265686Y-152340001D01*
X103894660Y-152968975D01*
X103951092Y-152858222D01*
X104016757Y-152656130D01*
X104016757Y-152656127D01*
X104050000Y-152446246D01*
X104050000Y-152233753D01*
X104016757Y-152023872D01*
X104016757Y-152023869D01*
X103951095Y-151821782D01*
X103894660Y-151711023D01*
X103265686Y-152339999D01*
X103200000Y-152339999D01*
X103200000Y-152274174D01*
X103165925Y-152147007D01*
X103100099Y-152032993D01*
X103007007Y-151939901D01*
X102892993Y-151874075D01*
X102765826Y-151840000D01*
X102634174Y-151840000D01*
X102507007Y-151874075D01*
X102392993Y-151939901D01*
X102299901Y-152032993D01*
X102234075Y-152147007D01*
X102200000Y-152274174D01*
X102068488Y-152274174D01*
X101505337Y-151711023D01*
X101448905Y-151821780D01*
X101448905Y-151821781D01*
X101383242Y-152023869D01*
X101383242Y-152023872D01*
X101350000Y-152233753D01*
X78549260Y-152233753D01*
X78519709Y-152047173D01*
X78458882Y-151859970D01*
X78411743Y-151767455D01*
X78369524Y-151684595D01*
X78253828Y-151525354D01*
X78114646Y-151386172D01*
X78035025Y-151328324D01*
X77955403Y-151270474D01*
X77778787Y-151180485D01*
X77727990Y-151132511D01*
X77711195Y-151064690D01*
X77733732Y-150998555D01*
X77778787Y-150959515D01*
X77955403Y-150869525D01*
X77955402Y-150869525D01*
X77955405Y-150869524D01*
X78114646Y-150753828D01*
X78253828Y-150614646D01*
X78369524Y-150455405D01*
X78458884Y-150280025D01*
X78519709Y-150092826D01*
X78550500Y-149898422D01*
X78550500Y-149701577D01*
X78519709Y-149507173D01*
X78458882Y-149319970D01*
X78369523Y-149144594D01*
X78253828Y-148985354D01*
X78114646Y-148846172D01*
X78035025Y-148788324D01*
X77955403Y-148730474D01*
X77778787Y-148640485D01*
X77727990Y-148592511D01*
X77711195Y-148524690D01*
X77733732Y-148458555D01*
X77778787Y-148419515D01*
X77955403Y-148329525D01*
X77955402Y-148329525D01*
X77955405Y-148329524D01*
X78114646Y-148213828D01*
X78253828Y-148074646D01*
X78369524Y-147915405D01*
X78458884Y-147740025D01*
X78519709Y-147552826D01*
X78550500Y-147358422D01*
X78550500Y-147161577D01*
X78519709Y-146967173D01*
X78458882Y-146779970D01*
X78369523Y-146604594D01*
X78253828Y-146445354D01*
X78114646Y-146306172D01*
X77955405Y-146190476D01*
X77888370Y-146156320D01*
X77837574Y-146108345D01*
X77820779Y-146040524D01*
X77843316Y-145974389D01*
X77888370Y-145935350D01*
X77928975Y-145914660D01*
X77300001Y-145285686D01*
X77300000Y-145285686D01*
X76671023Y-145914660D01*
X76711629Y-145935350D01*
X76762425Y-145983325D01*
X76779220Y-146051146D01*
X76756683Y-146117280D01*
X76711630Y-146156319D01*
X76644597Y-146190474D01*
X76564974Y-146248324D01*
X76485354Y-146306172D01*
X76485352Y-146306174D01*
X76485351Y-146306174D01*
X76346174Y-146445351D01*
X76346174Y-146445352D01*
X76346172Y-146445354D01*
X76296485Y-146513741D01*
X76230476Y-146604594D01*
X76141117Y-146779970D01*
X76080290Y-146967173D01*
X76049500Y-147161577D01*
X76049500Y-147358422D01*
X76080290Y-147552826D01*
X76141117Y-147740029D01*
X76230476Y-147915405D01*
X76346172Y-148074646D01*
X76485354Y-148213828D01*
X76644595Y-148329524D01*
X76767992Y-148392397D01*
X76821213Y-148419515D01*
X76872009Y-148467489D01*
X76888804Y-148535310D01*
X76866267Y-148601445D01*
X76821213Y-148640485D01*
X76644594Y-148730476D01*
X76553741Y-148796485D01*
X76485354Y-148846172D01*
X76485352Y-148846174D01*
X76485351Y-148846174D01*
X76346174Y-148985351D01*
X76346174Y-148985352D01*
X76346172Y-148985354D01*
X76296485Y-149053741D01*
X76230476Y-149144594D01*
X76141117Y-149319970D01*
X76080290Y-149507173D01*
X76049500Y-149701577D01*
X76049500Y-149898422D01*
X76080290Y-150092826D01*
X76141117Y-150280029D01*
X76230476Y-150455405D01*
X76346172Y-150614646D01*
X76485354Y-150753828D01*
X76644595Y-150869524D01*
X76767992Y-150932397D01*
X76821213Y-150959515D01*
X76872009Y-151007489D01*
X76888804Y-151075310D01*
X76866267Y-151141445D01*
X76821213Y-151180485D01*
X76644594Y-151270476D01*
X76553741Y-151336485D01*
X76485354Y-151386172D01*
X76485352Y-151386174D01*
X76485351Y-151386174D01*
X76346174Y-151525351D01*
X76346174Y-151525352D01*
X76346172Y-151525354D01*
X76296485Y-151593741D01*
X76230476Y-151684594D01*
X76141117Y-151859970D01*
X76080290Y-152047173D01*
X76049500Y-152241577D01*
X76049500Y-152438422D01*
X76080290Y-152632826D01*
X76141117Y-152820029D01*
X76184762Y-152905686D01*
X76230476Y-152995405D01*
X76346172Y-153154646D01*
X76485354Y-153293828D01*
X76644595Y-153409524D01*
X76767992Y-153472397D01*
X76821213Y-153499515D01*
X76872009Y-153547489D01*
X76888804Y-153615310D01*
X76866267Y-153681445D01*
X76821213Y-153720485D01*
X76644594Y-153810476D01*
X76553741Y-153876485D01*
X76485354Y-153926172D01*
X76485352Y-153926174D01*
X76485351Y-153926174D01*
X76346174Y-154065351D01*
X76346174Y-154065352D01*
X76346172Y-154065354D01*
X76296485Y-154133741D01*
X76230476Y-154224594D01*
X76141117Y-154399970D01*
X76080290Y-154587173D01*
X76049500Y-154781577D01*
X76049500Y-154978422D01*
X76080290Y-155172826D01*
X76141117Y-155360029D01*
X76184762Y-155445686D01*
X76230476Y-155535405D01*
X76346172Y-155694646D01*
X76485354Y-155833828D01*
X76644595Y-155949524D01*
X76767992Y-156012397D01*
X76821213Y-156039515D01*
X76872009Y-156087489D01*
X76888804Y-156155310D01*
X76866267Y-156221445D01*
X76821213Y-156260485D01*
X76644594Y-156350476D01*
X76553741Y-156416485D01*
X76485354Y-156466172D01*
X76485352Y-156466174D01*
X76485351Y-156466174D01*
X76346174Y-156605351D01*
X76346174Y-156605352D01*
X76346172Y-156605354D01*
X76343160Y-156609500D01*
X76230476Y-156764594D01*
X76141117Y-156939970D01*
X76080290Y-157127173D01*
X76049500Y-157321577D01*
X76049500Y-157518422D01*
X76080290Y-157712826D01*
X76141117Y-157900029D01*
X76184762Y-157985686D01*
X76230476Y-158075405D01*
X76346172Y-158234646D01*
X76485354Y-158373828D01*
X76644595Y-158489524D01*
X76767992Y-158552397D01*
X76821213Y-158579515D01*
X76872009Y-158627489D01*
X76888804Y-158695310D01*
X76866267Y-158761445D01*
X76821213Y-158800485D01*
X76644594Y-158890476D01*
X76553741Y-158956485D01*
X76485354Y-159006172D01*
X76485352Y-159006174D01*
X76485351Y-159006174D01*
X76346174Y-159145351D01*
X76346174Y-159145352D01*
X76346172Y-159145354D01*
X76296485Y-159213741D01*
X76230476Y-159304594D01*
X76141117Y-159479970D01*
X76080290Y-159667173D01*
X76049500Y-159861577D01*
X76049500Y-160058422D01*
X76080290Y-160252826D01*
X76141117Y-160440029D01*
X76230476Y-160615405D01*
X76337431Y-160762615D01*
X76360911Y-160828420D01*
X76345086Y-160896474D01*
X76294980Y-160945169D01*
X76237113Y-160959500D01*
X64624500Y-160959500D01*
X64557461Y-160939815D01*
X64511706Y-160887011D01*
X64500500Y-160835500D01*
X64500500Y-158338711D01*
X65149500Y-158338711D01*
X65149500Y-158581288D01*
X65181161Y-158821785D01*
X65243947Y-159056104D01*
X65336773Y-159280205D01*
X65336777Y-159280214D01*
X65358974Y-159318661D01*
X65458064Y-159490289D01*
X65458066Y-159490292D01*
X65458067Y-159490293D01*
X65605733Y-159682736D01*
X65605739Y-159682743D01*
X65777256Y-159854260D01*
X65777263Y-159854266D01*
X65890321Y-159941018D01*
X65969711Y-160001936D01*
X66179788Y-160123224D01*
X66403900Y-160216054D01*
X66638211Y-160278838D01*
X66818586Y-160302584D01*
X66878711Y-160310500D01*
X66878712Y-160310500D01*
X67121289Y-160310500D01*
X67169388Y-160304167D01*
X67361789Y-160278838D01*
X67596100Y-160216054D01*
X67820212Y-160123224D01*
X68030289Y-160001936D01*
X68222738Y-159854265D01*
X68394265Y-159682738D01*
X68541936Y-159490289D01*
X68663224Y-159280212D01*
X68756054Y-159056100D01*
X68818838Y-158821789D01*
X68850500Y-158581288D01*
X68850500Y-158338712D01*
X68818838Y-158098211D01*
X68756054Y-157863900D01*
X68663224Y-157639788D01*
X68541936Y-157429711D01*
X68458960Y-157321574D01*
X68394266Y-157237263D01*
X68394260Y-157237256D01*
X68222743Y-157065739D01*
X68222736Y-157065733D01*
X68030293Y-156918067D01*
X68030292Y-156918066D01*
X68030289Y-156918064D01*
X67820212Y-156796776D01*
X67806323Y-156791023D01*
X67596104Y-156703947D01*
X67361785Y-156641161D01*
X67121289Y-156609500D01*
X67121288Y-156609500D01*
X66878712Y-156609500D01*
X66878711Y-156609500D01*
X66638214Y-156641161D01*
X66403895Y-156703947D01*
X66179794Y-156796773D01*
X66179785Y-156796777D01*
X65969706Y-156918067D01*
X65777263Y-157065733D01*
X65777256Y-157065739D01*
X65605739Y-157237256D01*
X65605733Y-157237263D01*
X65458067Y-157429706D01*
X65336777Y-157639785D01*
X65336773Y-157639794D01*
X65243947Y-157863895D01*
X65181161Y-158098214D01*
X65149500Y-158338711D01*
X64500500Y-158338711D01*
X64500500Y-144613753D01*
X75950000Y-144613753D01*
X75950000Y-144826246D01*
X75983242Y-145036127D01*
X75983242Y-145036130D01*
X76048904Y-145238217D01*
X76048906Y-145238220D01*
X76105338Y-145348975D01*
X76734314Y-144720000D01*
X76668488Y-144654174D01*
X76800000Y-144654174D01*
X76800000Y-144785826D01*
X76834075Y-144912993D01*
X76899901Y-145027007D01*
X76992993Y-145120099D01*
X77107007Y-145185925D01*
X77234174Y-145220000D01*
X77365826Y-145220000D01*
X77492993Y-145185925D01*
X77607007Y-145120099D01*
X77700099Y-145027007D01*
X77765925Y-144912993D01*
X77800000Y-144785826D01*
X77800000Y-144719999D01*
X77865686Y-144719999D01*
X77865686Y-144720000D01*
X78494660Y-145348975D01*
X78551092Y-145238222D01*
X78616757Y-145036130D01*
X78616757Y-145036127D01*
X78650000Y-144826246D01*
X78650000Y-144613753D01*
X78616757Y-144403872D01*
X78616757Y-144403869D01*
X78551095Y-144201782D01*
X78494660Y-144091023D01*
X77865686Y-144719999D01*
X77800000Y-144719999D01*
X77800000Y-144654174D01*
X77765925Y-144527007D01*
X77700099Y-144412993D01*
X77607007Y-144319901D01*
X77492993Y-144254075D01*
X77365826Y-144220000D01*
X77234174Y-144220000D01*
X77107007Y-144254075D01*
X76992993Y-144319901D01*
X76899901Y-144412993D01*
X76834075Y-144527007D01*
X76800000Y-144654174D01*
X76668488Y-144654174D01*
X76105337Y-144091023D01*
X76048905Y-144201780D01*
X76048905Y-144201781D01*
X75983242Y-144403869D01*
X75983242Y-144403872D01*
X75950000Y-144613753D01*
X64500500Y-144613753D01*
X64500500Y-132400000D01*
X67560494Y-132400000D01*
X67598907Y-132518222D01*
X67695379Y-132707557D01*
X67820272Y-132879459D01*
X67820276Y-132879464D01*
X67970533Y-133029721D01*
X68035232Y-133076727D01*
X68077898Y-133132057D01*
X68083877Y-133201670D01*
X68051272Y-133263466D01*
X67996949Y-133296120D01*
X67989609Y-133298252D01*
X67989603Y-133298255D01*
X67848137Y-133381917D01*
X67848129Y-133381923D01*
X67731923Y-133498129D01*
X67731917Y-133498137D01*
X67648255Y-133639603D01*
X67648254Y-133639606D01*
X67602402Y-133797426D01*
X67602401Y-133797432D01*
X67599500Y-133834298D01*
X67599500Y-135165701D01*
X67602401Y-135202567D01*
X67602402Y-135202573D01*
X67648254Y-135360393D01*
X67648255Y-135360396D01*
X67648256Y-135360398D01*
X67676017Y-135407339D01*
X67731917Y-135501862D01*
X67731923Y-135501870D01*
X67848129Y-135618076D01*
X67848133Y-135618079D01*
X67848135Y-135618081D01*
X67989602Y-135701744D01*
X68002895Y-135705606D01*
X68147426Y-135747597D01*
X68147429Y-135747597D01*
X68147431Y-135747598D01*
X68184306Y-135750500D01*
X68184314Y-135750500D01*
X69815686Y-135750500D01*
X69815694Y-135750500D01*
X69852569Y-135747598D01*
X69852571Y-135747597D01*
X69852573Y-135747597D01*
X69951402Y-135718884D01*
X70010398Y-135701744D01*
X70151865Y-135618081D01*
X70268081Y-135501865D01*
X70351744Y-135360398D01*
X70393869Y-135215405D01*
X70397597Y-135202573D01*
X70397598Y-135202567D01*
X70400500Y-135165694D01*
X70400500Y-133834306D01*
X70397598Y-133797431D01*
X70351744Y-133639602D01*
X70268081Y-133498135D01*
X70268079Y-133498133D01*
X70268076Y-133498129D01*
X70151870Y-133381923D01*
X70151862Y-133381917D01*
X70073681Y-133335681D01*
X70010398Y-133298256D01*
X70010397Y-133298255D01*
X70010396Y-133298255D01*
X70010392Y-133298253D01*
X70003053Y-133296121D01*
X69944168Y-133258512D01*
X69914964Y-133195039D01*
X69924713Y-133125853D01*
X69964768Y-133076727D01*
X70029462Y-133029725D01*
X70179723Y-132879464D01*
X70179727Y-132879459D01*
X70304620Y-132707557D01*
X70401092Y-132518222D01*
X70439506Y-132400000D01*
X69307106Y-132400000D01*
X69400099Y-132307007D01*
X69465925Y-132192993D01*
X69500000Y-132065826D01*
X69500000Y-131934174D01*
X69465925Y-131807007D01*
X69400099Y-131692993D01*
X69307106Y-131600000D01*
X69400000Y-131600000D01*
X70439506Y-131600000D01*
X70439505Y-131599999D01*
X70401092Y-131481777D01*
X70304620Y-131292442D01*
X70179727Y-131120540D01*
X70179723Y-131120535D01*
X70029464Y-130970276D01*
X70029459Y-130970272D01*
X69857557Y-130845379D01*
X69668215Y-130748903D01*
X69466124Y-130683241D01*
X69400000Y-130672768D01*
X69400000Y-131600000D01*
X69307106Y-131600000D01*
X69307007Y-131599901D01*
X69192993Y-131534075D01*
X69065826Y-131500000D01*
X68934174Y-131500000D01*
X68807007Y-131534075D01*
X68692993Y-131599901D01*
X68599901Y-131692993D01*
X68534075Y-131807007D01*
X68500000Y-131934174D01*
X68500000Y-132065826D01*
X68534075Y-132192993D01*
X68599901Y-132307007D01*
X68692894Y-132400000D01*
X67560494Y-132400000D01*
X64500500Y-132400000D01*
X64500500Y-131599999D01*
X67560494Y-131599999D01*
X67560494Y-131600000D01*
X68600000Y-131600000D01*
X68600000Y-130672768D01*
X68599999Y-130672768D01*
X68533875Y-130683241D01*
X68331784Y-130748903D01*
X68142442Y-130845379D01*
X67970540Y-130970272D01*
X67970535Y-130970276D01*
X67820276Y-131120535D01*
X67820272Y-131120540D01*
X67695379Y-131292442D01*
X67598907Y-131481777D01*
X67560494Y-131599999D01*
X64500500Y-131599999D01*
X64500500Y-118365513D01*
X70299500Y-118365513D01*
X70299500Y-118554486D01*
X70329059Y-118741118D01*
X70387454Y-118920836D01*
X70461666Y-119066483D01*
X70473240Y-119089199D01*
X70584310Y-119242073D01*
X70717927Y-119375690D01*
X70870801Y-119486760D01*
X70950347Y-119527290D01*
X71039163Y-119572545D01*
X71039165Y-119572545D01*
X71039168Y-119572547D01*
X71135497Y-119603846D01*
X71218881Y-119630940D01*
X71405514Y-119660500D01*
X71405519Y-119660500D01*
X71594486Y-119660500D01*
X71781118Y-119630940D01*
X71960832Y-119572547D01*
X72129199Y-119486760D01*
X72282073Y-119375690D01*
X72415690Y-119242073D01*
X72526760Y-119089199D01*
X72612547Y-118920832D01*
X72670940Y-118741118D01*
X72686453Y-118643172D01*
X72700500Y-118554486D01*
X72700500Y-118365513D01*
X72670940Y-118178881D01*
X72622727Y-118030500D01*
X72612547Y-117999168D01*
X72612545Y-117999165D01*
X72612545Y-117999163D01*
X72536300Y-117849525D01*
X72526760Y-117830801D01*
X72415690Y-117677927D01*
X72282073Y-117544310D01*
X72129199Y-117433240D01*
X71960836Y-117347454D01*
X71781118Y-117289059D01*
X71594486Y-117259500D01*
X71594481Y-117259500D01*
X71405519Y-117259500D01*
X71405514Y-117259500D01*
X71218881Y-117289059D01*
X71039163Y-117347454D01*
X70870800Y-117433240D01*
X70783579Y-117496610D01*
X70717927Y-117544310D01*
X70717925Y-117544312D01*
X70717924Y-117544312D01*
X70584312Y-117677924D01*
X70584312Y-117677925D01*
X70584310Y-117677927D01*
X70543698Y-117733825D01*
X70473240Y-117830800D01*
X70387454Y-117999163D01*
X70329059Y-118178881D01*
X70299500Y-118365513D01*
X64500500Y-118365513D01*
X64500500Y-113285513D01*
X70299500Y-113285513D01*
X70299500Y-113474486D01*
X70329059Y-113661118D01*
X70387454Y-113840836D01*
X70473240Y-114009199D01*
X70584310Y-114162073D01*
X70717927Y-114295690D01*
X70870801Y-114406760D01*
X70950347Y-114447290D01*
X71039163Y-114492545D01*
X71039165Y-114492545D01*
X71039168Y-114492547D01*
X71135497Y-114523846D01*
X71218881Y-114550940D01*
X71405514Y-114580500D01*
X71405519Y-114580500D01*
X71594486Y-114580500D01*
X71781118Y-114550940D01*
X71960832Y-114492547D01*
X72129199Y-114406760D01*
X72282073Y-114295690D01*
X72415690Y-114162073D01*
X72526760Y-114009199D01*
X72612547Y-113840832D01*
X72670940Y-113661118D01*
X72683060Y-113584594D01*
X72700500Y-113474486D01*
X72700500Y-113285513D01*
X72670940Y-113098881D01*
X72627338Y-112964690D01*
X72612547Y-112919168D01*
X72612545Y-112919165D01*
X72612545Y-112919163D01*
X72536300Y-112769525D01*
X72526760Y-112750801D01*
X72415690Y-112597927D01*
X72282073Y-112464310D01*
X72129199Y-112353240D01*
X71960836Y-112267454D01*
X71781118Y-112209059D01*
X71594486Y-112179500D01*
X71594481Y-112179500D01*
X71405519Y-112179500D01*
X71405514Y-112179500D01*
X71218881Y-112209059D01*
X71039163Y-112267454D01*
X70870800Y-112353240D01*
X70783579Y-112416610D01*
X70717927Y-112464310D01*
X70717925Y-112464312D01*
X70717924Y-112464312D01*
X70584312Y-112597924D01*
X70584312Y-112597925D01*
X70584310Y-112597927D01*
X70543698Y-112653825D01*
X70473240Y-112750800D01*
X70387454Y-112919163D01*
X70329059Y-113098881D01*
X70299500Y-113285513D01*
X64500500Y-113285513D01*
X64500500Y-111601577D01*
X76049500Y-111601577D01*
X76049500Y-111798422D01*
X76080290Y-111992826D01*
X76141117Y-112180029D01*
X76217009Y-112328975D01*
X76230476Y-112355405D01*
X76346172Y-112514646D01*
X76485354Y-112653828D01*
X76644595Y-112769524D01*
X76767992Y-112832397D01*
X76821213Y-112859515D01*
X76872009Y-112907489D01*
X76888804Y-112975310D01*
X76866267Y-113041445D01*
X76821213Y-113080485D01*
X76644594Y-113170476D01*
X76553741Y-113236485D01*
X76485354Y-113286172D01*
X76485352Y-113286174D01*
X76485351Y-113286174D01*
X76346174Y-113425351D01*
X76346174Y-113425352D01*
X76346172Y-113425354D01*
X76310479Y-113474481D01*
X76230476Y-113584594D01*
X76141117Y-113759970D01*
X76080290Y-113947173D01*
X76049500Y-114141577D01*
X76049500Y-114338422D01*
X76080290Y-114532826D01*
X76141117Y-114720029D01*
X76230476Y-114895405D01*
X76346172Y-115054646D01*
X76485354Y-115193828D01*
X76644595Y-115309524D01*
X76708718Y-115342196D01*
X76821213Y-115399515D01*
X76872009Y-115447489D01*
X76888804Y-115515310D01*
X76866267Y-115581445D01*
X76821213Y-115620485D01*
X76644594Y-115710476D01*
X76553741Y-115776485D01*
X76485354Y-115826172D01*
X76485352Y-115826174D01*
X76485351Y-115826174D01*
X76346174Y-115965351D01*
X76346174Y-115965352D01*
X76346172Y-115965354D01*
X76296485Y-116033741D01*
X76230476Y-116124594D01*
X76141117Y-116299970D01*
X76080290Y-116487173D01*
X76049500Y-116681577D01*
X76049500Y-116878422D01*
X76080290Y-117072826D01*
X76141117Y-117260029D01*
X76229373Y-117433240D01*
X76230476Y-117435405D01*
X76346172Y-117594646D01*
X76485354Y-117733828D01*
X76644595Y-117849524D01*
X76767992Y-117912397D01*
X76821213Y-117939515D01*
X76872009Y-117987489D01*
X76888804Y-118055310D01*
X76866267Y-118121445D01*
X76821213Y-118160485D01*
X76644594Y-118250476D01*
X76553741Y-118316485D01*
X76485354Y-118366172D01*
X76485352Y-118366174D01*
X76485351Y-118366174D01*
X76346174Y-118505351D01*
X76346174Y-118505352D01*
X76346172Y-118505354D01*
X76310479Y-118554481D01*
X76230476Y-118664594D01*
X76141117Y-118839970D01*
X76080290Y-119027173D01*
X76049500Y-119221577D01*
X76049500Y-119418422D01*
X76080290Y-119612826D01*
X76141117Y-119800029D01*
X76230476Y-119975405D01*
X76346172Y-120134646D01*
X76485354Y-120273828D01*
X76644595Y-120389524D01*
X76767992Y-120452397D01*
X76821213Y-120479515D01*
X76872009Y-120527489D01*
X76888804Y-120595310D01*
X76866267Y-120661445D01*
X76821213Y-120700485D01*
X76644594Y-120790476D01*
X76553741Y-120856485D01*
X76485354Y-120906172D01*
X76485352Y-120906174D01*
X76485351Y-120906174D01*
X76346174Y-121045351D01*
X76346174Y-121045352D01*
X76346172Y-121045354D01*
X76296485Y-121113741D01*
X76230476Y-121204594D01*
X76141117Y-121379970D01*
X76080290Y-121567173D01*
X76049500Y-121761577D01*
X76049500Y-121958422D01*
X76080290Y-122152826D01*
X76141117Y-122340029D01*
X76230476Y-122515405D01*
X76346172Y-122674646D01*
X76485354Y-122813828D01*
X76644595Y-122929524D01*
X76767992Y-122992397D01*
X76821213Y-123019515D01*
X76872009Y-123067489D01*
X76888804Y-123135310D01*
X76866267Y-123201445D01*
X76821213Y-123240485D01*
X76644594Y-123330476D01*
X76553741Y-123396485D01*
X76485354Y-123446172D01*
X76485352Y-123446174D01*
X76485351Y-123446174D01*
X76346174Y-123585351D01*
X76346174Y-123585352D01*
X76346172Y-123585354D01*
X76296485Y-123653741D01*
X76230476Y-123744594D01*
X76141117Y-123919970D01*
X76080290Y-124107173D01*
X76049500Y-124301577D01*
X76049500Y-124498422D01*
X76080290Y-124692826D01*
X76141117Y-124880029D01*
X76230476Y-125055405D01*
X76346172Y-125214646D01*
X76485354Y-125353828D01*
X76644595Y-125469524D01*
X76767992Y-125532397D01*
X76821213Y-125559515D01*
X76872009Y-125607489D01*
X76888804Y-125675310D01*
X76866267Y-125741445D01*
X76821213Y-125780485D01*
X76644594Y-125870476D01*
X76553741Y-125936485D01*
X76485354Y-125986172D01*
X76485352Y-125986174D01*
X76485351Y-125986174D01*
X76346174Y-126125351D01*
X76346174Y-126125352D01*
X76346172Y-126125354D01*
X76296485Y-126193741D01*
X76230476Y-126284594D01*
X76141117Y-126459970D01*
X76080290Y-126647173D01*
X76049500Y-126841577D01*
X76049500Y-127038422D01*
X76080290Y-127232826D01*
X76141117Y-127420029D01*
X76225468Y-127585576D01*
X76230476Y-127595405D01*
X76346172Y-127754646D01*
X76485354Y-127893828D01*
X76644595Y-128009524D01*
X76753156Y-128064838D01*
X76821213Y-128099515D01*
X76872009Y-128147489D01*
X76888804Y-128215310D01*
X76866267Y-128281445D01*
X76821213Y-128320485D01*
X76644594Y-128410476D01*
X76553741Y-128476485D01*
X76485354Y-128526172D01*
X76485352Y-128526174D01*
X76485351Y-128526174D01*
X76346174Y-128665351D01*
X76346174Y-128665352D01*
X76346172Y-128665354D01*
X76296485Y-128733741D01*
X76230476Y-128824594D01*
X76141117Y-128999970D01*
X76080290Y-129187173D01*
X76049500Y-129381577D01*
X76049500Y-129578422D01*
X76080290Y-129772826D01*
X76141117Y-129960029D01*
X76230476Y-130135405D01*
X76346172Y-130294646D01*
X76485354Y-130433828D01*
X76644595Y-130549524D01*
X76767992Y-130612397D01*
X76821213Y-130639515D01*
X76872009Y-130687489D01*
X76888804Y-130755310D01*
X76866267Y-130821445D01*
X76821213Y-130860485D01*
X76644594Y-130950476D01*
X76553741Y-131016485D01*
X76485354Y-131066172D01*
X76485352Y-131066174D01*
X76485351Y-131066174D01*
X76346174Y-131205351D01*
X76346174Y-131205352D01*
X76346172Y-131205354D01*
X76296485Y-131273741D01*
X76230476Y-131364594D01*
X76141117Y-131539970D01*
X76080290Y-131727173D01*
X76049500Y-131921577D01*
X76049500Y-132118422D01*
X76080290Y-132312826D01*
X76141117Y-132500029D01*
X76230476Y-132675405D01*
X76346172Y-132834646D01*
X76485354Y-132973828D01*
X76644595Y-133089524D01*
X76767992Y-133152397D01*
X76821213Y-133179515D01*
X76872009Y-133227489D01*
X76888804Y-133295310D01*
X76866267Y-133361445D01*
X76821213Y-133400485D01*
X76644594Y-133490476D01*
X76553741Y-133556485D01*
X76485354Y-133606172D01*
X76485352Y-133606174D01*
X76485351Y-133606174D01*
X76346174Y-133745351D01*
X76346174Y-133745352D01*
X76346172Y-133745354D01*
X76308339Y-133797426D01*
X76230476Y-133904594D01*
X76141117Y-134079970D01*
X76080290Y-134267173D01*
X76049500Y-134461577D01*
X76049500Y-134658422D01*
X76080290Y-134852826D01*
X76141117Y-135040029D01*
X76217832Y-135190589D01*
X76230476Y-135215405D01*
X76346172Y-135374646D01*
X76485354Y-135513828D01*
X76644595Y-135629524D01*
X76767992Y-135692397D01*
X76821213Y-135719515D01*
X76872009Y-135767489D01*
X76888804Y-135835310D01*
X76866267Y-135901445D01*
X76821213Y-135940485D01*
X76644594Y-136030476D01*
X76553741Y-136096485D01*
X76485354Y-136146172D01*
X76485352Y-136146174D01*
X76485351Y-136146174D01*
X76346174Y-136285351D01*
X76346174Y-136285352D01*
X76346172Y-136285354D01*
X76308247Y-136337553D01*
X76230476Y-136444594D01*
X76141117Y-136619970D01*
X76080290Y-136807173D01*
X76049500Y-137001577D01*
X76049500Y-137198422D01*
X76080290Y-137392826D01*
X76141117Y-137580029D01*
X76230476Y-137755405D01*
X76346172Y-137914646D01*
X76485354Y-138053828D01*
X76644595Y-138169524D01*
X76767992Y-138232397D01*
X76821213Y-138259515D01*
X76872009Y-138307489D01*
X76888804Y-138375310D01*
X76866267Y-138441445D01*
X76821213Y-138480485D01*
X76644594Y-138570476D01*
X76553741Y-138636485D01*
X76485354Y-138686172D01*
X76485352Y-138686174D01*
X76485351Y-138686174D01*
X76346174Y-138825351D01*
X76346174Y-138825352D01*
X76346172Y-138825354D01*
X76296485Y-138893741D01*
X76230476Y-138984594D01*
X76141117Y-139159970D01*
X76080290Y-139347173D01*
X76049500Y-139541577D01*
X76049500Y-139738422D01*
X76080290Y-139932826D01*
X76141117Y-140120029D01*
X76219876Y-140274602D01*
X76230476Y-140295405D01*
X76346172Y-140454646D01*
X76485354Y-140593828D01*
X76644595Y-140709524D01*
X76767992Y-140772397D01*
X76821213Y-140799515D01*
X76872009Y-140847489D01*
X76888804Y-140915310D01*
X76866267Y-140981445D01*
X76821213Y-141020485D01*
X76644594Y-141110476D01*
X76553741Y-141176485D01*
X76485354Y-141226172D01*
X76485352Y-141226174D01*
X76485351Y-141226174D01*
X76346174Y-141365351D01*
X76346174Y-141365352D01*
X76346172Y-141365354D01*
X76296485Y-141433741D01*
X76230476Y-141524594D01*
X76141117Y-141699970D01*
X76080290Y-141887173D01*
X76049500Y-142081577D01*
X76049500Y-142278422D01*
X76080290Y-142472826D01*
X76141117Y-142660029D01*
X76230476Y-142835405D01*
X76346172Y-142994646D01*
X76485354Y-143133828D01*
X76558349Y-143186862D01*
X76644596Y-143249525D01*
X76711628Y-143283679D01*
X76762425Y-143331653D01*
X76779220Y-143399474D01*
X76756683Y-143465609D01*
X76711628Y-143504649D01*
X76671023Y-143525337D01*
X77300000Y-144154314D01*
X77300001Y-144154314D01*
X77928975Y-143525338D01*
X77928975Y-143525337D01*
X77888371Y-143504649D01*
X77837574Y-143456675D01*
X77820779Y-143388854D01*
X77843316Y-143322719D01*
X77888370Y-143283679D01*
X77955405Y-143249524D01*
X78114646Y-143133828D01*
X78253828Y-142994646D01*
X78369524Y-142835405D01*
X78458884Y-142660025D01*
X78519709Y-142472826D01*
X78550500Y-142278422D01*
X78550500Y-142081577D01*
X78519709Y-141887173D01*
X78458882Y-141699970D01*
X78369523Y-141524594D01*
X78253828Y-141365354D01*
X78114646Y-141226172D01*
X78035025Y-141168324D01*
X77955403Y-141110474D01*
X77778787Y-141020485D01*
X77727990Y-140972511D01*
X77711195Y-140904690D01*
X77733732Y-140838555D01*
X77778787Y-140799515D01*
X77955403Y-140709525D01*
X77955402Y-140709525D01*
X77955405Y-140709524D01*
X78114646Y-140593828D01*
X78253828Y-140454646D01*
X78369524Y-140295405D01*
X78458884Y-140120025D01*
X78519709Y-139932826D01*
X78550500Y-139738422D01*
X78550500Y-139541577D01*
X78519709Y-139347173D01*
X78458882Y-139159970D01*
X78369523Y-138984594D01*
X78253828Y-138825354D01*
X78114646Y-138686172D01*
X78035025Y-138628324D01*
X77955403Y-138570474D01*
X77778787Y-138480485D01*
X77727990Y-138432511D01*
X77711195Y-138364690D01*
X77733732Y-138298555D01*
X77778787Y-138259515D01*
X77955403Y-138169525D01*
X77955402Y-138169525D01*
X77955405Y-138169524D01*
X78114646Y-138053828D01*
X78253828Y-137914646D01*
X78369524Y-137755405D01*
X78458884Y-137580025D01*
X78519709Y-137392826D01*
X78550500Y-137198422D01*
X78550500Y-137001577D01*
X78519709Y-136807173D01*
X78486054Y-136703596D01*
X78458884Y-136619975D01*
X78458882Y-136619972D01*
X78458882Y-136619970D01*
X78373344Y-136452093D01*
X78369524Y-136444595D01*
X78253828Y-136285354D01*
X78114646Y-136146172D01*
X78000162Y-136062994D01*
X77955403Y-136030474D01*
X77778787Y-135940485D01*
X77727990Y-135892511D01*
X77711195Y-135824690D01*
X77733732Y-135758555D01*
X77778787Y-135719515D01*
X77955403Y-135629525D01*
X77955402Y-135629525D01*
X77955405Y-135629524D01*
X78114646Y-135513828D01*
X78253828Y-135374646D01*
X78369524Y-135215405D01*
X78458884Y-135040025D01*
X78519709Y-134852826D01*
X78550500Y-134658422D01*
X78550500Y-134461577D01*
X78519709Y-134267173D01*
X78458882Y-134079970D01*
X78369523Y-133904594D01*
X78253828Y-133745354D01*
X78114646Y-133606172D01*
X78035025Y-133548324D01*
X77955403Y-133490474D01*
X77778787Y-133400485D01*
X77727990Y-133352511D01*
X77711195Y-133284690D01*
X77733732Y-133218555D01*
X77778787Y-133179515D01*
X77955403Y-133089525D01*
X77955402Y-133089525D01*
X77955405Y-133089524D01*
X78114646Y-132973828D01*
X78253828Y-132834646D01*
X78369524Y-132675405D01*
X78458884Y-132500025D01*
X78519709Y-132312826D01*
X78520631Y-132307007D01*
X78550500Y-132118422D01*
X78550500Y-131921577D01*
X78519709Y-131727173D01*
X78458882Y-131539970D01*
X78369523Y-131364594D01*
X78317101Y-131292442D01*
X78253828Y-131205354D01*
X78114646Y-131066172D01*
X78035025Y-131008324D01*
X77955403Y-130950474D01*
X77778787Y-130860485D01*
X77727990Y-130812511D01*
X77711195Y-130744690D01*
X77733732Y-130678555D01*
X77778787Y-130639515D01*
X77955403Y-130549525D01*
X77955402Y-130549525D01*
X77955405Y-130549524D01*
X78114646Y-130433828D01*
X78253828Y-130294646D01*
X78369524Y-130135405D01*
X78458884Y-129960025D01*
X78519709Y-129772826D01*
X78550500Y-129578422D01*
X78550500Y-129381577D01*
X78519709Y-129187173D01*
X78458882Y-128999970D01*
X78411743Y-128907455D01*
X78369524Y-128824595D01*
X78253828Y-128665354D01*
X78114646Y-128526172D01*
X77960798Y-128414394D01*
X77955403Y-128410474D01*
X77778787Y-128320485D01*
X77727990Y-128272511D01*
X77711195Y-128204690D01*
X77733732Y-128138555D01*
X77778787Y-128099515D01*
X77955403Y-128009525D01*
X77955402Y-128009525D01*
X77955405Y-128009524D01*
X78114646Y-127893828D01*
X78253828Y-127754646D01*
X78369524Y-127595405D01*
X78458884Y-127420025D01*
X78519709Y-127232826D01*
X78529684Y-127169846D01*
X78550500Y-127038422D01*
X78550500Y-127012153D01*
X99361000Y-127012153D01*
X99361000Y-127169846D01*
X99391761Y-127324489D01*
X99391764Y-127324501D01*
X99452102Y-127470172D01*
X99452109Y-127470185D01*
X99539710Y-127601288D01*
X99539713Y-127601292D01*
X99651207Y-127712786D01*
X99651211Y-127712789D01*
X99782314Y-127800390D01*
X99782327Y-127800397D01*
X99926224Y-127860000D01*
X99928003Y-127860737D01*
X100061337Y-127887259D01*
X100082653Y-127891499D01*
X100082656Y-127891500D01*
X100082658Y-127891500D01*
X100240344Y-127891500D01*
X100240345Y-127891499D01*
X100394997Y-127860737D01*
X100540679Y-127800394D01*
X100671789Y-127712789D01*
X100783289Y-127601289D01*
X100870894Y-127470179D01*
X100931237Y-127324497D01*
X100962000Y-127169842D01*
X100962000Y-127012158D01*
X100962000Y-127012155D01*
X100961999Y-127012153D01*
X100931238Y-126857510D01*
X100931237Y-126857503D01*
X100924640Y-126841577D01*
X100870897Y-126711827D01*
X100870890Y-126711814D01*
X100783289Y-126580711D01*
X100783286Y-126580707D01*
X100671792Y-126469213D01*
X100671788Y-126469210D01*
X100540685Y-126381609D01*
X100540672Y-126381602D01*
X100395001Y-126321264D01*
X100394989Y-126321261D01*
X100240345Y-126290500D01*
X100240342Y-126290500D01*
X100082658Y-126290500D01*
X100082655Y-126290500D01*
X99928010Y-126321261D01*
X99927998Y-126321264D01*
X99782327Y-126381602D01*
X99782314Y-126381609D01*
X99651211Y-126469210D01*
X99651207Y-126469213D01*
X99539713Y-126580707D01*
X99539710Y-126580711D01*
X99452109Y-126711814D01*
X99452102Y-126711827D01*
X99391764Y-126857498D01*
X99391761Y-126857510D01*
X99361000Y-127012153D01*
X78550500Y-127012153D01*
X78550500Y-126841577D01*
X78519709Y-126647173D01*
X78491487Y-126560317D01*
X78458884Y-126459975D01*
X78458882Y-126459972D01*
X78458882Y-126459970D01*
X78411743Y-126367455D01*
X78369524Y-126284595D01*
X78253828Y-126125354D01*
X78114646Y-125986172D01*
X78035025Y-125928324D01*
X77955403Y-125870474D01*
X77778787Y-125780485D01*
X77727990Y-125732511D01*
X77711195Y-125664690D01*
X77733732Y-125598555D01*
X77778787Y-125559515D01*
X77955403Y-125469525D01*
X77955402Y-125469525D01*
X77955405Y-125469524D01*
X78114646Y-125353828D01*
X78253828Y-125214646D01*
X78369524Y-125055405D01*
X78458884Y-124880025D01*
X78519709Y-124692826D01*
X78550500Y-124498422D01*
X78550500Y-124301577D01*
X78519709Y-124107173D01*
X78458882Y-123919970D01*
X78369523Y-123744594D01*
X78253828Y-123585354D01*
X78114646Y-123446172D01*
X78035025Y-123388324D01*
X77955403Y-123330474D01*
X77778787Y-123240485D01*
X77727990Y-123192511D01*
X77711195Y-123124690D01*
X77733732Y-123058555D01*
X77778787Y-123019515D01*
X77955403Y-122929525D01*
X77955402Y-122929525D01*
X77955405Y-122929524D01*
X78114646Y-122813828D01*
X78253828Y-122674646D01*
X78369524Y-122515405D01*
X78458884Y-122340025D01*
X78519709Y-122152826D01*
X78540846Y-122019372D01*
X78550500Y-121958422D01*
X78550500Y-121761577D01*
X78519709Y-121567173D01*
X78458882Y-121379970D01*
X78369523Y-121204594D01*
X78353959Y-121183172D01*
X78253828Y-121045354D01*
X78114646Y-120906172D01*
X78035025Y-120848324D01*
X77955403Y-120790474D01*
X77778787Y-120700485D01*
X77727990Y-120652511D01*
X77711195Y-120584690D01*
X77733732Y-120518555D01*
X77778787Y-120479515D01*
X77955403Y-120389525D01*
X77955402Y-120389525D01*
X77955405Y-120389524D01*
X78114646Y-120273828D01*
X78253828Y-120134646D01*
X78369524Y-119975405D01*
X78458884Y-119800025D01*
X78519709Y-119612826D01*
X78550500Y-119418422D01*
X78550500Y-119221577D01*
X78519709Y-119027173D01*
X78458882Y-118839970D01*
X78369523Y-118664594D01*
X78353959Y-118643172D01*
X78253828Y-118505354D01*
X78114646Y-118366172D01*
X78035025Y-118308324D01*
X77955403Y-118250474D01*
X77778787Y-118160485D01*
X77727990Y-118112511D01*
X77711195Y-118044690D01*
X77733732Y-117978555D01*
X77778787Y-117939515D01*
X77955403Y-117849525D01*
X77955402Y-117849525D01*
X77955405Y-117849524D01*
X78114646Y-117733828D01*
X78253828Y-117594646D01*
X78369524Y-117435405D01*
X78458884Y-117260025D01*
X78519709Y-117072826D01*
X78550500Y-116878422D01*
X78550500Y-116681577D01*
X78519709Y-116487173D01*
X78458882Y-116299970D01*
X78369523Y-116124594D01*
X78253828Y-115965354D01*
X78114646Y-115826172D01*
X78035025Y-115768324D01*
X77955403Y-115710474D01*
X77778787Y-115620485D01*
X77727990Y-115572511D01*
X77711195Y-115504690D01*
X77733732Y-115438555D01*
X77778787Y-115399515D01*
X77955403Y-115309525D01*
X77955402Y-115309525D01*
X77955405Y-115309524D01*
X78114646Y-115193828D01*
X78253828Y-115054646D01*
X78369524Y-114895405D01*
X78458884Y-114720025D01*
X78519709Y-114532826D01*
X78550500Y-114338422D01*
X78550500Y-114141577D01*
X101449500Y-114141577D01*
X101449500Y-114338422D01*
X101480290Y-114532826D01*
X101541117Y-114720029D01*
X101630476Y-114895405D01*
X101746172Y-115054646D01*
X101885354Y-115193828D01*
X102044595Y-115309524D01*
X102108718Y-115342196D01*
X102221213Y-115399515D01*
X102272009Y-115447489D01*
X102288804Y-115515310D01*
X102266267Y-115581445D01*
X102221213Y-115620485D01*
X102044594Y-115710476D01*
X101953741Y-115776485D01*
X101885354Y-115826172D01*
X101885352Y-115826174D01*
X101885351Y-115826174D01*
X101746174Y-115965351D01*
X101746174Y-115965352D01*
X101746172Y-115965354D01*
X101696485Y-116033741D01*
X101630476Y-116124594D01*
X101541117Y-116299970D01*
X101480290Y-116487173D01*
X101449500Y-116681577D01*
X101449500Y-116878422D01*
X101480290Y-117072826D01*
X101541117Y-117260029D01*
X101629373Y-117433240D01*
X101630476Y-117435405D01*
X101746172Y-117594646D01*
X101885354Y-117733828D01*
X102044595Y-117849524D01*
X102167992Y-117912397D01*
X102221213Y-117939515D01*
X102272009Y-117987489D01*
X102288804Y-118055310D01*
X102266267Y-118121445D01*
X102221213Y-118160485D01*
X102044594Y-118250476D01*
X101953741Y-118316485D01*
X101885354Y-118366172D01*
X101885352Y-118366174D01*
X101885351Y-118366174D01*
X101746174Y-118505351D01*
X101746174Y-118505352D01*
X101746172Y-118505354D01*
X101710479Y-118554481D01*
X101630476Y-118664594D01*
X101541117Y-118839970D01*
X101480290Y-119027173D01*
X101449500Y-119221577D01*
X101449500Y-119418422D01*
X101480290Y-119612826D01*
X101541117Y-119800029D01*
X101630476Y-119975405D01*
X101746172Y-120134646D01*
X101885354Y-120273828D01*
X102044595Y-120389524D01*
X102167992Y-120452397D01*
X102221213Y-120479515D01*
X102272009Y-120527489D01*
X102288804Y-120595310D01*
X102266267Y-120661445D01*
X102221213Y-120700485D01*
X102044594Y-120790476D01*
X101953741Y-120856485D01*
X101885354Y-120906172D01*
X101885352Y-120906174D01*
X101885351Y-120906174D01*
X101746174Y-121045351D01*
X101746174Y-121045352D01*
X101746172Y-121045354D01*
X101696485Y-121113741D01*
X101630476Y-121204594D01*
X101541117Y-121379970D01*
X101480290Y-121567173D01*
X101449500Y-121761577D01*
X101449500Y-121958422D01*
X101480290Y-122152826D01*
X101541117Y-122340029D01*
X101630476Y-122515405D01*
X101746172Y-122674646D01*
X101885354Y-122813828D01*
X102044595Y-122929524D01*
X102167992Y-122992397D01*
X102221213Y-123019515D01*
X102272009Y-123067489D01*
X102288804Y-123135310D01*
X102266267Y-123201445D01*
X102221213Y-123240485D01*
X102044594Y-123330476D01*
X101953741Y-123396485D01*
X101885354Y-123446172D01*
X101885352Y-123446174D01*
X101885351Y-123446174D01*
X101746174Y-123585351D01*
X101746174Y-123585352D01*
X101746172Y-123585354D01*
X101696485Y-123653741D01*
X101630476Y-123744594D01*
X101541117Y-123919970D01*
X101480290Y-124107173D01*
X101449500Y-124301577D01*
X101449500Y-124498422D01*
X101480290Y-124692826D01*
X101541117Y-124880029D01*
X101630476Y-125055405D01*
X101746172Y-125214646D01*
X101885354Y-125353828D01*
X102044595Y-125469524D01*
X102167992Y-125532397D01*
X102221213Y-125559515D01*
X102272009Y-125607489D01*
X102288804Y-125675310D01*
X102266267Y-125741445D01*
X102221213Y-125780485D01*
X102044594Y-125870476D01*
X101953741Y-125936485D01*
X101885354Y-125986172D01*
X101885352Y-125986174D01*
X101885351Y-125986174D01*
X101746174Y-126125351D01*
X101746174Y-126125352D01*
X101746172Y-126125354D01*
X101696485Y-126193741D01*
X101630476Y-126284594D01*
X101541117Y-126459970D01*
X101480290Y-126647173D01*
X101449500Y-126841577D01*
X101449500Y-127038422D01*
X101480290Y-127232826D01*
X101541117Y-127420029D01*
X101625468Y-127585576D01*
X101630476Y-127595405D01*
X101746172Y-127754646D01*
X101885354Y-127893828D01*
X102044595Y-128009524D01*
X102153156Y-128064838D01*
X102221213Y-128099515D01*
X102272009Y-128147489D01*
X102288804Y-128215310D01*
X102266267Y-128281445D01*
X102221213Y-128320485D01*
X102044594Y-128410476D01*
X101953741Y-128476485D01*
X101885354Y-128526172D01*
X101885352Y-128526174D01*
X101885351Y-128526174D01*
X101746174Y-128665351D01*
X101746174Y-128665352D01*
X101746172Y-128665354D01*
X101696485Y-128733741D01*
X101630476Y-128824594D01*
X101541117Y-128999970D01*
X101480290Y-129187173D01*
X101449500Y-129381577D01*
X101449500Y-129578422D01*
X101480290Y-129772826D01*
X101541117Y-129960029D01*
X101630476Y-130135405D01*
X101746172Y-130294646D01*
X101885354Y-130433828D01*
X102044595Y-130549524D01*
X102167992Y-130612397D01*
X102221213Y-130639515D01*
X102272009Y-130687489D01*
X102288804Y-130755310D01*
X102266267Y-130821445D01*
X102221213Y-130860485D01*
X102044594Y-130950476D01*
X101953741Y-131016485D01*
X101885354Y-131066172D01*
X101885352Y-131066174D01*
X101885351Y-131066174D01*
X101746174Y-131205351D01*
X101746174Y-131205352D01*
X101746172Y-131205354D01*
X101696485Y-131273741D01*
X101630476Y-131364594D01*
X101541117Y-131539970D01*
X101480290Y-131727173D01*
X101449500Y-131921577D01*
X101449500Y-132118422D01*
X101480290Y-132312826D01*
X101541117Y-132500029D01*
X101630476Y-132675405D01*
X101746172Y-132834646D01*
X101885354Y-132973828D01*
X102044595Y-133089524D01*
X102167992Y-133152397D01*
X102221213Y-133179515D01*
X102272009Y-133227489D01*
X102288804Y-133295310D01*
X102266267Y-133361445D01*
X102221213Y-133400485D01*
X102044594Y-133490476D01*
X101953741Y-133556485D01*
X101885354Y-133606172D01*
X101885352Y-133606174D01*
X101885351Y-133606174D01*
X101746174Y-133745351D01*
X101746174Y-133745352D01*
X101746172Y-133745354D01*
X101708339Y-133797426D01*
X101630476Y-133904594D01*
X101541117Y-134079970D01*
X101480290Y-134267173D01*
X101449500Y-134461577D01*
X101449500Y-134658422D01*
X101480290Y-134852826D01*
X101541117Y-135040029D01*
X101617832Y-135190589D01*
X101630476Y-135215405D01*
X101746172Y-135374646D01*
X101885354Y-135513828D01*
X102044595Y-135629524D01*
X102167992Y-135692397D01*
X102221213Y-135719515D01*
X102272009Y-135767489D01*
X102288804Y-135835310D01*
X102266267Y-135901445D01*
X102221213Y-135940485D01*
X102044594Y-136030476D01*
X101953741Y-136096485D01*
X101885354Y-136146172D01*
X101885352Y-136146174D01*
X101885351Y-136146174D01*
X101746174Y-136285351D01*
X101746174Y-136285352D01*
X101746172Y-136285354D01*
X101708247Y-136337553D01*
X101630476Y-136444594D01*
X101541117Y-136619970D01*
X101480290Y-136807173D01*
X101449500Y-137001577D01*
X101449500Y-137198422D01*
X101480290Y-137392826D01*
X101541117Y-137580029D01*
X101630476Y-137755405D01*
X101746172Y-137914646D01*
X101885354Y-138053828D01*
X102044595Y-138169524D01*
X102167992Y-138232397D01*
X102221213Y-138259515D01*
X102272009Y-138307489D01*
X102288804Y-138375310D01*
X102266267Y-138441445D01*
X102221213Y-138480485D01*
X102044594Y-138570476D01*
X101953741Y-138636485D01*
X101885354Y-138686172D01*
X101885352Y-138686174D01*
X101885351Y-138686174D01*
X101746174Y-138825351D01*
X101746174Y-138825352D01*
X101746172Y-138825354D01*
X101696485Y-138893741D01*
X101630476Y-138984594D01*
X101541117Y-139159970D01*
X101480290Y-139347173D01*
X101449500Y-139541577D01*
X101449500Y-139738422D01*
X101480290Y-139932826D01*
X101541117Y-140120029D01*
X101619876Y-140274602D01*
X101630476Y-140295405D01*
X101746172Y-140454646D01*
X101885354Y-140593828D01*
X102044595Y-140709524D01*
X102167992Y-140772397D01*
X102221213Y-140799515D01*
X102272009Y-140847489D01*
X102288804Y-140915310D01*
X102266267Y-140981445D01*
X102221213Y-141020485D01*
X102044594Y-141110476D01*
X101953741Y-141176485D01*
X101885354Y-141226172D01*
X101885352Y-141226174D01*
X101885351Y-141226174D01*
X101746174Y-141365351D01*
X101746174Y-141365352D01*
X101746172Y-141365354D01*
X101696485Y-141433741D01*
X101630476Y-141524594D01*
X101541117Y-141699970D01*
X101480290Y-141887173D01*
X101449500Y-142081577D01*
X101449500Y-142278422D01*
X101480290Y-142472826D01*
X101541117Y-142660029D01*
X101630476Y-142835405D01*
X101746172Y-142994646D01*
X101885354Y-143133828D01*
X102044595Y-143249524D01*
X102149707Y-143303081D01*
X102221213Y-143339515D01*
X102272009Y-143387489D01*
X102288804Y-143455310D01*
X102266267Y-143521445D01*
X102221213Y-143560485D01*
X102044594Y-143650476D01*
X101953741Y-143716485D01*
X101885354Y-143766172D01*
X101885352Y-143766174D01*
X101885351Y-143766174D01*
X101746174Y-143905351D01*
X101746174Y-143905352D01*
X101746172Y-143905354D01*
X101696485Y-143973741D01*
X101630476Y-144064594D01*
X101541117Y-144239970D01*
X101480290Y-144427173D01*
X101449500Y-144621577D01*
X101449500Y-144818422D01*
X101480290Y-145012826D01*
X101541117Y-145200029D01*
X101584762Y-145285686D01*
X101630476Y-145375405D01*
X101746172Y-145534646D01*
X101885354Y-145673828D01*
X102044595Y-145789524D01*
X102167992Y-145852397D01*
X102221213Y-145879515D01*
X102272009Y-145927489D01*
X102288804Y-145995310D01*
X102266267Y-146061445D01*
X102221213Y-146100485D01*
X102044594Y-146190476D01*
X101953741Y-146256485D01*
X101885354Y-146306172D01*
X101885352Y-146306174D01*
X101885351Y-146306174D01*
X101746174Y-146445351D01*
X101746174Y-146445352D01*
X101746172Y-146445354D01*
X101696485Y-146513741D01*
X101630476Y-146604594D01*
X101541117Y-146779970D01*
X101480290Y-146967173D01*
X101449500Y-147161577D01*
X101449500Y-147358422D01*
X101480290Y-147552826D01*
X101541117Y-147740029D01*
X101630476Y-147915405D01*
X101746172Y-148074646D01*
X101885354Y-148213828D01*
X102044595Y-148329524D01*
X102167992Y-148392397D01*
X102221213Y-148419515D01*
X102272009Y-148467489D01*
X102288804Y-148535310D01*
X102266267Y-148601445D01*
X102221213Y-148640485D01*
X102044594Y-148730476D01*
X101953741Y-148796485D01*
X101885354Y-148846172D01*
X101885352Y-148846174D01*
X101885351Y-148846174D01*
X101746174Y-148985351D01*
X101746174Y-148985352D01*
X101746172Y-148985354D01*
X101696485Y-149053741D01*
X101630476Y-149144594D01*
X101541117Y-149319970D01*
X101480290Y-149507173D01*
X101449500Y-149701577D01*
X101449500Y-149898422D01*
X101480290Y-150092826D01*
X101541117Y-150280029D01*
X101630476Y-150455405D01*
X101746172Y-150614646D01*
X101885354Y-150753828D01*
X102004784Y-150840600D01*
X102044596Y-150869525D01*
X102111628Y-150903679D01*
X102162425Y-150951653D01*
X102179220Y-151019474D01*
X102156683Y-151085609D01*
X102111628Y-151124649D01*
X102071023Y-151145337D01*
X102700000Y-151774314D01*
X102700001Y-151774314D01*
X103328975Y-151145338D01*
X103328975Y-151145337D01*
X103288371Y-151124649D01*
X103237574Y-151076675D01*
X103220779Y-151008854D01*
X103243316Y-150942719D01*
X103288370Y-150903679D01*
X103355405Y-150869524D01*
X103514646Y-150753828D01*
X103653828Y-150614646D01*
X103769524Y-150455405D01*
X103858884Y-150280025D01*
X103919709Y-150092826D01*
X103950500Y-149898422D01*
X103950500Y-149701577D01*
X103919709Y-149507173D01*
X103858882Y-149319970D01*
X103769523Y-149144594D01*
X103653828Y-148985354D01*
X103514646Y-148846172D01*
X103435025Y-148788324D01*
X103355403Y-148730474D01*
X103178787Y-148640485D01*
X103127990Y-148592511D01*
X103111195Y-148524690D01*
X103133732Y-148458555D01*
X103178787Y-148419515D01*
X103355403Y-148329525D01*
X103355402Y-148329525D01*
X103355405Y-148329524D01*
X103514646Y-148213828D01*
X103653828Y-148074646D01*
X103769524Y-147915405D01*
X103858884Y-147740025D01*
X103919709Y-147552826D01*
X103950500Y-147358422D01*
X103950500Y-147161577D01*
X103919709Y-146967173D01*
X103858882Y-146779970D01*
X103769523Y-146604594D01*
X103653828Y-146445354D01*
X103514646Y-146306172D01*
X103435025Y-146248324D01*
X103355403Y-146190474D01*
X103178787Y-146100485D01*
X103127990Y-146052511D01*
X103111195Y-145984690D01*
X103133732Y-145918555D01*
X103178787Y-145879515D01*
X103355403Y-145789525D01*
X103355402Y-145789525D01*
X103355405Y-145789524D01*
X103514646Y-145673828D01*
X103653828Y-145534646D01*
X103769524Y-145375405D01*
X103858884Y-145200025D01*
X103919709Y-145012826D01*
X103935521Y-144912993D01*
X103950500Y-144818422D01*
X103950500Y-144621577D01*
X103919709Y-144427173D01*
X103858882Y-144239970D01*
X103811743Y-144147455D01*
X103769524Y-144064595D01*
X103653828Y-143905354D01*
X103514646Y-143766172D01*
X103435025Y-143708324D01*
X103355403Y-143650474D01*
X103178787Y-143560485D01*
X103127990Y-143512511D01*
X103111195Y-143444690D01*
X103133732Y-143378555D01*
X103178787Y-143339515D01*
X103355403Y-143249525D01*
X103355402Y-143249525D01*
X103355405Y-143249524D01*
X103514646Y-143133828D01*
X103653828Y-142994646D01*
X103769524Y-142835405D01*
X103858884Y-142660025D01*
X103919709Y-142472826D01*
X103950500Y-142278422D01*
X103950500Y-142081577D01*
X103919709Y-141887173D01*
X103858882Y-141699970D01*
X103769523Y-141524594D01*
X103653828Y-141365354D01*
X103514646Y-141226172D01*
X103435025Y-141168324D01*
X103355403Y-141110474D01*
X103178787Y-141020485D01*
X103127990Y-140972511D01*
X103111195Y-140904690D01*
X103133732Y-140838555D01*
X103178787Y-140799515D01*
X103355403Y-140709525D01*
X103355402Y-140709525D01*
X103355405Y-140709524D01*
X103514646Y-140593828D01*
X103639176Y-140469298D01*
X107224500Y-140469298D01*
X107224500Y-142850701D01*
X107227401Y-142887567D01*
X107227402Y-142887573D01*
X107273254Y-143045393D01*
X107273255Y-143045396D01*
X107356917Y-143186862D01*
X107356923Y-143186870D01*
X107473129Y-143303076D01*
X107473133Y-143303079D01*
X107473135Y-143303081D01*
X107614602Y-143386744D01*
X107621865Y-143388854D01*
X107772426Y-143432597D01*
X107772429Y-143432597D01*
X107772431Y-143432598D01*
X107809306Y-143435500D01*
X107809314Y-143435500D01*
X110190686Y-143435500D01*
X110190694Y-143435500D01*
X110227569Y-143432598D01*
X110227571Y-143432597D01*
X110227573Y-143432597D01*
X110269191Y-143420505D01*
X110385398Y-143386744D01*
X110526865Y-143303081D01*
X110643081Y-143186865D01*
X110726744Y-143045398D01*
X110772598Y-142887569D01*
X110775500Y-142850694D01*
X110775500Y-140469306D01*
X110772598Y-140432431D01*
X110761428Y-140393985D01*
X110726745Y-140274606D01*
X110726744Y-140274603D01*
X110726744Y-140274602D01*
X110643081Y-140133135D01*
X110643079Y-140133133D01*
X110643076Y-140133129D01*
X110526870Y-140016923D01*
X110526862Y-140016917D01*
X110385396Y-139933255D01*
X110385393Y-139933254D01*
X110227573Y-139887402D01*
X110227567Y-139887401D01*
X110190701Y-139884500D01*
X110190694Y-139884500D01*
X107809306Y-139884500D01*
X107809298Y-139884500D01*
X107772432Y-139887401D01*
X107772426Y-139887402D01*
X107614606Y-139933254D01*
X107614603Y-139933255D01*
X107473137Y-140016917D01*
X107473129Y-140016923D01*
X107356923Y-140133129D01*
X107356917Y-140133137D01*
X107273255Y-140274603D01*
X107273254Y-140274606D01*
X107227402Y-140432426D01*
X107227401Y-140432432D01*
X107224500Y-140469298D01*
X103639176Y-140469298D01*
X103653828Y-140454646D01*
X103769524Y-140295405D01*
X103858884Y-140120025D01*
X103919709Y-139932826D01*
X103950500Y-139738422D01*
X103950500Y-139541577D01*
X103919709Y-139347173D01*
X103858882Y-139159970D01*
X103769523Y-138984594D01*
X103653828Y-138825354D01*
X103514646Y-138686172D01*
X103435025Y-138628324D01*
X103355403Y-138570474D01*
X103178787Y-138480485D01*
X103127990Y-138432511D01*
X103111195Y-138364690D01*
X103133732Y-138298555D01*
X103178787Y-138259515D01*
X103355403Y-138169525D01*
X103355402Y-138169525D01*
X103355405Y-138169524D01*
X103514646Y-138053828D01*
X103653828Y-137914646D01*
X103769524Y-137755405D01*
X103858884Y-137580025D01*
X103919709Y-137392826D01*
X103950500Y-137198422D01*
X103950500Y-137001577D01*
X103919709Y-136807173D01*
X103886054Y-136703596D01*
X103858884Y-136619975D01*
X103858882Y-136619972D01*
X103858882Y-136619970D01*
X103773344Y-136452093D01*
X103769524Y-136444595D01*
X103653828Y-136285354D01*
X103626318Y-136257844D01*
X108950000Y-136257844D01*
X108956401Y-136317372D01*
X108956403Y-136317379D01*
X109006645Y-136452086D01*
X109006649Y-136452093D01*
X109092809Y-136567187D01*
X109092812Y-136567190D01*
X109207906Y-136653350D01*
X109207913Y-136653354D01*
X109342620Y-136703596D01*
X109342627Y-136703598D01*
X109402155Y-136709999D01*
X109402172Y-136710000D01*
X109800000Y-136710000D01*
X109800000Y-135860000D01*
X108950000Y-135860000D01*
X108950000Y-136257844D01*
X103626318Y-136257844D01*
X103514646Y-136146172D01*
X103400162Y-136062994D01*
X103355403Y-136030474D01*
X103178787Y-135940485D01*
X103169632Y-135931839D01*
X103157966Y-135927104D01*
X103144714Y-135908306D01*
X103127990Y-135892511D01*
X103124962Y-135880287D01*
X103117709Y-135869997D01*
X103116724Y-135847017D01*
X103111195Y-135824690D01*
X103115256Y-135812772D01*
X103114717Y-135800192D01*
X103126312Y-135780326D01*
X103133732Y-135758555D01*
X103144434Y-135749280D01*
X103149940Y-135739850D01*
X103178787Y-135719515D01*
X103220710Y-135698154D01*
X103220712Y-135698153D01*
X103355405Y-135629524D01*
X103514646Y-135513828D01*
X103621135Y-135407339D01*
X109800000Y-135407339D01*
X109800000Y-135512661D01*
X109827259Y-135614394D01*
X109879920Y-135705606D01*
X109954394Y-135780080D01*
X110045606Y-135832741D01*
X110147339Y-135860000D01*
X110252661Y-135860000D01*
X110354394Y-135832741D01*
X110445606Y-135780080D01*
X110520080Y-135705606D01*
X110572741Y-135614394D01*
X110600000Y-135512661D01*
X110600000Y-136710000D01*
X110997828Y-136710000D01*
X110997844Y-136709999D01*
X111057372Y-136703598D01*
X111057379Y-136703596D01*
X111192086Y-136653354D01*
X111192093Y-136653350D01*
X111307187Y-136567190D01*
X111307190Y-136567187D01*
X111393350Y-136452093D01*
X111393354Y-136452086D01*
X111443596Y-136317379D01*
X111443598Y-136317372D01*
X111449999Y-136257844D01*
X111450000Y-136257827D01*
X111450000Y-135978926D01*
X111469685Y-135911887D01*
X111522489Y-135866132D01*
X111591647Y-135856188D01*
X111655203Y-135885213D01*
X111684485Y-135922631D01*
X111739435Y-136030476D01*
X111756006Y-136062997D01*
X111862441Y-136209494D01*
X111862445Y-136209499D01*
X111990500Y-136337554D01*
X111990505Y-136337558D01*
X112061841Y-136389386D01*
X112137006Y-136443996D01*
X112242484Y-136497740D01*
X112298360Y-136526211D01*
X112298363Y-136526212D01*
X112384476Y-136554191D01*
X112470591Y-136582171D01*
X112553429Y-136595291D01*
X112649449Y-136610500D01*
X112649454Y-136610500D01*
X112830551Y-136610500D01*
X112917259Y-136596765D01*
X113009409Y-136582171D01*
X113181639Y-136526211D01*
X113342994Y-136443996D01*
X113489501Y-136337553D01*
X113617553Y-136209501D01*
X113723996Y-136062994D01*
X113806211Y-135901639D01*
X113862171Y-135729409D01*
X113877991Y-135629523D01*
X113887527Y-135569321D01*
X113917456Y-135506186D01*
X113976768Y-135469255D01*
X114046630Y-135470253D01*
X114104863Y-135508863D01*
X114132473Y-135569321D01*
X114157829Y-135729410D01*
X114213787Y-135901636D01*
X114213788Y-135901639D01*
X114296006Y-136062997D01*
X114402441Y-136209494D01*
X114402445Y-136209499D01*
X114530500Y-136337554D01*
X114530505Y-136337558D01*
X114601841Y-136389386D01*
X114677006Y-136443996D01*
X114782484Y-136497740D01*
X114838360Y-136526211D01*
X114838363Y-136526212D01*
X114924476Y-136554191D01*
X115010591Y-136582171D01*
X115093429Y-136595291D01*
X115189449Y-136610500D01*
X115189454Y-136610500D01*
X115370551Y-136610500D01*
X115457259Y-136596765D01*
X115549409Y-136582171D01*
X115721639Y-136526211D01*
X115882994Y-136443996D01*
X115925841Y-136412865D01*
X115991644Y-136389386D01*
X116059698Y-136405210D01*
X116099941Y-136446029D01*
X116101331Y-136444989D01*
X116192809Y-136567187D01*
X116192812Y-136567190D01*
X116307906Y-136653350D01*
X116307913Y-136653354D01*
X116442620Y-136703596D01*
X116442627Y-136703598D01*
X116502155Y-136709999D01*
X116502172Y-136710000D01*
X116900000Y-136710000D01*
X116900000Y-135512661D01*
X116927259Y-135614394D01*
X116979920Y-135705606D01*
X117054394Y-135780080D01*
X117145606Y-135832741D01*
X117247339Y-135860000D01*
X117352661Y-135860000D01*
X117454394Y-135832741D01*
X117545606Y-135780080D01*
X117620080Y-135705606D01*
X117672741Y-135614394D01*
X117700000Y-135512661D01*
X117700000Y-136710000D01*
X118097828Y-136710000D01*
X118097844Y-136709999D01*
X118157372Y-136703598D01*
X118157379Y-136703596D01*
X118292086Y-136653354D01*
X118292093Y-136653350D01*
X118407187Y-136567190D01*
X118407190Y-136567187D01*
X118493350Y-136452093D01*
X118493354Y-136452086D01*
X118543596Y-136317379D01*
X118543598Y-136317372D01*
X118549999Y-136257844D01*
X118550000Y-136257827D01*
X118550000Y-135978926D01*
X118569685Y-135911887D01*
X118622489Y-135866132D01*
X118691647Y-135856188D01*
X118755203Y-135885213D01*
X118784485Y-135922631D01*
X118839435Y-136030476D01*
X118856006Y-136062997D01*
X118962441Y-136209494D01*
X118962445Y-136209499D01*
X119090500Y-136337554D01*
X119090505Y-136337558D01*
X119161841Y-136389386D01*
X119237006Y-136443996D01*
X119342484Y-136497740D01*
X119398360Y-136526211D01*
X119398363Y-136526212D01*
X119484476Y-136554191D01*
X119570591Y-136582171D01*
X119653429Y-136595291D01*
X119749449Y-136610500D01*
X119749454Y-136610500D01*
X119930551Y-136610500D01*
X120017259Y-136596765D01*
X120109409Y-136582171D01*
X120281639Y-136526211D01*
X120442994Y-136443996D01*
X120589501Y-136337553D01*
X120717553Y-136209501D01*
X120823996Y-136062994D01*
X120906211Y-135901639D01*
X120962171Y-135729409D01*
X120977991Y-135629523D01*
X120987527Y-135569321D01*
X121017456Y-135506186D01*
X121076768Y-135469255D01*
X121146630Y-135470253D01*
X121204863Y-135508863D01*
X121232473Y-135569321D01*
X121257829Y-135729410D01*
X121313787Y-135901636D01*
X121313788Y-135901639D01*
X121396006Y-136062997D01*
X121502441Y-136209494D01*
X121502445Y-136209499D01*
X121630500Y-136337554D01*
X121630505Y-136337558D01*
X121701841Y-136389386D01*
X121777006Y-136443996D01*
X121882484Y-136497740D01*
X121938360Y-136526211D01*
X121938363Y-136526212D01*
X122024476Y-136554191D01*
X122110591Y-136582171D01*
X122193429Y-136595291D01*
X122289449Y-136610500D01*
X122289454Y-136610500D01*
X122470551Y-136610500D01*
X122557259Y-136596765D01*
X122649409Y-136582171D01*
X122821639Y-136526211D01*
X122982994Y-136443996D01*
X123129501Y-136337553D01*
X123257553Y-136209501D01*
X123363996Y-136062994D01*
X123446211Y-135901639D01*
X123502171Y-135729409D01*
X123517991Y-135629523D01*
X123530500Y-135550551D01*
X123530500Y-135369448D01*
X123505941Y-135214394D01*
X123502171Y-135190591D01*
X123468597Y-135087259D01*
X123446212Y-135018363D01*
X123446211Y-135018360D01*
X123417740Y-134962484D01*
X123363996Y-134857006D01*
X123350396Y-134838287D01*
X123257558Y-134710505D01*
X123257554Y-134710500D01*
X123129499Y-134582445D01*
X123129494Y-134582441D01*
X122982997Y-134476006D01*
X122982996Y-134476005D01*
X122982994Y-134476004D01*
X122931300Y-134449664D01*
X122821639Y-134393788D01*
X122821636Y-134393787D01*
X122649410Y-134337829D01*
X122470551Y-134309500D01*
X122470546Y-134309500D01*
X122289454Y-134309500D01*
X122289449Y-134309500D01*
X122110589Y-134337829D01*
X121938363Y-134393787D01*
X121938360Y-134393788D01*
X121777002Y-134476006D01*
X121630505Y-134582441D01*
X121630500Y-134582445D01*
X121502445Y-134710500D01*
X121502441Y-134710505D01*
X121396006Y-134857002D01*
X121313788Y-135018360D01*
X121313787Y-135018363D01*
X121257829Y-135190589D01*
X121232473Y-135350678D01*
X121202544Y-135413813D01*
X121143232Y-135450744D01*
X121073369Y-135449746D01*
X121015137Y-135411136D01*
X120987527Y-135350678D01*
X120965941Y-135214394D01*
X120962171Y-135190591D01*
X120928597Y-135087259D01*
X120906212Y-135018363D01*
X120906211Y-135018360D01*
X120877740Y-134962484D01*
X120823996Y-134857006D01*
X120810396Y-134838287D01*
X120717558Y-134710505D01*
X120717554Y-134710500D01*
X120589499Y-134582445D01*
X120589494Y-134582441D01*
X120442997Y-134476006D01*
X120442996Y-134476005D01*
X120442994Y-134476004D01*
X120391300Y-134449664D01*
X120281639Y-134393788D01*
X120281636Y-134393787D01*
X120109410Y-134337829D01*
X119930551Y-134309500D01*
X119930546Y-134309500D01*
X119749454Y-134309500D01*
X119749449Y-134309500D01*
X119570589Y-134337829D01*
X119398363Y-134393787D01*
X119398360Y-134393788D01*
X119237002Y-134476006D01*
X119090505Y-134582441D01*
X119090500Y-134582445D01*
X118962445Y-134710500D01*
X118962441Y-134710505D01*
X118856004Y-134857004D01*
X118784484Y-134997369D01*
X118736510Y-135048164D01*
X118668689Y-135064959D01*
X118602554Y-135042421D01*
X118559103Y-134987706D01*
X118550000Y-134941073D01*
X118550000Y-134662172D01*
X118549999Y-134662155D01*
X118543598Y-134602627D01*
X118543596Y-134602620D01*
X118493354Y-134467913D01*
X118493350Y-134467906D01*
X118407190Y-134352812D01*
X118407187Y-134352809D01*
X118292093Y-134266649D01*
X118292086Y-134266645D01*
X118157379Y-134216403D01*
X118157372Y-134216401D01*
X118097844Y-134210000D01*
X117700000Y-134210000D01*
X117700000Y-135407339D01*
X117672741Y-135305606D01*
X117620080Y-135214394D01*
X117545606Y-135139920D01*
X117454394Y-135087259D01*
X117352661Y-135060000D01*
X117247339Y-135060000D01*
X117145606Y-135087259D01*
X117054394Y-135139920D01*
X116979920Y-135214394D01*
X116927259Y-135305606D01*
X116900000Y-135407339D01*
X116900000Y-134210000D01*
X116502155Y-134210000D01*
X116442627Y-134216401D01*
X116442620Y-134216403D01*
X116307913Y-134266645D01*
X116307906Y-134266649D01*
X116192812Y-134352809D01*
X116192809Y-134352812D01*
X116101331Y-134475011D01*
X116099879Y-134473924D01*
X116058139Y-134515654D01*
X115989864Y-134530498D01*
X115925840Y-134507133D01*
X115882994Y-134476004D01*
X115867101Y-134467906D01*
X115721639Y-134393788D01*
X115721636Y-134393787D01*
X115549410Y-134337829D01*
X115370551Y-134309500D01*
X115370546Y-134309500D01*
X115189454Y-134309500D01*
X115189449Y-134309500D01*
X115010589Y-134337829D01*
X114838363Y-134393787D01*
X114838360Y-134393788D01*
X114677002Y-134476006D01*
X114530505Y-134582441D01*
X114530500Y-134582445D01*
X114402445Y-134710500D01*
X114402441Y-134710505D01*
X114296006Y-134857002D01*
X114213788Y-135018360D01*
X114213787Y-135018363D01*
X114157829Y-135190589D01*
X114132473Y-135350678D01*
X114102544Y-135413813D01*
X114043232Y-135450744D01*
X113973369Y-135449746D01*
X113915137Y-135411136D01*
X113887527Y-135350678D01*
X113865941Y-135214394D01*
X113862171Y-135190591D01*
X113828597Y-135087259D01*
X113806212Y-135018363D01*
X113806211Y-135018360D01*
X113777740Y-134962484D01*
X113723996Y-134857006D01*
X113710396Y-134838287D01*
X113617558Y-134710505D01*
X113617554Y-134710500D01*
X113489499Y-134582445D01*
X113489494Y-134582441D01*
X113342997Y-134476006D01*
X113342996Y-134476005D01*
X113342994Y-134476004D01*
X113291300Y-134449664D01*
X113181639Y-134393788D01*
X113181636Y-134393787D01*
X113009410Y-134337829D01*
X112830551Y-134309500D01*
X112830546Y-134309500D01*
X112649454Y-134309500D01*
X112649449Y-134309500D01*
X112470589Y-134337829D01*
X112298363Y-134393787D01*
X112298360Y-134393788D01*
X112137002Y-134476006D01*
X111990505Y-134582441D01*
X111990500Y-134582445D01*
X111862445Y-134710500D01*
X111862441Y-134710505D01*
X111756004Y-134857004D01*
X111684484Y-134997369D01*
X111636510Y-135048164D01*
X111568689Y-135064959D01*
X111502554Y-135042421D01*
X111459103Y-134987706D01*
X111450000Y-134941073D01*
X111450000Y-134662172D01*
X111449999Y-134662155D01*
X111443598Y-134602627D01*
X111443596Y-134602620D01*
X111393354Y-134467913D01*
X111393350Y-134467906D01*
X111307190Y-134352812D01*
X111307187Y-134352809D01*
X111192093Y-134266649D01*
X111192086Y-134266645D01*
X111057379Y-134216403D01*
X111057372Y-134216401D01*
X110997844Y-134210000D01*
X110600000Y-134210000D01*
X110600000Y-135407339D01*
X110572741Y-135305606D01*
X110520080Y-135214394D01*
X110445606Y-135139920D01*
X110354394Y-135087259D01*
X110252661Y-135060000D01*
X110147339Y-135060000D01*
X110045606Y-135087259D01*
X109954394Y-135139920D01*
X109879920Y-135214394D01*
X109827259Y-135305606D01*
X109800000Y-135407339D01*
X103621135Y-135407339D01*
X103653828Y-135374646D01*
X103769524Y-135215405D01*
X103858884Y-135040025D01*
X103919709Y-134852826D01*
X103949909Y-134662155D01*
X108950000Y-134662155D01*
X108950000Y-135060000D01*
X109800000Y-135060000D01*
X109800000Y-134210000D01*
X109402155Y-134210000D01*
X109342627Y-134216401D01*
X109342620Y-134216403D01*
X109207913Y-134266645D01*
X109207906Y-134266649D01*
X109092812Y-134352809D01*
X109092809Y-134352812D01*
X109006649Y-134467906D01*
X109006645Y-134467913D01*
X108956403Y-134602620D01*
X108956401Y-134602627D01*
X108950000Y-134662155D01*
X103949909Y-134662155D01*
X103950500Y-134658422D01*
X103950500Y-134461577D01*
X103919709Y-134267173D01*
X103858882Y-134079970D01*
X103769523Y-133904594D01*
X103653828Y-133745354D01*
X103514646Y-133606172D01*
X103435025Y-133548324D01*
X103355403Y-133490474D01*
X103178787Y-133400485D01*
X103127990Y-133352511D01*
X103111195Y-133284690D01*
X103133732Y-133218555D01*
X103178787Y-133179515D01*
X103355403Y-133089525D01*
X103355402Y-133089525D01*
X103355405Y-133089524D01*
X103514646Y-132973828D01*
X103653828Y-132834646D01*
X103769524Y-132675405D01*
X103858884Y-132500025D01*
X103919709Y-132312826D01*
X103920631Y-132307007D01*
X103950500Y-132118422D01*
X103950500Y-131921577D01*
X103919709Y-131727173D01*
X103858882Y-131539970D01*
X103769523Y-131364594D01*
X103717101Y-131292442D01*
X103653828Y-131205354D01*
X103514646Y-131066172D01*
X103435025Y-131008324D01*
X103355403Y-130950474D01*
X103178787Y-130860485D01*
X103127990Y-130812511D01*
X103111195Y-130744690D01*
X103133732Y-130678555D01*
X103178787Y-130639515D01*
X103355403Y-130549525D01*
X103355402Y-130549525D01*
X103355405Y-130549524D01*
X103514646Y-130433828D01*
X103653828Y-130294646D01*
X103769524Y-130135405D01*
X103858884Y-129960025D01*
X103919709Y-129772826D01*
X103950500Y-129578422D01*
X103950500Y-129381577D01*
X103919709Y-129187173D01*
X103858882Y-128999970D01*
X103811743Y-128907455D01*
X103769524Y-128824595D01*
X103653828Y-128665354D01*
X103514646Y-128526172D01*
X103360798Y-128414394D01*
X103355403Y-128410474D01*
X103178787Y-128320485D01*
X103127990Y-128272511D01*
X103111195Y-128204690D01*
X103133732Y-128138555D01*
X103178787Y-128099515D01*
X103355403Y-128009525D01*
X103355402Y-128009525D01*
X103355405Y-128009524D01*
X103514646Y-127893828D01*
X103653828Y-127754646D01*
X103734001Y-127644298D01*
X109299500Y-127644298D01*
X109299500Y-128875701D01*
X109302401Y-128912567D01*
X109302402Y-128912573D01*
X109348254Y-129070393D01*
X109348255Y-129070396D01*
X109431917Y-129211862D01*
X109431923Y-129211870D01*
X109548129Y-129328076D01*
X109548133Y-129328079D01*
X109548135Y-129328081D01*
X109689602Y-129411744D01*
X109731224Y-129423836D01*
X109847426Y-129457597D01*
X109847429Y-129457597D01*
X109847431Y-129457598D01*
X109884306Y-129460500D01*
X109884314Y-129460500D01*
X111115686Y-129460500D01*
X111115694Y-129460500D01*
X111152569Y-129457598D01*
X111152571Y-129457597D01*
X111152573Y-129457597D01*
X111194191Y-129445505D01*
X111310398Y-129411744D01*
X111451865Y-129328081D01*
X111505970Y-129273975D01*
X111567289Y-129240492D01*
X111636981Y-129245476D01*
X111666535Y-129261340D01*
X111818650Y-129371859D01*
X112000968Y-129464755D01*
X112195582Y-129527990D01*
X112397683Y-129560000D01*
X112602317Y-129560000D01*
X112804417Y-129527990D01*
X112999031Y-129464755D01*
X113091801Y-129417485D01*
X112304838Y-128630523D01*
X112287837Y-128599388D01*
X112345606Y-128632741D01*
X112447339Y-128660000D01*
X112552661Y-128660000D01*
X112654394Y-128632741D01*
X112745606Y-128580080D01*
X112820080Y-128505606D01*
X112872741Y-128414394D01*
X112900000Y-128312661D01*
X112900000Y-128259999D01*
X113065685Y-128259999D01*
X113065685Y-128260000D01*
X113657485Y-128851800D01*
X113704755Y-128759031D01*
X113767990Y-128564417D01*
X113800000Y-128362317D01*
X113800000Y-128157682D01*
X113767990Y-127955582D01*
X113704755Y-127760968D01*
X113657485Y-127668198D01*
X113065685Y-128259999D01*
X112900000Y-128259999D01*
X112900000Y-128207339D01*
X112872741Y-128105606D01*
X112820080Y-128014394D01*
X112745606Y-127939920D01*
X112654394Y-127887259D01*
X112552661Y-127860000D01*
X112447339Y-127860000D01*
X112345606Y-127887259D01*
X112283052Y-127923374D01*
X112304838Y-127889476D01*
X113091801Y-127102512D01*
X112999034Y-127055246D01*
X112999027Y-127055243D01*
X112804417Y-126992009D01*
X112602317Y-126960000D01*
X112397683Y-126960000D01*
X112195582Y-126992009D01*
X112000968Y-127055244D01*
X111818646Y-127148142D01*
X111666534Y-127258658D01*
X111600728Y-127282138D01*
X111532674Y-127266312D01*
X111505968Y-127246021D01*
X111451870Y-127191923D01*
X111451862Y-127191917D01*
X111310396Y-127108255D01*
X111310393Y-127108254D01*
X111152573Y-127062402D01*
X111152567Y-127062401D01*
X111115701Y-127059500D01*
X111115694Y-127059500D01*
X109884306Y-127059500D01*
X109884298Y-127059500D01*
X109847432Y-127062401D01*
X109847426Y-127062402D01*
X109689606Y-127108254D01*
X109689603Y-127108255D01*
X109548137Y-127191917D01*
X109548129Y-127191923D01*
X109431923Y-127308129D01*
X109431917Y-127308137D01*
X109348255Y-127449603D01*
X109348254Y-127449606D01*
X109302402Y-127607426D01*
X109302401Y-127607432D01*
X109299500Y-127644298D01*
X103734001Y-127644298D01*
X103769524Y-127595405D01*
X103858884Y-127420025D01*
X103919709Y-127232826D01*
X103929684Y-127169846D01*
X103950500Y-127038422D01*
X103950500Y-126841577D01*
X103919709Y-126647173D01*
X103891487Y-126560317D01*
X103858884Y-126459975D01*
X103858882Y-126459972D01*
X103858882Y-126459970D01*
X103811743Y-126367455D01*
X103769524Y-126284595D01*
X103653828Y-126125354D01*
X103514646Y-125986172D01*
X103435025Y-125928324D01*
X103355403Y-125870474D01*
X103178787Y-125780485D01*
X103127990Y-125732511D01*
X103111195Y-125664690D01*
X103133732Y-125598555D01*
X103178787Y-125559515D01*
X103355403Y-125469525D01*
X103355402Y-125469525D01*
X103355405Y-125469524D01*
X103514646Y-125353828D01*
X103653828Y-125214646D01*
X103769524Y-125055405D01*
X103858884Y-124880025D01*
X103919709Y-124692826D01*
X103950500Y-124498422D01*
X103950500Y-124301577D01*
X103919709Y-124107173D01*
X103858882Y-123919970D01*
X103769523Y-123744594D01*
X103653828Y-123585354D01*
X103514646Y-123446172D01*
X103435025Y-123388324D01*
X103355403Y-123330474D01*
X103178787Y-123240485D01*
X103127990Y-123192511D01*
X103111195Y-123124690D01*
X103133732Y-123058555D01*
X103178787Y-123019515D01*
X103355403Y-122929525D01*
X103355402Y-122929525D01*
X103355405Y-122929524D01*
X103514646Y-122813828D01*
X103653828Y-122674646D01*
X103769524Y-122515405D01*
X103858884Y-122340025D01*
X103919709Y-122152826D01*
X103940846Y-122019372D01*
X103950500Y-121958422D01*
X103950500Y-121761577D01*
X103919709Y-121567173D01*
X103858882Y-121379970D01*
X103769523Y-121204594D01*
X103753959Y-121183172D01*
X103653828Y-121045354D01*
X103514646Y-120906172D01*
X103435025Y-120848324D01*
X103355403Y-120790474D01*
X103178787Y-120700485D01*
X103127990Y-120652511D01*
X103111195Y-120584690D01*
X103133732Y-120518555D01*
X103178787Y-120479515D01*
X103355403Y-120389525D01*
X103355402Y-120389525D01*
X103355405Y-120389524D01*
X103514646Y-120273828D01*
X103653828Y-120134646D01*
X103769524Y-119975405D01*
X103858884Y-119800025D01*
X103919709Y-119612826D01*
X103950500Y-119418422D01*
X103950500Y-119221577D01*
X103919709Y-119027173D01*
X103858882Y-118839970D01*
X103769523Y-118664594D01*
X103753959Y-118643172D01*
X103653828Y-118505354D01*
X103514646Y-118366172D01*
X103435025Y-118308324D01*
X103355403Y-118250474D01*
X103178787Y-118160485D01*
X103127990Y-118112511D01*
X103111195Y-118044690D01*
X103133732Y-117978555D01*
X103178787Y-117939515D01*
X103355403Y-117849525D01*
X103355402Y-117849525D01*
X103355405Y-117849524D01*
X103514646Y-117733828D01*
X103653828Y-117594646D01*
X103769524Y-117435405D01*
X103858884Y-117260025D01*
X103919709Y-117072826D01*
X103950500Y-116878422D01*
X103950500Y-116681577D01*
X103919709Y-116487173D01*
X103858882Y-116299970D01*
X103769523Y-116124594D01*
X103653828Y-115965354D01*
X103514646Y-115826172D01*
X103435025Y-115768324D01*
X103355403Y-115710474D01*
X103178787Y-115620485D01*
X103169632Y-115611839D01*
X103157966Y-115607104D01*
X103144714Y-115588305D01*
X103127990Y-115572511D01*
X103124963Y-115560288D01*
X103117709Y-115549998D01*
X103116723Y-115527017D01*
X103111195Y-115504690D01*
X103115256Y-115492772D01*
X103114717Y-115480192D01*
X103126312Y-115460326D01*
X103133732Y-115438555D01*
X103136709Y-115435975D01*
X110599500Y-115435975D01*
X110599500Y-117404017D01*
X110610292Y-117472157D01*
X110614354Y-117497804D01*
X110671950Y-117610842D01*
X110671952Y-117610844D01*
X110671954Y-117610847D01*
X110761652Y-117700545D01*
X110761654Y-117700546D01*
X110761658Y-117700550D01*
X110874696Y-117758146D01*
X110950482Y-117770149D01*
X111013615Y-117800077D01*
X111050547Y-117859389D01*
X111049549Y-117929251D01*
X111018765Y-117980303D01*
X110920488Y-118078580D01*
X110795310Y-118250872D01*
X110698624Y-118440627D01*
X110698623Y-118440630D01*
X110632815Y-118643170D01*
X110599500Y-118853511D01*
X110599500Y-119066488D01*
X110632815Y-119276829D01*
X110698623Y-119479369D01*
X110698624Y-119479372D01*
X110746099Y-119572545D01*
X110795310Y-119669127D01*
X110920489Y-119841421D01*
X111071079Y-119992011D01*
X111243373Y-120117190D01*
X111247790Y-120119440D01*
X111247938Y-120119516D01*
X111298733Y-120167491D01*
X111315527Y-120235313D01*
X111292988Y-120301447D01*
X111247938Y-120340484D01*
X111243372Y-120342810D01*
X111179075Y-120389525D01*
X111071079Y-120467989D01*
X111071077Y-120467991D01*
X111071076Y-120467991D01*
X110920491Y-120618576D01*
X110920491Y-120618577D01*
X110920489Y-120618579D01*
X110895836Y-120652511D01*
X110795310Y-120790872D01*
X110698624Y-120980627D01*
X110698623Y-120980630D01*
X110632815Y-121183170D01*
X110599500Y-121393511D01*
X110599500Y-121606488D01*
X110632815Y-121816829D01*
X110698623Y-122019369D01*
X110698624Y-122019372D01*
X110766623Y-122152826D01*
X110795310Y-122209127D01*
X110920489Y-122381421D01*
X111071079Y-122532011D01*
X111243373Y-122657190D01*
X111336442Y-122704611D01*
X111433127Y-122753875D01*
X111433130Y-122753876D01*
X111534400Y-122786780D01*
X111635672Y-122819685D01*
X111733092Y-122835114D01*
X111846012Y-122853000D01*
X111846017Y-122853000D01*
X112153988Y-122853000D01*
X112255958Y-122836848D01*
X112364328Y-122819685D01*
X112566872Y-122753875D01*
X112756627Y-122657190D01*
X112928921Y-122532011D01*
X113079511Y-122381421D01*
X113204690Y-122209127D01*
X113301375Y-122019372D01*
X113367185Y-121816828D01*
X113384348Y-121708458D01*
X113400500Y-121606488D01*
X113400500Y-121393511D01*
X113370578Y-121204595D01*
X113367185Y-121183172D01*
X113301375Y-120980628D01*
X113301375Y-120980627D01*
X113204689Y-120790872D01*
X113079511Y-120618579D01*
X112928921Y-120467989D01*
X112756627Y-120342810D01*
X112752066Y-120340486D01*
X112701269Y-120292514D01*
X112684472Y-120224693D01*
X112707007Y-120158557D01*
X112752066Y-120119514D01*
X112752297Y-120119396D01*
X112756627Y-120117190D01*
X112928921Y-119992011D01*
X113079511Y-119841421D01*
X113204690Y-119669127D01*
X113301375Y-119479372D01*
X113367185Y-119276828D01*
X113384348Y-119168458D01*
X113400500Y-119066488D01*
X113400500Y-118853511D01*
X113370578Y-118664595D01*
X113367185Y-118643172D01*
X113301375Y-118440628D01*
X113301375Y-118440627D01*
X113204689Y-118250872D01*
X113079511Y-118078579D01*
X112981234Y-117980302D01*
X112947749Y-117918979D01*
X112952733Y-117849287D01*
X112994605Y-117793354D01*
X113049516Y-117770148D01*
X113125304Y-117758146D01*
X113238342Y-117700550D01*
X113328050Y-117610842D01*
X113385646Y-117497804D01*
X113385646Y-117497802D01*
X113385647Y-117497801D01*
X113400499Y-117404024D01*
X113400500Y-117404019D01*
X113400499Y-115435982D01*
X113385646Y-115342196D01*
X113328050Y-115229158D01*
X113328046Y-115229154D01*
X113328045Y-115229152D01*
X113238347Y-115139454D01*
X113238344Y-115139452D01*
X113238342Y-115139450D01*
X113161517Y-115100305D01*
X113125301Y-115081852D01*
X113031524Y-115067000D01*
X110968482Y-115067000D01*
X110887519Y-115079823D01*
X110874696Y-115081854D01*
X110761658Y-115139450D01*
X110761657Y-115139451D01*
X110761652Y-115139454D01*
X110671954Y-115229152D01*
X110671951Y-115229157D01*
X110614352Y-115342198D01*
X110599500Y-115435975D01*
X103136709Y-115435975D01*
X103144434Y-115429280D01*
X103149940Y-115419850D01*
X103178787Y-115399515D01*
X103333618Y-115320625D01*
X103333620Y-115320624D01*
X103334839Y-115320002D01*
X103355405Y-115309524D01*
X103514646Y-115193828D01*
X103653828Y-115054646D01*
X103769524Y-114895405D01*
X103858884Y-114720025D01*
X103919709Y-114532826D01*
X103950500Y-114338422D01*
X103950500Y-114141577D01*
X103919709Y-113947173D01*
X103858882Y-113759970D01*
X103769523Y-113584594D01*
X103653828Y-113425354D01*
X103514646Y-113286172D01*
X103355405Y-113170476D01*
X103288370Y-113136320D01*
X103237574Y-113088345D01*
X103220779Y-113020524D01*
X103243316Y-112954389D01*
X103288370Y-112915350D01*
X103328975Y-112894660D01*
X102700001Y-112265686D01*
X102700000Y-112265686D01*
X102071023Y-112894660D01*
X102111629Y-112915350D01*
X102162425Y-112963325D01*
X102179220Y-113031146D01*
X102156683Y-113097280D01*
X102111630Y-113136319D01*
X102044597Y-113170474D01*
X101964974Y-113228324D01*
X101885354Y-113286172D01*
X101885352Y-113286174D01*
X101885351Y-113286174D01*
X101746174Y-113425351D01*
X101746174Y-113425352D01*
X101746172Y-113425354D01*
X101710479Y-113474481D01*
X101630476Y-113584594D01*
X101541117Y-113759970D01*
X101480290Y-113947173D01*
X101449500Y-114141577D01*
X78550500Y-114141577D01*
X78519709Y-113947173D01*
X78458882Y-113759970D01*
X78369523Y-113584594D01*
X78253828Y-113425354D01*
X78114646Y-113286172D01*
X78035025Y-113228324D01*
X77955403Y-113170474D01*
X77778787Y-113080485D01*
X77727990Y-113032511D01*
X77711195Y-112964690D01*
X77733732Y-112898555D01*
X77778787Y-112859515D01*
X77955403Y-112769525D01*
X77955402Y-112769525D01*
X77955405Y-112769524D01*
X78114646Y-112653828D01*
X78253828Y-112514646D01*
X78369524Y-112355405D01*
X78458884Y-112180025D01*
X78519709Y-111992826D01*
X78535521Y-111892993D01*
X78550500Y-111798422D01*
X78550500Y-111601580D01*
X78550499Y-111601574D01*
X78549260Y-111593753D01*
X101350000Y-111593753D01*
X101350000Y-111806246D01*
X101383242Y-112016127D01*
X101383242Y-112016130D01*
X101448904Y-112218217D01*
X101448906Y-112218220D01*
X101505338Y-112328975D01*
X102134314Y-111700000D01*
X102068488Y-111634174D01*
X102200000Y-111634174D01*
X102200000Y-111765826D01*
X102234075Y-111892993D01*
X102299901Y-112007007D01*
X102392993Y-112100099D01*
X102507007Y-112165925D01*
X102634174Y-112200000D01*
X102765826Y-112200000D01*
X102892993Y-112165925D01*
X103007007Y-112100099D01*
X103100099Y-112007007D01*
X103165925Y-111892993D01*
X103200000Y-111765826D01*
X103200000Y-111699999D01*
X103265686Y-111699999D01*
X103265686Y-111700000D01*
X103894660Y-112328975D01*
X103951092Y-112218222D01*
X104016757Y-112016130D01*
X104016757Y-112016127D01*
X104050000Y-111806246D01*
X104050000Y-111593753D01*
X104016757Y-111383872D01*
X104016757Y-111383869D01*
X103951095Y-111181782D01*
X103894660Y-111071023D01*
X103265686Y-111699999D01*
X103200000Y-111699999D01*
X103200000Y-111634174D01*
X103165925Y-111507007D01*
X103100099Y-111392993D01*
X103007007Y-111299901D01*
X102892993Y-111234075D01*
X102765826Y-111200000D01*
X102634174Y-111200000D01*
X102507007Y-111234075D01*
X102392993Y-111299901D01*
X102299901Y-111392993D01*
X102234075Y-111507007D01*
X102200000Y-111634174D01*
X102068488Y-111634174D01*
X101505337Y-111071023D01*
X101448905Y-111181780D01*
X101448905Y-111181781D01*
X101383242Y-111383869D01*
X101383242Y-111383872D01*
X101350000Y-111593753D01*
X78549260Y-111593753D01*
X78519709Y-111407173D01*
X78458882Y-111219970D01*
X78411743Y-111127455D01*
X78369524Y-111044595D01*
X78253828Y-110885354D01*
X78114646Y-110746172D01*
X77955405Y-110630476D01*
X77780029Y-110541117D01*
X77669911Y-110505337D01*
X102071023Y-110505337D01*
X102700000Y-111134314D01*
X102700001Y-111134314D01*
X102978461Y-110855853D01*
X105699500Y-110855853D01*
X105699500Y-111013546D01*
X105730261Y-111168189D01*
X105730264Y-111168201D01*
X105790602Y-111313872D01*
X105790609Y-111313885D01*
X105878210Y-111444988D01*
X105878213Y-111444992D01*
X105989707Y-111556486D01*
X105989711Y-111556489D01*
X106120814Y-111644090D01*
X106120827Y-111644097D01*
X106255791Y-111700000D01*
X106266503Y-111704437D01*
X106421153Y-111735199D01*
X106421156Y-111735200D01*
X106421158Y-111735200D01*
X106578844Y-111735200D01*
X106578845Y-111735199D01*
X106733497Y-111704437D01*
X106879179Y-111644094D01*
X107010289Y-111556489D01*
X107121789Y-111444989D01*
X107209394Y-111313879D01*
X107269737Y-111168197D01*
X107300500Y-111013542D01*
X107300500Y-110855858D01*
X107300500Y-110855855D01*
X107300499Y-110855853D01*
X107269738Y-110701210D01*
X107269737Y-110701203D01*
X107269735Y-110701198D01*
X107209397Y-110555527D01*
X107209390Y-110555514D01*
X107121789Y-110424411D01*
X107121786Y-110424407D01*
X107010292Y-110312913D01*
X107010288Y-110312910D01*
X106879185Y-110225309D01*
X106879172Y-110225302D01*
X106733501Y-110164964D01*
X106733489Y-110164961D01*
X106578845Y-110134200D01*
X106578842Y-110134200D01*
X106421158Y-110134200D01*
X106421155Y-110134200D01*
X106266510Y-110164961D01*
X106266498Y-110164964D01*
X106120827Y-110225302D01*
X106120814Y-110225309D01*
X105989711Y-110312910D01*
X105989707Y-110312913D01*
X105878213Y-110424407D01*
X105878210Y-110424411D01*
X105790609Y-110555514D01*
X105790602Y-110555527D01*
X105730264Y-110701198D01*
X105730261Y-110701210D01*
X105699500Y-110855853D01*
X102978461Y-110855853D01*
X103072229Y-110762085D01*
X103328975Y-110505338D01*
X103218220Y-110448906D01*
X103218217Y-110448904D01*
X103016128Y-110383242D01*
X102806246Y-110350000D01*
X102593754Y-110350000D01*
X102383872Y-110383242D01*
X102383869Y-110383242D01*
X102181781Y-110448905D01*
X102181780Y-110448905D01*
X102071023Y-110505337D01*
X77669911Y-110505337D01*
X77592826Y-110480290D01*
X77398422Y-110449500D01*
X77398417Y-110449500D01*
X77201583Y-110449500D01*
X77201578Y-110449500D01*
X77007173Y-110480290D01*
X76819970Y-110541117D01*
X76644594Y-110630476D01*
X76553741Y-110696485D01*
X76485354Y-110746172D01*
X76485352Y-110746174D01*
X76485351Y-110746174D01*
X76346174Y-110885351D01*
X76346174Y-110885352D01*
X76346172Y-110885354D01*
X76296485Y-110953741D01*
X76230476Y-111044594D01*
X76141117Y-111219970D01*
X76080290Y-111407173D01*
X76049500Y-111601577D01*
X64500500Y-111601577D01*
X64500500Y-109365513D01*
X70299500Y-109365513D01*
X70299500Y-109554486D01*
X70329059Y-109741118D01*
X70387454Y-109920836D01*
X70473240Y-110089199D01*
X70584310Y-110242073D01*
X70717927Y-110375690D01*
X70870801Y-110486760D01*
X70950347Y-110527290D01*
X71039163Y-110572545D01*
X71039165Y-110572545D01*
X71039168Y-110572547D01*
X71135497Y-110603846D01*
X71218881Y-110630940D01*
X71405514Y-110660500D01*
X71405519Y-110660500D01*
X71594486Y-110660500D01*
X71781118Y-110630940D01*
X71782546Y-110630476D01*
X71960832Y-110572547D01*
X72129199Y-110486760D01*
X72282073Y-110375690D01*
X72415690Y-110242073D01*
X72526760Y-110089199D01*
X72612547Y-109920832D01*
X72670940Y-109741118D01*
X72677169Y-109701790D01*
X72700500Y-109554486D01*
X72700500Y-109365513D01*
X72670940Y-109178881D01*
X72636166Y-109071859D01*
X72612547Y-108999168D01*
X72612544Y-108999164D01*
X72612544Y-108999161D01*
X72594507Y-108963762D01*
X72594506Y-108963761D01*
X72568924Y-108913553D01*
X96651300Y-108913553D01*
X96651300Y-109071246D01*
X96682061Y-109225889D01*
X96682064Y-109225901D01*
X96742402Y-109371572D01*
X96742409Y-109371585D01*
X96830010Y-109502688D01*
X96830013Y-109502692D01*
X96941507Y-109614186D01*
X96941511Y-109614189D01*
X97072614Y-109701790D01*
X97072627Y-109701797D01*
X97167558Y-109741118D01*
X97218303Y-109762137D01*
X97372953Y-109792899D01*
X97372956Y-109792900D01*
X97372958Y-109792900D01*
X97530644Y-109792900D01*
X97530645Y-109792899D01*
X97685297Y-109762137D01*
X97830979Y-109701794D01*
X97962089Y-109614189D01*
X98073589Y-109502689D01*
X98161194Y-109371579D01*
X98221537Y-109225897D01*
X98252300Y-109071242D01*
X98252300Y-108913558D01*
X98252300Y-108913555D01*
X98252299Y-108913553D01*
X98235838Y-108830800D01*
X98221537Y-108758903D01*
X98187995Y-108677924D01*
X98161197Y-108613227D01*
X98161190Y-108613214D01*
X98073589Y-108482111D01*
X98073586Y-108482107D01*
X97962092Y-108370613D01*
X97962088Y-108370610D01*
X97830985Y-108283009D01*
X97830972Y-108283002D01*
X97685301Y-108222664D01*
X97685289Y-108222661D01*
X97530645Y-108191900D01*
X97530642Y-108191900D01*
X97372958Y-108191900D01*
X97372955Y-108191900D01*
X97218310Y-108222661D01*
X97218298Y-108222664D01*
X97072627Y-108283002D01*
X97072614Y-108283009D01*
X96941511Y-108370610D01*
X96941507Y-108370613D01*
X96830013Y-108482107D01*
X96830010Y-108482111D01*
X96742409Y-108613214D01*
X96742402Y-108613227D01*
X96682064Y-108758898D01*
X96682061Y-108758910D01*
X96651300Y-108913553D01*
X72568924Y-108913553D01*
X72526760Y-108830801D01*
X72415690Y-108677927D01*
X72282073Y-108544310D01*
X72129199Y-108433240D01*
X71960836Y-108347454D01*
X71781118Y-108289059D01*
X71594486Y-108259500D01*
X71594481Y-108259500D01*
X71405519Y-108259500D01*
X71405514Y-108259500D01*
X71218881Y-108289059D01*
X71039163Y-108347454D01*
X70870800Y-108433240D01*
X70803536Y-108482111D01*
X70717927Y-108544310D01*
X70717925Y-108544312D01*
X70717924Y-108544312D01*
X70584312Y-108677924D01*
X70584312Y-108677925D01*
X70584310Y-108677927D01*
X70536610Y-108743579D01*
X70473240Y-108830800D01*
X70387454Y-108999163D01*
X70329059Y-109178881D01*
X70299500Y-109365513D01*
X64500500Y-109365513D01*
X64500500Y-107344298D01*
X109299500Y-107344298D01*
X109299500Y-108575701D01*
X109302401Y-108612567D01*
X109302402Y-108612573D01*
X109348254Y-108770393D01*
X109348255Y-108770396D01*
X109348256Y-108770398D01*
X109383978Y-108830801D01*
X109431917Y-108911862D01*
X109431923Y-108911870D01*
X109548129Y-109028076D01*
X109548133Y-109028079D01*
X109548135Y-109028081D01*
X109689602Y-109111744D01*
X109731224Y-109123836D01*
X109847426Y-109157597D01*
X109847429Y-109157597D01*
X109847431Y-109157598D01*
X109884306Y-109160500D01*
X109884314Y-109160500D01*
X111115686Y-109160500D01*
X111115694Y-109160500D01*
X111152569Y-109157598D01*
X111152571Y-109157597D01*
X111152573Y-109157597D01*
X111194191Y-109145505D01*
X111310398Y-109111744D01*
X111451865Y-109028081D01*
X111505970Y-108973975D01*
X111567289Y-108940492D01*
X111636981Y-108945476D01*
X111666535Y-108961340D01*
X111818650Y-109071859D01*
X112000968Y-109164755D01*
X112195582Y-109227990D01*
X112397683Y-109260000D01*
X112602317Y-109260000D01*
X112804417Y-109227990D01*
X112999031Y-109164755D01*
X113091801Y-109117485D01*
X112304838Y-108330523D01*
X112287837Y-108299388D01*
X112345606Y-108332741D01*
X112447339Y-108360000D01*
X112552661Y-108360000D01*
X112654394Y-108332741D01*
X112745606Y-108280080D01*
X112820080Y-108205606D01*
X112872741Y-108114394D01*
X112900000Y-108012661D01*
X112900000Y-107959999D01*
X113065685Y-107959999D01*
X113065685Y-107960000D01*
X113657485Y-108551800D01*
X113704755Y-108459031D01*
X113767990Y-108264417D01*
X113800000Y-108062317D01*
X113800000Y-107857682D01*
X113767990Y-107655582D01*
X113704755Y-107460968D01*
X113657485Y-107368198D01*
X113065685Y-107959999D01*
X112900000Y-107959999D01*
X112900000Y-107907339D01*
X112872741Y-107805606D01*
X112820080Y-107714394D01*
X112745606Y-107639920D01*
X112654394Y-107587259D01*
X112552661Y-107560000D01*
X112447339Y-107560000D01*
X112345606Y-107587259D01*
X112283052Y-107623374D01*
X112304838Y-107589476D01*
X113091801Y-106802512D01*
X112999034Y-106755246D01*
X112999027Y-106755243D01*
X112804417Y-106692009D01*
X112602317Y-106660000D01*
X112397683Y-106660000D01*
X112195582Y-106692009D01*
X112000968Y-106755244D01*
X111818646Y-106848142D01*
X111666534Y-106958658D01*
X111600728Y-106982138D01*
X111532674Y-106966312D01*
X111505968Y-106946021D01*
X111451870Y-106891923D01*
X111451862Y-106891917D01*
X111310396Y-106808255D01*
X111310393Y-106808254D01*
X111152573Y-106762402D01*
X111152567Y-106762401D01*
X111115701Y-106759500D01*
X111115694Y-106759500D01*
X109884306Y-106759500D01*
X109884298Y-106759500D01*
X109847432Y-106762401D01*
X109847426Y-106762402D01*
X109689606Y-106808254D01*
X109689603Y-106808255D01*
X109548137Y-106891917D01*
X109548129Y-106891923D01*
X109431923Y-107008129D01*
X109431917Y-107008137D01*
X109348255Y-107149603D01*
X109348254Y-107149606D01*
X109302402Y-107307426D01*
X109302401Y-107307432D01*
X109299500Y-107344298D01*
X64500500Y-107344298D01*
X64500500Y-102634853D01*
X70103500Y-102634853D01*
X70103500Y-102792546D01*
X70134261Y-102947189D01*
X70134264Y-102947201D01*
X70194602Y-103092872D01*
X70194609Y-103092885D01*
X70282210Y-103223988D01*
X70282213Y-103223992D01*
X70393707Y-103335486D01*
X70393711Y-103335489D01*
X70524814Y-103423090D01*
X70530191Y-103425964D01*
X70529360Y-103427518D01*
X70577267Y-103466120D01*
X70599336Y-103532413D01*
X70582060Y-103600114D01*
X70575733Y-103609732D01*
X70473240Y-103750800D01*
X70387454Y-103919163D01*
X70329059Y-104098881D01*
X70299500Y-104285513D01*
X70299500Y-104474486D01*
X70329059Y-104661118D01*
X70387454Y-104840836D01*
X70473240Y-105009199D01*
X70584310Y-105162073D01*
X70717927Y-105295690D01*
X70870801Y-105406760D01*
X70950347Y-105447290D01*
X71039163Y-105492545D01*
X71039165Y-105492545D01*
X71039168Y-105492547D01*
X71135497Y-105523846D01*
X71218881Y-105550940D01*
X71405514Y-105580500D01*
X71405519Y-105580500D01*
X71594486Y-105580500D01*
X71781118Y-105550940D01*
X71960832Y-105492547D01*
X72129199Y-105406760D01*
X72282073Y-105295690D01*
X72415690Y-105162073D01*
X72526760Y-105009199D01*
X72612547Y-104840832D01*
X72670940Y-104661118D01*
X72700500Y-104474486D01*
X72700500Y-104285513D01*
X72670940Y-104098881D01*
X72612545Y-103919163D01*
X72526759Y-103750800D01*
X72415690Y-103597927D01*
X72282073Y-103464310D01*
X72129199Y-103353240D01*
X72094355Y-103335486D01*
X71960836Y-103267454D01*
X71781119Y-103209060D01*
X71733914Y-103201583D01*
X71670779Y-103171653D01*
X71633849Y-103112341D01*
X71634847Y-103042478D01*
X71638746Y-103031671D01*
X71673737Y-102947197D01*
X71704500Y-102792542D01*
X71704500Y-102634858D01*
X71704500Y-102634855D01*
X71704499Y-102634853D01*
X71673738Y-102480210D01*
X71673737Y-102480203D01*
X71673735Y-102480198D01*
X71613397Y-102334527D01*
X71613390Y-102334514D01*
X71525789Y-102203411D01*
X71525786Y-102203407D01*
X71414292Y-102091913D01*
X71414288Y-102091910D01*
X71283185Y-102004309D01*
X71283172Y-102004302D01*
X71137501Y-101943964D01*
X71137489Y-101943961D01*
X70982845Y-101913200D01*
X70982842Y-101913200D01*
X70825158Y-101913200D01*
X70825155Y-101913200D01*
X70670510Y-101943961D01*
X70670498Y-101943964D01*
X70524827Y-102004302D01*
X70524814Y-102004309D01*
X70393711Y-102091910D01*
X70393707Y-102091913D01*
X70282213Y-102203407D01*
X70282210Y-102203411D01*
X70194609Y-102334514D01*
X70194602Y-102334527D01*
X70134264Y-102480198D01*
X70134261Y-102480210D01*
X70103500Y-102634853D01*
X64500500Y-102634853D01*
X64500500Y-100365513D01*
X66799500Y-100365513D01*
X66799500Y-100554486D01*
X66829059Y-100741118D01*
X66887454Y-100920836D01*
X66973240Y-101089199D01*
X67084310Y-101242073D01*
X67217927Y-101375690D01*
X67370801Y-101486760D01*
X67450347Y-101527290D01*
X67539163Y-101572545D01*
X67539165Y-101572545D01*
X67539168Y-101572547D01*
X67635497Y-101603846D01*
X67718881Y-101630940D01*
X67905514Y-101660500D01*
X67905519Y-101660500D01*
X68094486Y-101660500D01*
X68281118Y-101630940D01*
X68460832Y-101572547D01*
X68629199Y-101486760D01*
X68782073Y-101375690D01*
X68915690Y-101242073D01*
X69026760Y-101089199D01*
X69112547Y-100920832D01*
X69170940Y-100741118D01*
X69184233Y-100657189D01*
X69200500Y-100554486D01*
X69200500Y-100365513D01*
X70299500Y-100365513D01*
X70299500Y-100554486D01*
X70329059Y-100741118D01*
X70387454Y-100920836D01*
X70473240Y-101089199D01*
X70584310Y-101242073D01*
X70717927Y-101375690D01*
X70870801Y-101486760D01*
X70950347Y-101527290D01*
X71039163Y-101572545D01*
X71039165Y-101572545D01*
X71039168Y-101572547D01*
X71135497Y-101603846D01*
X71218881Y-101630940D01*
X71405514Y-101660500D01*
X71405519Y-101660500D01*
X71594486Y-101660500D01*
X71781118Y-101630940D01*
X71960832Y-101572547D01*
X72129199Y-101486760D01*
X72282073Y-101375690D01*
X72415690Y-101242073D01*
X72526760Y-101089199D01*
X72612547Y-100920832D01*
X72670940Y-100741118D01*
X72684233Y-100657189D01*
X72700500Y-100554486D01*
X72700500Y-100365513D01*
X72670940Y-100178881D01*
X72643846Y-100095497D01*
X72612547Y-99999168D01*
X72612545Y-99999165D01*
X72612545Y-99999163D01*
X72526759Y-99830800D01*
X72415690Y-99677927D01*
X72282073Y-99544310D01*
X72129199Y-99433240D01*
X71960836Y-99347454D01*
X71781118Y-99289059D01*
X71594486Y-99259500D01*
X71594481Y-99259500D01*
X71405519Y-99259500D01*
X71405514Y-99259500D01*
X71218881Y-99289059D01*
X71039163Y-99347454D01*
X70870800Y-99433240D01*
X70783579Y-99496610D01*
X70717927Y-99544310D01*
X70717925Y-99544312D01*
X70717924Y-99544312D01*
X70584312Y-99677924D01*
X70584312Y-99677925D01*
X70584310Y-99677927D01*
X70536610Y-99743579D01*
X70473240Y-99830800D01*
X70387454Y-99999163D01*
X70329059Y-100178881D01*
X70299500Y-100365513D01*
X69200500Y-100365513D01*
X69170940Y-100178881D01*
X69143846Y-100095497D01*
X69112547Y-99999168D01*
X69112545Y-99999165D01*
X69112545Y-99999163D01*
X69026759Y-99830800D01*
X68915690Y-99677927D01*
X68782073Y-99544310D01*
X68629199Y-99433240D01*
X68460836Y-99347454D01*
X68281118Y-99289059D01*
X68094486Y-99259500D01*
X68094481Y-99259500D01*
X67905519Y-99259500D01*
X67905514Y-99259500D01*
X67718881Y-99289059D01*
X67539163Y-99347454D01*
X67370800Y-99433240D01*
X67283579Y-99496610D01*
X67217927Y-99544310D01*
X67217925Y-99544312D01*
X67217924Y-99544312D01*
X67084312Y-99677924D01*
X67084312Y-99677925D01*
X67084310Y-99677927D01*
X67036610Y-99743579D01*
X66973240Y-99830800D01*
X66887454Y-99999163D01*
X66829059Y-100178881D01*
X66799500Y-100365513D01*
X64500500Y-100365513D01*
X64500500Y-96537485D01*
X67408198Y-96537485D01*
X67500968Y-96584755D01*
X67695582Y-96647990D01*
X67897683Y-96680000D01*
X68102317Y-96680000D01*
X68304417Y-96647990D01*
X68499031Y-96584755D01*
X68591801Y-96537485D01*
X68000001Y-95945685D01*
X68000000Y-95945685D01*
X67408198Y-96537485D01*
X64500500Y-96537485D01*
X64500500Y-95277682D01*
X66700000Y-95277682D01*
X66700000Y-95482317D01*
X66732009Y-95684417D01*
X66795243Y-95879027D01*
X66795246Y-95879034D01*
X66842512Y-95971801D01*
X67434314Y-95380000D01*
X67434314Y-95379999D01*
X67381654Y-95327339D01*
X67600000Y-95327339D01*
X67600000Y-95432661D01*
X67627259Y-95534394D01*
X67679920Y-95625606D01*
X67754394Y-95700080D01*
X67845606Y-95752741D01*
X67947339Y-95780000D01*
X68052661Y-95780000D01*
X68154394Y-95752741D01*
X68245606Y-95700080D01*
X68320080Y-95625606D01*
X68372741Y-95534394D01*
X68400000Y-95432661D01*
X68400000Y-95379999D01*
X68565685Y-95379999D01*
X68565685Y-95380000D01*
X69157485Y-95971800D01*
X69204755Y-95879031D01*
X69267990Y-95684417D01*
X69300000Y-95482317D01*
X69300000Y-95285513D01*
X70299500Y-95285513D01*
X70299500Y-95474486D01*
X70329059Y-95661118D01*
X70387454Y-95840836D01*
X70454184Y-95971800D01*
X70473240Y-96009199D01*
X70584310Y-96162073D01*
X70717927Y-96295690D01*
X70870801Y-96406760D01*
X70950347Y-96447290D01*
X71039163Y-96492545D01*
X71039165Y-96492545D01*
X71039168Y-96492547D01*
X71123321Y-96519890D01*
X71218881Y-96550940D01*
X71405514Y-96580500D01*
X71405519Y-96580500D01*
X71594486Y-96580500D01*
X71723922Y-96559999D01*
X110555220Y-96559999D01*
X110555220Y-96560000D01*
X111622182Y-96560000D01*
X111559890Y-96622292D01*
X111487482Y-96747708D01*
X111450000Y-96887591D01*
X111450000Y-97032409D01*
X111487482Y-97172292D01*
X111559890Y-97297708D01*
X111622182Y-97360000D01*
X110555220Y-97360000D01*
X110606414Y-97517563D01*
X110606416Y-97517566D01*
X110710211Y-97721276D01*
X110844597Y-97906242D01*
X111006257Y-98067902D01*
X111006263Y-98067907D01*
X111175927Y-98191175D01*
X111218593Y-98246505D01*
X111224572Y-98316118D01*
X111191966Y-98377913D01*
X111175928Y-98391810D01*
X111071085Y-98467984D01*
X111071076Y-98467991D01*
X110920491Y-98618576D01*
X110920491Y-98618577D01*
X110920489Y-98618579D01*
X110866729Y-98692572D01*
X110795310Y-98790872D01*
X110698624Y-98980627D01*
X110698623Y-98980630D01*
X110632815Y-99183170D01*
X110599500Y-99393511D01*
X110599500Y-99606488D01*
X110632815Y-99816829D01*
X110698623Y-100019369D01*
X110698624Y-100019372D01*
X110779899Y-100178881D01*
X110795310Y-100209127D01*
X110920489Y-100381421D01*
X111071079Y-100532011D01*
X111243373Y-100657190D01*
X111336442Y-100704611D01*
X111433127Y-100753875D01*
X111433130Y-100753876D01*
X111534400Y-100786780D01*
X111635672Y-100819685D01*
X111733092Y-100835114D01*
X111846012Y-100853000D01*
X111846017Y-100853000D01*
X112153988Y-100853000D01*
X112255958Y-100836848D01*
X112364328Y-100819685D01*
X112566872Y-100753875D01*
X112756627Y-100657190D01*
X112928921Y-100532011D01*
X113079511Y-100381421D01*
X113204690Y-100209127D01*
X113301375Y-100019372D01*
X113367185Y-99816828D01*
X113389185Y-99677924D01*
X113400500Y-99606488D01*
X113400500Y-99393511D01*
X113379274Y-99259500D01*
X113367185Y-99183172D01*
X113301375Y-98980628D01*
X113301375Y-98980627D01*
X113204689Y-98790872D01*
X113079511Y-98618579D01*
X112928921Y-98467989D01*
X112824070Y-98391810D01*
X112781406Y-98336481D01*
X112775427Y-98266867D01*
X112808033Y-98205072D01*
X112824072Y-98191175D01*
X112993736Y-98067907D01*
X112993742Y-98067902D01*
X113155402Y-97906242D01*
X113289788Y-97721276D01*
X113393583Y-97517566D01*
X113393585Y-97517563D01*
X113444780Y-97360000D01*
X112377818Y-97360000D01*
X112440110Y-97297708D01*
X112512518Y-97172292D01*
X112550000Y-97032409D01*
X112550000Y-96887591D01*
X112512518Y-96747708D01*
X112440110Y-96622292D01*
X112377818Y-96560000D01*
X113444780Y-96560000D01*
X113444779Y-96559999D01*
X113393585Y-96402436D01*
X113393583Y-96402433D01*
X113289788Y-96198723D01*
X113155402Y-96013757D01*
X113096593Y-95954948D01*
X113063108Y-95893625D01*
X113068092Y-95823933D01*
X113109964Y-95768000D01*
X113127970Y-95756787D01*
X113238342Y-95700550D01*
X113328050Y-95610842D01*
X113385646Y-95497804D01*
X113385646Y-95497802D01*
X113385647Y-95497801D01*
X113400499Y-95404024D01*
X113400500Y-95404019D01*
X113400499Y-93435982D01*
X113385646Y-93342196D01*
X113328050Y-93229158D01*
X113328046Y-93229154D01*
X113328045Y-93229152D01*
X113238347Y-93139454D01*
X113238344Y-93139452D01*
X113238342Y-93139450D01*
X113161517Y-93100305D01*
X113125301Y-93081852D01*
X113031524Y-93067000D01*
X110968482Y-93067000D01*
X110887519Y-93079823D01*
X110874696Y-93081854D01*
X110761658Y-93139450D01*
X110761657Y-93139451D01*
X110761652Y-93139454D01*
X110671954Y-93229152D01*
X110671951Y-93229157D01*
X110614352Y-93342198D01*
X110599500Y-93435975D01*
X110599500Y-95404017D01*
X110604037Y-95432661D01*
X110614354Y-95497804D01*
X110671950Y-95610842D01*
X110671952Y-95610844D01*
X110671954Y-95610847D01*
X110761652Y-95700545D01*
X110761654Y-95700546D01*
X110761658Y-95700550D01*
X110872021Y-95756783D01*
X110922816Y-95804757D01*
X110939611Y-95872578D01*
X110917073Y-95938713D01*
X110903407Y-95954948D01*
X110844595Y-96013760D01*
X110710211Y-96198723D01*
X110606416Y-96402433D01*
X110606414Y-96402436D01*
X110555220Y-96559999D01*
X71723922Y-96559999D01*
X71781118Y-96550940D01*
X71960832Y-96492547D01*
X72129199Y-96406760D01*
X72282073Y-96295690D01*
X72415690Y-96162073D01*
X72526760Y-96009199D01*
X72612547Y-95840832D01*
X72670940Y-95661118D01*
X72700500Y-95474486D01*
X72700500Y-95285513D01*
X72670940Y-95098881D01*
X72612545Y-94919163D01*
X72559121Y-94814314D01*
X72526760Y-94750801D01*
X72415690Y-94597927D01*
X72282073Y-94464310D01*
X72129199Y-94353240D01*
X72081694Y-94329035D01*
X71960836Y-94267454D01*
X71781118Y-94209059D01*
X71594486Y-94179500D01*
X71594481Y-94179500D01*
X71405519Y-94179500D01*
X71405514Y-94179500D01*
X71218881Y-94209059D01*
X71039163Y-94267454D01*
X70870800Y-94353240D01*
X70783579Y-94416610D01*
X70717927Y-94464310D01*
X70717925Y-94464312D01*
X70717924Y-94464312D01*
X70584312Y-94597924D01*
X70584312Y-94597925D01*
X70584310Y-94597927D01*
X70536610Y-94663579D01*
X70473240Y-94750800D01*
X70387454Y-94919163D01*
X70329059Y-95098881D01*
X70299500Y-95285513D01*
X69300000Y-95285513D01*
X69300000Y-95277682D01*
X69267990Y-95075582D01*
X69204755Y-94880968D01*
X69157485Y-94788198D01*
X68565685Y-95379999D01*
X68400000Y-95379999D01*
X68400000Y-95327339D01*
X68372741Y-95225606D01*
X68320080Y-95134394D01*
X68245606Y-95059920D01*
X68154394Y-95007259D01*
X68052661Y-94980000D01*
X67947339Y-94980000D01*
X67845606Y-95007259D01*
X67754394Y-95059920D01*
X67679920Y-95134394D01*
X67627259Y-95225606D01*
X67600000Y-95327339D01*
X67381654Y-95327339D01*
X66842512Y-94788197D01*
X66795242Y-94880973D01*
X66795242Y-94880974D01*
X66732010Y-95075578D01*
X66732010Y-95075581D01*
X66700000Y-95277682D01*
X64500500Y-95277682D01*
X64500500Y-94222512D01*
X67408197Y-94222512D01*
X68000000Y-94814314D01*
X68000001Y-94814314D01*
X68591801Y-94222512D01*
X68499034Y-94175246D01*
X68499027Y-94175243D01*
X68304417Y-94112009D01*
X68102317Y-94080000D01*
X67897683Y-94080000D01*
X67695581Y-94112010D01*
X67695578Y-94112010D01*
X67500974Y-94175242D01*
X67500973Y-94175242D01*
X67408197Y-94222512D01*
X64500500Y-94222512D01*
X64500500Y-93480453D01*
X91199500Y-93480453D01*
X91199500Y-93638146D01*
X91230261Y-93792789D01*
X91230264Y-93792801D01*
X91290602Y-93938472D01*
X91290609Y-93938485D01*
X91378210Y-94069588D01*
X91378213Y-94069592D01*
X91489707Y-94181086D01*
X91489711Y-94181089D01*
X91620814Y-94268690D01*
X91620827Y-94268697D01*
X91766498Y-94329035D01*
X91766503Y-94329037D01*
X91888179Y-94353240D01*
X91921153Y-94359799D01*
X91921156Y-94359800D01*
X91921158Y-94359800D01*
X92078844Y-94359800D01*
X92078845Y-94359799D01*
X92233497Y-94329037D01*
X92379179Y-94268694D01*
X92510289Y-94181089D01*
X92621789Y-94069589D01*
X92709394Y-93938479D01*
X92769737Y-93792797D01*
X92800500Y-93638142D01*
X92800500Y-93480458D01*
X92800500Y-93480455D01*
X92800499Y-93480453D01*
X92772998Y-93342197D01*
X92769737Y-93325803D01*
X92729706Y-93229158D01*
X92709397Y-93180127D01*
X92709390Y-93180114D01*
X92621789Y-93049011D01*
X92621786Y-93049007D01*
X92510292Y-92937513D01*
X92510288Y-92937510D01*
X92379185Y-92849909D01*
X92379172Y-92849902D01*
X92233501Y-92789564D01*
X92233489Y-92789561D01*
X92078845Y-92758800D01*
X92078842Y-92758800D01*
X91921158Y-92758800D01*
X91921155Y-92758800D01*
X91766510Y-92789561D01*
X91766498Y-92789564D01*
X91620827Y-92849902D01*
X91620814Y-92849909D01*
X91489711Y-92937510D01*
X91489707Y-92937513D01*
X91378213Y-93049007D01*
X91378210Y-93049011D01*
X91290609Y-93180114D01*
X91290602Y-93180127D01*
X91230264Y-93325798D01*
X91230261Y-93325810D01*
X91199500Y-93480453D01*
X64500500Y-93480453D01*
X64500500Y-91365513D01*
X66799500Y-91365513D01*
X66799500Y-91554486D01*
X66829059Y-91741118D01*
X66887454Y-91920836D01*
X66973240Y-92089199D01*
X67084310Y-92242073D01*
X67217927Y-92375690D01*
X67370801Y-92486760D01*
X67450347Y-92527290D01*
X67539163Y-92572545D01*
X67539165Y-92572545D01*
X67539168Y-92572547D01*
X67635497Y-92603846D01*
X67718881Y-92630940D01*
X67905514Y-92660500D01*
X67905519Y-92660500D01*
X68094486Y-92660500D01*
X68281118Y-92630940D01*
X68460832Y-92572547D01*
X68629199Y-92486760D01*
X68782073Y-92375690D01*
X68915690Y-92242073D01*
X69026760Y-92089199D01*
X69112547Y-91920832D01*
X69170940Y-91741118D01*
X69200500Y-91554486D01*
X69200500Y-91365513D01*
X69170940Y-91178881D01*
X69112545Y-90999163D01*
X69026759Y-90830800D01*
X68915690Y-90677927D01*
X68782073Y-90544310D01*
X68629199Y-90433240D01*
X68460836Y-90347454D01*
X68281118Y-90289059D01*
X68094486Y-90259500D01*
X68094481Y-90259500D01*
X67905519Y-90259500D01*
X67905514Y-90259500D01*
X67718881Y-90289059D01*
X67539163Y-90347454D01*
X67370800Y-90433240D01*
X67283579Y-90496610D01*
X67217927Y-90544310D01*
X67217925Y-90544312D01*
X67217924Y-90544312D01*
X67084312Y-90677924D01*
X67084312Y-90677925D01*
X67084310Y-90677927D01*
X67036610Y-90743579D01*
X66973240Y-90830800D01*
X66887454Y-90999163D01*
X66829059Y-91178881D01*
X66799500Y-91365513D01*
X64500500Y-91365513D01*
X64500500Y-87537485D01*
X67408198Y-87537485D01*
X67500968Y-87584755D01*
X67695582Y-87647990D01*
X67897683Y-87680000D01*
X68102317Y-87680000D01*
X68304417Y-87647990D01*
X68499031Y-87584755D01*
X68591800Y-87537485D01*
X68323867Y-87269552D01*
X68238613Y-87184298D01*
X78749500Y-87184298D01*
X78749500Y-88815701D01*
X78752401Y-88852567D01*
X78752402Y-88852573D01*
X78798254Y-89010393D01*
X78798255Y-89010396D01*
X78881917Y-89151862D01*
X78881923Y-89151870D01*
X78998129Y-89268076D01*
X78998133Y-89268079D01*
X78998135Y-89268081D01*
X79139602Y-89351744D01*
X79181224Y-89363836D01*
X79297426Y-89397597D01*
X79297429Y-89397597D01*
X79297431Y-89397598D01*
X79334306Y-89400500D01*
X79334314Y-89400500D01*
X80665686Y-89400500D01*
X80665694Y-89400500D01*
X80702569Y-89397598D01*
X80702571Y-89397597D01*
X80702573Y-89397597D01*
X80744191Y-89385505D01*
X80860398Y-89351744D01*
X81001865Y-89268081D01*
X81118081Y-89151865D01*
X81201744Y-89010398D01*
X81203876Y-89003060D01*
X81241481Y-88944173D01*
X81304953Y-88914965D01*
X81374139Y-88924710D01*
X81423272Y-88964767D01*
X81470278Y-89029466D01*
X81620535Y-89179723D01*
X81620540Y-89179727D01*
X81792442Y-89304620D01*
X81981779Y-89401094D01*
X81981785Y-89401096D01*
X82099999Y-89439505D01*
X82100000Y-89439505D01*
X82900000Y-89439505D01*
X83018214Y-89401096D01*
X83018220Y-89401094D01*
X83207557Y-89304620D01*
X83379459Y-89179727D01*
X83379464Y-89179723D01*
X83529723Y-89029464D01*
X83529727Y-89029459D01*
X83654620Y-88857557D01*
X83751095Y-88668217D01*
X83816757Y-88466129D01*
X83816757Y-88466126D01*
X83827231Y-88400000D01*
X82900000Y-88400000D01*
X82900000Y-89439505D01*
X82100000Y-89439505D01*
X82100000Y-88307106D01*
X82192993Y-88400099D01*
X82307007Y-88465925D01*
X82434174Y-88500000D01*
X82565826Y-88500000D01*
X82692993Y-88465925D01*
X82807007Y-88400099D01*
X82900099Y-88307007D01*
X82965925Y-88192993D01*
X83000000Y-88065826D01*
X83000000Y-87934174D01*
X82965925Y-87807007D01*
X82900099Y-87692993D01*
X82807106Y-87600000D01*
X82900000Y-87600000D01*
X83827231Y-87600000D01*
X83816757Y-87533873D01*
X83816757Y-87533870D01*
X83751095Y-87331782D01*
X83703395Y-87238166D01*
X83675947Y-87184298D01*
X90749500Y-87184298D01*
X90749500Y-88815701D01*
X90752401Y-88852567D01*
X90752402Y-88852573D01*
X90798254Y-89010393D01*
X90798255Y-89010396D01*
X90881917Y-89151862D01*
X90881923Y-89151870D01*
X90998129Y-89268076D01*
X90998133Y-89268079D01*
X90998135Y-89268081D01*
X91139602Y-89351744D01*
X91181224Y-89363836D01*
X91297426Y-89397597D01*
X91297429Y-89397597D01*
X91297431Y-89397598D01*
X91334306Y-89400500D01*
X91334314Y-89400500D01*
X92665686Y-89400500D01*
X92665694Y-89400500D01*
X92702569Y-89397598D01*
X92702571Y-89397597D01*
X92702573Y-89397597D01*
X92744191Y-89385505D01*
X92860398Y-89351744D01*
X93001865Y-89268081D01*
X93118081Y-89151865D01*
X93201744Y-89010398D01*
X93203876Y-89003060D01*
X93241481Y-88944173D01*
X93304953Y-88914965D01*
X93374139Y-88924710D01*
X93423272Y-88964767D01*
X93470278Y-89029466D01*
X93620535Y-89179723D01*
X93620540Y-89179727D01*
X93792442Y-89304620D01*
X93981779Y-89401094D01*
X93981785Y-89401096D01*
X94099999Y-89439505D01*
X94100000Y-89439505D01*
X94900000Y-89439505D01*
X95018214Y-89401096D01*
X95018220Y-89401094D01*
X95207557Y-89304620D01*
X95379459Y-89179727D01*
X95379464Y-89179723D01*
X95529723Y-89029464D01*
X95529727Y-89029459D01*
X95654620Y-88857557D01*
X95751095Y-88668217D01*
X95816757Y-88466129D01*
X95816757Y-88466126D01*
X95827231Y-88400000D01*
X94900000Y-88400000D01*
X94900000Y-89439505D01*
X94100000Y-89439505D01*
X94100000Y-88307106D01*
X94192993Y-88400099D01*
X94307007Y-88465925D01*
X94434174Y-88500000D01*
X94565826Y-88500000D01*
X94692993Y-88465925D01*
X94807007Y-88400099D01*
X94900099Y-88307007D01*
X94965925Y-88192993D01*
X95000000Y-88065826D01*
X95000000Y-87934174D01*
X94965925Y-87807007D01*
X94900099Y-87692993D01*
X94807106Y-87600000D01*
X94900000Y-87600000D01*
X95827231Y-87600000D01*
X95816757Y-87533873D01*
X95816757Y-87533870D01*
X95751095Y-87331782D01*
X95654620Y-87142442D01*
X95529727Y-86970540D01*
X95529723Y-86970535D01*
X95379464Y-86820276D01*
X95379459Y-86820272D01*
X95207557Y-86695379D01*
X95018222Y-86598907D01*
X94900000Y-86560494D01*
X94900000Y-87600000D01*
X94807106Y-87600000D01*
X94807007Y-87599901D01*
X94692993Y-87534075D01*
X94565826Y-87500000D01*
X94434174Y-87500000D01*
X94307007Y-87534075D01*
X94192993Y-87599901D01*
X94100000Y-87692894D01*
X94100000Y-86560494D01*
X94099999Y-86560494D01*
X93981777Y-86598907D01*
X93792442Y-86695379D01*
X93620540Y-86820272D01*
X93620535Y-86820276D01*
X93470276Y-86970535D01*
X93470272Y-86970540D01*
X93423271Y-87035232D01*
X93367941Y-87077898D01*
X93298328Y-87083877D01*
X93236533Y-87051271D01*
X93203876Y-86996941D01*
X93201744Y-86989602D01*
X93118081Y-86848135D01*
X93118079Y-86848133D01*
X93118076Y-86848129D01*
X93001870Y-86731923D01*
X93001862Y-86731917D01*
X92860396Y-86648255D01*
X92860393Y-86648254D01*
X92702573Y-86602402D01*
X92702567Y-86602401D01*
X92665701Y-86599500D01*
X92665694Y-86599500D01*
X91334306Y-86599500D01*
X91334298Y-86599500D01*
X91297432Y-86602401D01*
X91297426Y-86602402D01*
X91139606Y-86648254D01*
X91139603Y-86648255D01*
X90998137Y-86731917D01*
X90998129Y-86731923D01*
X90881923Y-86848129D01*
X90881917Y-86848137D01*
X90798255Y-86989603D01*
X90798254Y-86989606D01*
X90752402Y-87147426D01*
X90752401Y-87147432D01*
X90749500Y-87184298D01*
X83675947Y-87184298D01*
X83654620Y-87142442D01*
X83529727Y-86970540D01*
X83529723Y-86970535D01*
X83379464Y-86820276D01*
X83379459Y-86820272D01*
X83207557Y-86695379D01*
X83018222Y-86598907D01*
X82900000Y-86560494D01*
X82900000Y-87600000D01*
X82807106Y-87600000D01*
X82807007Y-87599901D01*
X82692993Y-87534075D01*
X82565826Y-87500000D01*
X82434174Y-87500000D01*
X82307007Y-87534075D01*
X82192993Y-87599901D01*
X82100000Y-87692894D01*
X82100000Y-86560494D01*
X82099999Y-86560494D01*
X81981777Y-86598907D01*
X81792442Y-86695379D01*
X81620540Y-86820272D01*
X81620535Y-86820276D01*
X81470276Y-86970535D01*
X81470272Y-86970540D01*
X81423271Y-87035232D01*
X81367941Y-87077898D01*
X81298328Y-87083877D01*
X81236533Y-87051271D01*
X81203876Y-86996941D01*
X81201744Y-86989602D01*
X81118081Y-86848135D01*
X81118079Y-86848133D01*
X81118076Y-86848129D01*
X81001870Y-86731923D01*
X81001862Y-86731917D01*
X80860396Y-86648255D01*
X80860393Y-86648254D01*
X80702573Y-86602402D01*
X80702567Y-86602401D01*
X80665701Y-86599500D01*
X80665694Y-86599500D01*
X79334306Y-86599500D01*
X79334298Y-86599500D01*
X79297432Y-86602401D01*
X79297426Y-86602402D01*
X79139606Y-86648254D01*
X79139603Y-86648255D01*
X78998137Y-86731917D01*
X78998129Y-86731923D01*
X78881923Y-86848129D01*
X78881917Y-86848137D01*
X78798255Y-86989603D01*
X78798254Y-86989606D01*
X78752402Y-87147426D01*
X78752401Y-87147432D01*
X78749500Y-87184298D01*
X68238613Y-87184298D01*
X68000001Y-86945685D01*
X68000000Y-86945685D01*
X67408198Y-87537485D01*
X64500500Y-87537485D01*
X64500500Y-86277682D01*
X66700000Y-86277682D01*
X66700000Y-86482317D01*
X66732009Y-86684417D01*
X66795243Y-86879027D01*
X66795246Y-86879034D01*
X66842512Y-86971801D01*
X67434314Y-86380000D01*
X67434314Y-86379999D01*
X67381654Y-86327339D01*
X67600000Y-86327339D01*
X67600000Y-86432661D01*
X67627259Y-86534394D01*
X67679920Y-86625606D01*
X67754394Y-86700080D01*
X67845606Y-86752741D01*
X67947339Y-86780000D01*
X68052661Y-86780000D01*
X68154394Y-86752741D01*
X68245606Y-86700080D01*
X68320080Y-86625606D01*
X68372741Y-86534394D01*
X68400000Y-86432661D01*
X68400000Y-86379999D01*
X68565685Y-86379999D01*
X68565685Y-86380000D01*
X69157485Y-86971800D01*
X69204755Y-86879031D01*
X69267990Y-86684417D01*
X69300000Y-86482317D01*
X69300000Y-86277682D01*
X69267990Y-86075582D01*
X69204755Y-85880968D01*
X69157485Y-85788198D01*
X68565685Y-86379999D01*
X68400000Y-86379999D01*
X68400000Y-86327339D01*
X68372741Y-86225606D01*
X68320080Y-86134394D01*
X68245606Y-86059920D01*
X68154394Y-86007259D01*
X68052661Y-85980000D01*
X67947339Y-85980000D01*
X67845606Y-86007259D01*
X67754394Y-86059920D01*
X67679920Y-86134394D01*
X67627259Y-86225606D01*
X67600000Y-86327339D01*
X67381654Y-86327339D01*
X66842512Y-85788197D01*
X66795242Y-85880973D01*
X66795242Y-85880974D01*
X66732010Y-86075578D01*
X66732010Y-86075581D01*
X66700000Y-86277682D01*
X64500500Y-86277682D01*
X64500500Y-85222512D01*
X67408197Y-85222512D01*
X68000000Y-85814314D01*
X68000001Y-85814314D01*
X68470016Y-85344298D01*
X109299500Y-85344298D01*
X109299500Y-86575701D01*
X109302401Y-86612567D01*
X109302402Y-86612573D01*
X109348254Y-86770393D01*
X109348255Y-86770396D01*
X109431917Y-86911862D01*
X109431923Y-86911870D01*
X109548129Y-87028076D01*
X109548133Y-87028079D01*
X109548135Y-87028081D01*
X109689602Y-87111744D01*
X109731224Y-87123836D01*
X109847426Y-87157597D01*
X109847429Y-87157597D01*
X109847431Y-87157598D01*
X109884306Y-87160500D01*
X109884314Y-87160500D01*
X111115686Y-87160500D01*
X111115694Y-87160500D01*
X111152569Y-87157598D01*
X111152571Y-87157597D01*
X111152573Y-87157597D01*
X111204736Y-87142442D01*
X111310398Y-87111744D01*
X111451865Y-87028081D01*
X111568081Y-86911865D01*
X111651744Y-86770398D01*
X111697598Y-86612569D01*
X111700500Y-86575694D01*
X111700500Y-85344306D01*
X111697598Y-85307431D01*
X111651744Y-85149602D01*
X111568081Y-85008135D01*
X111568079Y-85008133D01*
X111568076Y-85008129D01*
X111451870Y-84891923D01*
X111451862Y-84891917D01*
X111310396Y-84808255D01*
X111310393Y-84808254D01*
X111152573Y-84762402D01*
X111152567Y-84762401D01*
X111115701Y-84759500D01*
X111115694Y-84759500D01*
X109884306Y-84759500D01*
X109884298Y-84759500D01*
X109847432Y-84762401D01*
X109847426Y-84762402D01*
X109689606Y-84808254D01*
X109689603Y-84808255D01*
X109548137Y-84891917D01*
X109548129Y-84891923D01*
X109431923Y-85008129D01*
X109431917Y-85008137D01*
X109348255Y-85149603D01*
X109348254Y-85149606D01*
X109302402Y-85307426D01*
X109302401Y-85307432D01*
X109299500Y-85344298D01*
X68470016Y-85344298D01*
X68560124Y-85254190D01*
X68591801Y-85222512D01*
X68499034Y-85175246D01*
X68499027Y-85175243D01*
X68304417Y-85112009D01*
X68102317Y-85080000D01*
X67897683Y-85080000D01*
X67695581Y-85112010D01*
X67695578Y-85112010D01*
X67500974Y-85175242D01*
X67500973Y-85175242D01*
X67408197Y-85222512D01*
X64500500Y-85222512D01*
X64500500Y-83666853D01*
X113064200Y-83666853D01*
X113064200Y-83824546D01*
X113094961Y-83979189D01*
X113094964Y-83979201D01*
X113155302Y-84124872D01*
X113155309Y-84124885D01*
X113242910Y-84255988D01*
X113242913Y-84255992D01*
X113354407Y-84367486D01*
X113354411Y-84367489D01*
X113485514Y-84455090D01*
X113485527Y-84455097D01*
X113631198Y-84515435D01*
X113631203Y-84515437D01*
X113785853Y-84546199D01*
X113785856Y-84546200D01*
X113785858Y-84546200D01*
X113943544Y-84546200D01*
X113943545Y-84546199D01*
X114098197Y-84515437D01*
X114243879Y-84455094D01*
X114374989Y-84367489D01*
X114486489Y-84255989D01*
X114574094Y-84124879D01*
X114634437Y-83979197D01*
X114665200Y-83824542D01*
X114665200Y-83666858D01*
X114665200Y-83666855D01*
X114665199Y-83666853D01*
X114634438Y-83512210D01*
X114634437Y-83512203D01*
X114577891Y-83375687D01*
X114574097Y-83366527D01*
X114574090Y-83366514D01*
X114486489Y-83235411D01*
X114486486Y-83235407D01*
X114374992Y-83123913D01*
X114374988Y-83123910D01*
X114243885Y-83036309D01*
X114243872Y-83036302D01*
X114098201Y-82975964D01*
X114098189Y-82975961D01*
X113943545Y-82945200D01*
X113943542Y-82945200D01*
X113785858Y-82945200D01*
X113785855Y-82945200D01*
X113631210Y-82975961D01*
X113631198Y-82975964D01*
X113485527Y-83036302D01*
X113485514Y-83036309D01*
X113354411Y-83123910D01*
X113354407Y-83123913D01*
X113242913Y-83235407D01*
X113242910Y-83235411D01*
X113155309Y-83366514D01*
X113155302Y-83366527D01*
X113094964Y-83512198D01*
X113094961Y-83512210D01*
X113064200Y-83666853D01*
X64500500Y-83666853D01*
X64500500Y-82365513D01*
X66799500Y-82365513D01*
X66799500Y-82554486D01*
X66829059Y-82741118D01*
X66887454Y-82920836D01*
X66946291Y-83036309D01*
X66973240Y-83089199D01*
X67084310Y-83242073D01*
X67217927Y-83375690D01*
X67370801Y-83486760D01*
X67420726Y-83512198D01*
X67539163Y-83572545D01*
X67539165Y-83572545D01*
X67539168Y-83572547D01*
X67635497Y-83603846D01*
X67718881Y-83630940D01*
X67905514Y-83660500D01*
X67905519Y-83660500D01*
X68094486Y-83660500D01*
X68281118Y-83630940D01*
X68460832Y-83572547D01*
X68629199Y-83486760D01*
X68782073Y-83375690D01*
X68915690Y-83242073D01*
X69026760Y-83089199D01*
X69112547Y-82920832D01*
X69170940Y-82741118D01*
X69200500Y-82554486D01*
X69200500Y-82365513D01*
X69170940Y-82178881D01*
X69112545Y-81999163D01*
X69026759Y-81830800D01*
X68915690Y-81677927D01*
X68782073Y-81544310D01*
X68629199Y-81433240D01*
X68460836Y-81347454D01*
X68281118Y-81289059D01*
X68094486Y-81259500D01*
X68094481Y-81259500D01*
X67905519Y-81259500D01*
X67905514Y-81259500D01*
X67718881Y-81289059D01*
X67539163Y-81347454D01*
X67370800Y-81433240D01*
X67283579Y-81496610D01*
X67217927Y-81544310D01*
X67217925Y-81544312D01*
X67217924Y-81544312D01*
X67084312Y-81677924D01*
X67084312Y-81677925D01*
X67084310Y-81677927D01*
X67036610Y-81743579D01*
X66973240Y-81830800D01*
X66887454Y-81999163D01*
X66829059Y-82178881D01*
X66799500Y-82365513D01*
X64500500Y-82365513D01*
X64500500Y-77285513D01*
X66799500Y-77285513D01*
X66799500Y-77474486D01*
X66829059Y-77661118D01*
X66887454Y-77840836D01*
X66973240Y-78009199D01*
X67084310Y-78162073D01*
X67217927Y-78295690D01*
X67370801Y-78406760D01*
X67448289Y-78446242D01*
X67539163Y-78492545D01*
X67539165Y-78492545D01*
X67539168Y-78492547D01*
X67635497Y-78523846D01*
X67718881Y-78550940D01*
X67905514Y-78580500D01*
X67905519Y-78580500D01*
X68094486Y-78580500D01*
X68281118Y-78550940D01*
X68460832Y-78492547D01*
X68629199Y-78406760D01*
X68782073Y-78295690D01*
X68915690Y-78162073D01*
X69026760Y-78009199D01*
X69082399Y-77900000D01*
X110555220Y-77900000D01*
X110606414Y-78057563D01*
X110606416Y-78057566D01*
X110710211Y-78261276D01*
X110844597Y-78446242D01*
X111006257Y-78607902D01*
X111191223Y-78742288D01*
X111394931Y-78846082D01*
X111599999Y-78912713D01*
X111600000Y-78912713D01*
X112400000Y-78912713D01*
X112605068Y-78846082D01*
X112808776Y-78742288D01*
X112993742Y-78607902D01*
X113155402Y-78446242D01*
X113289788Y-78261276D01*
X113393583Y-78057566D01*
X113393585Y-78057563D01*
X113444780Y-77900000D01*
X112400000Y-77900000D01*
X112400000Y-78912713D01*
X111600000Y-78912713D01*
X111600000Y-77900000D01*
X110555220Y-77900000D01*
X69082399Y-77900000D01*
X69112547Y-77840832D01*
X69170940Y-77661118D01*
X69184990Y-77572409D01*
X69200500Y-77474486D01*
X69200500Y-77285513D01*
X69177638Y-77141169D01*
X69174849Y-77123568D01*
X69171117Y-77099999D01*
X110555220Y-77099999D01*
X110555220Y-77100000D01*
X111622182Y-77100000D01*
X111559890Y-77162292D01*
X111487482Y-77287708D01*
X111450000Y-77427591D01*
X111450000Y-77572409D01*
X111487482Y-77712292D01*
X111559890Y-77837708D01*
X111662292Y-77940110D01*
X111787708Y-78012518D01*
X111927591Y-78050000D01*
X112072409Y-78050000D01*
X112212292Y-78012518D01*
X112337708Y-77940110D01*
X112440110Y-77837708D01*
X112512518Y-77712292D01*
X112550000Y-77572409D01*
X112550000Y-77427591D01*
X112512518Y-77287708D01*
X112440110Y-77162292D01*
X112377818Y-77100000D01*
X113444780Y-77100000D01*
X113444779Y-77099999D01*
X113393585Y-76942436D01*
X113393583Y-76942433D01*
X113289788Y-76738723D01*
X113155402Y-76553757D01*
X112993742Y-76392097D01*
X112993736Y-76392092D01*
X112824072Y-76268824D01*
X112781406Y-76213494D01*
X112775427Y-76143881D01*
X112808033Y-76082086D01*
X112824072Y-76068188D01*
X112928921Y-75992011D01*
X113079511Y-75841421D01*
X113204690Y-75669127D01*
X113301375Y-75479372D01*
X113367185Y-75276828D01*
X113384348Y-75168458D01*
X113400500Y-75066488D01*
X113400500Y-74853511D01*
X113369929Y-74660500D01*
X113367185Y-74643172D01*
X113301375Y-74440628D01*
X113301375Y-74440627D01*
X113204689Y-74250872D01*
X113198296Y-74242073D01*
X113079511Y-74078579D01*
X112981234Y-73980302D01*
X112947749Y-73918979D01*
X112952733Y-73849287D01*
X112994605Y-73793354D01*
X113049516Y-73770148D01*
X113125304Y-73758146D01*
X113238342Y-73700550D01*
X113328050Y-73610842D01*
X113385646Y-73497804D01*
X113385646Y-73497802D01*
X113385647Y-73497801D01*
X113400499Y-73404024D01*
X113400500Y-73404019D01*
X113400499Y-71435982D01*
X113385646Y-71342196D01*
X113328050Y-71229158D01*
X113328046Y-71229154D01*
X113328045Y-71229152D01*
X113238347Y-71139454D01*
X113238344Y-71139452D01*
X113238342Y-71139450D01*
X113161517Y-71100305D01*
X113125301Y-71081852D01*
X113031524Y-71067000D01*
X110968482Y-71067000D01*
X110887519Y-71079823D01*
X110874696Y-71081854D01*
X110761658Y-71139450D01*
X110761657Y-71139451D01*
X110761652Y-71139454D01*
X110671954Y-71229152D01*
X110671951Y-71229157D01*
X110614352Y-71342198D01*
X110599500Y-71435975D01*
X110599500Y-73404017D01*
X110610292Y-73472157D01*
X110614354Y-73497804D01*
X110671950Y-73610842D01*
X110671952Y-73610844D01*
X110671954Y-73610847D01*
X110761652Y-73700545D01*
X110761654Y-73700546D01*
X110761658Y-73700550D01*
X110874696Y-73758146D01*
X110950482Y-73770149D01*
X111013615Y-73800077D01*
X111050547Y-73859389D01*
X111049549Y-73929251D01*
X111018765Y-73980303D01*
X110920488Y-74078580D01*
X110795310Y-74250872D01*
X110698624Y-74440627D01*
X110698623Y-74440630D01*
X110632815Y-74643170D01*
X110599500Y-74853511D01*
X110599500Y-75066488D01*
X110632815Y-75276829D01*
X110698623Y-75479369D01*
X110698624Y-75479372D01*
X110795310Y-75669127D01*
X110920489Y-75841421D01*
X111071079Y-75992011D01*
X111175928Y-76068188D01*
X111218593Y-76123518D01*
X111224572Y-76193132D01*
X111191966Y-76254926D01*
X111175928Y-76268824D01*
X111006258Y-76392097D01*
X111006257Y-76392097D01*
X110844597Y-76553757D01*
X110710211Y-76738723D01*
X110606416Y-76942433D01*
X110606414Y-76942436D01*
X110555220Y-77099999D01*
X69171117Y-77099999D01*
X69170940Y-77098882D01*
X69112547Y-76919168D01*
X69112545Y-76919165D01*
X69112545Y-76919163D01*
X69026759Y-76750800D01*
X68915690Y-76597927D01*
X68782073Y-76464310D01*
X68629199Y-76353240D01*
X68460836Y-76267454D01*
X68281118Y-76209059D01*
X68094486Y-76179500D01*
X68094481Y-76179500D01*
X67905519Y-76179500D01*
X67905514Y-76179500D01*
X67718881Y-76209059D01*
X67539163Y-76267454D01*
X67370800Y-76353240D01*
X67317326Y-76392092D01*
X67217927Y-76464310D01*
X67217925Y-76464312D01*
X67217924Y-76464312D01*
X67084312Y-76597924D01*
X67084312Y-76597925D01*
X67084310Y-76597927D01*
X67036610Y-76663579D01*
X66973240Y-76750800D01*
X66887454Y-76919163D01*
X66829059Y-77098881D01*
X66799500Y-77285513D01*
X64500500Y-77285513D01*
X64500500Y-73365513D01*
X66799500Y-73365513D01*
X66799500Y-73554486D01*
X66829059Y-73741118D01*
X66887454Y-73920836D01*
X66967827Y-74078576D01*
X66973240Y-74089199D01*
X67084310Y-74242073D01*
X67217927Y-74375690D01*
X67370801Y-74486760D01*
X67450347Y-74527290D01*
X67539163Y-74572545D01*
X67539165Y-74572545D01*
X67539168Y-74572547D01*
X67635497Y-74603846D01*
X67718881Y-74630940D01*
X67905514Y-74660500D01*
X67905519Y-74660500D01*
X68094486Y-74660500D01*
X68281118Y-74630940D01*
X68460832Y-74572547D01*
X68629199Y-74486760D01*
X68782073Y-74375690D01*
X68915690Y-74242073D01*
X69026760Y-74089199D01*
X69112547Y-73920832D01*
X69170940Y-73741118D01*
X69191573Y-73610847D01*
X69200500Y-73554486D01*
X69200500Y-73365513D01*
X69170940Y-73178881D01*
X69112545Y-72999163D01*
X69026759Y-72830800D01*
X68915690Y-72677927D01*
X68782073Y-72544310D01*
X68629199Y-72433240D01*
X68460836Y-72347454D01*
X68281118Y-72289059D01*
X68094486Y-72259500D01*
X68094481Y-72259500D01*
X67905519Y-72259500D01*
X67905514Y-72259500D01*
X67718881Y-72289059D01*
X67539163Y-72347454D01*
X67370800Y-72433240D01*
X67283579Y-72496610D01*
X67217927Y-72544310D01*
X67217925Y-72544312D01*
X67217924Y-72544312D01*
X67084312Y-72677924D01*
X67084312Y-72677925D01*
X67084310Y-72677927D01*
X67036610Y-72743579D01*
X66973240Y-72830800D01*
X66887454Y-72999163D01*
X66829059Y-73178881D01*
X66799500Y-73365513D01*
X64500500Y-73365513D01*
X64500500Y-68285513D01*
X66799500Y-68285513D01*
X66799500Y-68474486D01*
X66829059Y-68661118D01*
X66887454Y-68840836D01*
X66973240Y-69009199D01*
X67084310Y-69162073D01*
X67217927Y-69295690D01*
X67370801Y-69406760D01*
X67450347Y-69447290D01*
X67539163Y-69492545D01*
X67539165Y-69492545D01*
X67539168Y-69492547D01*
X67635497Y-69523846D01*
X67718881Y-69550940D01*
X67905514Y-69580500D01*
X67905519Y-69580500D01*
X68094486Y-69580500D01*
X68281118Y-69550940D01*
X68460832Y-69492547D01*
X68629199Y-69406760D01*
X68782073Y-69295690D01*
X68915690Y-69162073D01*
X69026760Y-69009199D01*
X69112547Y-68840832D01*
X69170940Y-68661118D01*
X69200500Y-68474486D01*
X69200500Y-68285513D01*
X69170940Y-68098881D01*
X69112545Y-67919163D01*
X69026759Y-67750800D01*
X68915690Y-67597927D01*
X68782073Y-67464310D01*
X68629199Y-67353240D01*
X68460836Y-67267454D01*
X68281118Y-67209059D01*
X68094486Y-67179500D01*
X68094481Y-67179500D01*
X67905519Y-67179500D01*
X67905514Y-67179500D01*
X67718881Y-67209059D01*
X67539163Y-67267454D01*
X67370800Y-67353240D01*
X67283579Y-67416610D01*
X67217927Y-67464310D01*
X67217925Y-67464312D01*
X67217924Y-67464312D01*
X67084312Y-67597924D01*
X67084312Y-67597925D01*
X67084310Y-67597927D01*
X67036610Y-67663579D01*
X66973240Y-67750800D01*
X66887454Y-67919163D01*
X66829059Y-68098881D01*
X66799500Y-68285513D01*
X64500500Y-68285513D01*
X64500500Y-64365513D01*
X66799500Y-64365513D01*
X66799500Y-64554486D01*
X66829059Y-64741118D01*
X66887454Y-64920836D01*
X66922937Y-64990474D01*
X66973240Y-65089199D01*
X67084310Y-65242073D01*
X67217927Y-65375690D01*
X67370801Y-65486760D01*
X67450347Y-65527290D01*
X67539163Y-65572545D01*
X67539165Y-65572545D01*
X67539168Y-65572547D01*
X67635497Y-65603846D01*
X67718881Y-65630940D01*
X67905514Y-65660500D01*
X67905519Y-65660500D01*
X68094486Y-65660500D01*
X68281118Y-65630940D01*
X68460832Y-65572547D01*
X68629199Y-65486760D01*
X68782073Y-65375690D01*
X68915690Y-65242073D01*
X69026760Y-65089199D01*
X69112547Y-64920832D01*
X69170940Y-64741118D01*
X69194950Y-64589524D01*
X69200500Y-64554486D01*
X69200500Y-64365513D01*
X69170940Y-64178881D01*
X69143846Y-64095497D01*
X69112547Y-63999168D01*
X69112545Y-63999165D01*
X69112545Y-63999163D01*
X69026759Y-63830800D01*
X69013700Y-63812826D01*
X68915690Y-63677927D01*
X68782073Y-63544310D01*
X68629199Y-63433240D01*
X68606309Y-63421577D01*
X68460836Y-63347454D01*
X68281118Y-63289059D01*
X68094486Y-63259500D01*
X68094481Y-63259500D01*
X67905519Y-63259500D01*
X67905514Y-63259500D01*
X67718881Y-63289059D01*
X67539163Y-63347454D01*
X67370800Y-63433240D01*
X67283579Y-63496610D01*
X67217927Y-63544310D01*
X67217925Y-63544312D01*
X67217924Y-63544312D01*
X67084312Y-63677924D01*
X67084312Y-63677925D01*
X67084310Y-63677927D01*
X67036610Y-63743579D01*
X66973240Y-63830800D01*
X66887454Y-63999163D01*
X66829059Y-64178881D01*
X66799500Y-64365513D01*
X64500500Y-64365513D01*
X64500500Y-59285513D01*
X66799500Y-59285513D01*
X66799500Y-59474486D01*
X66829059Y-59661118D01*
X66887454Y-59840836D01*
X66922937Y-59910474D01*
X66973240Y-60009199D01*
X67084310Y-60162073D01*
X67217927Y-60295690D01*
X67370801Y-60406760D01*
X67450347Y-60447290D01*
X67539163Y-60492545D01*
X67539165Y-60492545D01*
X67539168Y-60492547D01*
X67635497Y-60523846D01*
X67718881Y-60550940D01*
X67905514Y-60580500D01*
X67905519Y-60580500D01*
X68094486Y-60580500D01*
X68281118Y-60550940D01*
X68460832Y-60492547D01*
X68629199Y-60406760D01*
X68782073Y-60295690D01*
X68915690Y-60162073D01*
X69026760Y-60009199D01*
X69112547Y-59840832D01*
X69170940Y-59661118D01*
X69194950Y-59509524D01*
X69200500Y-59474486D01*
X69200500Y-59285513D01*
X69170940Y-59098881D01*
X69143846Y-59015497D01*
X69112547Y-58919168D01*
X69112545Y-58919165D01*
X69112545Y-58919163D01*
X69026759Y-58750800D01*
X69013700Y-58732826D01*
X68915690Y-58597927D01*
X68782073Y-58464310D01*
X68629199Y-58353240D01*
X68606309Y-58341577D01*
X74589500Y-58341577D01*
X74589500Y-58538422D01*
X74620290Y-58732826D01*
X74681117Y-58920029D01*
X74770476Y-59095405D01*
X74886172Y-59254646D01*
X75025354Y-59393828D01*
X75184595Y-59509524D01*
X75307992Y-59572397D01*
X75361213Y-59599515D01*
X75412009Y-59647489D01*
X75428804Y-59715310D01*
X75406267Y-59781445D01*
X75361213Y-59820485D01*
X75184594Y-59910476D01*
X75093741Y-59976485D01*
X75025354Y-60026172D01*
X75025352Y-60026174D01*
X75025351Y-60026174D01*
X74886174Y-60165351D01*
X74886174Y-60165352D01*
X74886172Y-60165354D01*
X74836485Y-60233741D01*
X74770476Y-60324594D01*
X74681117Y-60499970D01*
X74620290Y-60687173D01*
X74589500Y-60881577D01*
X74589500Y-61078422D01*
X74620290Y-61272826D01*
X74681117Y-61460029D01*
X74770476Y-61635405D01*
X74886172Y-61794646D01*
X75025354Y-61933828D01*
X75184595Y-62049524D01*
X75307992Y-62112397D01*
X75361213Y-62139515D01*
X75412009Y-62187489D01*
X75428804Y-62255310D01*
X75406267Y-62321445D01*
X75361213Y-62360485D01*
X75184594Y-62450476D01*
X75093741Y-62516485D01*
X75025354Y-62566172D01*
X75025352Y-62566174D01*
X75025351Y-62566174D01*
X74886174Y-62705351D01*
X74886174Y-62705352D01*
X74886172Y-62705354D01*
X74836485Y-62773741D01*
X74770476Y-62864594D01*
X74681117Y-63039970D01*
X74620290Y-63227173D01*
X74589500Y-63421577D01*
X74589500Y-63618422D01*
X74620290Y-63812826D01*
X74681117Y-64000029D01*
X74770476Y-64175405D01*
X74886172Y-64334646D01*
X75025354Y-64473828D01*
X75184595Y-64589524D01*
X75307992Y-64652397D01*
X75361213Y-64679515D01*
X75412009Y-64727489D01*
X75428804Y-64795310D01*
X75406267Y-64861445D01*
X75361213Y-64900485D01*
X75184594Y-64990476D01*
X75093741Y-65056485D01*
X75025354Y-65106172D01*
X75025352Y-65106174D01*
X75025351Y-65106174D01*
X74886174Y-65245351D01*
X74886174Y-65245352D01*
X74886172Y-65245354D01*
X74836485Y-65313741D01*
X74770476Y-65404594D01*
X74681117Y-65579970D01*
X74620290Y-65767173D01*
X74589500Y-65961577D01*
X74589500Y-66158422D01*
X74620290Y-66352826D01*
X74681117Y-66540029D01*
X74770476Y-66715405D01*
X74886172Y-66874646D01*
X75025354Y-67013828D01*
X75184595Y-67129524D01*
X75267455Y-67171743D01*
X75359970Y-67218882D01*
X75359972Y-67218882D01*
X75359975Y-67218884D01*
X75460317Y-67251487D01*
X75547173Y-67279709D01*
X75741578Y-67310500D01*
X75741583Y-67310500D01*
X75938422Y-67310500D01*
X76132826Y-67279709D01*
X76320025Y-67218884D01*
X76495405Y-67129524D01*
X76654646Y-67013828D01*
X76793828Y-66874646D01*
X76909524Y-66715405D01*
X76998884Y-66540025D01*
X77059709Y-66352826D01*
X77090500Y-66158422D01*
X77090500Y-65961577D01*
X77059709Y-65767173D01*
X77025048Y-65660500D01*
X76998884Y-65579975D01*
X76998882Y-65579972D01*
X76998882Y-65579970D01*
X76909523Y-65404594D01*
X76888523Y-65375690D01*
X76793828Y-65245354D01*
X76654646Y-65106172D01*
X76575025Y-65048324D01*
X76495403Y-64990474D01*
X76318787Y-64900485D01*
X76267990Y-64852511D01*
X76251195Y-64784690D01*
X76273732Y-64718555D01*
X76318787Y-64679515D01*
X76495403Y-64589525D01*
X76495402Y-64589525D01*
X76495405Y-64589524D01*
X76654646Y-64473828D01*
X76793828Y-64334646D01*
X76909524Y-64175405D01*
X76998884Y-64000025D01*
X77059709Y-63812826D01*
X77081075Y-63677927D01*
X77090500Y-63618422D01*
X77090500Y-63421577D01*
X77059709Y-63227173D01*
X76998882Y-63039970D01*
X76909523Y-62864594D01*
X76793828Y-62705354D01*
X76654646Y-62566172D01*
X76575025Y-62508324D01*
X76495403Y-62450474D01*
X76318787Y-62360485D01*
X76267990Y-62312511D01*
X76251195Y-62244690D01*
X76273732Y-62178555D01*
X76318787Y-62139515D01*
X76495403Y-62049525D01*
X76495402Y-62049525D01*
X76495405Y-62049524D01*
X76654646Y-61933828D01*
X76793828Y-61794646D01*
X76909524Y-61635405D01*
X76998884Y-61460025D01*
X77059709Y-61272826D01*
X77090500Y-61078422D01*
X77090500Y-60881577D01*
X77059709Y-60687173D01*
X77025048Y-60580500D01*
X76998884Y-60499975D01*
X76998882Y-60499972D01*
X76998882Y-60499970D01*
X76909523Y-60324594D01*
X76888523Y-60295690D01*
X76793828Y-60165354D01*
X76654646Y-60026172D01*
X76575025Y-59968324D01*
X76495403Y-59910474D01*
X76318787Y-59820485D01*
X76267990Y-59772511D01*
X76251195Y-59704690D01*
X76273732Y-59638555D01*
X76318787Y-59599515D01*
X76495403Y-59509525D01*
X76495402Y-59509525D01*
X76495405Y-59509524D01*
X76654646Y-59393828D01*
X76793828Y-59254646D01*
X76909524Y-59095405D01*
X76998884Y-58920025D01*
X77059709Y-58732826D01*
X77081075Y-58597927D01*
X77090500Y-58538422D01*
X77090500Y-58341577D01*
X77059709Y-58147173D01*
X76998882Y-57959970D01*
X76909523Y-57784594D01*
X76793828Y-57625354D01*
X76654646Y-57486172D01*
X76495405Y-57370476D01*
X76428370Y-57336320D01*
X76377574Y-57288345D01*
X76360779Y-57220524D01*
X76383316Y-57154389D01*
X76428370Y-57115350D01*
X76468975Y-57094660D01*
X75840001Y-56465686D01*
X75840000Y-56465686D01*
X75211023Y-57094660D01*
X75251629Y-57115350D01*
X75302425Y-57163325D01*
X75319220Y-57231146D01*
X75296683Y-57297280D01*
X75251630Y-57336319D01*
X75184597Y-57370474D01*
X75104974Y-57428324D01*
X75025354Y-57486172D01*
X75025352Y-57486174D01*
X75025351Y-57486174D01*
X74886174Y-57625351D01*
X74886174Y-57625352D01*
X74886172Y-57625354D01*
X74836485Y-57693741D01*
X74770476Y-57784594D01*
X74681117Y-57959970D01*
X74620290Y-58147173D01*
X74589500Y-58341577D01*
X68606309Y-58341577D01*
X68460836Y-58267454D01*
X68281118Y-58209059D01*
X68094486Y-58179500D01*
X68094481Y-58179500D01*
X67905519Y-58179500D01*
X67905514Y-58179500D01*
X67718881Y-58209059D01*
X67539163Y-58267454D01*
X67370800Y-58353240D01*
X67283579Y-58416610D01*
X67217927Y-58464310D01*
X67217925Y-58464312D01*
X67217924Y-58464312D01*
X67084312Y-58597924D01*
X67084312Y-58597925D01*
X67084310Y-58597927D01*
X67036610Y-58663579D01*
X66973240Y-58750800D01*
X66887454Y-58919163D01*
X66829059Y-59098881D01*
X66799500Y-59285513D01*
X64500500Y-59285513D01*
X64500500Y-55793753D01*
X74490000Y-55793753D01*
X74490000Y-56006246D01*
X74523242Y-56216127D01*
X74523242Y-56216130D01*
X74588904Y-56418217D01*
X74588906Y-56418220D01*
X74645338Y-56528975D01*
X75274314Y-55900000D01*
X75208488Y-55834174D01*
X75340000Y-55834174D01*
X75340000Y-55965826D01*
X75374075Y-56092993D01*
X75439901Y-56207007D01*
X75532993Y-56300099D01*
X75647007Y-56365925D01*
X75774174Y-56400000D01*
X75905826Y-56400000D01*
X76032993Y-56365925D01*
X76147007Y-56300099D01*
X76240099Y-56207007D01*
X76305925Y-56092993D01*
X76340000Y-55965826D01*
X76340000Y-55899999D01*
X76405686Y-55899999D01*
X76405686Y-55900001D01*
X77034660Y-56528975D01*
X77091092Y-56418222D01*
X77156757Y-56216130D01*
X77156757Y-56216127D01*
X77190000Y-56006246D01*
X77190000Y-55801577D01*
X94909500Y-55801577D01*
X94909500Y-55998422D01*
X94940290Y-56192826D01*
X95001117Y-56380029D01*
X95044762Y-56465686D01*
X95090476Y-56555405D01*
X95206172Y-56714646D01*
X95345354Y-56853828D01*
X95504595Y-56969524D01*
X95627992Y-57032397D01*
X95681213Y-57059515D01*
X95732009Y-57107489D01*
X95748804Y-57175310D01*
X95726267Y-57241445D01*
X95681213Y-57280485D01*
X95504594Y-57370476D01*
X95413741Y-57436485D01*
X95345354Y-57486172D01*
X95345352Y-57486174D01*
X95345351Y-57486174D01*
X95206174Y-57625351D01*
X95206174Y-57625352D01*
X95206172Y-57625354D01*
X95156485Y-57693741D01*
X95090476Y-57784594D01*
X95001117Y-57959970D01*
X94940290Y-58147173D01*
X94909500Y-58341577D01*
X94909500Y-58538422D01*
X94940290Y-58732826D01*
X95001117Y-58920029D01*
X95090476Y-59095405D01*
X95206172Y-59254646D01*
X95345354Y-59393828D01*
X95504595Y-59509524D01*
X95627992Y-59572397D01*
X95681213Y-59599515D01*
X95732009Y-59647489D01*
X95748804Y-59715310D01*
X95726267Y-59781445D01*
X95681213Y-59820485D01*
X95504594Y-59910476D01*
X95413741Y-59976485D01*
X95345354Y-60026172D01*
X95345352Y-60026174D01*
X95345351Y-60026174D01*
X95206174Y-60165351D01*
X95206174Y-60165352D01*
X95206172Y-60165354D01*
X95156485Y-60233741D01*
X95090476Y-60324594D01*
X95001117Y-60499970D01*
X94940290Y-60687173D01*
X94909500Y-60881577D01*
X94909500Y-61078422D01*
X94940290Y-61272826D01*
X95001117Y-61460029D01*
X95090476Y-61635405D01*
X95206172Y-61794646D01*
X95345354Y-61933828D01*
X95504595Y-62049524D01*
X95627992Y-62112397D01*
X95681213Y-62139515D01*
X95732009Y-62187489D01*
X95748804Y-62255310D01*
X95726267Y-62321445D01*
X95681213Y-62360485D01*
X95504594Y-62450476D01*
X95413741Y-62516485D01*
X95345354Y-62566172D01*
X95345352Y-62566174D01*
X95345351Y-62566174D01*
X95206174Y-62705351D01*
X95206174Y-62705352D01*
X95206172Y-62705354D01*
X95156485Y-62773741D01*
X95090476Y-62864594D01*
X95001117Y-63039970D01*
X94940290Y-63227173D01*
X94909500Y-63421577D01*
X94909500Y-63618422D01*
X94940290Y-63812826D01*
X95001117Y-64000029D01*
X95090476Y-64175405D01*
X95206172Y-64334646D01*
X95345354Y-64473828D01*
X95504595Y-64589524D01*
X95627992Y-64652397D01*
X95681213Y-64679515D01*
X95732009Y-64727489D01*
X95748804Y-64795310D01*
X95726267Y-64861445D01*
X95681213Y-64900485D01*
X95504594Y-64990476D01*
X95413741Y-65056485D01*
X95345354Y-65106172D01*
X95345352Y-65106174D01*
X95345351Y-65106174D01*
X95206174Y-65245351D01*
X95206174Y-65245352D01*
X95206172Y-65245354D01*
X95156485Y-65313741D01*
X95090476Y-65404594D01*
X95001117Y-65579970D01*
X94940290Y-65767173D01*
X94909500Y-65961577D01*
X94909500Y-66158422D01*
X94940290Y-66352826D01*
X95001117Y-66540029D01*
X95090476Y-66715405D01*
X95206172Y-66874646D01*
X95345354Y-67013828D01*
X95504595Y-67129524D01*
X95587455Y-67171743D01*
X95679970Y-67218882D01*
X95679972Y-67218882D01*
X95679975Y-67218884D01*
X95780317Y-67251487D01*
X95867173Y-67279709D01*
X96061578Y-67310500D01*
X96061583Y-67310500D01*
X96258422Y-67310500D01*
X96452826Y-67279709D01*
X96640025Y-67218884D01*
X96815405Y-67129524D01*
X96974646Y-67013828D01*
X97113828Y-66874646D01*
X97229524Y-66715405D01*
X97318884Y-66540025D01*
X97379709Y-66352826D01*
X97410500Y-66158422D01*
X97410500Y-65961577D01*
X97379709Y-65767173D01*
X97345048Y-65660500D01*
X97318884Y-65579975D01*
X97318882Y-65579972D01*
X97318882Y-65579970D01*
X97229523Y-65404594D01*
X97208523Y-65375690D01*
X97113828Y-65245354D01*
X96974646Y-65106172D01*
X96895025Y-65048324D01*
X96815403Y-64990474D01*
X96638787Y-64900485D01*
X96587990Y-64852511D01*
X96571195Y-64784690D01*
X96593732Y-64718555D01*
X96638787Y-64679515D01*
X96815403Y-64589525D01*
X96815402Y-64589525D01*
X96815405Y-64589524D01*
X96974646Y-64473828D01*
X97113828Y-64334646D01*
X97229524Y-64175405D01*
X97318884Y-64000025D01*
X97379709Y-63812826D01*
X97401075Y-63677927D01*
X97410500Y-63618422D01*
X97410500Y-63421577D01*
X97379709Y-63227173D01*
X97318882Y-63039970D01*
X97229523Y-62864594D01*
X97113828Y-62705354D01*
X96974646Y-62566172D01*
X96895025Y-62508324D01*
X96815403Y-62450474D01*
X96638787Y-62360485D01*
X96587990Y-62312511D01*
X96571195Y-62244690D01*
X96593732Y-62178555D01*
X96638787Y-62139515D01*
X96815403Y-62049525D01*
X96815402Y-62049525D01*
X96815405Y-62049524D01*
X96974646Y-61933828D01*
X97113828Y-61794646D01*
X97229524Y-61635405D01*
X97318884Y-61460025D01*
X97379709Y-61272826D01*
X97410500Y-61078422D01*
X97410500Y-60881577D01*
X97379709Y-60687173D01*
X97345048Y-60580500D01*
X97318884Y-60499975D01*
X97318882Y-60499972D01*
X97318882Y-60499970D01*
X97229523Y-60324594D01*
X97208523Y-60295690D01*
X97113828Y-60165354D01*
X96974646Y-60026172D01*
X96895025Y-59968324D01*
X96815403Y-59910474D01*
X96638787Y-59820485D01*
X96587990Y-59772511D01*
X96571195Y-59704690D01*
X96593732Y-59638555D01*
X96638787Y-59599515D01*
X96815403Y-59509525D01*
X96815402Y-59509525D01*
X96815405Y-59509524D01*
X96974646Y-59393828D01*
X97113828Y-59254646D01*
X97229524Y-59095405D01*
X97318884Y-58920025D01*
X97379709Y-58732826D01*
X97401075Y-58597927D01*
X97410500Y-58538422D01*
X97410500Y-58341577D01*
X97379709Y-58147173D01*
X97318882Y-57959970D01*
X97229523Y-57784594D01*
X97113828Y-57625354D01*
X96974646Y-57486172D01*
X96895025Y-57428324D01*
X96815403Y-57370474D01*
X96638787Y-57280485D01*
X96587990Y-57232511D01*
X96571195Y-57164690D01*
X96593732Y-57098555D01*
X96638787Y-57059515D01*
X96815403Y-56969525D01*
X96815402Y-56969525D01*
X96815405Y-56969524D01*
X96974646Y-56853828D01*
X97113828Y-56714646D01*
X97229524Y-56555405D01*
X97318884Y-56380025D01*
X97379709Y-56192826D01*
X97395521Y-56092993D01*
X97410500Y-55998422D01*
X97410500Y-55801577D01*
X97379709Y-55607173D01*
X97318882Y-55419970D01*
X97271743Y-55327455D01*
X97229524Y-55244595D01*
X97113828Y-55085354D01*
X96974646Y-54946172D01*
X96815405Y-54830476D01*
X96748370Y-54796320D01*
X96697574Y-54748345D01*
X96680779Y-54680524D01*
X96703316Y-54614389D01*
X96748370Y-54575350D01*
X96788975Y-54554660D01*
X96160001Y-53925686D01*
X96160000Y-53925686D01*
X95531023Y-54554660D01*
X95571629Y-54575350D01*
X95622425Y-54623325D01*
X95639220Y-54691146D01*
X95616683Y-54757280D01*
X95571630Y-54796319D01*
X95504597Y-54830474D01*
X95424974Y-54888324D01*
X95345354Y-54946172D01*
X95345352Y-54946174D01*
X95345351Y-54946174D01*
X95206174Y-55085351D01*
X95206174Y-55085352D01*
X95206172Y-55085354D01*
X95156485Y-55153741D01*
X95090476Y-55244594D01*
X95001117Y-55419970D01*
X94940290Y-55607173D01*
X94909500Y-55801577D01*
X77190000Y-55801577D01*
X77190000Y-55793753D01*
X77156757Y-55583872D01*
X77156757Y-55583869D01*
X77091095Y-55381782D01*
X77034660Y-55271023D01*
X76405686Y-55899999D01*
X76340000Y-55899999D01*
X76340000Y-55834174D01*
X76305925Y-55707007D01*
X76240099Y-55592993D01*
X76147007Y-55499901D01*
X76032993Y-55434075D01*
X75905826Y-55400000D01*
X75774174Y-55400000D01*
X75647007Y-55434075D01*
X75532993Y-55499901D01*
X75439901Y-55592993D01*
X75374075Y-55707007D01*
X75340000Y-55834174D01*
X75208488Y-55834174D01*
X74645337Y-55271023D01*
X74588905Y-55381780D01*
X74588905Y-55381781D01*
X74523242Y-55583869D01*
X74523242Y-55583872D01*
X74490000Y-55793753D01*
X64500500Y-55793753D01*
X64500500Y-53760000D01*
X74490000Y-53760000D01*
X74490000Y-54257844D01*
X74496401Y-54317372D01*
X74496403Y-54317379D01*
X74546645Y-54452086D01*
X74546649Y-54452093D01*
X74632809Y-54567187D01*
X74632812Y-54567190D01*
X74747906Y-54653350D01*
X74747913Y-54653354D01*
X74882620Y-54703596D01*
X74882619Y-54703596D01*
X74937468Y-54709493D01*
X74988642Y-54658319D01*
X75049965Y-54624834D01*
X75119657Y-54629818D01*
X75164005Y-54658319D01*
X75840000Y-55334314D01*
X76515994Y-54658320D01*
X76577317Y-54624835D01*
X76647009Y-54629819D01*
X76691356Y-54658320D01*
X76742529Y-54709493D01*
X76797375Y-54703598D01*
X76932086Y-54653354D01*
X76932093Y-54653350D01*
X77047187Y-54567190D01*
X77047190Y-54567187D01*
X77133350Y-54452093D01*
X77133354Y-54452086D01*
X77183596Y-54317379D01*
X77183598Y-54317372D01*
X77189999Y-54257844D01*
X77190000Y-54257827D01*
X77190000Y-53760000D01*
X76147106Y-53760000D01*
X76240099Y-53667007D01*
X76305925Y-53552993D01*
X76340000Y-53425826D01*
X76340000Y-53294174D01*
X76329169Y-53253753D01*
X94810000Y-53253753D01*
X94810000Y-53466246D01*
X94843242Y-53676127D01*
X94843242Y-53676130D01*
X94908904Y-53878217D01*
X94908906Y-53878220D01*
X94965338Y-53988975D01*
X95594314Y-53360000D01*
X95528488Y-53294174D01*
X95660000Y-53294174D01*
X95660000Y-53425826D01*
X95694075Y-53552993D01*
X95759901Y-53667007D01*
X95852993Y-53760099D01*
X95967007Y-53825925D01*
X96094174Y-53860000D01*
X96225826Y-53860000D01*
X96352993Y-53825925D01*
X96467007Y-53760099D01*
X96560099Y-53667007D01*
X96625925Y-53552993D01*
X96660000Y-53425826D01*
X96660000Y-53359999D01*
X96725686Y-53359999D01*
X96725686Y-53360001D01*
X97354660Y-53988975D01*
X97411092Y-53878222D01*
X97476757Y-53676130D01*
X97476757Y-53676127D01*
X97510000Y-53466246D01*
X97510000Y-53253753D01*
X97476757Y-53043872D01*
X97476757Y-53043869D01*
X97411095Y-52841782D01*
X97354660Y-52731023D01*
X96725686Y-53359999D01*
X96660000Y-53359999D01*
X96660000Y-53294174D01*
X96625925Y-53167007D01*
X96560099Y-53052993D01*
X96467007Y-52959901D01*
X96352993Y-52894075D01*
X96225826Y-52860000D01*
X96094174Y-52860000D01*
X95967007Y-52894075D01*
X95852993Y-52959901D01*
X95759901Y-53052993D01*
X95694075Y-53167007D01*
X95660000Y-53294174D01*
X95528488Y-53294174D01*
X94965337Y-52731023D01*
X94908905Y-52841780D01*
X94908905Y-52841781D01*
X94843242Y-53043869D01*
X94843242Y-53043872D01*
X94810000Y-53253753D01*
X76329169Y-53253753D01*
X76305925Y-53167007D01*
X76240099Y-53052993D01*
X76147106Y-52960000D01*
X76240000Y-52960000D01*
X77190000Y-52960000D01*
X77190000Y-52462172D01*
X77189999Y-52462155D01*
X77183598Y-52402627D01*
X77183596Y-52402620D01*
X77133352Y-52267909D01*
X77056566Y-52165337D01*
X95531023Y-52165337D01*
X96160000Y-52794314D01*
X96160001Y-52794314D01*
X96788975Y-52165338D01*
X96678220Y-52108906D01*
X96678217Y-52108904D01*
X96476128Y-52043242D01*
X96266246Y-52010000D01*
X96053754Y-52010000D01*
X95843872Y-52043242D01*
X95843869Y-52043242D01*
X95641781Y-52108905D01*
X95641780Y-52108905D01*
X95531023Y-52165337D01*
X77056566Y-52165337D01*
X77047190Y-52152812D01*
X77047187Y-52152809D01*
X76932093Y-52066649D01*
X76932086Y-52066645D01*
X76797379Y-52016403D01*
X76797372Y-52016401D01*
X76737844Y-52010000D01*
X76240000Y-52010000D01*
X76240000Y-52960000D01*
X76147106Y-52960000D01*
X76147007Y-52959901D01*
X76032993Y-52894075D01*
X75905826Y-52860000D01*
X75774174Y-52860000D01*
X75647007Y-52894075D01*
X75532993Y-52959901D01*
X75439901Y-53052993D01*
X75374075Y-53167007D01*
X75340000Y-53294174D01*
X75340000Y-53425826D01*
X75374075Y-53552993D01*
X75439901Y-53667007D01*
X75532894Y-53760000D01*
X74490000Y-53760000D01*
X64500500Y-53760000D01*
X64500500Y-52462155D01*
X74490000Y-52462155D01*
X74490000Y-52960000D01*
X75440000Y-52960000D01*
X75440000Y-52010000D01*
X74942155Y-52010000D01*
X74882627Y-52016401D01*
X74882620Y-52016403D01*
X74747913Y-52066645D01*
X74747906Y-52066649D01*
X74632812Y-52152809D01*
X74632809Y-52152812D01*
X74546649Y-52267906D01*
X74546645Y-52267913D01*
X74496403Y-52402620D01*
X74496401Y-52402627D01*
X74490000Y-52462155D01*
X64500500Y-52462155D01*
X64500500Y-49338711D01*
X65149500Y-49338711D01*
X65149500Y-49581288D01*
X65181161Y-49821785D01*
X65243947Y-50056104D01*
X65336773Y-50280205D01*
X65336776Y-50280212D01*
X65458064Y-50490289D01*
X65458066Y-50490292D01*
X65458067Y-50490293D01*
X65605733Y-50682736D01*
X65605739Y-50682743D01*
X65777256Y-50854260D01*
X65777262Y-50854265D01*
X65969711Y-51001936D01*
X66179788Y-51123224D01*
X66403900Y-51216054D01*
X66638211Y-51278838D01*
X66818586Y-51302584D01*
X66878711Y-51310500D01*
X66878712Y-51310500D01*
X67121289Y-51310500D01*
X67169388Y-51304167D01*
X67361789Y-51278838D01*
X67397392Y-51269298D01*
X112224500Y-51269298D01*
X112224500Y-53650701D01*
X112227401Y-53687567D01*
X112227402Y-53687573D01*
X112273254Y-53845393D01*
X112273255Y-53845396D01*
X112356917Y-53986862D01*
X112356923Y-53986870D01*
X112473129Y-54103076D01*
X112473133Y-54103079D01*
X112473135Y-54103081D01*
X112614602Y-54186744D01*
X112656224Y-54198836D01*
X112772426Y-54232597D01*
X112772429Y-54232597D01*
X112772431Y-54232598D01*
X112809306Y-54235500D01*
X112809314Y-54235500D01*
X115190686Y-54235500D01*
X115190694Y-54235500D01*
X115227569Y-54232598D01*
X115227571Y-54232597D01*
X115227573Y-54232597D01*
X115269191Y-54220505D01*
X115385398Y-54186744D01*
X115526865Y-54103081D01*
X115643081Y-53986865D01*
X115726744Y-53845398D01*
X115772598Y-53687569D01*
X115775500Y-53650694D01*
X115775500Y-51269306D01*
X115772598Y-51232431D01*
X115767839Y-51216052D01*
X115726745Y-51074606D01*
X115726744Y-51074603D01*
X115726744Y-51074602D01*
X115643081Y-50933135D01*
X115643079Y-50933133D01*
X115643076Y-50933129D01*
X115526870Y-50816923D01*
X115526862Y-50816917D01*
X115385396Y-50733255D01*
X115385393Y-50733254D01*
X115227573Y-50687402D01*
X115227567Y-50687401D01*
X115190701Y-50684500D01*
X115190694Y-50684500D01*
X112809306Y-50684500D01*
X112809298Y-50684500D01*
X112772432Y-50687401D01*
X112772426Y-50687402D01*
X112614606Y-50733254D01*
X112614603Y-50733255D01*
X112473137Y-50816917D01*
X112473129Y-50816923D01*
X112356923Y-50933129D01*
X112356917Y-50933137D01*
X112273255Y-51074603D01*
X112273254Y-51074606D01*
X112227402Y-51232426D01*
X112227401Y-51232432D01*
X112224500Y-51269298D01*
X67397392Y-51269298D01*
X67596100Y-51216054D01*
X67666228Y-51187005D01*
X67749993Y-51152310D01*
X67820205Y-51123227D01*
X67820205Y-51123226D01*
X67820212Y-51123224D01*
X68030289Y-51001936D01*
X68222738Y-50854265D01*
X68394265Y-50682738D01*
X68541936Y-50490289D01*
X68663224Y-50280212D01*
X68756054Y-50056100D01*
X68818838Y-49821789D01*
X68850500Y-49581288D01*
X68850500Y-49338712D01*
X68850500Y-49338711D01*
X131149500Y-49338711D01*
X131149500Y-49581288D01*
X131181161Y-49821785D01*
X131243947Y-50056104D01*
X131336773Y-50280205D01*
X131336776Y-50280212D01*
X131458064Y-50490289D01*
X131458066Y-50490292D01*
X131458067Y-50490293D01*
X131605733Y-50682736D01*
X131605739Y-50682743D01*
X131777256Y-50854260D01*
X131777262Y-50854265D01*
X131969711Y-51001936D01*
X132179788Y-51123224D01*
X132403900Y-51216054D01*
X132638211Y-51278838D01*
X132818586Y-51302584D01*
X132878711Y-51310500D01*
X132878712Y-51310500D01*
X133121289Y-51310500D01*
X133169388Y-51304167D01*
X133361789Y-51278838D01*
X133596100Y-51216054D01*
X133820212Y-51123224D01*
X134030289Y-51001936D01*
X134222738Y-50854265D01*
X134394265Y-50682738D01*
X134541936Y-50490289D01*
X134663224Y-50280212D01*
X134756054Y-50056100D01*
X134818838Y-49821789D01*
X134850500Y-49581288D01*
X134850500Y-49338712D01*
X134818838Y-49098211D01*
X134756054Y-48863900D01*
X134663224Y-48639788D01*
X134541936Y-48429711D01*
X134394265Y-48237262D01*
X134394260Y-48237256D01*
X134222743Y-48065739D01*
X134222736Y-48065733D01*
X134030293Y-47918067D01*
X134030292Y-47918066D01*
X134030289Y-47918064D01*
X133820212Y-47796776D01*
X133820205Y-47796773D01*
X133596104Y-47703947D01*
X133361785Y-47641161D01*
X133121289Y-47609500D01*
X133121288Y-47609500D01*
X132878712Y-47609500D01*
X132878711Y-47609500D01*
X132638214Y-47641161D01*
X132403895Y-47703947D01*
X132179794Y-47796773D01*
X132179785Y-47796777D01*
X131969706Y-47918067D01*
X131777263Y-48065733D01*
X131777256Y-48065739D01*
X131605739Y-48237256D01*
X131605733Y-48237263D01*
X131458067Y-48429706D01*
X131336777Y-48639785D01*
X131336773Y-48639794D01*
X131243947Y-48863895D01*
X131181161Y-49098214D01*
X131149500Y-49338711D01*
X68850500Y-49338711D01*
X68818838Y-49098211D01*
X68756054Y-48863900D01*
X68663224Y-48639788D01*
X68541936Y-48429711D01*
X68394265Y-48237262D01*
X68394260Y-48237256D01*
X68222743Y-48065739D01*
X68222736Y-48065733D01*
X68030293Y-47918067D01*
X68030292Y-47918066D01*
X68030289Y-47918064D01*
X67820212Y-47796776D01*
X67820205Y-47796773D01*
X67596104Y-47703947D01*
X67361785Y-47641161D01*
X67121289Y-47609500D01*
X67121288Y-47609500D01*
X66878712Y-47609500D01*
X66878711Y-47609500D01*
X66638214Y-47641161D01*
X66403895Y-47703947D01*
X66179794Y-47796773D01*
X66179785Y-47796777D01*
X65969706Y-47918067D01*
X65777263Y-48065733D01*
X65777256Y-48065739D01*
X65605739Y-48237256D01*
X65605733Y-48237263D01*
X65458067Y-48429706D01*
X65336777Y-48639785D01*
X65336773Y-48639794D01*
X65243947Y-48863895D01*
X65181161Y-49098214D01*
X65149500Y-49338711D01*
X64500500Y-49338711D01*
X64500500Y-47084500D01*
X64520185Y-47017461D01*
X64572989Y-46971706D01*
X64624500Y-46960500D01*
X135375500Y-46960500D01*
X135442539Y-46980185D01*
G37*
G04 #@! TD.AperFunction*
M02*
