G04 #@! TF.GenerationSoftware,KiCad,Pcbnew,10.0.6*
G04 #@! TF.CreationDate,2026-10-01T01:14:16+09:00*
G04 #@! TF.ProjectId,w5500-esp32,77353530-302d-4657-9370-33322e6b6963,rev?*
G04 #@! TF.SameCoordinates,Original*
G04 #@! TF.FileFunction,Copper,L1,Top*
G04 #@! TF.FilePolarity,Positive*
%FSLAX46Y46*%
G04 Gerber Fmt 4.6, Leading zero omitted, Abs format (unit mm)*
G04 Created by KiCad (PCBNEW 10.0.6) date 2026-10-01 01:14:16*
%MOMM*%
%LPD*%
G01*
G04 APERTURE LIST*
G04 Aperture macros list*
%AMRoundRect*
0 Rectangle with rounded corners*
0 $1 Rounding radius*
0 $2 $3 $4 $5 $6 $7 $8 $9 X,Y pos of 4 corners*
0 Add a 4 corners polygon primitive as box body*
4,1,4,$2,$3,$4,$5,$6,$7,$8,$9,$2,$3,0*
0 Add four circle primitives for the rounded corners*
1,1,$1+$1,$2,$3*
1,1,$1+$1,$4,$5*
1,1,$1+$1,$6,$7*
1,1,$1+$1,$8,$9*
0 Add four rect primitives between the rounded corners*
20,1,$1+$1,$2,$3,$4,$5,0*
20,1,$1+$1,$4,$5,$6,$7,0*
20,1,$1+$1,$6,$7,$8,$9,0*
20,1,$1+$1,$8,$9,$2,$3,0*%
G04 Aperture macros list end*
G04 #@! TA.AperFunction,ComponentPad*
%ADD10RoundRect,0.250000X-0.600000X-0.750000X0.600000X-0.750000X0.600000X0.750000X-0.600000X0.750000X0*%
G04 #@! TD*
G04 #@! TA.AperFunction,ComponentPad*
%ADD11O,1.700000X2.000000*%
G04 #@! TD*
G04 #@! TA.AperFunction,ComponentPad*
%ADD12R,1.700000X1.700000*%
G04 #@! TD*
G04 #@! TA.AperFunction,ComponentPad*
%ADD13C,1.700000*%
G04 #@! TD*
G04 #@! TA.AperFunction,ComponentPad*
%ADD14RoundRect,0.250000X-0.550000X-0.550000X0.550000X-0.550000X0.550000X0.550000X-0.550000X0.550000X0*%
G04 #@! TD*
G04 #@! TA.AperFunction,ComponentPad*
%ADD15C,1.600000*%
G04 #@! TD*
G04 #@! TA.AperFunction,ComponentPad*
%ADD16RoundRect,0.250000X0.750000X-0.600000X0.750000X0.600000X-0.750000X0.600000X-0.750000X-0.600000X0*%
G04 #@! TD*
G04 #@! TA.AperFunction,ComponentPad*
%ADD17O,2.000000X1.700000*%
G04 #@! TD*
G04 #@! TA.AperFunction,ComponentPad*
%ADD18R,2.000000X1.905000*%
G04 #@! TD*
G04 #@! TA.AperFunction,ComponentPad*
%ADD19O,2.000000X1.905000*%
G04 #@! TD*
G04 #@! TA.AperFunction,ComponentPad*
%ADD20RoundRect,0.250000X-1.125000X-1.125000X1.125000X-1.125000X1.125000X1.125000X-1.125000X1.125000X0*%
G04 #@! TD*
G04 #@! TA.AperFunction,ComponentPad*
%ADD21C,2.750000*%
G04 #@! TD*
G04 #@! TA.AperFunction,ComponentPad*
%ADD22R,1.500000X1.500000*%
G04 #@! TD*
G04 #@! TA.AperFunction,ComponentPad*
%ADD23C,1.500000*%
G04 #@! TD*
G04 #@! TA.AperFunction,ViaPad*
%ADD24C,0.800000*%
G04 #@! TD*
G04 #@! TA.AperFunction,Conductor*
%ADD25C,0.300000*%
G04 #@! TD*
G04 #@! TA.AperFunction,Conductor*
%ADD26C,0.800000*%
G04 #@! TD*
G04 #@! TA.AperFunction,Conductor*
%ADD27C,2.000000*%
G04 #@! TD*
G04 #@! TA.AperFunction,Conductor*
%ADD28C,4.000000*%
G04 #@! TD*
G04 APERTURE END LIST*
D10*
X127000000Y-137000000D03*
D11*
X129500000Y-137000000D03*
D12*
X75840000Y-53360000D03*
D13*
X75840000Y-55900000D03*
X75840000Y-58440000D03*
X75840000Y-60980000D03*
X75840000Y-63520000D03*
X75840000Y-66060000D03*
X96160000Y-53360000D03*
X96160000Y-55900000D03*
X96160000Y-58440000D03*
X96160000Y-60980000D03*
X96160000Y-63520000D03*
X96160000Y-66060000D03*
D14*
X110500000Y-85960000D03*
D15*
X112500000Y-85960000D03*
D14*
X110500000Y-128260000D03*
D15*
X112500000Y-128260000D03*
X68000000Y-91460000D03*
X68000000Y-86380000D03*
X68000000Y-82460000D03*
X68000000Y-77380000D03*
X68000000Y-100460000D03*
X68000000Y-95380000D03*
D16*
X69000000Y-134500000D03*
D17*
X69000000Y-132000000D03*
D15*
X71500000Y-118460000D03*
X71500000Y-113380000D03*
D18*
X112000000Y-94420000D03*
D19*
X112000000Y-96960000D03*
X112000000Y-99500000D03*
D18*
X112000000Y-116420000D03*
D19*
X112000000Y-118960000D03*
X112000000Y-121500000D03*
D15*
X71500000Y-100460000D03*
X71500000Y-95380000D03*
X68000000Y-64460000D03*
X68000000Y-59380000D03*
D20*
X109000000Y-141660000D03*
D21*
X114400000Y-141660000D03*
D13*
X77300000Y-159960000D03*
X77300000Y-157420000D03*
X77300000Y-154880000D03*
X77300000Y-152340000D03*
X77300000Y-149800000D03*
X77300000Y-147260000D03*
X77300000Y-144720000D03*
X77300000Y-142180000D03*
X77300000Y-139640000D03*
X77300000Y-137100000D03*
X77300000Y-134560000D03*
X77300000Y-132020000D03*
X77300000Y-129480000D03*
X77300000Y-126940000D03*
X77300000Y-124400000D03*
X77300000Y-121860000D03*
X77300000Y-119320000D03*
X77300000Y-116780000D03*
X77300000Y-114240000D03*
X77300000Y-111700000D03*
X102700000Y-159960000D03*
X102700000Y-157420000D03*
X102700000Y-154880000D03*
X102700000Y-152340000D03*
X102700000Y-149800000D03*
X102700000Y-147260000D03*
X102700000Y-144720000D03*
X102700000Y-142180000D03*
X102700000Y-139640000D03*
X102700000Y-137100000D03*
X102700000Y-134560000D03*
X102700000Y-132020000D03*
X102700000Y-129480000D03*
X102700000Y-126940000D03*
X102700000Y-124400000D03*
X102700000Y-121860000D03*
X102700000Y-119320000D03*
X102700000Y-116780000D03*
X102700000Y-114240000D03*
X102700000Y-111700000D03*
D22*
X110200000Y-135460000D03*
D23*
X112740000Y-135460000D03*
X115280000Y-135460000D03*
D18*
X112000000Y-72420000D03*
D19*
X112000000Y-74960000D03*
X112000000Y-77500000D03*
D14*
X110500000Y-107960000D03*
D15*
X112500000Y-107960000D03*
X68000000Y-73460000D03*
X68000000Y-68380000D03*
D22*
X117300000Y-135460000D03*
D23*
X119840000Y-135460000D03*
X122380000Y-135460000D03*
D10*
X127000000Y-144800000D03*
D11*
X129500000Y-144800000D03*
D15*
X71500000Y-109460000D03*
X71500000Y-104380000D03*
D20*
X114000000Y-52460000D03*
D21*
X119400000Y-52460000D03*
D24*
X75335800Y-101548200D03*
X113866000Y-84316200D03*
X100017600Y-127489200D03*
X106500000Y-109819700D03*
D25*
X75335800Y-101548200D02*
X74538100Y-100750500D01*
X74538100Y-100750500D02*
X74538100Y-59741900D01*
X74538100Y-59741900D02*
X75840000Y-58440000D01*
X75840000Y-60980000D02*
X95608300Y-80748300D01*
X101805500Y-132020000D02*
X102700000Y-132020000D01*
X95608300Y-80748300D02*
X95608300Y-125822800D01*
X95608300Y-125822800D02*
X101805500Y-132020000D01*
X77900000Y-109760000D02*
X77900000Y-65580000D01*
X77900000Y-65580000D02*
X75840000Y-63520000D01*
X102700000Y-134560000D02*
X77900000Y-109760000D01*
D26*
X113807900Y-76767900D02*
X113807900Y-78530600D01*
X113807900Y-78530600D02*
X110500000Y-81838500D01*
X96160000Y-58440000D02*
X96160000Y-55900000D01*
X112000000Y-74960000D02*
X113807900Y-76767900D01*
X110500000Y-81838500D02*
X110500000Y-85960000D01*
D25*
X98472000Y-127089000D02*
X98472000Y-65832000D01*
X102700000Y-124400000D02*
X101112000Y-125988000D01*
X99700000Y-128317000D02*
X98472000Y-127089000D01*
X98472000Y-65832000D02*
X96160000Y-63520000D01*
X101112000Y-125988000D02*
X101112000Y-127529100D01*
X100324100Y-128317000D02*
X99700000Y-128317000D01*
X101112000Y-127529100D02*
X100324100Y-128317000D01*
X100064200Y-129480000D02*
X96160000Y-125575800D01*
X96160000Y-125575800D02*
X96160000Y-66060000D01*
X102700000Y-129480000D02*
X100064200Y-129480000D01*
X66750600Y-65429700D02*
X69219700Y-67898800D01*
X69219700Y-67898800D02*
X69219700Y-69010300D01*
X66648300Y-90108300D02*
X68000000Y-91460000D01*
X66750600Y-60629400D02*
X66750600Y-65429700D01*
X66648300Y-71581700D02*
X66648300Y-90108300D01*
X69219700Y-69010300D02*
X66648300Y-71581700D01*
X68000000Y-59380000D02*
X66750600Y-60629400D01*
X112740000Y-135460000D02*
X113866000Y-134334000D01*
X113866000Y-134334000D02*
X113866000Y-116420000D01*
X113866000Y-116420000D02*
X113866000Y-84316200D01*
X113866000Y-116420000D02*
X112000000Y-116420000D01*
X66092500Y-98552500D02*
X68000000Y-100460000D01*
X66092500Y-70287500D02*
X66092500Y-98552500D01*
X68000000Y-68380000D02*
X66092500Y-70287500D01*
X69000000Y-134500000D02*
X70551700Y-132948300D01*
X70098700Y-105781300D02*
X71500000Y-104380000D01*
X70551700Y-132948300D02*
X70551700Y-125740500D01*
X70551700Y-125740500D02*
X70098700Y-125287500D01*
X70098700Y-125287500D02*
X70098700Y-105781300D01*
D26*
X112000000Y-101104200D02*
X109043700Y-98147900D01*
X110500000Y-102604200D02*
X112000000Y-101104200D01*
X109043700Y-98147900D02*
X109043700Y-75376300D01*
X109043700Y-75376300D02*
X112000000Y-72420000D01*
X100017600Y-112007800D02*
X100017600Y-127489200D01*
X110500000Y-107960000D02*
X104065400Y-107960000D01*
X110500000Y-107960000D02*
X110500000Y-102604200D01*
X112000000Y-99500000D02*
X112000000Y-101104200D01*
X104065400Y-107960000D02*
X100017600Y-112007800D01*
X77300000Y-157420000D02*
X77300000Y-159960000D01*
X106500000Y-109819700D02*
X106500000Y-118960000D01*
D27*
X112000000Y-118960000D02*
X106500000Y-118960000D01*
D28*
X106500000Y-141660000D02*
X109000000Y-141660000D01*
X106500000Y-118960000D02*
X106500000Y-141660000D01*
D25*
X73901000Y-70361000D02*
X68000000Y-64460000D01*
X73901000Y-131161000D02*
X73901000Y-70361000D01*
X77300000Y-134560000D02*
X73901000Y-131161000D01*
X73263600Y-133063600D02*
X77300000Y-137100000D01*
X73263600Y-78723600D02*
X73263600Y-133063600D01*
X68000000Y-73460000D02*
X73263600Y-78723600D01*
M02*
