M48
; DRILL file KiCad 10.0.6 date 2026-10-03T09:27:54
; FORMAT={-:-/ absolute / metric / decimal}
; #@! TF.CreationDate,2026-10-03T09:27:54+09:00
; #@! TF.GenerationSoftware,Kicad,Pcbnew,10.0.6
; #@! TF.FileFunction,Plated,1,4,PTH
FMAT,2
METRIC
; #@! TA.AperFunction,Plated,PTH,ViaDrill
T1C0.400
; #@! TA.AperFunction,Plated,PTH,ComponentDrill
T2C0.800
; #@! TA.AperFunction,Plated,PTH,ComponentDrill
T3C1.000
; #@! TA.AperFunction,Plated,PTH,ComponentDrill
T4C1.100
; #@! TA.AperFunction,Plated,PTH,ComponentDrill
T5C1.750
%
G90
G05
T1
X73.285Y-98.968
X97.391Y-108.371
X105.822Y-101.386
X107.124Y-112.047
T2
X68.0Y-59.38
X68.0Y-64.46
X68.0Y-68.38
X68.0Y-73.46
X68.0Y-77.38
X68.0Y-82.46
X68.0Y-86.38
X68.0Y-91.46
X68.0Y-95.38
X68.0Y-100.46
X71.5Y-95.38
X71.5Y-100.46
X71.5Y-104.38
X71.5Y-109.46
X71.5Y-113.38
X71.5Y-118.46
X110.2Y-135.46
X110.5Y-85.96
X110.5Y-107.96
X110.5Y-128.26
X112.5Y-85.96
X112.5Y-107.96
X112.5Y-128.26
X112.74Y-135.46
X115.28Y-135.46
X117.3Y-135.46
X119.84Y-135.46
X122.38Y-135.46
T3
X69.0Y-132.0
X69.0Y-134.5
X75.84Y-53.36
X75.84Y-55.9
X75.84Y-58.44
X75.84Y-60.98
X75.84Y-63.52
X75.84Y-66.06
X77.3Y-111.7
X77.3Y-114.24
X77.3Y-116.78
X77.3Y-119.32
X77.3Y-121.86
X77.3Y-124.4
X77.3Y-126.94
X77.3Y-129.48
X77.3Y-132.02
X77.3Y-134.56
X77.3Y-137.1
X77.3Y-139.64
X77.3Y-142.18
X77.3Y-144.72
X77.3Y-147.26
X77.3Y-149.8
X77.3Y-152.34
X77.3Y-154.88
X77.3Y-157.42
X77.3Y-159.96
X80.0Y-88.0
X82.5Y-88.0
X92.0Y-88.0
X94.5Y-88.0
X96.16Y-53.36
X96.16Y-55.9
X96.16Y-58.44
X96.16Y-60.98
X96.16Y-63.52
X96.16Y-66.06
X102.7Y-111.7
X102.7Y-114.24
X102.7Y-116.78
X102.7Y-119.32
X102.7Y-121.86
X102.7Y-124.4
X102.7Y-126.94
X102.7Y-129.48
X102.7Y-132.02
X102.7Y-134.56
X102.7Y-137.1
X102.7Y-139.64
X102.7Y-142.18
X102.7Y-144.72
X102.7Y-147.26
X102.7Y-149.8
X102.7Y-152.34
X102.7Y-154.88
X102.7Y-157.42
X102.7Y-159.96
T4
X112.0Y-72.42
X112.0Y-74.96
X112.0Y-77.5
X112.0Y-94.42
X112.0Y-96.96
X112.0Y-99.5
X112.0Y-116.42
X112.0Y-118.96
X112.0Y-121.5
T5
X109.0Y-141.66
X114.0Y-52.46
X114.4Y-141.66
X119.4Y-52.46
M30
