G04 #@! TF.GenerationSoftware,KiCad,Pcbnew,10.0.6*
G04 #@! TF.CreationDate,2026-10-08T06:54:11+09:00*
G04 #@! TF.ProjectId,audio-ptt-control,61756469-6f2d-4707-9474-2d636f6e7472,rev?*
G04 #@! TF.SameCoordinates,Original*
G04 #@! TF.FileFunction,Copper,L2,Bot*
G04 #@! TF.FilePolarity,Positive*
%FSLAX46Y46*%
G04 Gerber Fmt 4.6, Leading zero omitted, Abs format (unit mm)*
G04 Created by KiCad (PCBNEW 10.0.6) date 2026-10-08 06:54:11*
%MOMM*%
%LPD*%
G01*
G04 APERTURE LIST*
G04 Aperture macros list*
%AMRoundRect*
0 Rectangle with rounded corners*
0 $1 Rounding radius*
0 $2 $3 $4 $5 $6 $7 $8 $9 X,Y pos of 4 corners*
0 Add a 4 corners polygon primitive as box body*
4,1,4,$2,$3,$4,$5,$6,$7,$8,$9,$2,$3,0*
0 Add four circle primitives for the rounded corners*
1,1,$1+$1,$2,$3*
1,1,$1+$1,$4,$5*
1,1,$1+$1,$6,$7*
1,1,$1+$1,$8,$9*
0 Add four rect primitives between the rounded corners*
20,1,$1+$1,$2,$3,$4,$5,0*
20,1,$1+$1,$4,$5,$6,$7,0*
20,1,$1+$1,$6,$7,$8,$9,0*
20,1,$1+$1,$8,$9,$2,$3,0*%
G04 Aperture macros list end*
G04 #@! TA.AperFunction,ComponentPad*
%ADD10RoundRect,0.250000X-0.550000X0.550000X-0.550000X-0.550000X0.550000X-0.550000X0.550000X0.550000X0*%
G04 #@! TD*
G04 #@! TA.AperFunction,ComponentPad*
%ADD11C,1.600000*%
G04 #@! TD*
G04 #@! TA.AperFunction,ComponentPad*
%ADD12RoundRect,0.250000X-0.845000X0.620000X-0.845000X-0.620000X0.845000X-0.620000X0.845000X0.620000X0*%
G04 #@! TD*
G04 #@! TA.AperFunction,ComponentPad*
%ADD13O,2.190000X1.740000*%
G04 #@! TD*
G04 #@! TA.AperFunction,ComponentPad*
%ADD14R,1.600000X1.600000*%
G04 #@! TD*
G04 #@! TA.AperFunction,ComponentPad*
%ADD15O,1.600000X1.600000*%
G04 #@! TD*
G04 #@! TA.AperFunction,ComponentPad*
%ADD16C,2.600000*%
G04 #@! TD*
G04 #@! TA.AperFunction,ComponentPad*
%ADD17RoundRect,0.250000X0.845000X-0.620000X0.845000X0.620000X-0.845000X0.620000X-0.845000X-0.620000X0*%
G04 #@! TD*
G04 #@! TA.AperFunction,ComponentPad*
%ADD18C,5.000000*%
G04 #@! TD*
G04 #@! TA.AperFunction,ComponentPad*
%ADD19RoundRect,0.250000X0.550000X-0.550000X0.550000X0.550000X-0.550000X0.550000X-0.550000X-0.550000X0*%
G04 #@! TD*
G04 #@! TA.AperFunction,Conductor*
%ADD20C,1.000000*%
G04 #@! TD*
G04 #@! TA.AperFunction,Conductor*
%ADD21C,0.250000*%
G04 #@! TD*
G04 APERTURE END LIST*
D10*
X147500000Y-85000000D03*
D11*
X147500000Y-90000000D03*
D12*
X113980000Y-114225000D03*
D13*
X113980000Y-116765000D03*
D14*
X121000000Y-107310000D03*
D15*
X121000000Y-99690000D03*
D14*
X147000000Y-102317600D03*
D11*
X147000000Y-104817600D03*
D16*
X133000000Y-104000000D03*
X138000000Y-104000000D03*
D17*
X164500000Y-124620000D03*
D13*
X164500000Y-122080000D03*
X164500000Y-119540000D03*
X164500000Y-117000000D03*
D11*
X126500000Y-105815000D03*
D15*
X126500000Y-100735000D03*
D16*
X132500000Y-86500000D03*
X137500000Y-86500000D03*
D11*
X147500000Y-122080000D03*
D15*
X147500000Y-117000000D03*
D18*
X114000000Y-87000000D03*
D10*
X122000000Y-85317600D03*
D11*
X122000000Y-90317600D03*
X154500000Y-84000000D03*
X154500000Y-89000000D03*
D17*
X164520000Y-111000000D03*
D13*
X164520000Y-108460000D03*
D19*
X129190000Y-123805000D03*
D11*
X131730000Y-123805000D03*
X134270000Y-123805000D03*
X136810000Y-123805000D03*
X136810000Y-116185000D03*
X134270000Y-116185000D03*
X131730000Y-116185000D03*
X129190000Y-116185000D03*
X114000000Y-93500000D03*
X114000000Y-98500000D03*
D17*
X164500000Y-94540000D03*
D13*
X164500000Y-92000000D03*
D18*
X114000000Y-104000000D03*
D11*
X155000000Y-101500000D03*
X155000000Y-106500000D03*
X142500000Y-117500000D03*
D15*
X142500000Y-122580000D03*
D20*
X133000000Y-91000000D02*
X137500000Y-86500000D01*
X133000000Y-104000000D02*
X133000000Y-91000000D01*
X136810000Y-116185000D02*
X147000000Y-105995000D01*
X164520000Y-108460000D02*
X166624700Y-108460000D01*
X114000000Y-98500000D02*
X114000000Y-104000000D01*
X164500000Y-92000000D02*
X166604700Y-92000000D01*
X164500000Y-119540000D02*
X166604700Y-119540000D01*
X147000000Y-105995000D02*
X147000000Y-104817600D01*
X131730000Y-123695800D02*
X131730000Y-123805000D01*
X166624700Y-92020000D02*
X166604700Y-92000000D01*
X122000000Y-90500000D02*
X122000000Y-90317600D01*
X136810000Y-121987700D02*
X133438100Y-121987700D01*
X136810000Y-116185000D02*
X136810000Y-121987700D01*
X166604700Y-119540000D02*
X166642400Y-119502300D01*
X166624700Y-108460000D02*
X166624700Y-92020000D01*
X136810000Y-121987700D02*
X136810000Y-123805000D01*
X133438100Y-121987700D02*
X131730000Y-123695800D01*
X166642400Y-108477700D02*
X166624700Y-108460000D01*
X114000000Y-98500000D02*
X122000000Y-90500000D01*
X166642400Y-119502300D02*
X166642400Y-108477700D01*
D21*
X119565300Y-108639700D02*
X113980000Y-114225000D01*
X121000000Y-107310000D02*
X119565300Y-107310000D01*
X119565300Y-107310000D02*
X119565300Y-108639700D01*
X121809700Y-101124700D02*
X121000000Y-101124700D01*
X126500000Y-121115000D02*
X126500000Y-105815000D01*
X121000000Y-99690000D02*
X121000000Y-101124700D01*
X126500000Y-105815000D02*
X121809700Y-101124700D01*
X129190000Y-123805000D02*
X126500000Y-121115000D01*
D20*
X138000000Y-104000000D02*
X139682400Y-102317600D01*
X139682400Y-102317600D02*
X147000000Y-102317600D01*
X129190000Y-116185000D02*
X129190000Y-112810000D01*
X129190000Y-112810000D02*
X138000000Y-104000000D01*
D21*
X156034500Y-124620000D02*
X148934700Y-117520200D01*
X142500000Y-122580000D02*
X142500000Y-121145300D01*
X148934700Y-117520200D02*
X148934700Y-117000000D01*
X164500000Y-124620000D02*
X156034500Y-124620000D01*
X146065300Y-117580000D02*
X146065300Y-117000000D01*
X147500000Y-117000000D02*
X146065300Y-117000000D01*
X142500000Y-121145300D02*
X146065300Y-117580000D01*
X147500000Y-117000000D02*
X148934700Y-117000000D01*
X164500000Y-111020000D02*
X164500000Y-117000000D01*
X164520000Y-111000000D02*
X164500000Y-111020000D01*
D20*
X114000000Y-93500000D02*
X114000000Y-87000000D01*
M02*
