G04 #@! TF.GenerationSoftware,KiCad,Pcbnew,10.0.6*
G04 #@! TF.CreationDate,2026-10-08T06:54:11+09:00*
G04 #@! TF.ProjectId,audio-ptt-control,61756469-6f2d-4707-9474-2d636f6e7472,rev?*
G04 #@! TF.SameCoordinates,Original*
G04 #@! TF.FileFunction,Legend,Top*
G04 #@! TF.FilePolarity,Positive*
%FSLAX46Y46*%
G04 Gerber Fmt 4.6, Leading zero omitted, Abs format (unit mm)*
G04 Created by KiCad (PCBNEW 10.0.6) date 2026-10-08 06:54:11*
%MOMM*%
%LPD*%
G01*
G04 APERTURE LIST*
%ADD10C,0.150000*%
%ADD11C,0.120000*%
G04 APERTURE END LIST*
D10*
X147333333Y-93359580D02*
X147285714Y-93407200D01*
X147285714Y-93407200D02*
X147142857Y-93454819D01*
X147142857Y-93454819D02*
X147047619Y-93454819D01*
X147047619Y-93454819D02*
X146904762Y-93407200D01*
X146904762Y-93407200D02*
X146809524Y-93311961D01*
X146809524Y-93311961D02*
X146761905Y-93216723D01*
X146761905Y-93216723D02*
X146714286Y-93026247D01*
X146714286Y-93026247D02*
X146714286Y-92883390D01*
X146714286Y-92883390D02*
X146761905Y-92692914D01*
X146761905Y-92692914D02*
X146809524Y-92597676D01*
X146809524Y-92597676D02*
X146904762Y-92502438D01*
X146904762Y-92502438D02*
X147047619Y-92454819D01*
X147047619Y-92454819D02*
X147142857Y-92454819D01*
X147142857Y-92454819D02*
X147285714Y-92502438D01*
X147285714Y-92502438D02*
X147333333Y-92550057D01*
X147666667Y-92454819D02*
X148285714Y-92454819D01*
X148285714Y-92454819D02*
X147952381Y-92835771D01*
X147952381Y-92835771D02*
X148095238Y-92835771D01*
X148095238Y-92835771D02*
X148190476Y-92883390D01*
X148190476Y-92883390D02*
X148238095Y-92931009D01*
X148238095Y-92931009D02*
X148285714Y-93026247D01*
X148285714Y-93026247D02*
X148285714Y-93264342D01*
X148285714Y-93264342D02*
X148238095Y-93359580D01*
X148238095Y-93359580D02*
X148190476Y-93407200D01*
X148190476Y-93407200D02*
X148095238Y-93454819D01*
X148095238Y-93454819D02*
X147809524Y-93454819D01*
X147809524Y-93454819D02*
X147714286Y-93407200D01*
X147714286Y-93407200D02*
X147666667Y-93359580D01*
X117954819Y-114833333D02*
X118669104Y-114833333D01*
X118669104Y-114833333D02*
X118811961Y-114880952D01*
X118811961Y-114880952D02*
X118907200Y-114976190D01*
X118907200Y-114976190D02*
X118954819Y-115119047D01*
X118954819Y-115119047D02*
X118954819Y-115214285D01*
X118954819Y-113833333D02*
X118954819Y-114404761D01*
X118954819Y-114119047D02*
X117954819Y-114119047D01*
X117954819Y-114119047D02*
X118097676Y-114214285D01*
X118097676Y-114214285D02*
X118192914Y-114309523D01*
X118192914Y-114309523D02*
X118240533Y-114404761D01*
X124054819Y-104238094D02*
X123054819Y-104238094D01*
X123054819Y-104238094D02*
X123054819Y-103999999D01*
X123054819Y-103999999D02*
X123102438Y-103857142D01*
X123102438Y-103857142D02*
X123197676Y-103761904D01*
X123197676Y-103761904D02*
X123292914Y-103714285D01*
X123292914Y-103714285D02*
X123483390Y-103666666D01*
X123483390Y-103666666D02*
X123626247Y-103666666D01*
X123626247Y-103666666D02*
X123816723Y-103714285D01*
X123816723Y-103714285D02*
X123911961Y-103761904D01*
X123911961Y-103761904D02*
X124007200Y-103857142D01*
X124007200Y-103857142D02*
X124054819Y-103999999D01*
X124054819Y-103999999D02*
X124054819Y-104238094D01*
X124054819Y-102714285D02*
X124054819Y-103285713D01*
X124054819Y-102999999D02*
X123054819Y-102999999D01*
X123054819Y-102999999D02*
X123197676Y-103095237D01*
X123197676Y-103095237D02*
X123292914Y-103190475D01*
X123292914Y-103190475D02*
X123340533Y-103285713D01*
X119654819Y-107571904D02*
X118654819Y-107571904D01*
X119654819Y-107000476D02*
X119083390Y-107429047D01*
X118654819Y-107000476D02*
X119226247Y-107571904D01*
X151759580Y-103734266D02*
X151807200Y-103781885D01*
X151807200Y-103781885D02*
X151854819Y-103924742D01*
X151854819Y-103924742D02*
X151854819Y-104019980D01*
X151854819Y-104019980D02*
X151807200Y-104162837D01*
X151807200Y-104162837D02*
X151711961Y-104258075D01*
X151711961Y-104258075D02*
X151616723Y-104305694D01*
X151616723Y-104305694D02*
X151426247Y-104353313D01*
X151426247Y-104353313D02*
X151283390Y-104353313D01*
X151283390Y-104353313D02*
X151092914Y-104305694D01*
X151092914Y-104305694D02*
X150997676Y-104258075D01*
X150997676Y-104258075D02*
X150902438Y-104162837D01*
X150902438Y-104162837D02*
X150854819Y-104019980D01*
X150854819Y-104019980D02*
X150854819Y-103924742D01*
X150854819Y-103924742D02*
X150902438Y-103781885D01*
X150902438Y-103781885D02*
X150950057Y-103734266D01*
X151188152Y-102877123D02*
X151854819Y-102877123D01*
X150807200Y-103115218D02*
X151521485Y-103353313D01*
X151521485Y-103353313D02*
X151521485Y-102734266D01*
X135333333Y-97954819D02*
X134857143Y-97954819D01*
X134857143Y-97954819D02*
X134857143Y-96954819D01*
X135619048Y-97050057D02*
X135666667Y-97002438D01*
X135666667Y-97002438D02*
X135761905Y-96954819D01*
X135761905Y-96954819D02*
X136000000Y-96954819D01*
X136000000Y-96954819D02*
X136095238Y-97002438D01*
X136095238Y-97002438D02*
X136142857Y-97050057D01*
X136142857Y-97050057D02*
X136190476Y-97145295D01*
X136190476Y-97145295D02*
X136190476Y-97240533D01*
X136190476Y-97240533D02*
X136142857Y-97383390D01*
X136142857Y-97383390D02*
X135571429Y-97954819D01*
X135571429Y-97954819D02*
X136190476Y-97954819D01*
X159834819Y-121143333D02*
X160549104Y-121143333D01*
X160549104Y-121143333D02*
X160691961Y-121190952D01*
X160691961Y-121190952D02*
X160787200Y-121286190D01*
X160787200Y-121286190D02*
X160834819Y-121429047D01*
X160834819Y-121429047D02*
X160834819Y-121524285D01*
X160168152Y-120238571D02*
X160834819Y-120238571D01*
X159787200Y-120476666D02*
X160501485Y-120714761D01*
X160501485Y-120714761D02*
X160501485Y-120095714D01*
X127954819Y-97666666D02*
X127478628Y-97999999D01*
X127954819Y-98238094D02*
X126954819Y-98238094D01*
X126954819Y-98238094D02*
X126954819Y-97857142D01*
X126954819Y-97857142D02*
X127002438Y-97761904D01*
X127002438Y-97761904D02*
X127050057Y-97714285D01*
X127050057Y-97714285D02*
X127145295Y-97666666D01*
X127145295Y-97666666D02*
X127288152Y-97666666D01*
X127288152Y-97666666D02*
X127383390Y-97714285D01*
X127383390Y-97714285D02*
X127431009Y-97761904D01*
X127431009Y-97761904D02*
X127478628Y-97857142D01*
X127478628Y-97857142D02*
X127478628Y-98238094D01*
X127954819Y-96714285D02*
X127954819Y-97285713D01*
X127954819Y-96999999D02*
X126954819Y-96999999D01*
X126954819Y-96999999D02*
X127097676Y-97095237D01*
X127097676Y-97095237D02*
X127192914Y-97190475D01*
X127192914Y-97190475D02*
X127240533Y-97285713D01*
X129333333Y-93954819D02*
X128857143Y-93954819D01*
X128857143Y-93954819D02*
X128857143Y-92954819D01*
X130190476Y-93954819D02*
X129619048Y-93954819D01*
X129904762Y-93954819D02*
X129904762Y-92954819D01*
X129904762Y-92954819D02*
X129809524Y-93097676D01*
X129809524Y-93097676D02*
X129714286Y-93192914D01*
X129714286Y-93192914D02*
X129619048Y-93240533D01*
X150454819Y-117166666D02*
X149978628Y-117499999D01*
X150454819Y-117738094D02*
X149454819Y-117738094D01*
X149454819Y-117738094D02*
X149454819Y-117357142D01*
X149454819Y-117357142D02*
X149502438Y-117261904D01*
X149502438Y-117261904D02*
X149550057Y-117214285D01*
X149550057Y-117214285D02*
X149645295Y-117166666D01*
X149645295Y-117166666D02*
X149788152Y-117166666D01*
X149788152Y-117166666D02*
X149883390Y-117214285D01*
X149883390Y-117214285D02*
X149931009Y-117261904D01*
X149931009Y-117261904D02*
X149978628Y-117357142D01*
X149978628Y-117357142D02*
X149978628Y-117738094D01*
X149454819Y-116833332D02*
X149454819Y-116214285D01*
X149454819Y-116214285D02*
X149835771Y-116547618D01*
X149835771Y-116547618D02*
X149835771Y-116404761D01*
X149835771Y-116404761D02*
X149883390Y-116309523D01*
X149883390Y-116309523D02*
X149931009Y-116261904D01*
X149931009Y-116261904D02*
X150026247Y-116214285D01*
X150026247Y-116214285D02*
X150264342Y-116214285D01*
X150264342Y-116214285D02*
X150359580Y-116261904D01*
X150359580Y-116261904D02*
X150407200Y-116309523D01*
X150407200Y-116309523D02*
X150454819Y-116404761D01*
X150454819Y-116404761D02*
X150454819Y-116690475D01*
X150454819Y-116690475D02*
X150407200Y-116785713D01*
X150407200Y-116785713D02*
X150359580Y-116833332D01*
X113238095Y-82754819D02*
X113238095Y-81754819D01*
X113238095Y-82231009D02*
X113809523Y-82231009D01*
X113809523Y-82754819D02*
X113809523Y-81754819D01*
X114809523Y-82754819D02*
X114238095Y-82754819D01*
X114523809Y-82754819D02*
X114523809Y-81754819D01*
X114523809Y-81754819D02*
X114428571Y-81897676D01*
X114428571Y-81897676D02*
X114333333Y-81992914D01*
X114333333Y-81992914D02*
X114238095Y-82040533D01*
X121833333Y-93659580D02*
X121785714Y-93707200D01*
X121785714Y-93707200D02*
X121642857Y-93754819D01*
X121642857Y-93754819D02*
X121547619Y-93754819D01*
X121547619Y-93754819D02*
X121404762Y-93707200D01*
X121404762Y-93707200D02*
X121309524Y-93611961D01*
X121309524Y-93611961D02*
X121261905Y-93516723D01*
X121261905Y-93516723D02*
X121214286Y-93326247D01*
X121214286Y-93326247D02*
X121214286Y-93183390D01*
X121214286Y-93183390D02*
X121261905Y-92992914D01*
X121261905Y-92992914D02*
X121309524Y-92897676D01*
X121309524Y-92897676D02*
X121404762Y-92802438D01*
X121404762Y-92802438D02*
X121547619Y-92754819D01*
X121547619Y-92754819D02*
X121642857Y-92754819D01*
X121642857Y-92754819D02*
X121785714Y-92802438D01*
X121785714Y-92802438D02*
X121833333Y-92850057D01*
X122214286Y-92850057D02*
X122261905Y-92802438D01*
X122261905Y-92802438D02*
X122357143Y-92754819D01*
X122357143Y-92754819D02*
X122595238Y-92754819D01*
X122595238Y-92754819D02*
X122690476Y-92802438D01*
X122690476Y-92802438D02*
X122738095Y-92850057D01*
X122738095Y-92850057D02*
X122785714Y-92945295D01*
X122785714Y-92945295D02*
X122785714Y-93040533D01*
X122785714Y-93040533D02*
X122738095Y-93183390D01*
X122738095Y-93183390D02*
X122166667Y-93754819D01*
X122166667Y-93754819D02*
X122785714Y-93754819D01*
X154359580Y-92666666D02*
X154407200Y-92714285D01*
X154407200Y-92714285D02*
X154454819Y-92857142D01*
X154454819Y-92857142D02*
X154454819Y-92952380D01*
X154454819Y-92952380D02*
X154407200Y-93095237D01*
X154407200Y-93095237D02*
X154311961Y-93190475D01*
X154311961Y-93190475D02*
X154216723Y-93238094D01*
X154216723Y-93238094D02*
X154026247Y-93285713D01*
X154026247Y-93285713D02*
X153883390Y-93285713D01*
X153883390Y-93285713D02*
X153692914Y-93238094D01*
X153692914Y-93238094D02*
X153597676Y-93190475D01*
X153597676Y-93190475D02*
X153502438Y-93095237D01*
X153502438Y-93095237D02*
X153454819Y-92952380D01*
X153454819Y-92952380D02*
X153454819Y-92857142D01*
X153454819Y-92857142D02*
X153502438Y-92714285D01*
X153502438Y-92714285D02*
X153550057Y-92666666D01*
X153454819Y-91761904D02*
X153454819Y-92238094D01*
X153454819Y-92238094D02*
X153931009Y-92285713D01*
X153931009Y-92285713D02*
X153883390Y-92238094D01*
X153883390Y-92238094D02*
X153835771Y-92142856D01*
X153835771Y-92142856D02*
X153835771Y-91904761D01*
X153835771Y-91904761D02*
X153883390Y-91809523D01*
X153883390Y-91809523D02*
X153931009Y-91761904D01*
X153931009Y-91761904D02*
X154026247Y-91714285D01*
X154026247Y-91714285D02*
X154264342Y-91714285D01*
X154264342Y-91714285D02*
X154359580Y-91761904D01*
X154359580Y-91761904D02*
X154407200Y-91809523D01*
X154407200Y-91809523D02*
X154454819Y-91904761D01*
X154454819Y-91904761D02*
X154454819Y-92142856D01*
X154454819Y-92142856D02*
X154407200Y-92238094D01*
X154407200Y-92238094D02*
X154359580Y-92285713D01*
X159854819Y-110063333D02*
X160569104Y-110063333D01*
X160569104Y-110063333D02*
X160711961Y-110110952D01*
X160711961Y-110110952D02*
X160807200Y-110206190D01*
X160807200Y-110206190D02*
X160854819Y-110349047D01*
X160854819Y-110349047D02*
X160854819Y-110444285D01*
X159854819Y-109682380D02*
X159854819Y-109063333D01*
X159854819Y-109063333D02*
X160235771Y-109396666D01*
X160235771Y-109396666D02*
X160235771Y-109253809D01*
X160235771Y-109253809D02*
X160283390Y-109158571D01*
X160283390Y-109158571D02*
X160331009Y-109110952D01*
X160331009Y-109110952D02*
X160426247Y-109063333D01*
X160426247Y-109063333D02*
X160664342Y-109063333D01*
X160664342Y-109063333D02*
X160759580Y-109110952D01*
X160759580Y-109110952D02*
X160807200Y-109158571D01*
X160807200Y-109158571D02*
X160854819Y-109253809D01*
X160854819Y-109253809D02*
X160854819Y-109539523D01*
X160854819Y-109539523D02*
X160807200Y-109634761D01*
X160807200Y-109634761D02*
X160759580Y-109682380D01*
X132238095Y-119454819D02*
X132238095Y-120264342D01*
X132238095Y-120264342D02*
X132285714Y-120359580D01*
X132285714Y-120359580D02*
X132333333Y-120407200D01*
X132333333Y-120407200D02*
X132428571Y-120454819D01*
X132428571Y-120454819D02*
X132619047Y-120454819D01*
X132619047Y-120454819D02*
X132714285Y-120407200D01*
X132714285Y-120407200D02*
X132761904Y-120359580D01*
X132761904Y-120359580D02*
X132809523Y-120264342D01*
X132809523Y-120264342D02*
X132809523Y-119454819D01*
X133809523Y-120454819D02*
X133238095Y-120454819D01*
X133523809Y-120454819D02*
X133523809Y-119454819D01*
X133523809Y-119454819D02*
X133428571Y-119597676D01*
X133428571Y-119597676D02*
X133333333Y-119692914D01*
X133333333Y-119692914D02*
X133238095Y-119740533D01*
X116559580Y-96166666D02*
X116607200Y-96214285D01*
X116607200Y-96214285D02*
X116654819Y-96357142D01*
X116654819Y-96357142D02*
X116654819Y-96452380D01*
X116654819Y-96452380D02*
X116607200Y-96595237D01*
X116607200Y-96595237D02*
X116511961Y-96690475D01*
X116511961Y-96690475D02*
X116416723Y-96738094D01*
X116416723Y-96738094D02*
X116226247Y-96785713D01*
X116226247Y-96785713D02*
X116083390Y-96785713D01*
X116083390Y-96785713D02*
X115892914Y-96738094D01*
X115892914Y-96738094D02*
X115797676Y-96690475D01*
X115797676Y-96690475D02*
X115702438Y-96595237D01*
X115702438Y-96595237D02*
X115654819Y-96452380D01*
X115654819Y-96452380D02*
X115654819Y-96357142D01*
X115654819Y-96357142D02*
X115702438Y-96214285D01*
X115702438Y-96214285D02*
X115750057Y-96166666D01*
X116654819Y-95214285D02*
X116654819Y-95785713D01*
X116654819Y-95499999D02*
X115654819Y-95499999D01*
X115654819Y-95499999D02*
X115797676Y-95595237D01*
X115797676Y-95595237D02*
X115892914Y-95690475D01*
X115892914Y-95690475D02*
X115940533Y-95785713D01*
X159834819Y-93603333D02*
X160549104Y-93603333D01*
X160549104Y-93603333D02*
X160691961Y-93650952D01*
X160691961Y-93650952D02*
X160787200Y-93746190D01*
X160787200Y-93746190D02*
X160834819Y-93889047D01*
X160834819Y-93889047D02*
X160834819Y-93984285D01*
X159930057Y-93174761D02*
X159882438Y-93127142D01*
X159882438Y-93127142D02*
X159834819Y-93031904D01*
X159834819Y-93031904D02*
X159834819Y-92793809D01*
X159834819Y-92793809D02*
X159882438Y-92698571D01*
X159882438Y-92698571D02*
X159930057Y-92650952D01*
X159930057Y-92650952D02*
X160025295Y-92603333D01*
X160025295Y-92603333D02*
X160120533Y-92603333D01*
X160120533Y-92603333D02*
X160263390Y-92650952D01*
X160263390Y-92650952D02*
X160834819Y-93222380D01*
X160834819Y-93222380D02*
X160834819Y-92603333D01*
X115238095Y-110454819D02*
X115238095Y-109454819D01*
X115238095Y-109931009D02*
X115809523Y-109931009D01*
X115809523Y-110454819D02*
X115809523Y-109454819D01*
X116238095Y-109550057D02*
X116285714Y-109502438D01*
X116285714Y-109502438D02*
X116380952Y-109454819D01*
X116380952Y-109454819D02*
X116619047Y-109454819D01*
X116619047Y-109454819D02*
X116714285Y-109502438D01*
X116714285Y-109502438D02*
X116761904Y-109550057D01*
X116761904Y-109550057D02*
X116809523Y-109645295D01*
X116809523Y-109645295D02*
X116809523Y-109740533D01*
X116809523Y-109740533D02*
X116761904Y-109883390D01*
X116761904Y-109883390D02*
X116190476Y-110454819D01*
X116190476Y-110454819D02*
X116809523Y-110454819D01*
X157559580Y-104166666D02*
X157607200Y-104214285D01*
X157607200Y-104214285D02*
X157654819Y-104357142D01*
X157654819Y-104357142D02*
X157654819Y-104452380D01*
X157654819Y-104452380D02*
X157607200Y-104595237D01*
X157607200Y-104595237D02*
X157511961Y-104690475D01*
X157511961Y-104690475D02*
X157416723Y-104738094D01*
X157416723Y-104738094D02*
X157226247Y-104785713D01*
X157226247Y-104785713D02*
X157083390Y-104785713D01*
X157083390Y-104785713D02*
X156892914Y-104738094D01*
X156892914Y-104738094D02*
X156797676Y-104690475D01*
X156797676Y-104690475D02*
X156702438Y-104595237D01*
X156702438Y-104595237D02*
X156654819Y-104452380D01*
X156654819Y-104452380D02*
X156654819Y-104357142D01*
X156654819Y-104357142D02*
X156702438Y-104214285D01*
X156702438Y-104214285D02*
X156750057Y-104166666D01*
X156654819Y-103309523D02*
X156654819Y-103499999D01*
X156654819Y-103499999D02*
X156702438Y-103595237D01*
X156702438Y-103595237D02*
X156750057Y-103642856D01*
X156750057Y-103642856D02*
X156892914Y-103738094D01*
X156892914Y-103738094D02*
X157083390Y-103785713D01*
X157083390Y-103785713D02*
X157464342Y-103785713D01*
X157464342Y-103785713D02*
X157559580Y-103738094D01*
X157559580Y-103738094D02*
X157607200Y-103690475D01*
X157607200Y-103690475D02*
X157654819Y-103595237D01*
X157654819Y-103595237D02*
X157654819Y-103404761D01*
X157654819Y-103404761D02*
X157607200Y-103309523D01*
X157607200Y-103309523D02*
X157559580Y-103261904D01*
X157559580Y-103261904D02*
X157464342Y-103214285D01*
X157464342Y-103214285D02*
X157226247Y-103214285D01*
X157226247Y-103214285D02*
X157131009Y-103261904D01*
X157131009Y-103261904D02*
X157083390Y-103309523D01*
X157083390Y-103309523D02*
X157035771Y-103404761D01*
X157035771Y-103404761D02*
X157035771Y-103595237D01*
X157035771Y-103595237D02*
X157083390Y-103690475D01*
X157083390Y-103690475D02*
X157131009Y-103738094D01*
X157131009Y-103738094D02*
X157226247Y-103785713D01*
X145454819Y-117666666D02*
X144978628Y-117999999D01*
X145454819Y-118238094D02*
X144454819Y-118238094D01*
X144454819Y-118238094D02*
X144454819Y-117857142D01*
X144454819Y-117857142D02*
X144502438Y-117761904D01*
X144502438Y-117761904D02*
X144550057Y-117714285D01*
X144550057Y-117714285D02*
X144645295Y-117666666D01*
X144645295Y-117666666D02*
X144788152Y-117666666D01*
X144788152Y-117666666D02*
X144883390Y-117714285D01*
X144883390Y-117714285D02*
X144931009Y-117761904D01*
X144931009Y-117761904D02*
X144978628Y-117857142D01*
X144978628Y-117857142D02*
X144978628Y-118238094D01*
X144550057Y-117285713D02*
X144502438Y-117238094D01*
X144502438Y-117238094D02*
X144454819Y-117142856D01*
X144454819Y-117142856D02*
X144454819Y-116904761D01*
X144454819Y-116904761D02*
X144502438Y-116809523D01*
X144502438Y-116809523D02*
X144550057Y-116761904D01*
X144550057Y-116761904D02*
X144645295Y-116714285D01*
X144645295Y-116714285D02*
X144740533Y-116714285D01*
X144740533Y-116714285D02*
X144883390Y-116761904D01*
X144883390Y-116761904D02*
X145454819Y-117333332D01*
X145454819Y-117333332D02*
X145454819Y-116714285D01*
D11*
X146460000Y-88980000D02*
X143695000Y-88980000D01*
X146460000Y-89020000D02*
X143711000Y-89020000D01*
X146460000Y-89060000D02*
X143727000Y-89060000D01*
X146460000Y-89100000D02*
X143743000Y-89100000D01*
X146460000Y-89140000D02*
X143760000Y-89140000D01*
X146460000Y-89180000D02*
X143778000Y-89180000D01*
X146460000Y-89220000D02*
X143796000Y-89220000D01*
X146460000Y-89260000D02*
X143815000Y-89260000D01*
X146460000Y-89300000D02*
X143834000Y-89300000D01*
X146460000Y-89340000D02*
X143854000Y-89340000D01*
X146460000Y-89380000D02*
X143874000Y-89380000D01*
X146460000Y-89420000D02*
X143895000Y-89420000D01*
X146460000Y-89460000D02*
X143916000Y-89460000D01*
X146460000Y-89500000D02*
X143938000Y-89500000D01*
X146460000Y-89540000D02*
X143961000Y-89540000D01*
X146460000Y-89580000D02*
X143984000Y-89580000D01*
X146460000Y-89620000D02*
X144007000Y-89620000D01*
X146460000Y-89660000D02*
X144032000Y-89660000D01*
X146460000Y-89700000D02*
X144057000Y-89700000D01*
X146460000Y-89740000D02*
X144082000Y-89740000D01*
X146460000Y-89780000D02*
X144108000Y-89780000D01*
X146460000Y-89820000D02*
X144135000Y-89820000D01*
X146460000Y-89860000D02*
X144163000Y-89860000D01*
X146460000Y-89900000D02*
X144191000Y-89900000D01*
X146460000Y-89940000D02*
X144220000Y-89940000D01*
X146460000Y-89980000D02*
X144250000Y-89980000D01*
X146460000Y-90020000D02*
X144281000Y-90020000D01*
X146460000Y-90060000D02*
X144312000Y-90060000D01*
X146460000Y-90100000D02*
X144344000Y-90100000D01*
X146460000Y-90140000D02*
X144377000Y-90140000D01*
X146460000Y-90180000D02*
X144411000Y-90180000D01*
X146460000Y-90220000D02*
X144445000Y-90220000D01*
X146460000Y-90260000D02*
X144481000Y-90260000D01*
X146460000Y-90300000D02*
X144518000Y-90300000D01*
X146460000Y-90340000D02*
X144555000Y-90340000D01*
X146460000Y-90380000D02*
X144594000Y-90380000D01*
X146460000Y-90420000D02*
X144633000Y-90420000D01*
X146460000Y-90460000D02*
X144674000Y-90460000D01*
X146460000Y-90500000D02*
X144716000Y-90500000D01*
X146460000Y-90540000D02*
X144759000Y-90540000D01*
X146460000Y-90580000D02*
X144804000Y-90580000D01*
X146460000Y-90620000D02*
X144849000Y-90620000D01*
X146460000Y-90660000D02*
X144896000Y-90660000D01*
X146460000Y-90700000D02*
X144945000Y-90700000D01*
X146460000Y-90740000D02*
X144995000Y-90740000D01*
X146460000Y-90780000D02*
X145047000Y-90780000D01*
X146460000Y-90820000D02*
X145100000Y-90820000D01*
X146460000Y-90860000D02*
X145156000Y-90860000D01*
X146460000Y-90900000D02*
X145213000Y-90900000D01*
X146460000Y-90940000D02*
X145273000Y-90940000D01*
X146460000Y-90980000D02*
X145335000Y-90980000D01*
X146460000Y-91020000D02*
X145399000Y-91020000D01*
X148033000Y-91580000D02*
X146967000Y-91580000D01*
X148268000Y-91540000D02*
X146732000Y-91540000D01*
X148447000Y-91500000D02*
X146553000Y-91500000D01*
X148597000Y-91460000D02*
X146403000Y-91460000D01*
X148728000Y-91420000D02*
X146272000Y-91420000D01*
X148846000Y-91380000D02*
X146154000Y-91380000D01*
X148953000Y-91340000D02*
X146047000Y-91340000D01*
X149052000Y-91300000D02*
X145948000Y-91300000D01*
X149144000Y-91260000D02*
X145856000Y-91260000D01*
X149231000Y-91220000D02*
X145769000Y-91220000D01*
X149313000Y-91180000D02*
X145687000Y-91180000D01*
X149390000Y-91140000D02*
X145610000Y-91140000D01*
X149464000Y-91100000D02*
X145536000Y-91100000D01*
X149534000Y-91060000D02*
X145466000Y-91060000D01*
X149601000Y-91020000D02*
X148540000Y-91020000D01*
X149665000Y-90980000D02*
X148540000Y-90980000D01*
X149727000Y-90940000D02*
X148540000Y-90940000D01*
X149787000Y-90900000D02*
X148540000Y-90900000D01*
X149815000Y-83090302D02*
X149815000Y-83890302D01*
X149844000Y-90860000D02*
X148540000Y-90860000D01*
X149900000Y-90820000D02*
X148540000Y-90820000D01*
X149953000Y-90780000D02*
X148540000Y-90780000D01*
X150005000Y-90740000D02*
X148540000Y-90740000D01*
X150055000Y-90700000D02*
X148540000Y-90700000D01*
X150104000Y-90660000D02*
X148540000Y-90660000D01*
X150151000Y-90620000D02*
X148540000Y-90620000D01*
X150196000Y-90580000D02*
X148540000Y-90580000D01*
X150215000Y-83490302D02*
X149415000Y-83490302D01*
X150241000Y-90540000D02*
X148540000Y-90540000D01*
X150284000Y-90500000D02*
X148540000Y-90500000D01*
X150326000Y-90460000D02*
X148540000Y-90460000D01*
X150367000Y-90420000D02*
X148540000Y-90420000D01*
X150406000Y-90380000D02*
X148540000Y-90380000D01*
X150445000Y-90340000D02*
X148540000Y-90340000D01*
X150482000Y-90300000D02*
X148540000Y-90300000D01*
X150519000Y-90260000D02*
X148540000Y-90260000D01*
X150555000Y-90220000D02*
X148540000Y-90220000D01*
X150589000Y-90180000D02*
X148540000Y-90180000D01*
X150623000Y-90140000D02*
X148540000Y-90140000D01*
X150656000Y-90100000D02*
X148540000Y-90100000D01*
X150688000Y-90060000D02*
X148540000Y-90060000D01*
X150719000Y-90020000D02*
X148540000Y-90020000D01*
X150750000Y-89980000D02*
X148540000Y-89980000D01*
X150780000Y-89940000D02*
X148540000Y-89940000D01*
X150809000Y-89900000D02*
X148540000Y-89900000D01*
X150837000Y-89860000D02*
X148540000Y-89860000D01*
X150865000Y-89820000D02*
X148540000Y-89820000D01*
X150892000Y-89780000D02*
X148540000Y-89780000D01*
X150918000Y-89740000D02*
X148540000Y-89740000D01*
X150943000Y-89700000D02*
X148540000Y-89700000D01*
X150968000Y-89660000D02*
X148540000Y-89660000D01*
X150993000Y-89620000D02*
X148540000Y-89620000D01*
X151016000Y-89580000D02*
X148540000Y-89580000D01*
X151039000Y-89540000D02*
X148540000Y-89540000D01*
X151062000Y-89500000D02*
X148540000Y-89500000D01*
X151084000Y-89460000D02*
X148540000Y-89460000D01*
X151105000Y-89420000D02*
X148540000Y-89420000D01*
X151126000Y-89380000D02*
X148540000Y-89380000D01*
X151146000Y-89340000D02*
X148540000Y-89340000D01*
X151166000Y-89300000D02*
X148540000Y-89300000D01*
X151185000Y-89260000D02*
X148540000Y-89260000D01*
X151204000Y-89220000D02*
X148540000Y-89220000D01*
X151222000Y-89180000D02*
X148540000Y-89180000D01*
X151240000Y-89140000D02*
X148540000Y-89140000D01*
X151257000Y-89100000D02*
X148540000Y-89100000D01*
X151273000Y-89060000D02*
X148540000Y-89060000D01*
X151289000Y-89020000D02*
X148540000Y-89020000D01*
X151305000Y-88980000D02*
X148540000Y-88980000D01*
X151320000Y-88940000D02*
X143680000Y-88940000D01*
X151335000Y-88900000D02*
X143665000Y-88900000D01*
X151349000Y-88860000D02*
X143651000Y-88860000D01*
X151363000Y-88820000D02*
X143637000Y-88820000D01*
X151376000Y-88780000D02*
X143624000Y-88780000D01*
X151389000Y-88740000D02*
X143611000Y-88740000D01*
X151401000Y-88700000D02*
X143599000Y-88700000D01*
X151413000Y-88660000D02*
X143587000Y-88660000D01*
X151425000Y-88620000D02*
X143575000Y-88620000D01*
X151436000Y-88580000D02*
X143564000Y-88580000D01*
X151447000Y-88540000D02*
X143553000Y-88540000D01*
X151457000Y-88500000D02*
X143543000Y-88500000D01*
X151467000Y-88460000D02*
X143533000Y-88460000D01*
X151476000Y-88420000D02*
X143524000Y-88420000D01*
X151485000Y-88380000D02*
X143515000Y-88380000D01*
X151493000Y-88340000D02*
X143507000Y-88340000D01*
X151502000Y-88300000D02*
X143498000Y-88300000D01*
X151509000Y-88260000D02*
X143491000Y-88260000D01*
X151517000Y-88220000D02*
X143483000Y-88220000D01*
X151523000Y-88180000D02*
X143477000Y-88180000D01*
X151530000Y-88140000D02*
X143470000Y-88140000D01*
X151536000Y-88100000D02*
X143464000Y-88100000D01*
X151542000Y-88060000D02*
X143458000Y-88060000D01*
X151547000Y-88020000D02*
X143453000Y-88020000D01*
X151552000Y-87980000D02*
X143448000Y-87980000D01*
X151556000Y-87940000D02*
X143444000Y-87940000D01*
X151561000Y-87900000D02*
X143439000Y-87900000D01*
X151564000Y-87860000D02*
X143436000Y-87860000D01*
X151568000Y-87820000D02*
X143432000Y-87820000D01*
X151570000Y-87780000D02*
X143430000Y-87780000D01*
X151573000Y-87740000D02*
X143427000Y-87740000D01*
X151575000Y-87700000D02*
X143425000Y-87700000D01*
X151577000Y-87660000D02*
X143423000Y-87660000D01*
X151578000Y-87620000D02*
X143422000Y-87620000D01*
X151579000Y-87580000D02*
X143421000Y-87580000D01*
X151580000Y-87500000D02*
X143420000Y-87500000D01*
X151580000Y-87540000D02*
X143420000Y-87540000D01*
X151620000Y-87500000D02*
G75*
G02*
X143380000Y-87500000I-4120000J0D01*
G01*
X143380000Y-87500000D02*
G75*
G02*
X151620000Y-87500000I4120000J0D01*
G01*
X110990000Y-112845000D02*
X110990000Y-118145000D01*
X110990000Y-114225000D02*
X111990000Y-114225000D01*
X110990000Y-114475000D02*
X111990000Y-114475000D01*
X110990000Y-116515000D02*
X111990000Y-116515000D01*
X110990000Y-118145000D02*
X117010000Y-118145000D01*
X111990000Y-114225000D02*
X111990000Y-116765000D01*
X111990000Y-114225000D02*
X112520000Y-114475000D01*
X111990000Y-116765000D02*
X110990000Y-116765000D01*
X112520000Y-114475000D02*
X112520000Y-116515000D01*
X112520000Y-116515000D02*
X111990000Y-116765000D01*
X115980000Y-112555000D02*
X111980000Y-112555000D01*
X116410000Y-113425000D02*
X116410000Y-115025000D01*
X116410000Y-115025000D02*
X117010000Y-115025000D01*
X116410000Y-115965000D02*
X116410000Y-117565000D01*
X116410000Y-117565000D02*
X117010000Y-117565000D01*
X117010000Y-112845000D02*
X110990000Y-112845000D01*
X117010000Y-113425000D02*
X116410000Y-113425000D01*
X117010000Y-115965000D02*
X116410000Y-115965000D01*
X117010000Y-118145000D02*
X117010000Y-112845000D01*
X119880000Y-101380000D02*
X119880000Y-105620000D01*
X119880000Y-104780000D02*
X122120000Y-104780000D01*
X119880000Y-104900000D02*
X122120000Y-104900000D01*
X119880000Y-105020000D02*
X122120000Y-105020000D01*
X119880000Y-105620000D02*
X122120000Y-105620000D01*
X121000000Y-100730000D02*
X121000000Y-101380000D01*
X121000000Y-106270000D02*
X121000000Y-105620000D01*
X122120000Y-101380000D02*
X119880000Y-101380000D01*
X122120000Y-105620000D02*
X122120000Y-101380000D01*
X145960000Y-103807600D02*
X143779000Y-103807600D01*
X145960000Y-103847600D02*
X143782000Y-103847600D01*
X145960000Y-103887600D02*
X143786000Y-103887600D01*
X145960000Y-103927600D02*
X143790000Y-103927600D01*
X145960000Y-103967600D02*
X143795000Y-103967600D01*
X145960000Y-104007600D02*
X143800000Y-104007600D01*
X145960000Y-104047600D02*
X143805000Y-104047600D01*
X145960000Y-104087600D02*
X143812000Y-104087600D01*
X145960000Y-104127600D02*
X143818000Y-104127600D01*
X145960000Y-104167600D02*
X143826000Y-104167600D01*
X145960000Y-104207600D02*
X143833000Y-104207600D01*
X145960000Y-104247600D02*
X143841000Y-104247600D01*
X145960000Y-104287600D02*
X143850000Y-104287600D01*
X145960000Y-104327600D02*
X143860000Y-104327600D01*
X145960000Y-104367600D02*
X143869000Y-104367600D01*
X145960000Y-104407600D02*
X143880000Y-104407600D01*
X145960000Y-104447600D02*
X143891000Y-104447600D01*
X145960000Y-104487600D02*
X143902000Y-104487600D01*
X145960000Y-104527600D02*
X143914000Y-104527600D01*
X145960000Y-104567600D02*
X143927000Y-104567600D01*
X145960000Y-104607600D02*
X143940000Y-104607600D01*
X145960000Y-104647600D02*
X143953000Y-104647600D01*
X145960000Y-104687600D02*
X143968000Y-104687600D01*
X145960000Y-104727600D02*
X143983000Y-104727600D01*
X145960000Y-104767600D02*
X143998000Y-104767600D01*
X145960000Y-104807600D02*
X144014000Y-104807600D01*
X145960000Y-104847600D02*
X144031000Y-104847600D01*
X145960000Y-104887600D02*
X144048000Y-104887600D01*
X145960000Y-104927600D02*
X144066000Y-104927600D01*
X145960000Y-104967600D02*
X144085000Y-104967600D01*
X145960000Y-105007600D02*
X144104000Y-105007600D01*
X145960000Y-105047600D02*
X144124000Y-105047600D01*
X145960000Y-105087600D02*
X144145000Y-105087600D01*
X145960000Y-105127600D02*
X144166000Y-105127600D01*
X145960000Y-105167600D02*
X144188000Y-105167600D01*
X145960000Y-105207600D02*
X144211000Y-105207600D01*
X145960000Y-105247600D02*
X144235000Y-105247600D01*
X145960000Y-105287600D02*
X144259000Y-105287600D01*
X145960000Y-105327600D02*
X144284000Y-105327600D01*
X145960000Y-105367600D02*
X144310000Y-105367600D01*
X145960000Y-105407600D02*
X144337000Y-105407600D01*
X145960000Y-105447600D02*
X144364000Y-105447600D01*
X145960000Y-105487600D02*
X144393000Y-105487600D01*
X145960000Y-105527600D02*
X144423000Y-105527600D01*
X145960000Y-105567600D02*
X144453000Y-105567600D01*
X145960000Y-105607600D02*
X144484000Y-105607600D01*
X145960000Y-105647600D02*
X144517000Y-105647600D01*
X145960000Y-105687600D02*
X144550000Y-105687600D01*
X145960000Y-105727600D02*
X144585000Y-105727600D01*
X145960000Y-105767600D02*
X144621000Y-105767600D01*
X145960000Y-105807600D02*
X144658000Y-105807600D01*
X145960000Y-105847600D02*
X144696000Y-105847600D01*
X147402000Y-106807600D02*
X146598000Y-106807600D01*
X147633000Y-106767600D02*
X146367000Y-106767600D01*
X147801000Y-106727600D02*
X146199000Y-106727600D01*
X147939000Y-106687600D02*
X146061000Y-106687600D01*
X148058000Y-106647600D02*
X145942000Y-106647600D01*
X148165000Y-106607600D02*
X145835000Y-106607600D01*
X148261000Y-106567600D02*
X145739000Y-106567600D01*
X148350000Y-106527600D02*
X145650000Y-106527600D01*
X148432000Y-106487600D02*
X145568000Y-106487600D01*
X148509000Y-106447600D02*
X145491000Y-106447600D01*
X148581000Y-106407600D02*
X145419000Y-106407600D01*
X148649000Y-106367600D02*
X145351000Y-106367600D01*
X148714000Y-106327600D02*
X145286000Y-106327600D01*
X148775000Y-106287600D02*
X145225000Y-106287600D01*
X148834000Y-106247600D02*
X145166000Y-106247600D01*
X148839000Y-100067359D02*
X148839000Y-100697359D01*
X148890000Y-106207600D02*
X145110000Y-106207600D01*
X148943000Y-106167600D02*
X145057000Y-106167600D01*
X148995000Y-106127600D02*
X145005000Y-106127600D01*
X149044000Y-106087600D02*
X144956000Y-106087600D01*
X149091000Y-106047600D02*
X144909000Y-106047600D01*
X149137000Y-106007600D02*
X144863000Y-106007600D01*
X149154000Y-100382359D02*
X148524000Y-100382359D01*
X149181000Y-105967600D02*
X144819000Y-105967600D01*
X149223000Y-105927600D02*
X144777000Y-105927600D01*
X149264000Y-105887600D02*
X144736000Y-105887600D01*
X149304000Y-105847600D02*
X148040000Y-105847600D01*
X149342000Y-105807600D02*
X148040000Y-105807600D01*
X149379000Y-105767600D02*
X148040000Y-105767600D01*
X149415000Y-105727600D02*
X148040000Y-105727600D01*
X149450000Y-105687600D02*
X148040000Y-105687600D01*
X149483000Y-105647600D02*
X148040000Y-105647600D01*
X149516000Y-105607600D02*
X148040000Y-105607600D01*
X149547000Y-105567600D02*
X148040000Y-105567600D01*
X149577000Y-105527600D02*
X148040000Y-105527600D01*
X149607000Y-105487600D02*
X148040000Y-105487600D01*
X149636000Y-105447600D02*
X148040000Y-105447600D01*
X149663000Y-105407600D02*
X148040000Y-105407600D01*
X149690000Y-105367600D02*
X148040000Y-105367600D01*
X149716000Y-105327600D02*
X148040000Y-105327600D01*
X149741000Y-105287600D02*
X148040000Y-105287600D01*
X149765000Y-105247600D02*
X148040000Y-105247600D01*
X149789000Y-105207600D02*
X148040000Y-105207600D01*
X149812000Y-105167600D02*
X148040000Y-105167600D01*
X149834000Y-105127600D02*
X148040000Y-105127600D01*
X149855000Y-105087600D02*
X148040000Y-105087600D01*
X149876000Y-105047600D02*
X148040000Y-105047600D01*
X149896000Y-105007600D02*
X148040000Y-105007600D01*
X149915000Y-104967600D02*
X148040000Y-104967600D01*
X149934000Y-104927600D02*
X148040000Y-104927600D01*
X149952000Y-104887600D02*
X148040000Y-104887600D01*
X149969000Y-104847600D02*
X148040000Y-104847600D01*
X149986000Y-104807600D02*
X148040000Y-104807600D01*
X150002000Y-104767600D02*
X148040000Y-104767600D01*
X150017000Y-104727600D02*
X148040000Y-104727600D01*
X150032000Y-104687600D02*
X148040000Y-104687600D01*
X150047000Y-104647600D02*
X148040000Y-104647600D01*
X150060000Y-104607600D02*
X148040000Y-104607600D01*
X150073000Y-104567600D02*
X148040000Y-104567600D01*
X150086000Y-104527600D02*
X148040000Y-104527600D01*
X150098000Y-104487600D02*
X148040000Y-104487600D01*
X150109000Y-104447600D02*
X148040000Y-104447600D01*
X150120000Y-104407600D02*
X148040000Y-104407600D01*
X150131000Y-104367600D02*
X148040000Y-104367600D01*
X150140000Y-104327600D02*
X148040000Y-104327600D01*
X150150000Y-104287600D02*
X148040000Y-104287600D01*
X150159000Y-104247600D02*
X148040000Y-104247600D01*
X150167000Y-104207600D02*
X148040000Y-104207600D01*
X150174000Y-104167600D02*
X148040000Y-104167600D01*
X150182000Y-104127600D02*
X148040000Y-104127600D01*
X150188000Y-104087600D02*
X148040000Y-104087600D01*
X150195000Y-104047600D02*
X148040000Y-104047600D01*
X150200000Y-104007600D02*
X148040000Y-104007600D01*
X150205000Y-103967600D02*
X148040000Y-103967600D01*
X150210000Y-103927600D02*
X148040000Y-103927600D01*
X150214000Y-103887600D02*
X148040000Y-103887600D01*
X150218000Y-103847600D02*
X148040000Y-103847600D01*
X150221000Y-103807600D02*
X148040000Y-103807600D01*
X150224000Y-103767600D02*
X143776000Y-103767600D01*
X150226000Y-103727600D02*
X143774000Y-103727600D01*
X150228000Y-103687600D02*
X143772000Y-103687600D01*
X150229000Y-103647600D02*
X143771000Y-103647600D01*
X150230000Y-103567600D02*
X143770000Y-103567600D01*
X150230000Y-103607600D02*
X143770000Y-103607600D01*
X150270000Y-103567600D02*
G75*
G02*
X143730000Y-103567600I-3270000J0D01*
G01*
X143730000Y-103567600D02*
G75*
G02*
X150270000Y-103567600I3270000J0D01*
G01*
X140870000Y-104000000D02*
G75*
G02*
X130130000Y-104000000I-5370000J0D01*
G01*
X130130000Y-104000000D02*
G75*
G02*
X140870000Y-104000000I5370000J0D01*
G01*
X161470000Y-115620000D02*
X161470000Y-126000000D01*
X161470000Y-117800000D02*
X162070000Y-117800000D01*
X161470000Y-120340000D02*
X162070000Y-120340000D01*
X161470000Y-122880000D02*
X162070000Y-122880000D01*
X161470000Y-125420000D02*
X162070000Y-125420000D01*
X161470000Y-126000000D02*
X167490000Y-126000000D01*
X162070000Y-116200000D02*
X161470000Y-116200000D01*
X162070000Y-117800000D02*
X162070000Y-116200000D01*
X162070000Y-118740000D02*
X161470000Y-118740000D01*
X162070000Y-120340000D02*
X162070000Y-118740000D01*
X162070000Y-121280000D02*
X161470000Y-121280000D01*
X162070000Y-122880000D02*
X162070000Y-121280000D01*
X162070000Y-123820000D02*
X161470000Y-123820000D01*
X162070000Y-125420000D02*
X162070000Y-123820000D01*
X162500000Y-126290000D02*
X166500000Y-126290000D01*
X165960000Y-117250000D02*
X166490000Y-117000000D01*
X165960000Y-124370000D02*
X165960000Y-117250000D01*
X166490000Y-117000000D02*
X167490000Y-117000000D01*
X166490000Y-124620000D02*
X165960000Y-124370000D01*
X166490000Y-124620000D02*
X166490000Y-117000000D01*
X167490000Y-115620000D02*
X161470000Y-115620000D01*
X167490000Y-117250000D02*
X166490000Y-117250000D01*
X167490000Y-124370000D02*
X166490000Y-124370000D01*
X167490000Y-124620000D02*
X166490000Y-124620000D01*
X167490000Y-126000000D02*
X167490000Y-115620000D01*
X126500000Y-104445000D02*
X126500000Y-101835000D01*
X127870000Y-105815000D02*
G75*
G02*
X125130000Y-105815000I-1370000J0D01*
G01*
X125130000Y-105815000D02*
G75*
G02*
X127870000Y-105815000I1370000J0D01*
G01*
X140370000Y-86500000D02*
G75*
G02*
X129630000Y-86500000I-5370000J0D01*
G01*
X129630000Y-86500000D02*
G75*
G02*
X140370000Y-86500000I5370000J0D01*
G01*
X147500000Y-120710000D02*
X147500000Y-118100000D01*
X148870000Y-122080000D02*
G75*
G02*
X146130000Y-122080000I-1370000J0D01*
G01*
X146130000Y-122080000D02*
G75*
G02*
X148870000Y-122080000I1370000J0D01*
G01*
X120960000Y-89297600D02*
X118195000Y-89297600D01*
X120960000Y-89337600D02*
X118211000Y-89337600D01*
X120960000Y-89377600D02*
X118227000Y-89377600D01*
X120960000Y-89417600D02*
X118243000Y-89417600D01*
X120960000Y-89457600D02*
X118260000Y-89457600D01*
X120960000Y-89497600D02*
X118278000Y-89497600D01*
X120960000Y-89537600D02*
X118296000Y-89537600D01*
X120960000Y-89577600D02*
X118315000Y-89577600D01*
X120960000Y-89617600D02*
X118334000Y-89617600D01*
X120960000Y-89657600D02*
X118354000Y-89657600D01*
X120960000Y-89697600D02*
X118374000Y-89697600D01*
X120960000Y-89737600D02*
X118395000Y-89737600D01*
X120960000Y-89777600D02*
X118416000Y-89777600D01*
X120960000Y-89817600D02*
X118438000Y-89817600D01*
X120960000Y-89857600D02*
X118461000Y-89857600D01*
X120960000Y-89897600D02*
X118484000Y-89897600D01*
X120960000Y-89937600D02*
X118507000Y-89937600D01*
X120960000Y-89977600D02*
X118532000Y-89977600D01*
X120960000Y-90017600D02*
X118557000Y-90017600D01*
X120960000Y-90057600D02*
X118582000Y-90057600D01*
X120960000Y-90097600D02*
X118608000Y-90097600D01*
X120960000Y-90137600D02*
X118635000Y-90137600D01*
X120960000Y-90177600D02*
X118663000Y-90177600D01*
X120960000Y-90217600D02*
X118691000Y-90217600D01*
X120960000Y-90257600D02*
X118720000Y-90257600D01*
X120960000Y-90297600D02*
X118750000Y-90297600D01*
X120960000Y-90337600D02*
X118781000Y-90337600D01*
X120960000Y-90377600D02*
X118812000Y-90377600D01*
X120960000Y-90417600D02*
X118844000Y-90417600D01*
X120960000Y-90457600D02*
X118877000Y-90457600D01*
X120960000Y-90497600D02*
X118911000Y-90497600D01*
X120960000Y-90537600D02*
X118945000Y-90537600D01*
X120960000Y-90577600D02*
X118981000Y-90577600D01*
X120960000Y-90617600D02*
X119018000Y-90617600D01*
X120960000Y-90657600D02*
X119055000Y-90657600D01*
X120960000Y-90697600D02*
X119094000Y-90697600D01*
X120960000Y-90737600D02*
X119133000Y-90737600D01*
X120960000Y-90777600D02*
X119174000Y-90777600D01*
X120960000Y-90817600D02*
X119216000Y-90817600D01*
X120960000Y-90857600D02*
X119259000Y-90857600D01*
X120960000Y-90897600D02*
X119304000Y-90897600D01*
X120960000Y-90937600D02*
X119349000Y-90937600D01*
X120960000Y-90977600D02*
X119396000Y-90977600D01*
X120960000Y-91017600D02*
X119445000Y-91017600D01*
X120960000Y-91057600D02*
X119495000Y-91057600D01*
X120960000Y-91097600D02*
X119547000Y-91097600D01*
X120960000Y-91137600D02*
X119600000Y-91137600D01*
X120960000Y-91177600D02*
X119656000Y-91177600D01*
X120960000Y-91217600D02*
X119713000Y-91217600D01*
X120960000Y-91257600D02*
X119773000Y-91257600D01*
X120960000Y-91297600D02*
X119835000Y-91297600D01*
X120960000Y-91337600D02*
X119899000Y-91337600D01*
X122533000Y-91897600D02*
X121467000Y-91897600D01*
X122768000Y-91857600D02*
X121232000Y-91857600D01*
X122947000Y-91817600D02*
X121053000Y-91817600D01*
X123097000Y-91777600D02*
X120903000Y-91777600D01*
X123228000Y-91737600D02*
X120772000Y-91737600D01*
X123346000Y-91697600D02*
X120654000Y-91697600D01*
X123453000Y-91657600D02*
X120547000Y-91657600D01*
X123552000Y-91617600D02*
X120448000Y-91617600D01*
X123644000Y-91577600D02*
X120356000Y-91577600D01*
X123731000Y-91537600D02*
X120269000Y-91537600D01*
X123813000Y-91497600D02*
X120187000Y-91497600D01*
X123890000Y-91457600D02*
X120110000Y-91457600D01*
X123964000Y-91417600D02*
X120036000Y-91417600D01*
X124034000Y-91377600D02*
X119966000Y-91377600D01*
X124101000Y-91337600D02*
X123040000Y-91337600D01*
X124165000Y-91297600D02*
X123040000Y-91297600D01*
X124227000Y-91257600D02*
X123040000Y-91257600D01*
X124287000Y-91217600D02*
X123040000Y-91217600D01*
X124315000Y-83407902D02*
X124315000Y-84207902D01*
X124344000Y-91177600D02*
X123040000Y-91177600D01*
X124400000Y-91137600D02*
X123040000Y-91137600D01*
X124453000Y-91097600D02*
X123040000Y-91097600D01*
X124505000Y-91057600D02*
X123040000Y-91057600D01*
X124555000Y-91017600D02*
X123040000Y-91017600D01*
X124604000Y-90977600D02*
X123040000Y-90977600D01*
X124651000Y-90937600D02*
X123040000Y-90937600D01*
X124696000Y-90897600D02*
X123040000Y-90897600D01*
X124715000Y-83807902D02*
X123915000Y-83807902D01*
X124741000Y-90857600D02*
X123040000Y-90857600D01*
X124784000Y-90817600D02*
X123040000Y-90817600D01*
X124826000Y-90777600D02*
X123040000Y-90777600D01*
X124867000Y-90737600D02*
X123040000Y-90737600D01*
X124906000Y-90697600D02*
X123040000Y-90697600D01*
X124945000Y-90657600D02*
X123040000Y-90657600D01*
X124982000Y-90617600D02*
X123040000Y-90617600D01*
X125019000Y-90577600D02*
X123040000Y-90577600D01*
X125055000Y-90537600D02*
X123040000Y-90537600D01*
X125089000Y-90497600D02*
X123040000Y-90497600D01*
X125123000Y-90457600D02*
X123040000Y-90457600D01*
X125156000Y-90417600D02*
X123040000Y-90417600D01*
X125188000Y-90377600D02*
X123040000Y-90377600D01*
X125219000Y-90337600D02*
X123040000Y-90337600D01*
X125250000Y-90297600D02*
X123040000Y-90297600D01*
X125280000Y-90257600D02*
X123040000Y-90257600D01*
X125309000Y-90217600D02*
X123040000Y-90217600D01*
X125337000Y-90177600D02*
X123040000Y-90177600D01*
X125365000Y-90137600D02*
X123040000Y-90137600D01*
X125392000Y-90097600D02*
X123040000Y-90097600D01*
X125418000Y-90057600D02*
X123040000Y-90057600D01*
X125443000Y-90017600D02*
X123040000Y-90017600D01*
X125468000Y-89977600D02*
X123040000Y-89977600D01*
X125493000Y-89937600D02*
X123040000Y-89937600D01*
X125516000Y-89897600D02*
X123040000Y-89897600D01*
X125539000Y-89857600D02*
X123040000Y-89857600D01*
X125562000Y-89817600D02*
X123040000Y-89817600D01*
X125584000Y-89777600D02*
X123040000Y-89777600D01*
X125605000Y-89737600D02*
X123040000Y-89737600D01*
X125626000Y-89697600D02*
X123040000Y-89697600D01*
X125646000Y-89657600D02*
X123040000Y-89657600D01*
X125666000Y-89617600D02*
X123040000Y-89617600D01*
X125685000Y-89577600D02*
X123040000Y-89577600D01*
X125704000Y-89537600D02*
X123040000Y-89537600D01*
X125722000Y-89497600D02*
X123040000Y-89497600D01*
X125740000Y-89457600D02*
X123040000Y-89457600D01*
X125757000Y-89417600D02*
X123040000Y-89417600D01*
X125773000Y-89377600D02*
X123040000Y-89377600D01*
X125789000Y-89337600D02*
X123040000Y-89337600D01*
X125805000Y-89297600D02*
X123040000Y-89297600D01*
X125820000Y-89257600D02*
X118180000Y-89257600D01*
X125835000Y-89217600D02*
X118165000Y-89217600D01*
X125849000Y-89177600D02*
X118151000Y-89177600D01*
X125863000Y-89137600D02*
X118137000Y-89137600D01*
X125876000Y-89097600D02*
X118124000Y-89097600D01*
X125889000Y-89057600D02*
X118111000Y-89057600D01*
X125901000Y-89017600D02*
X118099000Y-89017600D01*
X125913000Y-88977600D02*
X118087000Y-88977600D01*
X125925000Y-88937600D02*
X118075000Y-88937600D01*
X125936000Y-88897600D02*
X118064000Y-88897600D01*
X125947000Y-88857600D02*
X118053000Y-88857600D01*
X125957000Y-88817600D02*
X118043000Y-88817600D01*
X125967000Y-88777600D02*
X118033000Y-88777600D01*
X125976000Y-88737600D02*
X118024000Y-88737600D01*
X125985000Y-88697600D02*
X118015000Y-88697600D01*
X125993000Y-88657600D02*
X118007000Y-88657600D01*
X126002000Y-88617600D02*
X117998000Y-88617600D01*
X126009000Y-88577600D02*
X117991000Y-88577600D01*
X126017000Y-88537600D02*
X117983000Y-88537600D01*
X126023000Y-88497600D02*
X117977000Y-88497600D01*
X126030000Y-88457600D02*
X117970000Y-88457600D01*
X126036000Y-88417600D02*
X117964000Y-88417600D01*
X126042000Y-88377600D02*
X117958000Y-88377600D01*
X126047000Y-88337600D02*
X117953000Y-88337600D01*
X126052000Y-88297600D02*
X117948000Y-88297600D01*
X126056000Y-88257600D02*
X117944000Y-88257600D01*
X126061000Y-88217600D02*
X117939000Y-88217600D01*
X126064000Y-88177600D02*
X117936000Y-88177600D01*
X126068000Y-88137600D02*
X117932000Y-88137600D01*
X126070000Y-88097600D02*
X117930000Y-88097600D01*
X126073000Y-88057600D02*
X117927000Y-88057600D01*
X126075000Y-88017600D02*
X117925000Y-88017600D01*
X126077000Y-87977600D02*
X117923000Y-87977600D01*
X126078000Y-87937600D02*
X117922000Y-87937600D01*
X126079000Y-87897600D02*
X117921000Y-87897600D01*
X126080000Y-87817600D02*
X117920000Y-87817600D01*
X126080000Y-87857600D02*
X117920000Y-87857600D01*
X126120000Y-87817600D02*
G75*
G02*
X117880000Y-87817600I-4120000J0D01*
G01*
X117880000Y-87817600D02*
G75*
G02*
X126120000Y-87817600I4120000J0D01*
G01*
X153430000Y-84230000D02*
X153430000Y-88770000D01*
X153486000Y-84230000D02*
X153430000Y-84230000D01*
X153486000Y-88770000D02*
X153430000Y-88770000D01*
X155570000Y-84230000D02*
X155570000Y-88770000D01*
X161490000Y-107080000D02*
X161490000Y-112380000D01*
X161490000Y-109260000D02*
X162090000Y-109260000D01*
X161490000Y-111800000D02*
X162090000Y-111800000D01*
X161490000Y-112380000D02*
X167510000Y-112380000D01*
X162090000Y-107660000D02*
X161490000Y-107660000D01*
X162090000Y-109260000D02*
X162090000Y-107660000D01*
X162090000Y-110200000D02*
X161490000Y-110200000D01*
X162090000Y-111800000D02*
X162090000Y-110200000D01*
X162520000Y-112670000D02*
X166520000Y-112670000D01*
X165980000Y-108710000D02*
X166510000Y-108460000D01*
X165980000Y-110750000D02*
X165980000Y-108710000D01*
X166510000Y-108460000D02*
X167510000Y-108460000D01*
X166510000Y-111000000D02*
X165980000Y-110750000D01*
X166510000Y-111000000D02*
X166510000Y-108460000D01*
X167510000Y-107080000D02*
X161490000Y-107080000D01*
X167510000Y-108710000D02*
X166510000Y-108710000D01*
X167510000Y-110750000D02*
X166510000Y-110750000D01*
X167510000Y-111000000D02*
X166510000Y-111000000D01*
X167510000Y-112380000D02*
X167510000Y-107080000D01*
X127860000Y-117345000D02*
X127860000Y-118995000D01*
X127860000Y-120995000D02*
X127860000Y-122645000D01*
X127860000Y-122645000D02*
X138140000Y-122645000D01*
X138140000Y-117345000D02*
X127860000Y-117345000D01*
X138140000Y-122645000D02*
X138140000Y-117345000D01*
X127860000Y-118995000D02*
G75*
G02*
X127860000Y-120995000I0J-1000000D01*
G01*
X112930000Y-93730000D02*
X112930000Y-98270000D01*
X112986000Y-93730000D02*
X112930000Y-93730000D01*
X112986000Y-98270000D02*
X112930000Y-98270000D01*
X115070000Y-93730000D02*
X115070000Y-98270000D01*
X161470000Y-90620000D02*
X161470000Y-95920000D01*
X161470000Y-92800000D02*
X162070000Y-92800000D01*
X161470000Y-95340000D02*
X162070000Y-95340000D01*
X161470000Y-95920000D02*
X167490000Y-95920000D01*
X162070000Y-91200000D02*
X161470000Y-91200000D01*
X162070000Y-92800000D02*
X162070000Y-91200000D01*
X162070000Y-93740000D02*
X161470000Y-93740000D01*
X162070000Y-95340000D02*
X162070000Y-93740000D01*
X162500000Y-96210000D02*
X166500000Y-96210000D01*
X165960000Y-92250000D02*
X166490000Y-92000000D01*
X165960000Y-94290000D02*
X165960000Y-92250000D01*
X166490000Y-92000000D02*
X167490000Y-92000000D01*
X166490000Y-94540000D02*
X165960000Y-94290000D01*
X166490000Y-94540000D02*
X166490000Y-92000000D01*
X167490000Y-90620000D02*
X161470000Y-90620000D01*
X167490000Y-92250000D02*
X166490000Y-92250000D01*
X167490000Y-94290000D02*
X166490000Y-94290000D01*
X167490000Y-94540000D02*
X166490000Y-94540000D01*
X167490000Y-95920000D02*
X167490000Y-90620000D01*
X153930000Y-101730000D02*
X153930000Y-106270000D01*
X153986000Y-101730000D02*
X153930000Y-101730000D01*
X153986000Y-106270000D02*
X153930000Y-106270000D01*
X156070000Y-101730000D02*
X156070000Y-106270000D01*
X142500000Y-118870000D02*
X142500000Y-121480000D01*
X143870000Y-117500000D02*
G75*
G02*
X141130000Y-117500000I-1370000J0D01*
G01*
X141130000Y-117500000D02*
G75*
G02*
X143870000Y-117500000I1370000J0D01*
G01*
M02*
