M48
; DRILL file KiCad 10.0.6 date 2026-10-08T06:54:13
; FORMAT={-:-/ absolute / metric / decimal}
; #@! TF.CreationDate,2026-10-08T06:54:13+09:00
; #@! TF.GenerationSoftware,Kicad,Pcbnew,10.0.6
; #@! TF.FileFunction,Plated,1,2,PTH
FMAT,2
METRIC
; #@! TA.AperFunction,Plated,PTH,ComponentDrill
T1C0.800
; #@! TA.AperFunction,Plated,PTH,ComponentDrill
T2C1.190
; #@! TA.AperFunction,Plated,PTH,ComponentDrill
T3C1.300
; #@! TA.AperFunction,Plated,PTH,ComponentDrill
T4C2.500
%
G90
G05
T1
X114.0Y-93.5
X114.0Y-98.5
X121.0Y-99.69
X121.0Y-107.31
X122.0Y-85.318
X122.0Y-90.318
X126.5Y-100.735
X126.5Y-105.815
X129.19Y-116.185
X129.19Y-123.805
X131.73Y-116.185
X131.73Y-123.805
X134.27Y-116.185
X134.27Y-123.805
X136.81Y-116.185
X136.81Y-123.805
X142.5Y-117.5
X142.5Y-122.58
X147.0Y-102.318
X147.0Y-104.818
X147.5Y-85.0
X147.5Y-90.0
X147.5Y-117.0
X147.5Y-122.08
X154.5Y-84.0
X154.5Y-89.0
X155.0Y-101.5
X155.0Y-106.5
T2
X113.98Y-114.225
X113.98Y-116.765
X164.5Y-92.0
X164.5Y-94.54
X164.5Y-117.0
X164.5Y-119.54
X164.5Y-122.08
X164.5Y-124.62
X164.52Y-108.46
X164.52Y-111.0
T3
X132.5Y-86.5
X133.0Y-104.0
X137.5Y-86.5
X138.0Y-104.0
T4
X114.0Y-87.0
X114.0Y-104.0
M30
