G04 #@! TF.GenerationSoftware,KiCad,Pcbnew,10.0.6*
G04 #@! TF.CreationDate,2026-10-08T06:54:11+09:00*
G04 #@! TF.ProjectId,audio-ptt-control,61756469-6f2d-4707-9474-2d636f6e7472,rev?*
G04 #@! TF.SameCoordinates,Original*
G04 #@! TF.FileFunction,Copper,L1,Top*
G04 #@! TF.FilePolarity,Positive*
%FSLAX46Y46*%
G04 Gerber Fmt 4.6, Leading zero omitted, Abs format (unit mm)*
G04 Created by KiCad (PCBNEW 10.0.6) date 2026-10-08 06:54:11*
%MOMM*%
%LPD*%
G01*
G04 APERTURE LIST*
G04 Aperture macros list*
%AMRoundRect*
0 Rectangle with rounded corners*
0 $1 Rounding radius*
0 $2 $3 $4 $5 $6 $7 $8 $9 X,Y pos of 4 corners*
0 Add a 4 corners polygon primitive as box body*
4,1,4,$2,$3,$4,$5,$6,$7,$8,$9,$2,$3,0*
0 Add four circle primitives for the rounded corners*
1,1,$1+$1,$2,$3*
1,1,$1+$1,$4,$5*
1,1,$1+$1,$6,$7*
1,1,$1+$1,$8,$9*
0 Add four rect primitives between the rounded corners*
20,1,$1+$1,$2,$3,$4,$5,0*
20,1,$1+$1,$4,$5,$6,$7,0*
20,1,$1+$1,$6,$7,$8,$9,0*
20,1,$1+$1,$8,$9,$2,$3,0*%
G04 Aperture macros list end*
G04 #@! TA.AperFunction,ComponentPad*
%ADD10RoundRect,0.250000X-0.550000X0.550000X-0.550000X-0.550000X0.550000X-0.550000X0.550000X0.550000X0*%
G04 #@! TD*
G04 #@! TA.AperFunction,ComponentPad*
%ADD11C,1.600000*%
G04 #@! TD*
G04 #@! TA.AperFunction,ComponentPad*
%ADD12RoundRect,0.250000X-0.845000X0.620000X-0.845000X-0.620000X0.845000X-0.620000X0.845000X0.620000X0*%
G04 #@! TD*
G04 #@! TA.AperFunction,ComponentPad*
%ADD13O,2.190000X1.740000*%
G04 #@! TD*
G04 #@! TA.AperFunction,ComponentPad*
%ADD14R,1.600000X1.600000*%
G04 #@! TD*
G04 #@! TA.AperFunction,ComponentPad*
%ADD15O,1.600000X1.600000*%
G04 #@! TD*
G04 #@! TA.AperFunction,ComponentPad*
%ADD16C,2.600000*%
G04 #@! TD*
G04 #@! TA.AperFunction,ComponentPad*
%ADD17RoundRect,0.250000X0.845000X-0.620000X0.845000X0.620000X-0.845000X0.620000X-0.845000X-0.620000X0*%
G04 #@! TD*
G04 #@! TA.AperFunction,ComponentPad*
%ADD18C,5.000000*%
G04 #@! TD*
G04 #@! TA.AperFunction,ComponentPad*
%ADD19RoundRect,0.250000X0.550000X-0.550000X0.550000X0.550000X-0.550000X0.550000X-0.550000X-0.550000X0*%
G04 #@! TD*
G04 #@! TA.AperFunction,Conductor*
%ADD20C,1.000000*%
G04 #@! TD*
G04 #@! TA.AperFunction,Conductor*
%ADD21C,0.250000*%
G04 #@! TD*
G04 APERTURE END LIST*
D10*
X147500000Y-85000000D03*
D11*
X147500000Y-90000000D03*
D12*
X113980000Y-114225000D03*
D13*
X113980000Y-116765000D03*
D14*
X121000000Y-107310000D03*
D15*
X121000000Y-99690000D03*
D14*
X147000000Y-102317600D03*
D11*
X147000000Y-104817600D03*
D16*
X133000000Y-104000000D03*
X138000000Y-104000000D03*
D17*
X164500000Y-124620000D03*
D13*
X164500000Y-122080000D03*
X164500000Y-119540000D03*
X164500000Y-117000000D03*
D11*
X126500000Y-105815000D03*
D15*
X126500000Y-100735000D03*
D16*
X132500000Y-86500000D03*
X137500000Y-86500000D03*
D11*
X147500000Y-122080000D03*
D15*
X147500000Y-117000000D03*
D18*
X114000000Y-87000000D03*
D10*
X122000000Y-85317600D03*
D11*
X122000000Y-90317600D03*
X154500000Y-84000000D03*
X154500000Y-89000000D03*
D17*
X164520000Y-111000000D03*
D13*
X164520000Y-108460000D03*
D19*
X129190000Y-123805000D03*
D11*
X131730000Y-123805000D03*
X134270000Y-123805000D03*
X136810000Y-123805000D03*
X136810000Y-116185000D03*
X134270000Y-116185000D03*
X131730000Y-116185000D03*
X129190000Y-116185000D03*
X114000000Y-93500000D03*
X114000000Y-98500000D03*
D17*
X164500000Y-94540000D03*
D13*
X164500000Y-92000000D03*
D18*
X114000000Y-104000000D03*
D11*
X155000000Y-101500000D03*
X155000000Y-106500000D03*
X142500000Y-117500000D03*
D15*
X142500000Y-122580000D03*
D20*
X148500000Y-84000000D02*
X147500000Y-85000000D01*
X137500000Y-86500000D02*
X146000000Y-86500000D01*
X129735000Y-100735000D02*
X133000000Y-104000000D01*
X146000000Y-86500000D02*
X147500000Y-85000000D01*
X126500000Y-100735000D02*
X129735000Y-100735000D01*
X154500000Y-84000000D02*
X148500000Y-84000000D01*
X122000000Y-90317600D02*
X147182400Y-90317600D01*
X160455300Y-106500000D02*
X155000000Y-106500000D01*
X162415300Y-108460000D02*
X160455300Y-106500000D01*
X131730000Y-124206000D02*
X131730000Y-123805000D01*
X120952800Y-125617500D02*
X130318500Y-125617500D01*
X164520000Y-108460000D02*
X162415300Y-108460000D01*
X162395300Y-92000000D02*
X159395300Y-89000000D01*
X147182400Y-90317600D02*
X147500000Y-90000000D01*
X155000000Y-106500000D02*
X148682400Y-106500000D01*
X148500000Y-89000000D02*
X147500000Y-90000000D01*
X154500000Y-89000000D02*
X148500000Y-89000000D01*
X130318500Y-125617500D02*
X131730000Y-124206000D01*
X164500000Y-92000000D02*
X162395300Y-92000000D01*
X159395300Y-89000000D02*
X154500000Y-89000000D01*
X148682400Y-106500000D02*
X147000000Y-104817600D01*
X113980000Y-118644700D02*
X120952800Y-125617500D01*
X113980000Y-116765000D02*
X113980000Y-118644700D01*
D21*
X113980000Y-114225000D02*
X124176900Y-114225000D01*
X132833900Y-117621100D02*
X134270000Y-116185000D01*
X124176900Y-114225000D02*
X127573000Y-117621100D01*
X127573000Y-117621100D02*
X132833900Y-117621100D01*
D20*
X147000000Y-102317600D02*
X148809700Y-102317600D01*
X155000000Y-101500000D02*
X149627300Y-101500000D01*
X149627300Y-101500000D02*
X148809700Y-102317600D01*
D21*
X147953200Y-122533200D02*
X162317100Y-122533200D01*
X144298200Y-125281800D02*
X147500000Y-122080000D01*
X135746800Y-125281800D02*
X144298200Y-125281800D01*
X134270000Y-123805000D02*
X135746800Y-125281800D01*
X164500000Y-122080000D02*
X162770300Y-122080000D01*
X147500000Y-122080000D02*
X147953200Y-122533200D01*
X162317100Y-122533200D02*
X162770300Y-122080000D01*
X144504700Y-115495300D02*
X164500000Y-115495300D01*
X164500000Y-117000000D02*
X164500000Y-115495300D01*
X142500000Y-117500000D02*
X144504700Y-115495300D01*
D20*
X120317600Y-87000000D02*
X122000000Y-85317600D01*
X123182400Y-86500000D02*
X122000000Y-85317600D01*
X132500000Y-86500000D02*
X123182400Y-86500000D01*
X114000000Y-87000000D02*
X120317600Y-87000000D01*
X131730000Y-114557600D02*
X151747600Y-94540000D01*
X151747600Y-94540000D02*
X164500000Y-94540000D01*
X131730000Y-116185000D02*
X131730000Y-114557600D01*
G04 #@! TA.AperFunction,Conductor*
G36*
X167377098Y-79498912D02*
G01*
X167443960Y-79519189D01*
X167489246Y-79572396D01*
X167500000Y-79622907D01*
X167500000Y-126877092D01*
X167480315Y-126944131D01*
X167427511Y-126989886D01*
X167377097Y-127001087D01*
X111125097Y-127498892D01*
X111057886Y-127479802D01*
X111011666Y-127427405D01*
X111000000Y-127374897D01*
X111000000Y-123204447D01*
X127881500Y-123204447D01*
X127881500Y-124405537D01*
X127881501Y-124405553D01*
X127892113Y-124509427D01*
X127937191Y-124645466D01*
X127947885Y-124677738D01*
X128040970Y-124828652D01*
X128166348Y-124954030D01*
X128317262Y-125047115D01*
X128485574Y-125102887D01*
X128589455Y-125113500D01*
X129790544Y-125113499D01*
X129894426Y-125102887D01*
X130062738Y-125047115D01*
X130213652Y-124954030D01*
X130339030Y-124828652D01*
X130432115Y-124677738D01*
X130460507Y-124592054D01*
X130464066Y-124584715D01*
X130482278Y-124564652D01*
X130497706Y-124542369D01*
X130505417Y-124539162D01*
X130511028Y-124532982D01*
X130537195Y-124525950D01*
X130562222Y-124515545D01*
X130570441Y-124517016D01*
X130578504Y-124514850D01*
X130604321Y-124523082D01*
X130630998Y-124527859D01*
X130632985Y-124529541D01*
X130650524Y-124530922D01*
X131330000Y-123851446D01*
X131330000Y-123857661D01*
X131357259Y-123959394D01*
X131409920Y-124050606D01*
X131484394Y-124125080D01*
X131575606Y-124177741D01*
X131677339Y-124205000D01*
X131683553Y-124205000D01*
X131004076Y-124884474D01*
X131048650Y-124916859D01*
X131230968Y-125009755D01*
X131425582Y-125072990D01*
X131627683Y-125105000D01*
X131832317Y-125105000D01*
X132034417Y-125072990D01*
X132229031Y-125009755D01*
X132411349Y-124916859D01*
X132455921Y-124884474D01*
X131776447Y-124205000D01*
X131782661Y-124205000D01*
X131884394Y-124177741D01*
X131975606Y-124125080D01*
X132050080Y-124050606D01*
X132102741Y-123959394D01*
X132130000Y-123857661D01*
X132130000Y-123851447D01*
X132809474Y-124530921D01*
X132841861Y-124486347D01*
X132841861Y-124486346D01*
X132884745Y-124402181D01*
X132932718Y-124351385D01*
X133000539Y-124334589D01*
X133066674Y-124357126D01*
X133105715Y-124402180D01*
X133139255Y-124468006D01*
X133150873Y-124490806D01*
X133271926Y-124657423D01*
X133271930Y-124657428D01*
X133417571Y-124803069D01*
X133417576Y-124803073D01*
X133529616Y-124884474D01*
X133584197Y-124924129D01*
X133701128Y-124983709D01*
X133767705Y-125017632D01*
X133767707Y-125017632D01*
X133767710Y-125017634D01*
X133858437Y-125047113D01*
X133963591Y-125081280D01*
X134065305Y-125097390D01*
X134167019Y-125113500D01*
X134167020Y-125113500D01*
X134372980Y-125113500D01*
X134372981Y-125113500D01*
X134576408Y-125081280D01*
X134576410Y-125081279D01*
X134577858Y-125081050D01*
X134647151Y-125090004D01*
X134684937Y-125115842D01*
X135342963Y-125773869D01*
X135342967Y-125773872D01*
X135446721Y-125843199D01*
X135446723Y-125843199D01*
X135446725Y-125843201D01*
X135528247Y-125876968D01*
X135562015Y-125890955D01*
X135562017Y-125890955D01*
X135562022Y-125890957D01*
X135684401Y-125915299D01*
X135684405Y-125915300D01*
X135684406Y-125915300D01*
X144360595Y-125915300D01*
X144360596Y-125915299D01*
X144482985Y-125890955D01*
X144598275Y-125843200D01*
X144702033Y-125773871D01*
X147085062Y-123390840D01*
X147146383Y-123357357D01*
X147192139Y-123356050D01*
X147286390Y-123370977D01*
X147397019Y-123388500D01*
X147397020Y-123388500D01*
X147602980Y-123388500D01*
X147602981Y-123388500D01*
X147806408Y-123356280D01*
X148002290Y-123292634D01*
X148185803Y-123199129D01*
X148197842Y-123190381D01*
X148263648Y-123166902D01*
X148270728Y-123166700D01*
X162379495Y-123166700D01*
X162379496Y-123166699D01*
X162501885Y-123142355D01*
X162617175Y-123094600D01*
X162720933Y-123025271D01*
X162929256Y-122816948D01*
X162990578Y-122783464D01*
X163060269Y-122788448D01*
X163116203Y-122830319D01*
X163117242Y-122831727D01*
X163223539Y-122978033D01*
X163223541Y-122978035D01*
X163358139Y-123112633D01*
X163391624Y-123173956D01*
X163386640Y-123243648D01*
X163344768Y-123299581D01*
X163335556Y-123305852D01*
X163181348Y-123400969D01*
X163055971Y-123526346D01*
X162962886Y-123677259D01*
X162962884Y-123677264D01*
X162907113Y-123845572D01*
X162896500Y-123949447D01*
X162896500Y-125290537D01*
X162896501Y-125290553D01*
X162907113Y-125394426D01*
X162962885Y-125562738D01*
X163055970Y-125713652D01*
X163181348Y-125839030D01*
X163332262Y-125932115D01*
X163500574Y-125987887D01*
X163604455Y-125998500D01*
X165395544Y-125998499D01*
X165499426Y-125987887D01*
X165667738Y-125932115D01*
X165818652Y-125839030D01*
X165944030Y-125713652D01*
X166037115Y-125562738D01*
X166092887Y-125394426D01*
X166103500Y-125290545D01*
X166103499Y-123949456D01*
X166092887Y-123845574D01*
X166037115Y-123677262D01*
X165944030Y-123526348D01*
X165818652Y-123400970D01*
X165818648Y-123400967D01*
X165664444Y-123305852D01*
X165617719Y-123253904D01*
X165606498Y-123184942D01*
X165634341Y-123120860D01*
X165641838Y-123112655D01*
X165776461Y-122978033D01*
X165903999Y-122802492D01*
X166002506Y-122609160D01*
X166069557Y-122402800D01*
X166084642Y-122307551D01*
X166103500Y-122188495D01*
X166103500Y-121971504D01*
X166075559Y-121795096D01*
X166069557Y-121757200D01*
X166002506Y-121550840D01*
X165903999Y-121357508D01*
X165776461Y-121181967D01*
X165623033Y-121028539D01*
X165453083Y-120905063D01*
X165410419Y-120849734D01*
X165404440Y-120780121D01*
X165437046Y-120718326D01*
X165453085Y-120704428D01*
X165617491Y-120584979D01*
X165617497Y-120584974D01*
X165769974Y-120432497D01*
X165769974Y-120432496D01*
X165896728Y-120258036D01*
X165994627Y-120065901D01*
X166061266Y-119860809D01*
X166072481Y-119790000D01*
X165042709Y-119790000D01*
X165054452Y-119769661D01*
X165095000Y-119618333D01*
X165095000Y-119461667D01*
X165054452Y-119310339D01*
X165042709Y-119290000D01*
X166072481Y-119290000D01*
X166061266Y-119219190D01*
X165994627Y-119014098D01*
X165896728Y-118821963D01*
X165769974Y-118647503D01*
X165769974Y-118647502D01*
X165617497Y-118495025D01*
X165453084Y-118375571D01*
X165410419Y-118320241D01*
X165404440Y-118250627D01*
X165437046Y-118188832D01*
X165453081Y-118174937D01*
X165623033Y-118051461D01*
X165776461Y-117898033D01*
X165903999Y-117722492D01*
X166002506Y-117529160D01*
X166069557Y-117322800D01*
X166084642Y-117227551D01*
X166103500Y-117108495D01*
X166103500Y-116891504D01*
X166072153Y-116693591D01*
X166069557Y-116677200D01*
X166002506Y-116470840D01*
X165903999Y-116277508D01*
X165776461Y-116101967D01*
X165623033Y-115948539D01*
X165447492Y-115821001D01*
X165376836Y-115785000D01*
X165254163Y-115722495D01*
X165219178Y-115711127D01*
X165161504Y-115671688D01*
X165134308Y-115607328D01*
X165133500Y-115593197D01*
X165133500Y-115432905D01*
X165133499Y-115432901D01*
X165122881Y-115379523D01*
X165109155Y-115310515D01*
X165061400Y-115195225D01*
X165061399Y-115195224D01*
X165061396Y-115195218D01*
X164992071Y-115091467D01*
X164992068Y-115091463D01*
X164903836Y-115003231D01*
X164903832Y-115003228D01*
X164800081Y-114933903D01*
X164800072Y-114933898D01*
X164684785Y-114886145D01*
X164684777Y-114886143D01*
X164562398Y-114861800D01*
X164562394Y-114861800D01*
X144567094Y-114861800D01*
X144442306Y-114861800D01*
X144442301Y-114861800D01*
X144319922Y-114886143D01*
X144319914Y-114886145D01*
X144204627Y-114933898D01*
X144204618Y-114933903D01*
X144100867Y-115003228D01*
X144100863Y-115003231D01*
X142914937Y-116189157D01*
X142853614Y-116222642D01*
X142807858Y-116223949D01*
X142642641Y-116197781D01*
X142602981Y-116191500D01*
X142397019Y-116191500D01*
X142372550Y-116195375D01*
X142193591Y-116223719D01*
X141997705Y-116287367D01*
X141814193Y-116380873D01*
X141647576Y-116501926D01*
X141647571Y-116501930D01*
X141501930Y-116647571D01*
X141501926Y-116647576D01*
X141380873Y-116814193D01*
X141287367Y-116997705D01*
X141223719Y-117193591D01*
X141191500Y-117397019D01*
X141191500Y-117602980D01*
X141223719Y-117806408D01*
X141287367Y-118002294D01*
X141343861Y-118113168D01*
X141379190Y-118182504D01*
X141380873Y-118185806D01*
X141501926Y-118352423D01*
X141501930Y-118352428D01*
X141647571Y-118498069D01*
X141647576Y-118498073D01*
X141792908Y-118603661D01*
X141814197Y-118619129D01*
X141931128Y-118678709D01*
X141997705Y-118712632D01*
X141997707Y-118712632D01*
X141997710Y-118712634D01*
X142102707Y-118746749D01*
X142193591Y-118776280D01*
X142295305Y-118792390D01*
X142397019Y-118808500D01*
X142397020Y-118808500D01*
X142602980Y-118808500D01*
X142602981Y-118808500D01*
X142806408Y-118776280D01*
X143002290Y-118712634D01*
X143185803Y-118619129D01*
X143352430Y-118498068D01*
X143498068Y-118352430D01*
X143619129Y-118185803D01*
X143712634Y-118002290D01*
X143776280Y-117806408D01*
X143808500Y-117602981D01*
X143808500Y-117397019D01*
X143796744Y-117322796D01*
X143776050Y-117192139D01*
X143785005Y-117122845D01*
X143810839Y-117085063D01*
X144730785Y-116165119D01*
X144792108Y-116131634D01*
X144818466Y-116128800D01*
X146273064Y-116128800D01*
X146340103Y-116148485D01*
X146385858Y-116201289D01*
X146395802Y-116270447D01*
X146381821Y-116309213D01*
X146383083Y-116309856D01*
X146287367Y-116497705D01*
X146223719Y-116693591D01*
X146191500Y-116897019D01*
X146191500Y-117102980D01*
X146223719Y-117306408D01*
X146287367Y-117502294D01*
X146338670Y-117602980D01*
X146366448Y-117657497D01*
X146380873Y-117685806D01*
X146501926Y-117852423D01*
X146501930Y-117852428D01*
X146647571Y-117998069D01*
X146647576Y-117998073D01*
X146721062Y-118051463D01*
X146814197Y-118119129D01*
X146923722Y-118174935D01*
X146997705Y-118212632D01*
X146997707Y-118212632D01*
X146997710Y-118212634D01*
X147051936Y-118230253D01*
X147193591Y-118276280D01*
X147295305Y-118292390D01*
X147397019Y-118308500D01*
X147397020Y-118308500D01*
X147602980Y-118308500D01*
X147602981Y-118308500D01*
X147806408Y-118276280D01*
X148002290Y-118212634D01*
X148185803Y-118119129D01*
X148352430Y-117998068D01*
X148498068Y-117852430D01*
X148619129Y-117685803D01*
X148712634Y-117502290D01*
X148776280Y-117306408D01*
X148808500Y-117102981D01*
X148808500Y-116897019D01*
X148776280Y-116693592D01*
X148774232Y-116687290D01*
X148728726Y-116547236D01*
X148712634Y-116497710D01*
X148712632Y-116497707D01*
X148712632Y-116497705D01*
X148616917Y-116309856D01*
X148618842Y-116308875D01*
X148602965Y-116250104D01*
X148624103Y-116183508D01*
X148677889Y-116138912D01*
X148726936Y-116128800D01*
X162969422Y-116128800D01*
X163036461Y-116148485D01*
X163082216Y-116201289D01*
X163092160Y-116270447D01*
X163079907Y-116309095D01*
X162997495Y-116470837D01*
X162930442Y-116677203D01*
X162896500Y-116891504D01*
X162896500Y-117108495D01*
X162930442Y-117322796D01*
X162930443Y-117322800D01*
X162997494Y-117529160D01*
X163096001Y-117722492D01*
X163223539Y-117898033D01*
X163376967Y-118051461D01*
X163376970Y-118051463D01*
X163546914Y-118174935D01*
X163589580Y-118230265D01*
X163595559Y-118299878D01*
X163562953Y-118361673D01*
X163546915Y-118375571D01*
X163382503Y-118495024D01*
X163230025Y-118647502D01*
X163230025Y-118647503D01*
X163103271Y-118821963D01*
X163005372Y-119014098D01*
X162938733Y-119219190D01*
X162927519Y-119290000D01*
X163957291Y-119290000D01*
X163945548Y-119310339D01*
X163905000Y-119461667D01*
X163905000Y-119618333D01*
X163945548Y-119769661D01*
X163957291Y-119790000D01*
X162927519Y-119790000D01*
X162938733Y-119860809D01*
X163005372Y-120065901D01*
X163103271Y-120258036D01*
X163230025Y-120432496D01*
X163230025Y-120432497D01*
X163382502Y-120584974D01*
X163546915Y-120704428D01*
X163589580Y-120759758D01*
X163595559Y-120829372D01*
X163562953Y-120891167D01*
X163546915Y-120905064D01*
X163470104Y-120960871D01*
X163376967Y-121028539D01*
X163376965Y-121028541D01*
X163376964Y-121028541D01*
X163223541Y-121181964D01*
X163223541Y-121181965D01*
X163223539Y-121181967D01*
X163190406Y-121227571D01*
X163096004Y-121357503D01*
X163096002Y-121357505D01*
X163092448Y-121364480D01*
X163085154Y-121378795D01*
X163037183Y-121429590D01*
X162974671Y-121446500D01*
X162707902Y-121446500D01*
X162585519Y-121470843D01*
X162585514Y-121470845D01*
X162551748Y-121484829D01*
X162551749Y-121484830D01*
X162470226Y-121518598D01*
X162470222Y-121518600D01*
X162366471Y-121587924D01*
X162366468Y-121587926D01*
X162291173Y-121663222D01*
X162091013Y-121863382D01*
X162029693Y-121896866D01*
X162003334Y-121899700D01*
X155872494Y-121899700D01*
X155805455Y-121880015D01*
X155759700Y-121827211D01*
X155749756Y-121758053D01*
X155778781Y-121694497D01*
X155817643Y-121664491D01*
X155820205Y-121663226D01*
X155820212Y-121663224D01*
X156030289Y-121541936D01*
X156222738Y-121394265D01*
X156394265Y-121222738D01*
X156541936Y-121030289D01*
X156663224Y-120820212D01*
X156756054Y-120596100D01*
X156818838Y-120361789D01*
X156850500Y-120121288D01*
X156850500Y-119878712D01*
X156818838Y-119638211D01*
X156756054Y-119403900D01*
X156663224Y-119179788D01*
X156541936Y-118969711D01*
X156394265Y-118777262D01*
X156394260Y-118777256D01*
X156222743Y-118605739D01*
X156222736Y-118605733D01*
X156030293Y-118458067D01*
X156030292Y-118458066D01*
X156030289Y-118458064D01*
X155820212Y-118336776D01*
X155751948Y-118308500D01*
X155596104Y-118243947D01*
X155453283Y-118205678D01*
X155361789Y-118181162D01*
X155361788Y-118181161D01*
X155361785Y-118181161D01*
X155121289Y-118149500D01*
X155121288Y-118149500D01*
X154878712Y-118149500D01*
X154878711Y-118149500D01*
X154638214Y-118181161D01*
X154403895Y-118243947D01*
X154179794Y-118336773D01*
X154179785Y-118336777D01*
X153969706Y-118458067D01*
X153777263Y-118605733D01*
X153777256Y-118605739D01*
X153605739Y-118777256D01*
X153605733Y-118777263D01*
X153458067Y-118969706D01*
X153336777Y-119179785D01*
X153336773Y-119179794D01*
X153243947Y-119403895D01*
X153181161Y-119638214D01*
X153149500Y-119878711D01*
X153149500Y-120121288D01*
X153181161Y-120361785D01*
X153243947Y-120596104D01*
X153336773Y-120820205D01*
X153336777Y-120820214D01*
X153358974Y-120858661D01*
X153458064Y-121030289D01*
X153458066Y-121030292D01*
X153458067Y-121030293D01*
X153605733Y-121222736D01*
X153605739Y-121222743D01*
X153777256Y-121394260D01*
X153777263Y-121394266D01*
X153845336Y-121446500D01*
X153969711Y-121541936D01*
X154154154Y-121648424D01*
X154179786Y-121663223D01*
X154182357Y-121664491D01*
X154182987Y-121665071D01*
X154183304Y-121665254D01*
X154183263Y-121665324D01*
X154233774Y-121711800D01*
X154251451Y-121779397D01*
X154229776Y-121845820D01*
X154175632Y-121889980D01*
X154127506Y-121899700D01*
X148902159Y-121899700D01*
X148835120Y-121880015D01*
X148789365Y-121827211D01*
X148779687Y-121795102D01*
X148776280Y-121773592D01*
X148712634Y-121577710D01*
X148619129Y-121394197D01*
X148553394Y-121303720D01*
X148498073Y-121227576D01*
X148498069Y-121227571D01*
X148352428Y-121081930D01*
X148352423Y-121081926D01*
X148185806Y-120960873D01*
X148185805Y-120960872D01*
X148185803Y-120960871D01*
X148128496Y-120931671D01*
X148002294Y-120867367D01*
X147806408Y-120803719D01*
X147630794Y-120775905D01*
X147602981Y-120771500D01*
X147397019Y-120771500D01*
X147372550Y-120775375D01*
X147193591Y-120803719D01*
X146997705Y-120867367D01*
X146814193Y-120960873D01*
X146647576Y-121081926D01*
X146647571Y-121081930D01*
X146501930Y-121227571D01*
X146501926Y-121227576D01*
X146380873Y-121394193D01*
X146287367Y-121577705D01*
X146223719Y-121773591D01*
X146191500Y-121977019D01*
X146191500Y-122182980D01*
X146223949Y-122387858D01*
X146214994Y-122457152D01*
X146189157Y-122494937D01*
X144072115Y-124611981D01*
X144010792Y-124645466D01*
X143984434Y-124648300D01*
X138041692Y-124648300D01*
X137974653Y-124628615D01*
X137928898Y-124575811D01*
X137918954Y-124506653D01*
X137931207Y-124468006D01*
X138014754Y-124304034D01*
X138077990Y-124109417D01*
X138110000Y-123907317D01*
X138110000Y-123702682D01*
X138077990Y-123500582D01*
X138014755Y-123305968D01*
X137921859Y-123123650D01*
X137889474Y-123079077D01*
X137889474Y-123079076D01*
X137210000Y-123758551D01*
X137210000Y-123752339D01*
X137182741Y-123650606D01*
X137130080Y-123559394D01*
X137055606Y-123484920D01*
X136964394Y-123432259D01*
X136862661Y-123405000D01*
X136856446Y-123405000D01*
X137535922Y-122725524D01*
X137535921Y-122725523D01*
X137491359Y-122693147D01*
X137491350Y-122693141D01*
X137309031Y-122600244D01*
X137277741Y-122590078D01*
X137114417Y-122537009D01*
X136912317Y-122505000D01*
X136707683Y-122505000D01*
X136505582Y-122537009D01*
X136310968Y-122600244D01*
X136128644Y-122693143D01*
X136084077Y-122725523D01*
X136084077Y-122725524D01*
X136763554Y-123405000D01*
X136757339Y-123405000D01*
X136655606Y-123432259D01*
X136564394Y-123484920D01*
X136489920Y-123559394D01*
X136437259Y-123650606D01*
X136410000Y-123752339D01*
X136410000Y-123758553D01*
X135730524Y-123079077D01*
X135730523Y-123079077D01*
X135698143Y-123123645D01*
X135698141Y-123123648D01*
X135655253Y-123207820D01*
X135607279Y-123258615D01*
X135539457Y-123275410D01*
X135473323Y-123252872D01*
X135434284Y-123207819D01*
X135389129Y-123119197D01*
X135346194Y-123060102D01*
X135268073Y-122952576D01*
X135268069Y-122952571D01*
X135122428Y-122806930D01*
X135122423Y-122806926D01*
X134955806Y-122685873D01*
X134955805Y-122685872D01*
X134955803Y-122685871D01*
X134897119Y-122655970D01*
X134772294Y-122592367D01*
X134576408Y-122528719D01*
X134400794Y-122500905D01*
X134372981Y-122496500D01*
X134167019Y-122496500D01*
X134142550Y-122500375D01*
X133963591Y-122528719D01*
X133767705Y-122592367D01*
X133584193Y-122685873D01*
X133417576Y-122806926D01*
X133417571Y-122806930D01*
X133271930Y-122952571D01*
X133271926Y-122952576D01*
X133150871Y-123119195D01*
X133105714Y-123207820D01*
X133057740Y-123258615D01*
X132989918Y-123275410D01*
X132923784Y-123252872D01*
X132884745Y-123207818D01*
X132841861Y-123123652D01*
X132809474Y-123079077D01*
X132809474Y-123079076D01*
X132130000Y-123758551D01*
X132130000Y-123752339D01*
X132102741Y-123650606D01*
X132050080Y-123559394D01*
X131975606Y-123484920D01*
X131884394Y-123432259D01*
X131782661Y-123405000D01*
X131776446Y-123405000D01*
X132455922Y-122725524D01*
X132455921Y-122725523D01*
X132411359Y-122693147D01*
X132411350Y-122693141D01*
X132229031Y-122600244D01*
X132034417Y-122537009D01*
X131832317Y-122505000D01*
X131627683Y-122505000D01*
X131425582Y-122537009D01*
X131230968Y-122600244D01*
X131048644Y-122693143D01*
X131004077Y-122725523D01*
X131004077Y-122725524D01*
X131683554Y-123405000D01*
X131677339Y-123405000D01*
X131575606Y-123432259D01*
X131484394Y-123484920D01*
X131409920Y-123559394D01*
X131357259Y-123650606D01*
X131330000Y-123752339D01*
X131330000Y-123758553D01*
X130650524Y-123079077D01*
X130628284Y-123080827D01*
X130620625Y-123086734D01*
X130616633Y-123087076D01*
X130613314Y-123089320D01*
X130582106Y-123090040D01*
X130551012Y-123092710D01*
X130547469Y-123090840D01*
X130543463Y-123090933D01*
X130516816Y-123074665D01*
X130489218Y-123060102D01*
X130486264Y-123056013D01*
X130483828Y-123054526D01*
X130478082Y-123044686D01*
X130464066Y-123025283D01*
X130460505Y-123017939D01*
X130432115Y-122932262D01*
X130339030Y-122781348D01*
X130213652Y-122655970D01*
X130062738Y-122562885D01*
X129959630Y-122528719D01*
X129894427Y-122507113D01*
X129790545Y-122496500D01*
X128589462Y-122496500D01*
X128589446Y-122496501D01*
X128485572Y-122507113D01*
X128317264Y-122562884D01*
X128317259Y-122562886D01*
X128166346Y-122655971D01*
X128040971Y-122781346D01*
X127947886Y-122932259D01*
X127947884Y-122932264D01*
X127892113Y-123100572D01*
X127881500Y-123204447D01*
X111000000Y-123204447D01*
X111000000Y-122477019D01*
X141191500Y-122477019D01*
X141191500Y-122682980D01*
X141223719Y-122886403D01*
X141223719Y-122886408D01*
X141287367Y-123082294D01*
X141330375Y-123166700D01*
X141374808Y-123253904D01*
X141380873Y-123265806D01*
X141501926Y-123432423D01*
X141501930Y-123432428D01*
X141647571Y-123578069D01*
X141647576Y-123578073D01*
X141784102Y-123677264D01*
X141814197Y-123699129D01*
X141918627Y-123752339D01*
X141997705Y-123792632D01*
X141997707Y-123792632D01*
X141997710Y-123792634D01*
X142035766Y-123804999D01*
X142193591Y-123856280D01*
X142295305Y-123872390D01*
X142397019Y-123888500D01*
X142397020Y-123888500D01*
X142602980Y-123888500D01*
X142602981Y-123888500D01*
X142806408Y-123856280D01*
X143002290Y-123792634D01*
X143185803Y-123699129D01*
X143352430Y-123578068D01*
X143498068Y-123432430D01*
X143619129Y-123265803D01*
X143712634Y-123082290D01*
X143776280Y-122886408D01*
X143791796Y-122788448D01*
X143808500Y-122682980D01*
X143808500Y-122477019D01*
X143776280Y-122273591D01*
X143712632Y-122077705D01*
X143658519Y-121971504D01*
X143619129Y-121894197D01*
X143596740Y-121863381D01*
X143498073Y-121727576D01*
X143498069Y-121727571D01*
X143352428Y-121581930D01*
X143352423Y-121581926D01*
X143185806Y-121460873D01*
X143185805Y-121460872D01*
X143185803Y-121460871D01*
X143124411Y-121429590D01*
X143002294Y-121367367D01*
X142806408Y-121303719D01*
X142630794Y-121275905D01*
X142602981Y-121271500D01*
X142397019Y-121271500D01*
X142372550Y-121275375D01*
X142193591Y-121303719D01*
X141997705Y-121367367D01*
X141814193Y-121460873D01*
X141647576Y-121581926D01*
X141647571Y-121581930D01*
X141501930Y-121727571D01*
X141501926Y-121727576D01*
X141380873Y-121894193D01*
X141287367Y-122077705D01*
X141223719Y-122273591D01*
X141191500Y-122477019D01*
X111000000Y-122477019D01*
X111000000Y-119878711D01*
X120649500Y-119878711D01*
X120649500Y-120121288D01*
X120681161Y-120361785D01*
X120743947Y-120596104D01*
X120836773Y-120820205D01*
X120836777Y-120820214D01*
X120858974Y-120858661D01*
X120958064Y-121030289D01*
X120958066Y-121030292D01*
X120958067Y-121030293D01*
X121105733Y-121222736D01*
X121105739Y-121222743D01*
X121277256Y-121394260D01*
X121277263Y-121394266D01*
X121345336Y-121446500D01*
X121469711Y-121541936D01*
X121679788Y-121663224D01*
X121903900Y-121756054D01*
X122138211Y-121818838D01*
X122318586Y-121842584D01*
X122378711Y-121850500D01*
X122378712Y-121850500D01*
X122621289Y-121850500D01*
X122669388Y-121844167D01*
X122861789Y-121818838D01*
X123096100Y-121756054D01*
X123320212Y-121663224D01*
X123530289Y-121541936D01*
X123722738Y-121394265D01*
X123894265Y-121222738D01*
X124041936Y-121030289D01*
X124163224Y-120820212D01*
X124256054Y-120596100D01*
X124318838Y-120361789D01*
X124350500Y-120121288D01*
X124350500Y-119878712D01*
X124318838Y-119638211D01*
X124256054Y-119403900D01*
X124163224Y-119179788D01*
X124041936Y-118969711D01*
X123894265Y-118777262D01*
X123894260Y-118777256D01*
X123722743Y-118605739D01*
X123722736Y-118605733D01*
X123530293Y-118458067D01*
X123530292Y-118458066D01*
X123530289Y-118458064D01*
X123320212Y-118336776D01*
X123251948Y-118308500D01*
X123096104Y-118243947D01*
X122953283Y-118205678D01*
X122861789Y-118181162D01*
X122861788Y-118181161D01*
X122861785Y-118181161D01*
X122621289Y-118149500D01*
X122621288Y-118149500D01*
X122378712Y-118149500D01*
X122378711Y-118149500D01*
X122138214Y-118181161D01*
X121903895Y-118243947D01*
X121679794Y-118336773D01*
X121679785Y-118336777D01*
X121469706Y-118458067D01*
X121277263Y-118605733D01*
X121277256Y-118605739D01*
X121105739Y-118777256D01*
X121105733Y-118777263D01*
X120958067Y-118969706D01*
X120836777Y-119179785D01*
X120836773Y-119179794D01*
X120743947Y-119403895D01*
X120681161Y-119638214D01*
X120649500Y-119878711D01*
X111000000Y-119878711D01*
X111000000Y-113554447D01*
X112376500Y-113554447D01*
X112376500Y-114895537D01*
X112376501Y-114895553D01*
X112384652Y-114975334D01*
X112387113Y-114999426D01*
X112442885Y-115167738D01*
X112535970Y-115318652D01*
X112661348Y-115444030D01*
X112812262Y-115537115D01*
X112812263Y-115537115D01*
X112818409Y-115540906D01*
X112817514Y-115542356D01*
X112863210Y-115582595D01*
X112882360Y-115649789D01*
X112862142Y-115716670D01*
X112846046Y-115736482D01*
X112710022Y-115872506D01*
X112583271Y-116046963D01*
X112485372Y-116239098D01*
X112418733Y-116444190D01*
X112407519Y-116515000D01*
X113437291Y-116515000D01*
X113425548Y-116535339D01*
X113385000Y-116686667D01*
X113385000Y-116843333D01*
X113425548Y-116994661D01*
X113437291Y-117015000D01*
X112407519Y-117015000D01*
X112418733Y-117085809D01*
X112485372Y-117290901D01*
X112583271Y-117483036D01*
X112710025Y-117657496D01*
X112710025Y-117657497D01*
X112862502Y-117809974D01*
X113036963Y-117936728D01*
X113229098Y-118034627D01*
X113434190Y-118101265D01*
X113647180Y-118135000D01*
X113730000Y-118135000D01*
X113730000Y-117307709D01*
X113750339Y-117319452D01*
X113901667Y-117360000D01*
X114058333Y-117360000D01*
X114209661Y-117319452D01*
X114230000Y-117307709D01*
X114230000Y-118135000D01*
X114312820Y-118135000D01*
X114525809Y-118101265D01*
X114730901Y-118034627D01*
X114923036Y-117936728D01*
X115097496Y-117809974D01*
X115097497Y-117809974D01*
X115249974Y-117657497D01*
X115249974Y-117657496D01*
X115376728Y-117483036D01*
X115474627Y-117290901D01*
X115541266Y-117085809D01*
X115552481Y-117015000D01*
X114522709Y-117015000D01*
X114534452Y-116994661D01*
X114575000Y-116843333D01*
X114575000Y-116686667D01*
X114534452Y-116535339D01*
X114522709Y-116515000D01*
X115552481Y-116515000D01*
X115541266Y-116444190D01*
X115474627Y-116239098D01*
X115376728Y-116046963D01*
X115249974Y-115872503D01*
X115249974Y-115872502D01*
X115113954Y-115736482D01*
X115080469Y-115675159D01*
X115085453Y-115605467D01*
X115127325Y-115549534D01*
X115141630Y-115540969D01*
X115141591Y-115540906D01*
X115147736Y-115537115D01*
X115147738Y-115537115D01*
X115298652Y-115444030D01*
X115424030Y-115318652D01*
X115517115Y-115167738D01*
X115572887Y-114999426D01*
X115575348Y-114975334D01*
X115575904Y-114969897D01*
X115602301Y-114905205D01*
X115659482Y-114865054D01*
X115699262Y-114858500D01*
X123863134Y-114858500D01*
X123930173Y-114878185D01*
X123950815Y-114894819D01*
X127169163Y-118113169D01*
X127169166Y-118113172D01*
X127261602Y-118174935D01*
X127272925Y-118182501D01*
X127272931Y-118182503D01*
X127272932Y-118182504D01*
X127328882Y-118205679D01*
X127388210Y-118230253D01*
X127388215Y-118230255D01*
X127510601Y-118254599D01*
X127510605Y-118254600D01*
X127510606Y-118254600D01*
X132896295Y-118254600D01*
X132896296Y-118254599D01*
X133018685Y-118230255D01*
X133133975Y-118182500D01*
X133237733Y-118113171D01*
X133855062Y-117495840D01*
X133916383Y-117462357D01*
X133962139Y-117461050D01*
X134056390Y-117475977D01*
X134167019Y-117493500D01*
X134167020Y-117493500D01*
X134372980Y-117493500D01*
X134372981Y-117493500D01*
X134576408Y-117461280D01*
X134772290Y-117397634D01*
X134955803Y-117304129D01*
X135122430Y-117183068D01*
X135268068Y-117037430D01*
X135389129Y-116870803D01*
X135434284Y-116782180D01*
X135482258Y-116731384D01*
X135550079Y-116714589D01*
X135616214Y-116737126D01*
X135655254Y-116782180D01*
X135698141Y-116866350D01*
X135698147Y-116866359D01*
X135730523Y-116910921D01*
X135730524Y-116910922D01*
X136410000Y-116231446D01*
X136410000Y-116237661D01*
X136437259Y-116339394D01*
X136489920Y-116430606D01*
X136564394Y-116505080D01*
X136655606Y-116557741D01*
X136757339Y-116585000D01*
X136763553Y-116585000D01*
X136084076Y-117264474D01*
X136128650Y-117296859D01*
X136310968Y-117389755D01*
X136505582Y-117452990D01*
X136707683Y-117485000D01*
X136912317Y-117485000D01*
X137114417Y-117452990D01*
X137309031Y-117389755D01*
X137491348Y-117296860D01*
X137498273Y-117291829D01*
X137498273Y-117291828D01*
X137535921Y-117264474D01*
X136856447Y-116585000D01*
X136862661Y-116585000D01*
X136964394Y-116557741D01*
X137055606Y-116505080D01*
X137130080Y-116430606D01*
X137182741Y-116339394D01*
X137210000Y-116237661D01*
X137210000Y-116231447D01*
X137889474Y-116910921D01*
X137921859Y-116866349D01*
X138014755Y-116684031D01*
X138077990Y-116489417D01*
X138110000Y-116287317D01*
X138110000Y-116082682D01*
X138077990Y-115880582D01*
X138014755Y-115685968D01*
X137921859Y-115503650D01*
X137889474Y-115459077D01*
X137889474Y-115459076D01*
X137210000Y-116138551D01*
X137210000Y-116132339D01*
X137182741Y-116030606D01*
X137130080Y-115939394D01*
X137055606Y-115864920D01*
X136964394Y-115812259D01*
X136862661Y-115785000D01*
X136856446Y-115785000D01*
X137535922Y-115105524D01*
X137535921Y-115105523D01*
X137491359Y-115073147D01*
X137491350Y-115073141D01*
X137309031Y-114980244D01*
X137114417Y-114917009D01*
X136912317Y-114885000D01*
X136707683Y-114885000D01*
X136505582Y-114917009D01*
X136310968Y-114980244D01*
X136128644Y-115073143D01*
X136084077Y-115105523D01*
X136084077Y-115105524D01*
X136763554Y-115785000D01*
X136757339Y-115785000D01*
X136655606Y-115812259D01*
X136564394Y-115864920D01*
X136489920Y-115939394D01*
X136437259Y-116030606D01*
X136410000Y-116132339D01*
X136410000Y-116138553D01*
X135730524Y-115459077D01*
X135730523Y-115459077D01*
X135698143Y-115503645D01*
X135698141Y-115503648D01*
X135655253Y-115587820D01*
X135607279Y-115638615D01*
X135539457Y-115655410D01*
X135473323Y-115632872D01*
X135434284Y-115587819D01*
X135389129Y-115499197D01*
X135340965Y-115432905D01*
X135268073Y-115332576D01*
X135268069Y-115332571D01*
X135122428Y-115186930D01*
X135122423Y-115186926D01*
X134955806Y-115065873D01*
X134955805Y-115065872D01*
X134955803Y-115065871D01*
X134878918Y-115026696D01*
X134772294Y-114972367D01*
X134576408Y-114908719D01*
X134400794Y-114880905D01*
X134372981Y-114876500D01*
X134167019Y-114876500D01*
X134142550Y-114880375D01*
X133963591Y-114908719D01*
X133767705Y-114972367D01*
X133584193Y-115065873D01*
X133417576Y-115186926D01*
X133417571Y-115186930D01*
X133271930Y-115332571D01*
X133271926Y-115332576D01*
X133150871Y-115499195D01*
X133110484Y-115578459D01*
X133062510Y-115629254D01*
X132994689Y-115646049D01*
X132928554Y-115623511D01*
X132889516Y-115578459D01*
X132849128Y-115499195D01*
X132762182Y-115379523D01*
X132738702Y-115313717D01*
X132738500Y-115306638D01*
X132738500Y-115026696D01*
X132758185Y-114959657D01*
X132774819Y-114939015D01*
X137384387Y-110329447D01*
X162916500Y-110329447D01*
X162916500Y-111670537D01*
X162916501Y-111670553D01*
X162927113Y-111774426D01*
X162982885Y-111942738D01*
X163075970Y-112093652D01*
X163201348Y-112219030D01*
X163352262Y-112312115D01*
X163520574Y-112367887D01*
X163624455Y-112378500D01*
X165415544Y-112378499D01*
X165519426Y-112367887D01*
X165687738Y-112312115D01*
X165838652Y-112219030D01*
X165964030Y-112093652D01*
X166057115Y-111942738D01*
X166112887Y-111774426D01*
X166123500Y-111670545D01*
X166123499Y-110329456D01*
X166112887Y-110225574D01*
X166057115Y-110057262D01*
X165964030Y-109906348D01*
X165838652Y-109780970D01*
X165687738Y-109687885D01*
X165687736Y-109687884D01*
X165681591Y-109684094D01*
X165682484Y-109682644D01*
X165636783Y-109642395D01*
X165617639Y-109575199D01*
X165637863Y-109508320D01*
X165653954Y-109488516D01*
X165789977Y-109352493D01*
X165916728Y-109178036D01*
X166014627Y-108985901D01*
X166081266Y-108780809D01*
X166092481Y-108710000D01*
X165062709Y-108710000D01*
X165074452Y-108689661D01*
X165115000Y-108538333D01*
X165115000Y-108381667D01*
X165074452Y-108230339D01*
X165062709Y-108210000D01*
X166092481Y-108210000D01*
X166081266Y-108139190D01*
X166014627Y-107934098D01*
X165916728Y-107741963D01*
X165789974Y-107567503D01*
X165789974Y-107567502D01*
X165637497Y-107415025D01*
X165463036Y-107288271D01*
X165270901Y-107190372D01*
X165065809Y-107123734D01*
X164852820Y-107090000D01*
X164770000Y-107090000D01*
X164770000Y-107917290D01*
X164749661Y-107905548D01*
X164598333Y-107865000D01*
X164441667Y-107865000D01*
X164290339Y-107905548D01*
X164270000Y-107917290D01*
X164270000Y-107090000D01*
X164187180Y-107090000D01*
X163974190Y-107123734D01*
X163769098Y-107190372D01*
X163576963Y-107288271D01*
X163402503Y-107415025D01*
X163402502Y-107415025D01*
X163250025Y-107567502D01*
X163250025Y-107567503D01*
X163123271Y-107741963D01*
X163025372Y-107934098D01*
X162958733Y-108139190D01*
X162947519Y-108210000D01*
X163977291Y-108210000D01*
X163965548Y-108230339D01*
X163925000Y-108381667D01*
X163925000Y-108538333D01*
X163965548Y-108689661D01*
X163977291Y-108710000D01*
X162947519Y-108710000D01*
X162958733Y-108780809D01*
X163025372Y-108985901D01*
X163123271Y-109178036D01*
X163250025Y-109352496D01*
X163250025Y-109352497D01*
X163386045Y-109488517D01*
X163419530Y-109549840D01*
X163414546Y-109619532D01*
X163372674Y-109675465D01*
X163358370Y-109684031D01*
X163358409Y-109684094D01*
X163352263Y-109687884D01*
X163352262Y-109687885D01*
X163250015Y-109750951D01*
X163201346Y-109780971D01*
X163075971Y-109906346D01*
X162982886Y-110057259D01*
X162982884Y-110057264D01*
X162927113Y-110225572D01*
X162916500Y-110329447D01*
X137384387Y-110329447D01*
X141316152Y-106397682D01*
X153700000Y-106397682D01*
X153700000Y-106602317D01*
X153732009Y-106804417D01*
X153795244Y-106999031D01*
X153888141Y-107181350D01*
X153888147Y-107181359D01*
X153920523Y-107225921D01*
X153920524Y-107225922D01*
X154600000Y-106546446D01*
X154600000Y-106552661D01*
X154627259Y-106654394D01*
X154679920Y-106745606D01*
X154754394Y-106820080D01*
X154845606Y-106872741D01*
X154947339Y-106900000D01*
X154953553Y-106900000D01*
X154274076Y-107579474D01*
X154318650Y-107611859D01*
X154500968Y-107704755D01*
X154695582Y-107767990D01*
X154897683Y-107800000D01*
X155102317Y-107800000D01*
X155304417Y-107767990D01*
X155499031Y-107704755D01*
X155681349Y-107611859D01*
X155725921Y-107579474D01*
X155046447Y-106900000D01*
X155052661Y-106900000D01*
X155154394Y-106872741D01*
X155245606Y-106820080D01*
X155320080Y-106745606D01*
X155372741Y-106654394D01*
X155400000Y-106552661D01*
X155400000Y-106546448D01*
X156079474Y-107225922D01*
X156079474Y-107225921D01*
X156111859Y-107181349D01*
X156204755Y-106999031D01*
X156267990Y-106804417D01*
X156300000Y-106602317D01*
X156300000Y-106397682D01*
X156267990Y-106195582D01*
X156204755Y-106000968D01*
X156111859Y-105818650D01*
X156079474Y-105774077D01*
X156079474Y-105774076D01*
X155400000Y-106453551D01*
X155400000Y-106447339D01*
X155372741Y-106345606D01*
X155320080Y-106254394D01*
X155245606Y-106179920D01*
X155154394Y-106127259D01*
X155052661Y-106100000D01*
X155046446Y-106100000D01*
X155725922Y-105420524D01*
X155725921Y-105420523D01*
X155681359Y-105388147D01*
X155681350Y-105388141D01*
X155499031Y-105295244D01*
X155304417Y-105232009D01*
X155102317Y-105200000D01*
X154897683Y-105200000D01*
X154695582Y-105232009D01*
X154500968Y-105295244D01*
X154318644Y-105388143D01*
X154274077Y-105420523D01*
X154274077Y-105420524D01*
X154953554Y-106100000D01*
X154947339Y-106100000D01*
X154845606Y-106127259D01*
X154754394Y-106179920D01*
X154679920Y-106254394D01*
X154627259Y-106345606D01*
X154600000Y-106447339D01*
X154600000Y-106453553D01*
X153920524Y-105774077D01*
X153920523Y-105774077D01*
X153888143Y-105818644D01*
X153795244Y-106000968D01*
X153732009Y-106195582D01*
X153700000Y-106397682D01*
X141316152Y-106397682D01*
X145479819Y-102234015D01*
X145541142Y-102200530D01*
X145610834Y-102205514D01*
X145666767Y-102247386D01*
X145691184Y-102312850D01*
X145691500Y-102321696D01*
X145691500Y-103166254D01*
X145698011Y-103226802D01*
X145698011Y-103226804D01*
X145735048Y-103326100D01*
X145749111Y-103363804D01*
X145836739Y-103480861D01*
X145953796Y-103568489D01*
X146090799Y-103619589D01*
X146118050Y-103622518D01*
X146151345Y-103626099D01*
X146151360Y-103626099D01*
X146151362Y-103626100D01*
X146151364Y-103626100D01*
X146154669Y-103626277D01*
X146154659Y-103626455D01*
X146154665Y-103626456D01*
X146154653Y-103626559D01*
X146154586Y-103627813D01*
X146215790Y-103645785D01*
X146261545Y-103698589D01*
X146267342Y-103731389D01*
X146953554Y-104417600D01*
X146947339Y-104417600D01*
X146845606Y-104444859D01*
X146754394Y-104497520D01*
X146679920Y-104571994D01*
X146627259Y-104663206D01*
X146600000Y-104764939D01*
X146600000Y-104771153D01*
X145920524Y-104091677D01*
X145920523Y-104091677D01*
X145888143Y-104136244D01*
X145795244Y-104318568D01*
X145732009Y-104513182D01*
X145700000Y-104715282D01*
X145700000Y-104919917D01*
X145732009Y-105122017D01*
X145795244Y-105316631D01*
X145888141Y-105498950D01*
X145888147Y-105498959D01*
X145920523Y-105543521D01*
X145920524Y-105543522D01*
X146600000Y-104864046D01*
X146600000Y-104870261D01*
X146627259Y-104971994D01*
X146679920Y-105063206D01*
X146754394Y-105137680D01*
X146845606Y-105190341D01*
X146947339Y-105217600D01*
X146953553Y-105217600D01*
X146274076Y-105897074D01*
X146318650Y-105929459D01*
X146500968Y-106022355D01*
X146695582Y-106085590D01*
X146897683Y-106117600D01*
X147102317Y-106117600D01*
X147304417Y-106085590D01*
X147499031Y-106022355D01*
X147681349Y-105929459D01*
X147725921Y-105897074D01*
X147046447Y-105217600D01*
X147052661Y-105217600D01*
X147154394Y-105190341D01*
X147245606Y-105137680D01*
X147320080Y-105063206D01*
X147372741Y-104971994D01*
X147400000Y-104870261D01*
X147400000Y-104864048D01*
X148079474Y-105543522D01*
X148079474Y-105543521D01*
X148111861Y-105498947D01*
X148111861Y-105498946D01*
X148156423Y-105411489D01*
X148156423Y-105411488D01*
X148204755Y-105316631D01*
X148267990Y-105122017D01*
X148300000Y-104919917D01*
X148300000Y-104715282D01*
X148267990Y-104513182D01*
X148204755Y-104318568D01*
X148111859Y-104136250D01*
X148079474Y-104091677D01*
X148079474Y-104091676D01*
X147400000Y-104771151D01*
X147400000Y-104764939D01*
X147372741Y-104663206D01*
X147320080Y-104571994D01*
X147245606Y-104497520D01*
X147154394Y-104444859D01*
X147052661Y-104417600D01*
X147046446Y-104417600D01*
X147733856Y-103730190D01*
X147741994Y-103691452D01*
X147791045Y-103641695D01*
X147845402Y-103627614D01*
X147845346Y-103626559D01*
X147845335Y-103626456D01*
X147845340Y-103626455D01*
X147845331Y-103626277D01*
X147848635Y-103626100D01*
X147848638Y-103626100D01*
X147848640Y-103626099D01*
X147848654Y-103626099D01*
X147875692Y-103623191D01*
X147909201Y-103619589D01*
X148046204Y-103568489D01*
X148163261Y-103480861D01*
X148241917Y-103375788D01*
X148297851Y-103333918D01*
X148341184Y-103326100D01*
X148909030Y-103326100D01*
X148909031Y-103326099D01*
X149103869Y-103287344D01*
X149287404Y-103211321D01*
X149452581Y-103100953D01*
X149593053Y-102960481D01*
X150008715Y-102544819D01*
X150070038Y-102511334D01*
X150096396Y-102508500D01*
X154121639Y-102508500D01*
X154188678Y-102528185D01*
X154194519Y-102532179D01*
X154314197Y-102619129D01*
X154431128Y-102678709D01*
X154497705Y-102712632D01*
X154497707Y-102712632D01*
X154497710Y-102712634D01*
X154602707Y-102746749D01*
X154693591Y-102776280D01*
X154721997Y-102780779D01*
X154897019Y-102808500D01*
X154897020Y-102808500D01*
X155102980Y-102808500D01*
X155102981Y-102808500D01*
X155306408Y-102776280D01*
X155502290Y-102712634D01*
X155685803Y-102619129D01*
X155852430Y-102498068D01*
X155998068Y-102352430D01*
X156119129Y-102185803D01*
X156212634Y-102002290D01*
X156276280Y-101806408D01*
X156308500Y-101602981D01*
X156308500Y-101397019D01*
X156283201Y-101237290D01*
X156276280Y-101193591D01*
X156225636Y-101037727D01*
X156212634Y-100997710D01*
X156212632Y-100997707D01*
X156212632Y-100997705D01*
X156146264Y-100867453D01*
X156119129Y-100814197D01*
X156048255Y-100716647D01*
X155998073Y-100647576D01*
X155998069Y-100647571D01*
X155852428Y-100501930D01*
X155852423Y-100501926D01*
X155685806Y-100380873D01*
X155685805Y-100380872D01*
X155685803Y-100380871D01*
X155628496Y-100351671D01*
X155502294Y-100287367D01*
X155306408Y-100223719D01*
X155130794Y-100195905D01*
X155102981Y-100191500D01*
X154897019Y-100191500D01*
X154872550Y-100195375D01*
X154693591Y-100223719D01*
X154497705Y-100287367D01*
X154314193Y-100380873D01*
X154194524Y-100467818D01*
X154128718Y-100491298D01*
X154121639Y-100491500D01*
X149527966Y-100491500D01*
X149333138Y-100530254D01*
X149333130Y-100530256D01*
X149185276Y-100591500D01*
X149185275Y-100591500D01*
X149149602Y-100606275D01*
X149149589Y-100606282D01*
X148984419Y-100716646D01*
X148984415Y-100716649D01*
X148428616Y-101272449D01*
X148367293Y-101305934D01*
X148297601Y-101300950D01*
X148241669Y-101259079D01*
X148163261Y-101154339D01*
X148046204Y-101066711D01*
X147909203Y-101015611D01*
X147848654Y-101009100D01*
X147848638Y-101009100D01*
X147004096Y-101009100D01*
X146937057Y-100989415D01*
X146891302Y-100936611D01*
X146881358Y-100867453D01*
X146910383Y-100803897D01*
X146916415Y-100797419D01*
X152129015Y-95584819D01*
X152190338Y-95551334D01*
X152216696Y-95548500D01*
X162934241Y-95548500D01*
X163001280Y-95568185D01*
X163039778Y-95607401D01*
X163055970Y-95633652D01*
X163181348Y-95759030D01*
X163332262Y-95852115D01*
X163500574Y-95907887D01*
X163604455Y-95918500D01*
X165395544Y-95918499D01*
X165499426Y-95907887D01*
X165667738Y-95852115D01*
X165818652Y-95759030D01*
X165944030Y-95633652D01*
X166037115Y-95482738D01*
X166092887Y-95314426D01*
X166103500Y-95210545D01*
X166103499Y-93869456D01*
X166092887Y-93765574D01*
X166037115Y-93597262D01*
X165944030Y-93446348D01*
X165818652Y-93320970D01*
X165667738Y-93227885D01*
X165667736Y-93227884D01*
X165661591Y-93224094D01*
X165662484Y-93222644D01*
X165616783Y-93182395D01*
X165597639Y-93115199D01*
X165617863Y-93048320D01*
X165633954Y-93028516D01*
X165769977Y-92892493D01*
X165896728Y-92718036D01*
X165994627Y-92525901D01*
X166061266Y-92320809D01*
X166072481Y-92250000D01*
X165042709Y-92250000D01*
X165054452Y-92229661D01*
X165095000Y-92078333D01*
X165095000Y-91921667D01*
X165054452Y-91770339D01*
X165042709Y-91750000D01*
X166072481Y-91750000D01*
X166061266Y-91679190D01*
X165994627Y-91474098D01*
X165896728Y-91281963D01*
X165769974Y-91107503D01*
X165769974Y-91107502D01*
X165617497Y-90955025D01*
X165443036Y-90828271D01*
X165250901Y-90730372D01*
X165045809Y-90663734D01*
X164832820Y-90630000D01*
X164750000Y-90630000D01*
X164750000Y-91457290D01*
X164729661Y-91445548D01*
X164578333Y-91405000D01*
X164421667Y-91405000D01*
X164270339Y-91445548D01*
X164250000Y-91457290D01*
X164250000Y-90630000D01*
X164167180Y-90630000D01*
X163954190Y-90663734D01*
X163749098Y-90730372D01*
X163556963Y-90828271D01*
X163382503Y-90955025D01*
X163382502Y-90955025D01*
X163230025Y-91107502D01*
X163230025Y-91107503D01*
X163103271Y-91281963D01*
X163005372Y-91474098D01*
X162938733Y-91679190D01*
X162927519Y-91750000D01*
X163957291Y-91750000D01*
X163945548Y-91770339D01*
X163905000Y-91921667D01*
X163905000Y-92078333D01*
X163945548Y-92229661D01*
X163957291Y-92250000D01*
X162927519Y-92250000D01*
X162938733Y-92320809D01*
X163005372Y-92525901D01*
X163103271Y-92718036D01*
X163230025Y-92892496D01*
X163230025Y-92892497D01*
X163366045Y-93028517D01*
X163399530Y-93089840D01*
X163394546Y-93159532D01*
X163352674Y-93215465D01*
X163338370Y-93224031D01*
X163338409Y-93224094D01*
X163332263Y-93227884D01*
X163332262Y-93227885D01*
X163230015Y-93290951D01*
X163181346Y-93320971D01*
X163055971Y-93446346D01*
X163039780Y-93472597D01*
X162987832Y-93519321D01*
X162934241Y-93531500D01*
X151648266Y-93531500D01*
X151453438Y-93570254D01*
X151453430Y-93570256D01*
X151269898Y-93646277D01*
X151269889Y-93646282D01*
X151104719Y-93756646D01*
X151104715Y-93756649D01*
X139697383Y-105163981D01*
X139636060Y-105197466D01*
X139566368Y-105192482D01*
X139510435Y-105150610D01*
X139486018Y-105085146D01*
X139500870Y-105016873D01*
X139506610Y-105007395D01*
X139506923Y-105006923D01*
X139506939Y-105006904D01*
X139625474Y-104801595D01*
X139716197Y-104582570D01*
X139777556Y-104353578D01*
X139808500Y-104118535D01*
X139808500Y-103881465D01*
X139777556Y-103646422D01*
X139716197Y-103417430D01*
X139662313Y-103287343D01*
X139625479Y-103198416D01*
X139625476Y-103198410D01*
X139625474Y-103198405D01*
X139506939Y-102993096D01*
X139416255Y-102874915D01*
X139362620Y-102805016D01*
X139362614Y-102805009D01*
X139194990Y-102637385D01*
X139194983Y-102637379D01*
X139006908Y-102493064D01*
X139006907Y-102493063D01*
X139006904Y-102493061D01*
X138801595Y-102374526D01*
X138801583Y-102374520D01*
X138582570Y-102283803D01*
X138353578Y-102222444D01*
X138353577Y-102222443D01*
X138353574Y-102222443D01*
X138118544Y-102191501D01*
X138118541Y-102191500D01*
X138118535Y-102191500D01*
X137881465Y-102191500D01*
X137881459Y-102191500D01*
X137881455Y-102191501D01*
X137646425Y-102222443D01*
X137417429Y-102283803D01*
X137198416Y-102374520D01*
X137198402Y-102374527D01*
X136993091Y-102493064D01*
X136805016Y-102637379D01*
X136805009Y-102637385D01*
X136637385Y-102805009D01*
X136637379Y-102805016D01*
X136493064Y-102993091D01*
X136374527Y-103198402D01*
X136374520Y-103198416D01*
X136283803Y-103417429D01*
X136222443Y-103646425D01*
X136191501Y-103881455D01*
X136191500Y-103881471D01*
X136191500Y-104118528D01*
X136191501Y-104118544D01*
X136222443Y-104353574D01*
X136283803Y-104582570D01*
X136374520Y-104801583D01*
X136374526Y-104801595D01*
X136493061Y-105006904D01*
X136493063Y-105006907D01*
X136493064Y-105006908D01*
X136637379Y-105194983D01*
X136637385Y-105194990D01*
X136805009Y-105362614D01*
X136805016Y-105362620D01*
X136868702Y-105411488D01*
X136993096Y-105506939D01*
X137198405Y-105625474D01*
X137198410Y-105625476D01*
X137198416Y-105625479D01*
X137292803Y-105664575D01*
X137417430Y-105716197D01*
X137646422Y-105777556D01*
X137881465Y-105808500D01*
X137881472Y-105808500D01*
X138118528Y-105808500D01*
X138118535Y-105808500D01*
X138353578Y-105777556D01*
X138582570Y-105716197D01*
X138801595Y-105625474D01*
X139006904Y-105506939D01*
X139006923Y-105506923D01*
X139007395Y-105506610D01*
X139007565Y-105506556D01*
X139010419Y-105504909D01*
X139010787Y-105505547D01*
X139074069Y-105485722D01*
X139141452Y-105504197D01*
X139188149Y-105556170D01*
X139199335Y-105625138D01*
X139171459Y-105689206D01*
X139163981Y-105697383D01*
X133086940Y-111774426D01*
X131087119Y-113774247D01*
X131016882Y-113844484D01*
X130946645Y-113914720D01*
X130836282Y-114079889D01*
X130836277Y-114079898D01*
X130760256Y-114263430D01*
X130760254Y-114263438D01*
X130721500Y-114458266D01*
X130721500Y-115306638D01*
X130701815Y-115373677D01*
X130697818Y-115379523D01*
X130610871Y-115499195D01*
X130570484Y-115578459D01*
X130522510Y-115629254D01*
X130454689Y-115646049D01*
X130388554Y-115623511D01*
X130349516Y-115578459D01*
X130309128Y-115499195D01*
X130188073Y-115332576D01*
X130188069Y-115332571D01*
X130042428Y-115186930D01*
X130042423Y-115186926D01*
X129875806Y-115065873D01*
X129875805Y-115065872D01*
X129875803Y-115065871D01*
X129798918Y-115026696D01*
X129692294Y-114972367D01*
X129496408Y-114908719D01*
X129320794Y-114880905D01*
X129292981Y-114876500D01*
X129087019Y-114876500D01*
X129062550Y-114880375D01*
X128883591Y-114908719D01*
X128687705Y-114972367D01*
X128504193Y-115065873D01*
X128337576Y-115186926D01*
X128337571Y-115186930D01*
X128191930Y-115332571D01*
X128191926Y-115332576D01*
X128070873Y-115499193D01*
X127977367Y-115682705D01*
X127913719Y-115878591D01*
X127881500Y-116082019D01*
X127881500Y-116287980D01*
X127913719Y-116491408D01*
X127977367Y-116687294D01*
X128038517Y-116807305D01*
X128051413Y-116875974D01*
X128025137Y-116940715D01*
X127968031Y-116980972D01*
X127928032Y-116987600D01*
X127886767Y-116987600D01*
X127819728Y-116967915D01*
X127799086Y-116951281D01*
X124580736Y-113732931D01*
X124580732Y-113732928D01*
X124476981Y-113663603D01*
X124476972Y-113663598D01*
X124361685Y-113615845D01*
X124361677Y-113615843D01*
X124239298Y-113591500D01*
X124239294Y-113591500D01*
X115699261Y-113591500D01*
X115632222Y-113571815D01*
X115586467Y-113519011D01*
X115575903Y-113480100D01*
X115572887Y-113450573D01*
X115554296Y-113394470D01*
X115517115Y-113282262D01*
X115424030Y-113131348D01*
X115298652Y-113005970D01*
X115147738Y-112912885D01*
X115147735Y-112912884D01*
X114979427Y-112857113D01*
X114875545Y-112846500D01*
X113084462Y-112846500D01*
X113084446Y-112846501D01*
X112980572Y-112857113D01*
X112812264Y-112912884D01*
X112812259Y-112912886D01*
X112661346Y-113005971D01*
X112535971Y-113131346D01*
X112442886Y-113282259D01*
X112442884Y-113282264D01*
X112387113Y-113450572D01*
X112376500Y-113554447D01*
X111000000Y-113554447D01*
X111000000Y-105228010D01*
X111019685Y-105160971D01*
X111072489Y-105115216D01*
X111141647Y-105105272D01*
X111205203Y-105134297D01*
X111235720Y-105174208D01*
X111370191Y-105453440D01*
X111549461Y-105738747D01*
X111708397Y-105938048D01*
X112956320Y-104690125D01*
X113046554Y-104814320D01*
X113185680Y-104953446D01*
X113309873Y-105043678D01*
X112061950Y-106291601D01*
X112261252Y-106450538D01*
X112546559Y-106629808D01*
X112850137Y-106776004D01*
X113168173Y-106887290D01*
X113168185Y-106887294D01*
X113496686Y-106962272D01*
X113496702Y-106962274D01*
X113831519Y-106999999D01*
X113831521Y-107000000D01*
X114168479Y-107000000D01*
X114168480Y-106999999D01*
X114503297Y-106962274D01*
X114503313Y-106962272D01*
X114831814Y-106887294D01*
X114831826Y-106887290D01*
X115149862Y-106776004D01*
X115453440Y-106629808D01*
X115721548Y-106461345D01*
X119691500Y-106461345D01*
X119691500Y-108158654D01*
X119698011Y-108219202D01*
X119698011Y-108219204D01*
X119749111Y-108356204D01*
X119836739Y-108473261D01*
X119953796Y-108560889D01*
X120090799Y-108611989D01*
X120118050Y-108614918D01*
X120151345Y-108618499D01*
X120151362Y-108618500D01*
X121848638Y-108618500D01*
X121848654Y-108618499D01*
X121875692Y-108615591D01*
X121909201Y-108611989D01*
X122046204Y-108560889D01*
X122163261Y-108473261D01*
X122250889Y-108356204D01*
X122301989Y-108219201D01*
X122305591Y-108185692D01*
X122308499Y-108158654D01*
X122308500Y-108158637D01*
X122308500Y-106461362D01*
X122308499Y-106461345D01*
X122305157Y-106430270D01*
X122301989Y-106400799D01*
X122300826Y-106397682D01*
X122270841Y-106317290D01*
X122250889Y-106263796D01*
X122163261Y-106146739D01*
X122046204Y-106059111D01*
X121909203Y-106008011D01*
X121848654Y-106001500D01*
X121848638Y-106001500D01*
X120151362Y-106001500D01*
X120151345Y-106001500D01*
X120090797Y-106008011D01*
X120090795Y-106008011D01*
X119953795Y-106059111D01*
X119836739Y-106146739D01*
X119749111Y-106263795D01*
X119698011Y-106400795D01*
X119698011Y-106400797D01*
X119691500Y-106461345D01*
X115721548Y-106461345D01*
X115738747Y-106450538D01*
X115850907Y-106361094D01*
X115938048Y-106291600D01*
X114690126Y-105043678D01*
X114814320Y-104953446D01*
X114953446Y-104814320D01*
X115043678Y-104690126D01*
X116291600Y-105938048D01*
X116450539Y-105738747D01*
X116467333Y-105712019D01*
X125191500Y-105712019D01*
X125191500Y-105917980D01*
X125223719Y-106121408D01*
X125287367Y-106317294D01*
X125309685Y-106361094D01*
X125380462Y-106500001D01*
X125380873Y-106500806D01*
X125501926Y-106667423D01*
X125501930Y-106667428D01*
X125647571Y-106813069D01*
X125647576Y-106813073D01*
X125703293Y-106853553D01*
X125814197Y-106934129D01*
X125931128Y-106993709D01*
X125997705Y-107027632D01*
X125997707Y-107027632D01*
X125997710Y-107027634D01*
X126102707Y-107061749D01*
X126193591Y-107091280D01*
X126295305Y-107107390D01*
X126397019Y-107123500D01*
X126397020Y-107123500D01*
X126602980Y-107123500D01*
X126602981Y-107123500D01*
X126806408Y-107091280D01*
X127002290Y-107027634D01*
X127185803Y-106934129D01*
X127352430Y-106813068D01*
X127498068Y-106667430D01*
X127619129Y-106500803D01*
X127712634Y-106317290D01*
X127776280Y-106121408D01*
X127808500Y-105917981D01*
X127808500Y-105712019D01*
X127794793Y-105625479D01*
X127776280Y-105508591D01*
X127712632Y-105312705D01*
X127678709Y-105246128D01*
X127619129Y-105129197D01*
X127571184Y-105063206D01*
X127498073Y-104962576D01*
X127498069Y-104962571D01*
X127352428Y-104816930D01*
X127352423Y-104816926D01*
X127185806Y-104695873D01*
X127185805Y-104695872D01*
X127185803Y-104695871D01*
X127121695Y-104663206D01*
X127002294Y-104602367D01*
X126806408Y-104538719D01*
X126630794Y-104510905D01*
X126602981Y-104506500D01*
X126397019Y-104506500D01*
X126372550Y-104510375D01*
X126193591Y-104538719D01*
X125997705Y-104602367D01*
X125814193Y-104695873D01*
X125647576Y-104816926D01*
X125647571Y-104816930D01*
X125501930Y-104962571D01*
X125501926Y-104962576D01*
X125380873Y-105129193D01*
X125287367Y-105312705D01*
X125223719Y-105508591D01*
X125191500Y-105712019D01*
X116467333Y-105712019D01*
X116511848Y-105641175D01*
X116629808Y-105453440D01*
X116776004Y-105149862D01*
X116887290Y-104831826D01*
X116887294Y-104831814D01*
X116962272Y-104503313D01*
X116962274Y-104503297D01*
X116999999Y-104168480D01*
X117000000Y-104168478D01*
X117000000Y-103831521D01*
X116999999Y-103831519D01*
X116962274Y-103496702D01*
X116962272Y-103496686D01*
X116887294Y-103168185D01*
X116887290Y-103168173D01*
X116776004Y-102850137D01*
X116629808Y-102546559D01*
X116450538Y-102261252D01*
X116291601Y-102061950D01*
X115043678Y-103309873D01*
X114953446Y-103185680D01*
X114814320Y-103046554D01*
X114690124Y-102956320D01*
X115938048Y-101708397D01*
X115738747Y-101549461D01*
X115453440Y-101370191D01*
X115149862Y-101223995D01*
X114831826Y-101112709D01*
X114831814Y-101112705D01*
X114503313Y-101037727D01*
X114503297Y-101037725D01*
X114168480Y-101000000D01*
X113831519Y-101000000D01*
X113496702Y-101037725D01*
X113496686Y-101037727D01*
X113168185Y-101112705D01*
X113168173Y-101112709D01*
X112850137Y-101223995D01*
X112546559Y-101370191D01*
X112261252Y-101549461D01*
X112061950Y-101708397D01*
X113309873Y-102956320D01*
X113185680Y-103046554D01*
X113046554Y-103185680D01*
X112956320Y-103309873D01*
X111708397Y-102061950D01*
X111549461Y-102261252D01*
X111370191Y-102546559D01*
X111235720Y-102825791D01*
X111188897Y-102877650D01*
X111121470Y-102895963D01*
X111054846Y-102874915D01*
X111010178Y-102821189D01*
X111000000Y-102771989D01*
X111000000Y-98397682D01*
X112700000Y-98397682D01*
X112700000Y-98602317D01*
X112732009Y-98804417D01*
X112795244Y-98999031D01*
X112888141Y-99181350D01*
X112888147Y-99181359D01*
X112920523Y-99225921D01*
X112920524Y-99225922D01*
X113600000Y-98546446D01*
X113600000Y-98552661D01*
X113627259Y-98654394D01*
X113679920Y-98745606D01*
X113754394Y-98820080D01*
X113845606Y-98872741D01*
X113947339Y-98900000D01*
X113953553Y-98900000D01*
X113274076Y-99579474D01*
X113318650Y-99611859D01*
X113500968Y-99704755D01*
X113695582Y-99767990D01*
X113897683Y-99800000D01*
X114102317Y-99800000D01*
X114304417Y-99767990D01*
X114499031Y-99704755D01*
X114681349Y-99611859D01*
X114715537Y-99587019D01*
X119691500Y-99587019D01*
X119691500Y-99792980D01*
X119723719Y-99996408D01*
X119787367Y-100192294D01*
X119880873Y-100375806D01*
X120001926Y-100542423D01*
X120001930Y-100542428D01*
X120147571Y-100688069D01*
X120147576Y-100688073D01*
X120292908Y-100793661D01*
X120314197Y-100809129D01*
X120428664Y-100867453D01*
X120497705Y-100902632D01*
X120497707Y-100902632D01*
X120497710Y-100902634D01*
X120602280Y-100936611D01*
X120693591Y-100966280D01*
X120795305Y-100982390D01*
X120897019Y-100998500D01*
X120897020Y-100998500D01*
X121102980Y-100998500D01*
X121102981Y-100998500D01*
X121306408Y-100966280D01*
X121502290Y-100902634D01*
X121685803Y-100809129D01*
X121852430Y-100688068D01*
X121908479Y-100632019D01*
X125191500Y-100632019D01*
X125191500Y-100837980D01*
X125223719Y-101041408D01*
X125287367Y-101237294D01*
X125322342Y-101305934D01*
X125368752Y-101397019D01*
X125380873Y-101420806D01*
X125501926Y-101587423D01*
X125501930Y-101587428D01*
X125647571Y-101733069D01*
X125647576Y-101733073D01*
X125748514Y-101806408D01*
X125814197Y-101854129D01*
X125931128Y-101913709D01*
X125997705Y-101947632D01*
X125997707Y-101947632D01*
X125997710Y-101947634D01*
X126102707Y-101981749D01*
X126193591Y-102011280D01*
X126263383Y-102022334D01*
X126397019Y-102043500D01*
X126397020Y-102043500D01*
X126602980Y-102043500D01*
X126602981Y-102043500D01*
X126806408Y-102011280D01*
X127002290Y-101947634D01*
X127185803Y-101854129D01*
X127305476Y-101767181D01*
X127371282Y-101743702D01*
X127378361Y-101743500D01*
X129265904Y-101743500D01*
X129332943Y-101763185D01*
X129353585Y-101779819D01*
X131178941Y-103605175D01*
X131212426Y-103666498D01*
X131214199Y-103709041D01*
X131191500Y-103881464D01*
X131191500Y-104118528D01*
X131191501Y-104118544D01*
X131222443Y-104353574D01*
X131283803Y-104582570D01*
X131374520Y-104801583D01*
X131374526Y-104801595D01*
X131493061Y-105006904D01*
X131493063Y-105006907D01*
X131493064Y-105006908D01*
X131637379Y-105194983D01*
X131637385Y-105194990D01*
X131805009Y-105362614D01*
X131805016Y-105362620D01*
X131868702Y-105411488D01*
X131993096Y-105506939D01*
X132198405Y-105625474D01*
X132198410Y-105625476D01*
X132198416Y-105625479D01*
X132292803Y-105664575D01*
X132417430Y-105716197D01*
X132646422Y-105777556D01*
X132881465Y-105808500D01*
X132881472Y-105808500D01*
X133118528Y-105808500D01*
X133118535Y-105808500D01*
X133353578Y-105777556D01*
X133582570Y-105716197D01*
X133801595Y-105625474D01*
X134006904Y-105506939D01*
X134194985Y-105362619D01*
X134362619Y-105194985D01*
X134506939Y-105006904D01*
X134625474Y-104801595D01*
X134716197Y-104582570D01*
X134777556Y-104353578D01*
X134808500Y-104118535D01*
X134808500Y-103881465D01*
X134777556Y-103646422D01*
X134716197Y-103417430D01*
X134662313Y-103287343D01*
X134625479Y-103198416D01*
X134625476Y-103198410D01*
X134625474Y-103198405D01*
X134506939Y-102993096D01*
X134416255Y-102874915D01*
X134362620Y-102805016D01*
X134362614Y-102805009D01*
X134194990Y-102637385D01*
X134194983Y-102637379D01*
X134006908Y-102493064D01*
X134006907Y-102493063D01*
X134006904Y-102493061D01*
X133801595Y-102374526D01*
X133801583Y-102374520D01*
X133582570Y-102283803D01*
X133353578Y-102222444D01*
X133353577Y-102222443D01*
X133353574Y-102222443D01*
X133118544Y-102191501D01*
X133118541Y-102191500D01*
X133118535Y-102191500D01*
X132881465Y-102191500D01*
X132881464Y-102191500D01*
X132709041Y-102214199D01*
X132640005Y-102203433D01*
X132605175Y-102178941D01*
X130377884Y-99951649D01*
X130377880Y-99951646D01*
X130212710Y-99841282D01*
X130212703Y-99841278D01*
X130194864Y-99833889D01*
X130177024Y-99826500D01*
X130029169Y-99765256D01*
X130029161Y-99765254D01*
X129834333Y-99726500D01*
X129834329Y-99726500D01*
X127378361Y-99726500D01*
X127311322Y-99706815D01*
X127305476Y-99702818D01*
X127185806Y-99615873D01*
X127185805Y-99615872D01*
X127185803Y-99615871D01*
X127114368Y-99579473D01*
X127002294Y-99522367D01*
X126806408Y-99458719D01*
X126630794Y-99430905D01*
X126602981Y-99426500D01*
X126397019Y-99426500D01*
X126372550Y-99430375D01*
X126193591Y-99458719D01*
X125997705Y-99522367D01*
X125814193Y-99615873D01*
X125647576Y-99736926D01*
X125647571Y-99736930D01*
X125501930Y-99882571D01*
X125501926Y-99882576D01*
X125380873Y-100049193D01*
X125287367Y-100232705D01*
X125223719Y-100428591D01*
X125191500Y-100632019D01*
X121908479Y-100632019D01*
X121998068Y-100542430D01*
X122119129Y-100375803D01*
X122212634Y-100192290D01*
X122276280Y-99996408D01*
X122308500Y-99792981D01*
X122308500Y-99587019D01*
X122276280Y-99383592D01*
X122212634Y-99187710D01*
X122212632Y-99187707D01*
X122212632Y-99187705D01*
X122178709Y-99121128D01*
X122119129Y-99004197D01*
X122043426Y-98900000D01*
X121998073Y-98837576D01*
X121998069Y-98837571D01*
X121852428Y-98691930D01*
X121852423Y-98691926D01*
X121685806Y-98570873D01*
X121685805Y-98570872D01*
X121685803Y-98570871D01*
X121628496Y-98541671D01*
X121502294Y-98477367D01*
X121306408Y-98413719D01*
X121130794Y-98385905D01*
X121102981Y-98381500D01*
X120897019Y-98381500D01*
X120872550Y-98385375D01*
X120693591Y-98413719D01*
X120497705Y-98477367D01*
X120314193Y-98570873D01*
X120147576Y-98691926D01*
X120147571Y-98691930D01*
X120001930Y-98837571D01*
X120001926Y-98837576D01*
X119880873Y-99004193D01*
X119787367Y-99187705D01*
X119723719Y-99383591D01*
X119691500Y-99587019D01*
X114715537Y-99587019D01*
X114725921Y-99579474D01*
X114725921Y-99579473D01*
X114046447Y-98900000D01*
X114052661Y-98900000D01*
X114154394Y-98872741D01*
X114245606Y-98820080D01*
X114320080Y-98745606D01*
X114372741Y-98654394D01*
X114400000Y-98552661D01*
X114400000Y-98546447D01*
X115079474Y-99225921D01*
X115111859Y-99181349D01*
X115204755Y-98999031D01*
X115267990Y-98804417D01*
X115300000Y-98602317D01*
X115300000Y-98397682D01*
X115267990Y-98195582D01*
X115204755Y-98000968D01*
X115111859Y-97818650D01*
X115079474Y-97774077D01*
X115079474Y-97774076D01*
X114400000Y-98453551D01*
X114400000Y-98447339D01*
X114372741Y-98345606D01*
X114320080Y-98254394D01*
X114245606Y-98179920D01*
X114154394Y-98127259D01*
X114052661Y-98100000D01*
X114046446Y-98100000D01*
X114725922Y-97420524D01*
X114725921Y-97420523D01*
X114681359Y-97388147D01*
X114681350Y-97388141D01*
X114499031Y-97295244D01*
X114304417Y-97232009D01*
X114102317Y-97200000D01*
X113897683Y-97200000D01*
X113695582Y-97232009D01*
X113500968Y-97295244D01*
X113318644Y-97388143D01*
X113274077Y-97420523D01*
X113274077Y-97420524D01*
X113953554Y-98100000D01*
X113947339Y-98100000D01*
X113845606Y-98127259D01*
X113754394Y-98179920D01*
X113679920Y-98254394D01*
X113627259Y-98345606D01*
X113600000Y-98447339D01*
X113600000Y-98453553D01*
X112920524Y-97774077D01*
X112920523Y-97774077D01*
X112888143Y-97818644D01*
X112795244Y-98000968D01*
X112732009Y-98195582D01*
X112700000Y-98397682D01*
X111000000Y-98397682D01*
X111000000Y-93397019D01*
X112691500Y-93397019D01*
X112691500Y-93602980D01*
X112723719Y-93806408D01*
X112787367Y-94002294D01*
X112880873Y-94185806D01*
X113001926Y-94352423D01*
X113001930Y-94352428D01*
X113147571Y-94498069D01*
X113147576Y-94498073D01*
X113292908Y-94603661D01*
X113314197Y-94619129D01*
X113431128Y-94678709D01*
X113497705Y-94712632D01*
X113497707Y-94712632D01*
X113497710Y-94712634D01*
X113602707Y-94746749D01*
X113693591Y-94776280D01*
X113795305Y-94792390D01*
X113897019Y-94808500D01*
X113897020Y-94808500D01*
X114102980Y-94808500D01*
X114102981Y-94808500D01*
X114306408Y-94776280D01*
X114502290Y-94712634D01*
X114685803Y-94619129D01*
X114852430Y-94498068D01*
X114998068Y-94352430D01*
X115119129Y-94185803D01*
X115212634Y-94002290D01*
X115276280Y-93806408D01*
X115308500Y-93602981D01*
X115308500Y-93397019D01*
X115281101Y-93224031D01*
X115276280Y-93193591D01*
X115212632Y-92997705D01*
X115159025Y-92892497D01*
X115119129Y-92814197D01*
X115103661Y-92792908D01*
X114998073Y-92647576D01*
X114998069Y-92647571D01*
X114852428Y-92501930D01*
X114852423Y-92501926D01*
X114685806Y-92380873D01*
X114685805Y-92380872D01*
X114685803Y-92380871D01*
X114628496Y-92351671D01*
X114502294Y-92287367D01*
X114306408Y-92223719D01*
X114130794Y-92195905D01*
X114102981Y-92191500D01*
X113897019Y-92191500D01*
X113872550Y-92195375D01*
X113693591Y-92223719D01*
X113497705Y-92287367D01*
X113314193Y-92380873D01*
X113147576Y-92501926D01*
X113147571Y-92501930D01*
X113001930Y-92647571D01*
X113001926Y-92647576D01*
X112880873Y-92814193D01*
X112787367Y-92997705D01*
X112723719Y-93193591D01*
X112691500Y-93397019D01*
X111000000Y-93397019D01*
X111000000Y-90215282D01*
X120700000Y-90215282D01*
X120700000Y-90419917D01*
X120732009Y-90622017D01*
X120795244Y-90816631D01*
X120888141Y-90998950D01*
X120888147Y-90998959D01*
X120920523Y-91043521D01*
X120920524Y-91043522D01*
X121600000Y-90364046D01*
X121600000Y-90370261D01*
X121627259Y-90471994D01*
X121679920Y-90563206D01*
X121754394Y-90637680D01*
X121845606Y-90690341D01*
X121947339Y-90717600D01*
X121953553Y-90717600D01*
X121274076Y-91397074D01*
X121318650Y-91429459D01*
X121500968Y-91522355D01*
X121695582Y-91585590D01*
X121897683Y-91617600D01*
X122102317Y-91617600D01*
X122304417Y-91585590D01*
X122499031Y-91522355D01*
X122681349Y-91429459D01*
X122725921Y-91397074D01*
X122046447Y-90717600D01*
X122052661Y-90717600D01*
X122154394Y-90690341D01*
X122245606Y-90637680D01*
X122320080Y-90563206D01*
X122372741Y-90471994D01*
X122400000Y-90370261D01*
X122400000Y-90364047D01*
X123079474Y-91043521D01*
X123111861Y-90998947D01*
X123111861Y-90998946D01*
X123123595Y-90975919D01*
X123123595Y-90975918D01*
X123204754Y-90816634D01*
X123267990Y-90622017D01*
X123300000Y-90419917D01*
X123300000Y-90215282D01*
X123267989Y-90013181D01*
X123267989Y-90013178D01*
X123241331Y-89931134D01*
X123230461Y-89897682D01*
X146200000Y-89897682D01*
X146200000Y-90102317D01*
X146232009Y-90304417D01*
X146295244Y-90499031D01*
X146388141Y-90681350D01*
X146388147Y-90681359D01*
X146420523Y-90725921D01*
X146420524Y-90725922D01*
X147100000Y-90046446D01*
X147100000Y-90052661D01*
X147127259Y-90154394D01*
X147179920Y-90245606D01*
X147254394Y-90320080D01*
X147345606Y-90372741D01*
X147447339Y-90400000D01*
X147453553Y-90400000D01*
X146774076Y-91079474D01*
X146818650Y-91111859D01*
X147000968Y-91204755D01*
X147195582Y-91267990D01*
X147397683Y-91300000D01*
X147602317Y-91300000D01*
X147804417Y-91267990D01*
X147999031Y-91204755D01*
X148181349Y-91111859D01*
X148225921Y-91079474D01*
X147546447Y-90400000D01*
X147552661Y-90400000D01*
X147654394Y-90372741D01*
X147745606Y-90320080D01*
X147820080Y-90245606D01*
X147872741Y-90154394D01*
X147900000Y-90052661D01*
X147900000Y-90046447D01*
X148579474Y-90725921D01*
X148611859Y-90681349D01*
X148704755Y-90499031D01*
X148767990Y-90304417D01*
X148800000Y-90102317D01*
X148800000Y-89897682D01*
X148767990Y-89695582D01*
X148704755Y-89500968D01*
X148611859Y-89318650D01*
X148579474Y-89274077D01*
X148579474Y-89274076D01*
X147900000Y-89953551D01*
X147900000Y-89947339D01*
X147872741Y-89845606D01*
X147820080Y-89754394D01*
X147745606Y-89679920D01*
X147654394Y-89627259D01*
X147552661Y-89600000D01*
X147546446Y-89600000D01*
X148225922Y-88920524D01*
X148225921Y-88920523D01*
X148194483Y-88897682D01*
X153200000Y-88897682D01*
X153200000Y-89102317D01*
X153232009Y-89304417D01*
X153295244Y-89499031D01*
X153388141Y-89681350D01*
X153388147Y-89681359D01*
X153420523Y-89725921D01*
X153420524Y-89725922D01*
X154100000Y-89046446D01*
X154100000Y-89052661D01*
X154127259Y-89154394D01*
X154179920Y-89245606D01*
X154254394Y-89320080D01*
X154345606Y-89372741D01*
X154447339Y-89400000D01*
X154453553Y-89400000D01*
X153774076Y-90079474D01*
X153818650Y-90111859D01*
X154000968Y-90204755D01*
X154195582Y-90267990D01*
X154397683Y-90300000D01*
X154602317Y-90300000D01*
X154804417Y-90267990D01*
X154999031Y-90204755D01*
X155181349Y-90111859D01*
X155225921Y-90079474D01*
X154546447Y-89400000D01*
X154552661Y-89400000D01*
X154654394Y-89372741D01*
X154745606Y-89320080D01*
X154820080Y-89245606D01*
X154872741Y-89154394D01*
X154900000Y-89052661D01*
X154900000Y-89046448D01*
X155579474Y-89725922D01*
X155579474Y-89725921D01*
X155611859Y-89681349D01*
X155704755Y-89499031D01*
X155767990Y-89304417D01*
X155800000Y-89102317D01*
X155800000Y-88897682D01*
X155767990Y-88695582D01*
X155704755Y-88500968D01*
X155611859Y-88318650D01*
X155579474Y-88274077D01*
X155579474Y-88274076D01*
X154900000Y-88953551D01*
X154900000Y-88947339D01*
X154872741Y-88845606D01*
X154820080Y-88754394D01*
X154745606Y-88679920D01*
X154654394Y-88627259D01*
X154552661Y-88600000D01*
X154546446Y-88600000D01*
X155225922Y-87920524D01*
X155225921Y-87920523D01*
X155181359Y-87888147D01*
X155181350Y-87888141D01*
X154999031Y-87795244D01*
X154804417Y-87732009D01*
X154602317Y-87700000D01*
X154397683Y-87700000D01*
X154195582Y-87732009D01*
X154000968Y-87795244D01*
X153818644Y-87888143D01*
X153774077Y-87920523D01*
X153774077Y-87920524D01*
X154453554Y-88600000D01*
X154447339Y-88600000D01*
X154345606Y-88627259D01*
X154254394Y-88679920D01*
X154179920Y-88754394D01*
X154127259Y-88845606D01*
X154100000Y-88947339D01*
X154100000Y-88953553D01*
X153420524Y-88274077D01*
X153420523Y-88274077D01*
X153388143Y-88318644D01*
X153295244Y-88500968D01*
X153232009Y-88695582D01*
X153200000Y-88897682D01*
X148194483Y-88897682D01*
X148181359Y-88888147D01*
X148181350Y-88888141D01*
X147999031Y-88795244D01*
X147804417Y-88732009D01*
X147602317Y-88700000D01*
X147397683Y-88700000D01*
X147195582Y-88732009D01*
X147000968Y-88795244D01*
X146818644Y-88888143D01*
X146774077Y-88920523D01*
X146774077Y-88920524D01*
X147453554Y-89600000D01*
X147447339Y-89600000D01*
X147345606Y-89627259D01*
X147254394Y-89679920D01*
X147179920Y-89754394D01*
X147127259Y-89845606D01*
X147100000Y-89947339D01*
X147100000Y-89953553D01*
X146420524Y-89274077D01*
X146420523Y-89274077D01*
X146388143Y-89318644D01*
X146295244Y-89500968D01*
X146232009Y-89695582D01*
X146200000Y-89897682D01*
X123230461Y-89897682D01*
X123204755Y-89818568D01*
X123111859Y-89636250D01*
X123079474Y-89591677D01*
X123079474Y-89591676D01*
X122400000Y-90271151D01*
X122400000Y-90264939D01*
X122372741Y-90163206D01*
X122320080Y-90071994D01*
X122245606Y-89997520D01*
X122154394Y-89944859D01*
X122052661Y-89917600D01*
X122046446Y-89917600D01*
X122725922Y-89238124D01*
X122725921Y-89238123D01*
X122681359Y-89205747D01*
X122681350Y-89205741D01*
X122499031Y-89112844D01*
X122415532Y-89085714D01*
X122304417Y-89049609D01*
X122102317Y-89017600D01*
X121897683Y-89017600D01*
X121695582Y-89049609D01*
X121500968Y-89112844D01*
X121318644Y-89205743D01*
X121274077Y-89238123D01*
X121274077Y-89238124D01*
X121953554Y-89917600D01*
X121947339Y-89917600D01*
X121845606Y-89944859D01*
X121754394Y-89997520D01*
X121679920Y-90071994D01*
X121627259Y-90163206D01*
X121600000Y-90264939D01*
X121600000Y-90271153D01*
X120920524Y-89591677D01*
X120920523Y-89591677D01*
X120888143Y-89636244D01*
X120795244Y-89818568D01*
X120732009Y-90013182D01*
X120700000Y-90215282D01*
X111000000Y-90215282D01*
X111000000Y-88247600D01*
X111019685Y-88180561D01*
X111072489Y-88134806D01*
X111141647Y-88124862D01*
X111205203Y-88153887D01*
X111235720Y-88193798D01*
X111362740Y-88457558D01*
X111362742Y-88457561D01*
X111542519Y-88743675D01*
X111753201Y-89007862D01*
X111992138Y-89246799D01*
X112256325Y-89457481D01*
X112542439Y-89637258D01*
X112846883Y-89783871D01*
X112846889Y-89783873D01*
X113165816Y-89895471D01*
X113165828Y-89895475D01*
X113495264Y-89970666D01*
X113831042Y-90008499D01*
X113831043Y-90008500D01*
X113831046Y-90008500D01*
X114168957Y-90008500D01*
X114168957Y-90008499D01*
X114504736Y-89970666D01*
X114834172Y-89895475D01*
X115153117Y-89783871D01*
X115457561Y-89637258D01*
X115743675Y-89457481D01*
X116007862Y-89246799D01*
X116246799Y-89007862D01*
X116457481Y-88743675D01*
X116637258Y-88457561D01*
X116783871Y-88153117D01*
X116805416Y-88091543D01*
X116846137Y-88034769D01*
X116911090Y-88009022D01*
X116922457Y-88008500D01*
X120416930Y-88008500D01*
X120416931Y-88008499D01*
X120611769Y-87969744D01*
X120795304Y-87893721D01*
X120960481Y-87783353D01*
X121100953Y-87642881D01*
X121912319Y-86831515D01*
X121973642Y-86798030D01*
X122043334Y-86803014D01*
X122087681Y-86831515D01*
X122399047Y-87142881D01*
X122539519Y-87283353D01*
X122539520Y-87283354D01*
X122704689Y-87393717D01*
X122704695Y-87393720D01*
X122704696Y-87393721D01*
X122888231Y-87469744D01*
X123083066Y-87508499D01*
X123083070Y-87508500D01*
X123083071Y-87508500D01*
X130933136Y-87508500D01*
X131000175Y-87528185D01*
X131031512Y-87557014D01*
X131137379Y-87694983D01*
X131137385Y-87694990D01*
X131305009Y-87862614D01*
X131305016Y-87862620D01*
X131345548Y-87893721D01*
X131493096Y-88006939D01*
X131698405Y-88125474D01*
X131698410Y-88125476D01*
X131698416Y-88125479D01*
X131720934Y-88134806D01*
X131917430Y-88216197D01*
X132146422Y-88277556D01*
X132381465Y-88308500D01*
X132381472Y-88308500D01*
X132618528Y-88308500D01*
X132618535Y-88308500D01*
X132853578Y-88277556D01*
X133082570Y-88216197D01*
X133301595Y-88125474D01*
X133506904Y-88006939D01*
X133694985Y-87862619D01*
X133862619Y-87694985D01*
X134006939Y-87506904D01*
X134125474Y-87301595D01*
X134216197Y-87082570D01*
X134277556Y-86853578D01*
X134308500Y-86618535D01*
X134308500Y-86381471D01*
X135691500Y-86381471D01*
X135691500Y-86618528D01*
X135691501Y-86618544D01*
X135722443Y-86853574D01*
X135783803Y-87082570D01*
X135874520Y-87301583D01*
X135874526Y-87301595D01*
X135993061Y-87506904D01*
X135993063Y-87506907D01*
X135993064Y-87506908D01*
X136137379Y-87694983D01*
X136137385Y-87694990D01*
X136305009Y-87862614D01*
X136305016Y-87862620D01*
X136345548Y-87893721D01*
X136493096Y-88006939D01*
X136698405Y-88125474D01*
X136698410Y-88125476D01*
X136698416Y-88125479D01*
X136720934Y-88134806D01*
X136917430Y-88216197D01*
X137146422Y-88277556D01*
X137381465Y-88308500D01*
X137381472Y-88308500D01*
X137618528Y-88308500D01*
X137618535Y-88308500D01*
X137853578Y-88277556D01*
X138082570Y-88216197D01*
X138301595Y-88125474D01*
X138506904Y-88006939D01*
X138694985Y-87862619D01*
X138862619Y-87694985D01*
X138968488Y-87557014D01*
X139024916Y-87515811D01*
X139066864Y-87508500D01*
X146099330Y-87508500D01*
X146099331Y-87508499D01*
X146294169Y-87469744D01*
X146477704Y-87393721D01*
X146642881Y-87283353D01*
X146783353Y-87142881D01*
X147581415Y-86344817D01*
X147642738Y-86311333D01*
X147669096Y-86308499D01*
X148100537Y-86308499D01*
X148100544Y-86308499D01*
X148204426Y-86297887D01*
X148372738Y-86242115D01*
X148523652Y-86149030D01*
X148649030Y-86023652D01*
X148742115Y-85872738D01*
X148797887Y-85704426D01*
X148808500Y-85600545D01*
X148808499Y-85169095D01*
X148828183Y-85102057D01*
X148844816Y-85081417D01*
X148881416Y-85044817D01*
X148942740Y-85011333D01*
X148969096Y-85008500D01*
X153621639Y-85008500D01*
X153688678Y-85028185D01*
X153694519Y-85032179D01*
X153814197Y-85119129D01*
X153923577Y-85174861D01*
X153997705Y-85212632D01*
X153997707Y-85212632D01*
X153997710Y-85212634D01*
X154102707Y-85246749D01*
X154193591Y-85276280D01*
X154295305Y-85292390D01*
X154397019Y-85308500D01*
X154397020Y-85308500D01*
X154602980Y-85308500D01*
X154602981Y-85308500D01*
X154806408Y-85276280D01*
X155002290Y-85212634D01*
X155185803Y-85119129D01*
X155352430Y-84998068D01*
X155498068Y-84852430D01*
X155619129Y-84685803D01*
X155712634Y-84502290D01*
X155776280Y-84306408D01*
X155808500Y-84102981D01*
X155808500Y-83897019D01*
X155801207Y-83850971D01*
X155776280Y-83693591D01*
X155712632Y-83497705D01*
X155678709Y-83431128D01*
X155619129Y-83314197D01*
X155548256Y-83216648D01*
X155498073Y-83147576D01*
X155498069Y-83147571D01*
X155352428Y-83001930D01*
X155352423Y-83001926D01*
X155185806Y-82880873D01*
X155185805Y-82880872D01*
X155185803Y-82880871D01*
X155128496Y-82851671D01*
X155002294Y-82787367D01*
X154806408Y-82723719D01*
X154630794Y-82695905D01*
X154602981Y-82691500D01*
X154397019Y-82691500D01*
X154372550Y-82695375D01*
X154193591Y-82723719D01*
X153997705Y-82787367D01*
X153814193Y-82880873D01*
X153694524Y-82967818D01*
X153628718Y-82991298D01*
X153621639Y-82991500D01*
X148400666Y-82991500D01*
X148205838Y-83030253D01*
X148205838Y-83030254D01*
X148205835Y-83030255D01*
X148205831Y-83030256D01*
X148129809Y-83061745D01*
X148129807Y-83061745D01*
X148022294Y-83106278D01*
X147857123Y-83216642D01*
X147857115Y-83216648D01*
X147418582Y-83655181D01*
X147357259Y-83688666D01*
X147330901Y-83691500D01*
X146899462Y-83691500D01*
X146899446Y-83691501D01*
X146795572Y-83702113D01*
X146627264Y-83757884D01*
X146627259Y-83757886D01*
X146476346Y-83850971D01*
X146350971Y-83976346D01*
X146257886Y-84127259D01*
X146257884Y-84127264D01*
X146202113Y-84295572D01*
X146191500Y-84399447D01*
X146191500Y-84830903D01*
X146171815Y-84897942D01*
X146155181Y-84918584D01*
X145618585Y-85455181D01*
X145557262Y-85488666D01*
X145530904Y-85491500D01*
X139066864Y-85491500D01*
X138999825Y-85471815D01*
X138968488Y-85442986D01*
X138862620Y-85305016D01*
X138862614Y-85305009D01*
X138694990Y-85137385D01*
X138694983Y-85137379D01*
X138506908Y-84993064D01*
X138506907Y-84993063D01*
X138506904Y-84993061D01*
X138339170Y-84896220D01*
X138301597Y-84874527D01*
X138301583Y-84874520D01*
X138082570Y-84783803D01*
X137853574Y-84722443D01*
X137618544Y-84691501D01*
X137618541Y-84691500D01*
X137618535Y-84691500D01*
X137381465Y-84691500D01*
X137381459Y-84691500D01*
X137381455Y-84691501D01*
X137146425Y-84722443D01*
X136917429Y-84783803D01*
X136698416Y-84874520D01*
X136698402Y-84874527D01*
X136493091Y-84993064D01*
X136305016Y-85137379D01*
X136305009Y-85137385D01*
X136137385Y-85305009D01*
X136137379Y-85305016D01*
X135993064Y-85493091D01*
X135874527Y-85698402D01*
X135874520Y-85698416D01*
X135783803Y-85917429D01*
X135722443Y-86146425D01*
X135691501Y-86381455D01*
X135691500Y-86381471D01*
X134308500Y-86381471D01*
X134308500Y-86381465D01*
X134277556Y-86146422D01*
X134216197Y-85917430D01*
X134147839Y-85752399D01*
X134125479Y-85698416D01*
X134125476Y-85698410D01*
X134125474Y-85698405D01*
X134006939Y-85493096D01*
X133862619Y-85305015D01*
X133862614Y-85305009D01*
X133694990Y-85137385D01*
X133694983Y-85137379D01*
X133506908Y-84993064D01*
X133506907Y-84993063D01*
X133506904Y-84993061D01*
X133339170Y-84896220D01*
X133301597Y-84874527D01*
X133301583Y-84874520D01*
X133082570Y-84783803D01*
X132853574Y-84722443D01*
X132618544Y-84691501D01*
X132618541Y-84691500D01*
X132618535Y-84691500D01*
X132381465Y-84691500D01*
X132381459Y-84691500D01*
X132381455Y-84691501D01*
X132146425Y-84722443D01*
X131917429Y-84783803D01*
X131698416Y-84874520D01*
X131698402Y-84874527D01*
X131493091Y-84993064D01*
X131305016Y-85137379D01*
X131305009Y-85137385D01*
X131137385Y-85305009D01*
X131137379Y-85305016D01*
X131031512Y-85442986D01*
X130975084Y-85484189D01*
X130933136Y-85491500D01*
X123651496Y-85491500D01*
X123584457Y-85471815D01*
X123563815Y-85455181D01*
X123344818Y-85236184D01*
X123311333Y-85174861D01*
X123308499Y-85148503D01*
X123308499Y-84717062D01*
X123308498Y-84717046D01*
X123305888Y-84691500D01*
X123297887Y-84613174D01*
X123242115Y-84444862D01*
X123149030Y-84293948D01*
X123023652Y-84168570D01*
X122919819Y-84104525D01*
X122872740Y-84075486D01*
X122872735Y-84075484D01*
X122704427Y-84019713D01*
X122600545Y-84009100D01*
X121399462Y-84009100D01*
X121399446Y-84009101D01*
X121295572Y-84019713D01*
X121127264Y-84075484D01*
X121127259Y-84075486D01*
X120976346Y-84168571D01*
X120850971Y-84293946D01*
X120757886Y-84444859D01*
X120757884Y-84444864D01*
X120702113Y-84613172D01*
X120691500Y-84717047D01*
X120691500Y-85148503D01*
X120671815Y-85215542D01*
X120655181Y-85236184D01*
X119936185Y-85955181D01*
X119874862Y-85988666D01*
X119848504Y-85991500D01*
X116922457Y-85991500D01*
X116855418Y-85971815D01*
X116809663Y-85919011D01*
X116805420Y-85908468D01*
X116783871Y-85846883D01*
X116637258Y-85542439D01*
X116457481Y-85256325D01*
X116246799Y-84992138D01*
X116007862Y-84753201D01*
X115743675Y-84542519D01*
X115457561Y-84362742D01*
X115457558Y-84362740D01*
X115153124Y-84216132D01*
X115153110Y-84216126D01*
X114834183Y-84104528D01*
X114834171Y-84104524D01*
X114504739Y-84029334D01*
X114504723Y-84029332D01*
X114168958Y-83991500D01*
X114168954Y-83991500D01*
X113831046Y-83991500D01*
X113831041Y-83991500D01*
X113495276Y-84029332D01*
X113495260Y-84029334D01*
X113165828Y-84104524D01*
X113165816Y-84104528D01*
X112846889Y-84216126D01*
X112846875Y-84216132D01*
X112542441Y-84362740D01*
X112256326Y-84542518D01*
X111992138Y-84753200D01*
X111753200Y-84992138D01*
X111542518Y-85256326D01*
X111362740Y-85542441D01*
X111235720Y-85806201D01*
X111188897Y-85858060D01*
X111121470Y-85876373D01*
X111054846Y-85855325D01*
X111010178Y-85801599D01*
X111000000Y-85752399D01*
X111000000Y-79125102D01*
X111019685Y-79058063D01*
X111072489Y-79012308D01*
X111125096Y-79001107D01*
X167377098Y-79498912D01*
G37*
G04 #@! TD.AperFunction*
M02*
