%TF.GenerationSoftware,KiCad,Pcbnew,10.0.6*%
%TF.CreationDate,2026-10-08T06:54:14+09:00*%
%TF.ProjectId,audio-ptt-control,61756469-6f2d-4707-9474-2d636f6e7472,rev?*%
%TF.SameCoordinates,Original*%
%TF.FileFunction,Drillmap*%
%TF.FilePolarity,Positive*%
%FSLAX45Y45*%
G04 Gerber Fmt 4.5, Leading zero omitted, Abs format (unit mm)*
G04 Created by KiCad (PCBNEW 10.0.6) date 2026-10-08 06:54:14*
%MOMM*%
%LPD*%
G01*
G04 APERTURE LIST*
%ADD10C,0.100000*%
%ADD11C,0.200000*%
%ADD12C,0.119000*%
%ADD13C,0.130000*%
%ADD14C,0.250000*%
G04 APERTURE END LIST*
D10*
X11075000Y-7900000D02*
X16800000Y-7900000D01*
X11075000Y-12800000D02*
X11075000Y-7900000D01*
X16800000Y-7900000D02*
X16800000Y-12800000D01*
X16800000Y-12800000D02*
X11075000Y-12800000D01*
D11*
D10*
X11360000Y-9310000D02*
X11440000Y-9390000D01*
X11440000Y-9310000D02*
X11360000Y-9390000D01*
X11360000Y-9810000D02*
X11440000Y-9890000D01*
X11440000Y-9810000D02*
X11360000Y-9890000D01*
X12060000Y-9929000D02*
X12140000Y-10009000D01*
X12140000Y-9929000D02*
X12060000Y-10009000D01*
X12060000Y-10691000D02*
X12140000Y-10771000D01*
X12140000Y-10691000D02*
X12060000Y-10771000D01*
X12160000Y-8491760D02*
X12240000Y-8571760D01*
X12240000Y-8491760D02*
X12160000Y-8571760D01*
X12160000Y-8991760D02*
X12240000Y-9071760D01*
X12240000Y-8991760D02*
X12160000Y-9071760D01*
X12610000Y-10033500D02*
X12690000Y-10113500D01*
X12690000Y-10033500D02*
X12610000Y-10113500D01*
X12610000Y-10541500D02*
X12690000Y-10621500D01*
X12690000Y-10541500D02*
X12610000Y-10621500D01*
X12879000Y-11578500D02*
X12959000Y-11658500D01*
X12959000Y-11578500D02*
X12879000Y-11658500D01*
X12879000Y-12340500D02*
X12959000Y-12420500D01*
X12959000Y-12340500D02*
X12879000Y-12420500D01*
X13133000Y-11578500D02*
X13213000Y-11658500D01*
X13213000Y-11578500D02*
X13133000Y-11658500D01*
X13133000Y-12340500D02*
X13213000Y-12420500D01*
X13213000Y-12340500D02*
X13133000Y-12420500D01*
X13387000Y-11578500D02*
X13467000Y-11658500D01*
X13467000Y-11578500D02*
X13387000Y-11658500D01*
X13387000Y-12340500D02*
X13467000Y-12420500D01*
X13467000Y-12340500D02*
X13387000Y-12420500D01*
X13641000Y-11578500D02*
X13721000Y-11658500D01*
X13721000Y-11578500D02*
X13641000Y-11658500D01*
X13641000Y-12340500D02*
X13721000Y-12420500D01*
X13721000Y-12340500D02*
X13641000Y-12420500D01*
X14210000Y-11710000D02*
X14290000Y-11790000D01*
X14290000Y-11710000D02*
X14210000Y-11790000D01*
X14210000Y-12218000D02*
X14290000Y-12298000D01*
X14290000Y-12218000D02*
X14210000Y-12298000D01*
X14660000Y-10191760D02*
X14740000Y-10271760D01*
X14740000Y-10191760D02*
X14660000Y-10271760D01*
X14660000Y-10441760D02*
X14740000Y-10521760D01*
X14740000Y-10441760D02*
X14660000Y-10521760D01*
X14710000Y-8460000D02*
X14790000Y-8540000D01*
X14790000Y-8460000D02*
X14710000Y-8540000D01*
X14710000Y-8960000D02*
X14790000Y-9040000D01*
X14790000Y-8960000D02*
X14710000Y-9040000D01*
X14710000Y-11660000D02*
X14790000Y-11740000D01*
X14790000Y-11660000D02*
X14710000Y-11740000D01*
X14710000Y-12168000D02*
X14790000Y-12248000D01*
X14790000Y-12168000D02*
X14710000Y-12248000D01*
X15410000Y-8360000D02*
X15490000Y-8440000D01*
X15490000Y-8360000D02*
X15410000Y-8440000D01*
X15410000Y-8860000D02*
X15490000Y-8940000D01*
X15490000Y-8860000D02*
X15410000Y-8940000D01*
X15460000Y-10110000D02*
X15540000Y-10190000D01*
X15540000Y-10110000D02*
X15460000Y-10190000D01*
X15460000Y-10610000D02*
X15540000Y-10690000D01*
X15540000Y-10610000D02*
X15460000Y-10690000D01*
D12*
X11457500Y-11422500D02*
G75*
G02*
X11338500Y-11422500I-59500J0D01*
G01*
X11338500Y-11422500D02*
G75*
G02*
X11457500Y-11422500I59500J0D01*
G01*
X11457500Y-11676500D02*
G75*
G02*
X11338500Y-11676500I-59500J0D01*
G01*
X11338500Y-11676500D02*
G75*
G02*
X11457500Y-11676500I59500J0D01*
G01*
X16509500Y-9200000D02*
G75*
G02*
X16390500Y-9200000I-59500J0D01*
G01*
X16390500Y-9200000D02*
G75*
G02*
X16509500Y-9200000I59500J0D01*
G01*
X16509500Y-9454000D02*
G75*
G02*
X16390500Y-9454000I-59500J0D01*
G01*
X16390500Y-9454000D02*
G75*
G02*
X16509500Y-9454000I59500J0D01*
G01*
X16509500Y-11700000D02*
G75*
G02*
X16390500Y-11700000I-59500J0D01*
G01*
X16390500Y-11700000D02*
G75*
G02*
X16509500Y-11700000I59500J0D01*
G01*
X16509500Y-11954000D02*
G75*
G02*
X16390500Y-11954000I-59500J0D01*
G01*
X16390500Y-11954000D02*
G75*
G02*
X16509500Y-11954000I59500J0D01*
G01*
X16509500Y-12208000D02*
G75*
G02*
X16390500Y-12208000I-59500J0D01*
G01*
X16390500Y-12208000D02*
G75*
G02*
X16509500Y-12208000I59500J0D01*
G01*
X16509500Y-12462000D02*
G75*
G02*
X16390500Y-12462000I-59500J0D01*
G01*
X16390500Y-12462000D02*
G75*
G02*
X16509500Y-12462000I59500J0D01*
G01*
X16511500Y-10846000D02*
G75*
G02*
X16392500Y-10846000I-59500J0D01*
G01*
X16392500Y-10846000D02*
G75*
G02*
X16511500Y-10846000I59500J0D01*
G01*
X16511500Y-11100000D02*
G75*
G02*
X16392500Y-11100000I-59500J0D01*
G01*
X16392500Y-11100000D02*
G75*
G02*
X16511500Y-11100000I59500J0D01*
G01*
D13*
X13250000Y-8585000D02*
X13250000Y-8715000D01*
X13185000Y-8650000D02*
X13315000Y-8650000D01*
X13300000Y-10335000D02*
X13300000Y-10465000D01*
X13235000Y-10400000D02*
X13365000Y-10400000D01*
X13750000Y-8585000D02*
X13750000Y-8715000D01*
X13685000Y-8650000D02*
X13815000Y-8650000D01*
X13800000Y-10335000D02*
X13800000Y-10465000D01*
X13735000Y-10400000D02*
X13865000Y-10400000D01*
D14*
X11488389Y-8788389D02*
X11488389Y-8611611D01*
X11311611Y-8611611D01*
X11311611Y-8788389D01*
X11488389Y-8788389D01*
X11488389Y-10488389D02*
X11488389Y-10311611D01*
X11311611Y-10311611D01*
X11311611Y-10488389D01*
X11488389Y-10488389D01*
D11*
X11330777Y-13116484D02*
X11330777Y-12916484D01*
X11330777Y-12916484D02*
X11378396Y-12916484D01*
X11378396Y-12916484D02*
X11406967Y-12926008D01*
X11406967Y-12926008D02*
X11426015Y-12945055D01*
X11426015Y-12945055D02*
X11435539Y-12964103D01*
X11435539Y-12964103D02*
X11445062Y-13002198D01*
X11445062Y-13002198D02*
X11445062Y-13030769D01*
X11445062Y-13030769D02*
X11435539Y-13068865D01*
X11435539Y-13068865D02*
X11426015Y-13087912D01*
X11426015Y-13087912D02*
X11406967Y-13106960D01*
X11406967Y-13106960D02*
X11378396Y-13116484D01*
X11378396Y-13116484D02*
X11330777Y-13116484D01*
X11530777Y-13116484D02*
X11530777Y-12983150D01*
X11530777Y-13021246D02*
X11540301Y-13002198D01*
X11540301Y-13002198D02*
X11549824Y-12992674D01*
X11549824Y-12992674D02*
X11568872Y-12983150D01*
X11568872Y-12983150D02*
X11587920Y-12983150D01*
X11654586Y-13116484D02*
X11654586Y-12983150D01*
X11654586Y-12916484D02*
X11645062Y-12926008D01*
X11645062Y-12926008D02*
X11654586Y-12935531D01*
X11654586Y-12935531D02*
X11664110Y-12926008D01*
X11664110Y-12926008D02*
X11654586Y-12916484D01*
X11654586Y-12916484D02*
X11654586Y-12935531D01*
X11778396Y-13116484D02*
X11759348Y-13106960D01*
X11759348Y-13106960D02*
X11749824Y-13087912D01*
X11749824Y-13087912D02*
X11749824Y-12916484D01*
X11883158Y-13116484D02*
X11864110Y-13106960D01*
X11864110Y-13106960D02*
X11854586Y-13087912D01*
X11854586Y-13087912D02*
X11854586Y-12916484D01*
X12111729Y-13116484D02*
X12111729Y-12916484D01*
X12111729Y-12916484D02*
X12178396Y-13059341D01*
X12178396Y-13059341D02*
X12245062Y-12916484D01*
X12245062Y-12916484D02*
X12245062Y-13116484D01*
X12426015Y-13116484D02*
X12426015Y-13011722D01*
X12426015Y-13011722D02*
X12416491Y-12992674D01*
X12416491Y-12992674D02*
X12397443Y-12983150D01*
X12397443Y-12983150D02*
X12359348Y-12983150D01*
X12359348Y-12983150D02*
X12340301Y-12992674D01*
X12426015Y-13106960D02*
X12406967Y-13116484D01*
X12406967Y-13116484D02*
X12359348Y-13116484D01*
X12359348Y-13116484D02*
X12340301Y-13106960D01*
X12340301Y-13106960D02*
X12330777Y-13087912D01*
X12330777Y-13087912D02*
X12330777Y-13068865D01*
X12330777Y-13068865D02*
X12340301Y-13049817D01*
X12340301Y-13049817D02*
X12359348Y-13040293D01*
X12359348Y-13040293D02*
X12406967Y-13040293D01*
X12406967Y-13040293D02*
X12426015Y-13030769D01*
X12521253Y-12983150D02*
X12521253Y-13183150D01*
X12521253Y-12992674D02*
X12540301Y-12983150D01*
X12540301Y-12983150D02*
X12578396Y-12983150D01*
X12578396Y-12983150D02*
X12597443Y-12992674D01*
X12597443Y-12992674D02*
X12606967Y-13002198D01*
X12606967Y-13002198D02*
X12616491Y-13021246D01*
X12616491Y-13021246D02*
X12616491Y-13078388D01*
X12616491Y-13078388D02*
X12606967Y-13097436D01*
X12606967Y-13097436D02*
X12597443Y-13106960D01*
X12597443Y-13106960D02*
X12578396Y-13116484D01*
X12578396Y-13116484D02*
X12540301Y-13116484D01*
X12540301Y-13116484D02*
X12521253Y-13106960D01*
X12702205Y-13097436D02*
X12711729Y-13106960D01*
X12711729Y-13106960D02*
X12702205Y-13116484D01*
X12702205Y-13116484D02*
X12692682Y-13106960D01*
X12692682Y-13106960D02*
X12702205Y-13097436D01*
X12702205Y-13097436D02*
X12702205Y-13116484D01*
X12702205Y-12992674D02*
X12711729Y-13002198D01*
X12711729Y-13002198D02*
X12702205Y-13011722D01*
X12702205Y-13011722D02*
X12692682Y-13002198D01*
X12692682Y-13002198D02*
X12702205Y-12992674D01*
X12702205Y-12992674D02*
X12702205Y-13011722D01*
D10*
X10990000Y-13405000D02*
X11070000Y-13485000D01*
X11070000Y-13405000D02*
X10990000Y-13485000D01*
D11*
X11368872Y-13336484D02*
X11387920Y-13336484D01*
X11387920Y-13336484D02*
X11406967Y-13346008D01*
X11406967Y-13346008D02*
X11416491Y-13355531D01*
X11416491Y-13355531D02*
X11426015Y-13374579D01*
X11426015Y-13374579D02*
X11435539Y-13412674D01*
X11435539Y-13412674D02*
X11435539Y-13460293D01*
X11435539Y-13460293D02*
X11426015Y-13498388D01*
X11426015Y-13498388D02*
X11416491Y-13517436D01*
X11416491Y-13517436D02*
X11406967Y-13526960D01*
X11406967Y-13526960D02*
X11387920Y-13536484D01*
X11387920Y-13536484D02*
X11368872Y-13536484D01*
X11368872Y-13536484D02*
X11349824Y-13526960D01*
X11349824Y-13526960D02*
X11340301Y-13517436D01*
X11340301Y-13517436D02*
X11330777Y-13498388D01*
X11330777Y-13498388D02*
X11321253Y-13460293D01*
X11321253Y-13460293D02*
X11321253Y-13412674D01*
X11321253Y-13412674D02*
X11330777Y-13374579D01*
X11330777Y-13374579D02*
X11340301Y-13355531D01*
X11340301Y-13355531D02*
X11349824Y-13346008D01*
X11349824Y-13346008D02*
X11368872Y-13336484D01*
X11521253Y-13517436D02*
X11530777Y-13526960D01*
X11530777Y-13526960D02*
X11521253Y-13536484D01*
X11521253Y-13536484D02*
X11511729Y-13526960D01*
X11511729Y-13526960D02*
X11521253Y-13517436D01*
X11521253Y-13517436D02*
X11521253Y-13536484D01*
X11645062Y-13422198D02*
X11626015Y-13412674D01*
X11626015Y-13412674D02*
X11616491Y-13403150D01*
X11616491Y-13403150D02*
X11606967Y-13384103D01*
X11606967Y-13384103D02*
X11606967Y-13374579D01*
X11606967Y-13374579D02*
X11616491Y-13355531D01*
X11616491Y-13355531D02*
X11626015Y-13346008D01*
X11626015Y-13346008D02*
X11645062Y-13336484D01*
X11645062Y-13336484D02*
X11683158Y-13336484D01*
X11683158Y-13336484D02*
X11702205Y-13346008D01*
X11702205Y-13346008D02*
X11711729Y-13355531D01*
X11711729Y-13355531D02*
X11721253Y-13374579D01*
X11721253Y-13374579D02*
X11721253Y-13384103D01*
X11721253Y-13384103D02*
X11711729Y-13403150D01*
X11711729Y-13403150D02*
X11702205Y-13412674D01*
X11702205Y-13412674D02*
X11683158Y-13422198D01*
X11683158Y-13422198D02*
X11645062Y-13422198D01*
X11645062Y-13422198D02*
X11626015Y-13431722D01*
X11626015Y-13431722D02*
X11616491Y-13441246D01*
X11616491Y-13441246D02*
X11606967Y-13460293D01*
X11606967Y-13460293D02*
X11606967Y-13498388D01*
X11606967Y-13498388D02*
X11616491Y-13517436D01*
X11616491Y-13517436D02*
X11626015Y-13526960D01*
X11626015Y-13526960D02*
X11645062Y-13536484D01*
X11645062Y-13536484D02*
X11683158Y-13536484D01*
X11683158Y-13536484D02*
X11702205Y-13526960D01*
X11702205Y-13526960D02*
X11711729Y-13517436D01*
X11711729Y-13517436D02*
X11721253Y-13498388D01*
X11721253Y-13498388D02*
X11721253Y-13460293D01*
X11721253Y-13460293D02*
X11711729Y-13441246D01*
X11711729Y-13441246D02*
X11702205Y-13431722D01*
X11702205Y-13431722D02*
X11683158Y-13422198D01*
X11845062Y-13336484D02*
X11864110Y-13336484D01*
X11864110Y-13336484D02*
X11883158Y-13346008D01*
X11883158Y-13346008D02*
X11892682Y-13355531D01*
X11892682Y-13355531D02*
X11902205Y-13374579D01*
X11902205Y-13374579D02*
X11911729Y-13412674D01*
X11911729Y-13412674D02*
X11911729Y-13460293D01*
X11911729Y-13460293D02*
X11902205Y-13498388D01*
X11902205Y-13498388D02*
X11892682Y-13517436D01*
X11892682Y-13517436D02*
X11883158Y-13526960D01*
X11883158Y-13526960D02*
X11864110Y-13536484D01*
X11864110Y-13536484D02*
X11845062Y-13536484D01*
X11845062Y-13536484D02*
X11826015Y-13526960D01*
X11826015Y-13526960D02*
X11816491Y-13517436D01*
X11816491Y-13517436D02*
X11806967Y-13498388D01*
X11806967Y-13498388D02*
X11797443Y-13460293D01*
X11797443Y-13460293D02*
X11797443Y-13412674D01*
X11797443Y-13412674D02*
X11806967Y-13374579D01*
X11806967Y-13374579D02*
X11816491Y-13355531D01*
X11816491Y-13355531D02*
X11826015Y-13346008D01*
X11826015Y-13346008D02*
X11845062Y-13336484D01*
X12035539Y-13336484D02*
X12054586Y-13336484D01*
X12054586Y-13336484D02*
X12073634Y-13346008D01*
X12073634Y-13346008D02*
X12083158Y-13355531D01*
X12083158Y-13355531D02*
X12092682Y-13374579D01*
X12092682Y-13374579D02*
X12102205Y-13412674D01*
X12102205Y-13412674D02*
X12102205Y-13460293D01*
X12102205Y-13460293D02*
X12092682Y-13498388D01*
X12092682Y-13498388D02*
X12083158Y-13517436D01*
X12083158Y-13517436D02*
X12073634Y-13526960D01*
X12073634Y-13526960D02*
X12054586Y-13536484D01*
X12054586Y-13536484D02*
X12035539Y-13536484D01*
X12035539Y-13536484D02*
X12016491Y-13526960D01*
X12016491Y-13526960D02*
X12006967Y-13517436D01*
X12006967Y-13517436D02*
X11997443Y-13498388D01*
X11997443Y-13498388D02*
X11987920Y-13460293D01*
X11987920Y-13460293D02*
X11987920Y-13412674D01*
X11987920Y-13412674D02*
X11997443Y-13374579D01*
X11997443Y-13374579D02*
X12006967Y-13355531D01*
X12006967Y-13355531D02*
X12016491Y-13346008D01*
X12016491Y-13346008D02*
X12035539Y-13336484D01*
X12187920Y-13536484D02*
X12187920Y-13403150D01*
X12187920Y-13422198D02*
X12197443Y-13412674D01*
X12197443Y-13412674D02*
X12216491Y-13403150D01*
X12216491Y-13403150D02*
X12245063Y-13403150D01*
X12245063Y-13403150D02*
X12264110Y-13412674D01*
X12264110Y-13412674D02*
X12273634Y-13431722D01*
X12273634Y-13431722D02*
X12273634Y-13536484D01*
X12273634Y-13431722D02*
X12283158Y-13412674D01*
X12283158Y-13412674D02*
X12302205Y-13403150D01*
X12302205Y-13403150D02*
X12330777Y-13403150D01*
X12330777Y-13403150D02*
X12349824Y-13412674D01*
X12349824Y-13412674D02*
X12359348Y-13431722D01*
X12359348Y-13431722D02*
X12359348Y-13536484D01*
X12454586Y-13536484D02*
X12454586Y-13403150D01*
X12454586Y-13422198D02*
X12464110Y-13412674D01*
X12464110Y-13412674D02*
X12483158Y-13403150D01*
X12483158Y-13403150D02*
X12511729Y-13403150D01*
X12511729Y-13403150D02*
X12530777Y-13412674D01*
X12530777Y-13412674D02*
X12540301Y-13431722D01*
X12540301Y-13431722D02*
X12540301Y-13536484D01*
X12540301Y-13431722D02*
X12549824Y-13412674D01*
X12549824Y-13412674D02*
X12568872Y-13403150D01*
X12568872Y-13403150D02*
X12597443Y-13403150D01*
X12597443Y-13403150D02*
X12616491Y-13412674D01*
X12616491Y-13412674D02*
X12626015Y-13431722D01*
X12626015Y-13431722D02*
X12626015Y-13536484D01*
X13016491Y-13326960D02*
X12845063Y-13584103D01*
X13273634Y-13336484D02*
X13292682Y-13336484D01*
X13292682Y-13336484D02*
X13311729Y-13346008D01*
X13311729Y-13346008D02*
X13321253Y-13355531D01*
X13321253Y-13355531D02*
X13330777Y-13374579D01*
X13330777Y-13374579D02*
X13340301Y-13412674D01*
X13340301Y-13412674D02*
X13340301Y-13460293D01*
X13340301Y-13460293D02*
X13330777Y-13498388D01*
X13330777Y-13498388D02*
X13321253Y-13517436D01*
X13321253Y-13517436D02*
X13311729Y-13526960D01*
X13311729Y-13526960D02*
X13292682Y-13536484D01*
X13292682Y-13536484D02*
X13273634Y-13536484D01*
X13273634Y-13536484D02*
X13254586Y-13526960D01*
X13254586Y-13526960D02*
X13245063Y-13517436D01*
X13245063Y-13517436D02*
X13235539Y-13498388D01*
X13235539Y-13498388D02*
X13226015Y-13460293D01*
X13226015Y-13460293D02*
X13226015Y-13412674D01*
X13226015Y-13412674D02*
X13235539Y-13374579D01*
X13235539Y-13374579D02*
X13245063Y-13355531D01*
X13245063Y-13355531D02*
X13254586Y-13346008D01*
X13254586Y-13346008D02*
X13273634Y-13336484D01*
X13426015Y-13517436D02*
X13435539Y-13526960D01*
X13435539Y-13526960D02*
X13426015Y-13536484D01*
X13426015Y-13536484D02*
X13416491Y-13526960D01*
X13416491Y-13526960D02*
X13426015Y-13517436D01*
X13426015Y-13517436D02*
X13426015Y-13536484D01*
X13559348Y-13336484D02*
X13578396Y-13336484D01*
X13578396Y-13336484D02*
X13597444Y-13346008D01*
X13597444Y-13346008D02*
X13606967Y-13355531D01*
X13606967Y-13355531D02*
X13616491Y-13374579D01*
X13616491Y-13374579D02*
X13626015Y-13412674D01*
X13626015Y-13412674D02*
X13626015Y-13460293D01*
X13626015Y-13460293D02*
X13616491Y-13498388D01*
X13616491Y-13498388D02*
X13606967Y-13517436D01*
X13606967Y-13517436D02*
X13597444Y-13526960D01*
X13597444Y-13526960D02*
X13578396Y-13536484D01*
X13578396Y-13536484D02*
X13559348Y-13536484D01*
X13559348Y-13536484D02*
X13540301Y-13526960D01*
X13540301Y-13526960D02*
X13530777Y-13517436D01*
X13530777Y-13517436D02*
X13521253Y-13498388D01*
X13521253Y-13498388D02*
X13511729Y-13460293D01*
X13511729Y-13460293D02*
X13511729Y-13412674D01*
X13511729Y-13412674D02*
X13521253Y-13374579D01*
X13521253Y-13374579D02*
X13530777Y-13355531D01*
X13530777Y-13355531D02*
X13540301Y-13346008D01*
X13540301Y-13346008D02*
X13559348Y-13336484D01*
X13692682Y-13336484D02*
X13816491Y-13336484D01*
X13816491Y-13336484D02*
X13749825Y-13412674D01*
X13749825Y-13412674D02*
X13778396Y-13412674D01*
X13778396Y-13412674D02*
X13797444Y-13422198D01*
X13797444Y-13422198D02*
X13806967Y-13431722D01*
X13806967Y-13431722D02*
X13816491Y-13450769D01*
X13816491Y-13450769D02*
X13816491Y-13498388D01*
X13816491Y-13498388D02*
X13806967Y-13517436D01*
X13806967Y-13517436D02*
X13797444Y-13526960D01*
X13797444Y-13526960D02*
X13778396Y-13536484D01*
X13778396Y-13536484D02*
X13721253Y-13536484D01*
X13721253Y-13536484D02*
X13702206Y-13526960D01*
X13702206Y-13526960D02*
X13692682Y-13517436D01*
X14006967Y-13536484D02*
X13892682Y-13536484D01*
X13949825Y-13536484D02*
X13949825Y-13336484D01*
X13949825Y-13336484D02*
X13930777Y-13365055D01*
X13930777Y-13365055D02*
X13911729Y-13384103D01*
X13911729Y-13384103D02*
X13892682Y-13393627D01*
X14187920Y-13336484D02*
X14092682Y-13336484D01*
X14092682Y-13336484D02*
X14083158Y-13431722D01*
X14083158Y-13431722D02*
X14092682Y-13422198D01*
X14092682Y-13422198D02*
X14111729Y-13412674D01*
X14111729Y-13412674D02*
X14159348Y-13412674D01*
X14159348Y-13412674D02*
X14178396Y-13422198D01*
X14178396Y-13422198D02*
X14187920Y-13431722D01*
X14187920Y-13431722D02*
X14197444Y-13450769D01*
X14197444Y-13450769D02*
X14197444Y-13498388D01*
X14197444Y-13498388D02*
X14187920Y-13517436D01*
X14187920Y-13517436D02*
X14178396Y-13526960D01*
X14178396Y-13526960D02*
X14159348Y-13536484D01*
X14159348Y-13536484D02*
X14111729Y-13536484D01*
X14111729Y-13536484D02*
X14092682Y-13526960D01*
X14092682Y-13526960D02*
X14083158Y-13517436D01*
X14273634Y-13336484D02*
X14273634Y-13374579D01*
X14349825Y-13336484D02*
X14349825Y-13374579D01*
X14645063Y-13612674D02*
X14635539Y-13603150D01*
X14635539Y-13603150D02*
X14616491Y-13574579D01*
X14616491Y-13574579D02*
X14606968Y-13555531D01*
X14606968Y-13555531D02*
X14597444Y-13526960D01*
X14597444Y-13526960D02*
X14587920Y-13479341D01*
X14587920Y-13479341D02*
X14587920Y-13441246D01*
X14587920Y-13441246D02*
X14597444Y-13393627D01*
X14597444Y-13393627D02*
X14606968Y-13365055D01*
X14606968Y-13365055D02*
X14616491Y-13346008D01*
X14616491Y-13346008D02*
X14635539Y-13317436D01*
X14635539Y-13317436D02*
X14645063Y-13307912D01*
X14711729Y-13355531D02*
X14721253Y-13346008D01*
X14721253Y-13346008D02*
X14740301Y-13336484D01*
X14740301Y-13336484D02*
X14787920Y-13336484D01*
X14787920Y-13336484D02*
X14806968Y-13346008D01*
X14806968Y-13346008D02*
X14816491Y-13355531D01*
X14816491Y-13355531D02*
X14826015Y-13374579D01*
X14826015Y-13374579D02*
X14826015Y-13393627D01*
X14826015Y-13393627D02*
X14816491Y-13422198D01*
X14816491Y-13422198D02*
X14702206Y-13536484D01*
X14702206Y-13536484D02*
X14826015Y-13536484D01*
X14940301Y-13422198D02*
X14921253Y-13412674D01*
X14921253Y-13412674D02*
X14911729Y-13403150D01*
X14911729Y-13403150D02*
X14902206Y-13384103D01*
X14902206Y-13384103D02*
X14902206Y-13374579D01*
X14902206Y-13374579D02*
X14911729Y-13355531D01*
X14911729Y-13355531D02*
X14921253Y-13346008D01*
X14921253Y-13346008D02*
X14940301Y-13336484D01*
X14940301Y-13336484D02*
X14978396Y-13336484D01*
X14978396Y-13336484D02*
X14997444Y-13346008D01*
X14997444Y-13346008D02*
X15006968Y-13355531D01*
X15006968Y-13355531D02*
X15016491Y-13374579D01*
X15016491Y-13374579D02*
X15016491Y-13384103D01*
X15016491Y-13384103D02*
X15006968Y-13403150D01*
X15006968Y-13403150D02*
X14997444Y-13412674D01*
X14997444Y-13412674D02*
X14978396Y-13422198D01*
X14978396Y-13422198D02*
X14940301Y-13422198D01*
X14940301Y-13422198D02*
X14921253Y-13431722D01*
X14921253Y-13431722D02*
X14911729Y-13441246D01*
X14911729Y-13441246D02*
X14902206Y-13460293D01*
X14902206Y-13460293D02*
X14902206Y-13498388D01*
X14902206Y-13498388D02*
X14911729Y-13517436D01*
X14911729Y-13517436D02*
X14921253Y-13526960D01*
X14921253Y-13526960D02*
X14940301Y-13536484D01*
X14940301Y-13536484D02*
X14978396Y-13536484D01*
X14978396Y-13536484D02*
X14997444Y-13526960D01*
X14997444Y-13526960D02*
X15006968Y-13517436D01*
X15006968Y-13517436D02*
X15016491Y-13498388D01*
X15016491Y-13498388D02*
X15016491Y-13460293D01*
X15016491Y-13460293D02*
X15006968Y-13441246D01*
X15006968Y-13441246D02*
X14997444Y-13431722D01*
X14997444Y-13431722D02*
X14978396Y-13422198D01*
X15254587Y-13536484D02*
X15254587Y-13336484D01*
X15340301Y-13536484D02*
X15340301Y-13431722D01*
X15340301Y-13431722D02*
X15330777Y-13412674D01*
X15330777Y-13412674D02*
X15311730Y-13403150D01*
X15311730Y-13403150D02*
X15283158Y-13403150D01*
X15283158Y-13403150D02*
X15264110Y-13412674D01*
X15264110Y-13412674D02*
X15254587Y-13422198D01*
X15464110Y-13536484D02*
X15445063Y-13526960D01*
X15445063Y-13526960D02*
X15435539Y-13517436D01*
X15435539Y-13517436D02*
X15426015Y-13498388D01*
X15426015Y-13498388D02*
X15426015Y-13441246D01*
X15426015Y-13441246D02*
X15435539Y-13422198D01*
X15435539Y-13422198D02*
X15445063Y-13412674D01*
X15445063Y-13412674D02*
X15464110Y-13403150D01*
X15464110Y-13403150D02*
X15492682Y-13403150D01*
X15492682Y-13403150D02*
X15511730Y-13412674D01*
X15511730Y-13412674D02*
X15521253Y-13422198D01*
X15521253Y-13422198D02*
X15530777Y-13441246D01*
X15530777Y-13441246D02*
X15530777Y-13498388D01*
X15530777Y-13498388D02*
X15521253Y-13517436D01*
X15521253Y-13517436D02*
X15511730Y-13526960D01*
X15511730Y-13526960D02*
X15492682Y-13536484D01*
X15492682Y-13536484D02*
X15464110Y-13536484D01*
X15645063Y-13536484D02*
X15626015Y-13526960D01*
X15626015Y-13526960D02*
X15616491Y-13507912D01*
X15616491Y-13507912D02*
X15616491Y-13336484D01*
X15797444Y-13526960D02*
X15778396Y-13536484D01*
X15778396Y-13536484D02*
X15740301Y-13536484D01*
X15740301Y-13536484D02*
X15721253Y-13526960D01*
X15721253Y-13526960D02*
X15711730Y-13507912D01*
X15711730Y-13507912D02*
X15711730Y-13431722D01*
X15711730Y-13431722D02*
X15721253Y-13412674D01*
X15721253Y-13412674D02*
X15740301Y-13403150D01*
X15740301Y-13403150D02*
X15778396Y-13403150D01*
X15778396Y-13403150D02*
X15797444Y-13412674D01*
X15797444Y-13412674D02*
X15806968Y-13431722D01*
X15806968Y-13431722D02*
X15806968Y-13450769D01*
X15806968Y-13450769D02*
X15711730Y-13469817D01*
X15883158Y-13526960D02*
X15902206Y-13536484D01*
X15902206Y-13536484D02*
X15940301Y-13536484D01*
X15940301Y-13536484D02*
X15959349Y-13526960D01*
X15959349Y-13526960D02*
X15968872Y-13507912D01*
X15968872Y-13507912D02*
X15968872Y-13498388D01*
X15968872Y-13498388D02*
X15959349Y-13479341D01*
X15959349Y-13479341D02*
X15940301Y-13469817D01*
X15940301Y-13469817D02*
X15911730Y-13469817D01*
X15911730Y-13469817D02*
X15892682Y-13460293D01*
X15892682Y-13460293D02*
X15883158Y-13441246D01*
X15883158Y-13441246D02*
X15883158Y-13431722D01*
X15883158Y-13431722D02*
X15892682Y-13412674D01*
X15892682Y-13412674D02*
X15911730Y-13403150D01*
X15911730Y-13403150D02*
X15940301Y-13403150D01*
X15940301Y-13403150D02*
X15959349Y-13412674D01*
X16035539Y-13612674D02*
X16045063Y-13603150D01*
X16045063Y-13603150D02*
X16064111Y-13574579D01*
X16064111Y-13574579D02*
X16073634Y-13555531D01*
X16073634Y-13555531D02*
X16083158Y-13526960D01*
X16083158Y-13526960D02*
X16092682Y-13479341D01*
X16092682Y-13479341D02*
X16092682Y-13441246D01*
X16092682Y-13441246D02*
X16083158Y-13393627D01*
X16083158Y-13393627D02*
X16073634Y-13365055D01*
X16073634Y-13365055D02*
X16064111Y-13346008D01*
X16064111Y-13346008D02*
X16045063Y-13317436D01*
X16045063Y-13317436D02*
X16035539Y-13307912D01*
D12*
X11070000Y-13709000D02*
G75*
G02*
X10951000Y-13709000I-59500J0D01*
G01*
X10951000Y-13709000D02*
G75*
G02*
X11070000Y-13709000I59500J0D01*
G01*
D11*
X11435539Y-13800484D02*
X11321253Y-13800484D01*
X11378396Y-13800484D02*
X11378396Y-13600484D01*
X11378396Y-13600484D02*
X11359348Y-13629055D01*
X11359348Y-13629055D02*
X11340301Y-13648103D01*
X11340301Y-13648103D02*
X11321253Y-13657627D01*
X11521253Y-13781436D02*
X11530777Y-13790960D01*
X11530777Y-13790960D02*
X11521253Y-13800484D01*
X11521253Y-13800484D02*
X11511729Y-13790960D01*
X11511729Y-13790960D02*
X11521253Y-13781436D01*
X11521253Y-13781436D02*
X11521253Y-13800484D01*
X11721253Y-13800484D02*
X11606967Y-13800484D01*
X11664110Y-13800484D02*
X11664110Y-13600484D01*
X11664110Y-13600484D02*
X11645062Y-13629055D01*
X11645062Y-13629055D02*
X11626015Y-13648103D01*
X11626015Y-13648103D02*
X11606967Y-13657627D01*
X11816491Y-13800484D02*
X11854586Y-13800484D01*
X11854586Y-13800484D02*
X11873634Y-13790960D01*
X11873634Y-13790960D02*
X11883158Y-13781436D01*
X11883158Y-13781436D02*
X11902205Y-13752865D01*
X11902205Y-13752865D02*
X11911729Y-13714769D01*
X11911729Y-13714769D02*
X11911729Y-13638579D01*
X11911729Y-13638579D02*
X11902205Y-13619531D01*
X11902205Y-13619531D02*
X11892682Y-13610008D01*
X11892682Y-13610008D02*
X11873634Y-13600484D01*
X11873634Y-13600484D02*
X11835539Y-13600484D01*
X11835539Y-13600484D02*
X11816491Y-13610008D01*
X11816491Y-13610008D02*
X11806967Y-13619531D01*
X11806967Y-13619531D02*
X11797443Y-13638579D01*
X11797443Y-13638579D02*
X11797443Y-13686198D01*
X11797443Y-13686198D02*
X11806967Y-13705246D01*
X11806967Y-13705246D02*
X11816491Y-13714769D01*
X11816491Y-13714769D02*
X11835539Y-13724293D01*
X11835539Y-13724293D02*
X11873634Y-13724293D01*
X11873634Y-13724293D02*
X11892682Y-13714769D01*
X11892682Y-13714769D02*
X11902205Y-13705246D01*
X11902205Y-13705246D02*
X11911729Y-13686198D01*
X12035539Y-13600484D02*
X12054586Y-13600484D01*
X12054586Y-13600484D02*
X12073634Y-13610008D01*
X12073634Y-13610008D02*
X12083158Y-13619531D01*
X12083158Y-13619531D02*
X12092682Y-13638579D01*
X12092682Y-13638579D02*
X12102205Y-13676674D01*
X12102205Y-13676674D02*
X12102205Y-13724293D01*
X12102205Y-13724293D02*
X12092682Y-13762388D01*
X12092682Y-13762388D02*
X12083158Y-13781436D01*
X12083158Y-13781436D02*
X12073634Y-13790960D01*
X12073634Y-13790960D02*
X12054586Y-13800484D01*
X12054586Y-13800484D02*
X12035539Y-13800484D01*
X12035539Y-13800484D02*
X12016491Y-13790960D01*
X12016491Y-13790960D02*
X12006967Y-13781436D01*
X12006967Y-13781436D02*
X11997443Y-13762388D01*
X11997443Y-13762388D02*
X11987920Y-13724293D01*
X11987920Y-13724293D02*
X11987920Y-13676674D01*
X11987920Y-13676674D02*
X11997443Y-13638579D01*
X11997443Y-13638579D02*
X12006967Y-13619531D01*
X12006967Y-13619531D02*
X12016491Y-13610008D01*
X12016491Y-13610008D02*
X12035539Y-13600484D01*
X12187920Y-13800484D02*
X12187920Y-13667150D01*
X12187920Y-13686198D02*
X12197443Y-13676674D01*
X12197443Y-13676674D02*
X12216491Y-13667150D01*
X12216491Y-13667150D02*
X12245063Y-13667150D01*
X12245063Y-13667150D02*
X12264110Y-13676674D01*
X12264110Y-13676674D02*
X12273634Y-13695722D01*
X12273634Y-13695722D02*
X12273634Y-13800484D01*
X12273634Y-13695722D02*
X12283158Y-13676674D01*
X12283158Y-13676674D02*
X12302205Y-13667150D01*
X12302205Y-13667150D02*
X12330777Y-13667150D01*
X12330777Y-13667150D02*
X12349824Y-13676674D01*
X12349824Y-13676674D02*
X12359348Y-13695722D01*
X12359348Y-13695722D02*
X12359348Y-13800484D01*
X12454586Y-13800484D02*
X12454586Y-13667150D01*
X12454586Y-13686198D02*
X12464110Y-13676674D01*
X12464110Y-13676674D02*
X12483158Y-13667150D01*
X12483158Y-13667150D02*
X12511729Y-13667150D01*
X12511729Y-13667150D02*
X12530777Y-13676674D01*
X12530777Y-13676674D02*
X12540301Y-13695722D01*
X12540301Y-13695722D02*
X12540301Y-13800484D01*
X12540301Y-13695722D02*
X12549824Y-13676674D01*
X12549824Y-13676674D02*
X12568872Y-13667150D01*
X12568872Y-13667150D02*
X12597443Y-13667150D01*
X12597443Y-13667150D02*
X12616491Y-13676674D01*
X12616491Y-13676674D02*
X12626015Y-13695722D01*
X12626015Y-13695722D02*
X12626015Y-13800484D01*
X13016491Y-13590960D02*
X12845063Y-13848103D01*
X13273634Y-13600484D02*
X13292682Y-13600484D01*
X13292682Y-13600484D02*
X13311729Y-13610008D01*
X13311729Y-13610008D02*
X13321253Y-13619531D01*
X13321253Y-13619531D02*
X13330777Y-13638579D01*
X13330777Y-13638579D02*
X13340301Y-13676674D01*
X13340301Y-13676674D02*
X13340301Y-13724293D01*
X13340301Y-13724293D02*
X13330777Y-13762388D01*
X13330777Y-13762388D02*
X13321253Y-13781436D01*
X13321253Y-13781436D02*
X13311729Y-13790960D01*
X13311729Y-13790960D02*
X13292682Y-13800484D01*
X13292682Y-13800484D02*
X13273634Y-13800484D01*
X13273634Y-13800484D02*
X13254586Y-13790960D01*
X13254586Y-13790960D02*
X13245063Y-13781436D01*
X13245063Y-13781436D02*
X13235539Y-13762388D01*
X13235539Y-13762388D02*
X13226015Y-13724293D01*
X13226015Y-13724293D02*
X13226015Y-13676674D01*
X13226015Y-13676674D02*
X13235539Y-13638579D01*
X13235539Y-13638579D02*
X13245063Y-13619531D01*
X13245063Y-13619531D02*
X13254586Y-13610008D01*
X13254586Y-13610008D02*
X13273634Y-13600484D01*
X13426015Y-13781436D02*
X13435539Y-13790960D01*
X13435539Y-13790960D02*
X13426015Y-13800484D01*
X13426015Y-13800484D02*
X13416491Y-13790960D01*
X13416491Y-13790960D02*
X13426015Y-13781436D01*
X13426015Y-13781436D02*
X13426015Y-13800484D01*
X13559348Y-13600484D02*
X13578396Y-13600484D01*
X13578396Y-13600484D02*
X13597444Y-13610008D01*
X13597444Y-13610008D02*
X13606967Y-13619531D01*
X13606967Y-13619531D02*
X13616491Y-13638579D01*
X13616491Y-13638579D02*
X13626015Y-13676674D01*
X13626015Y-13676674D02*
X13626015Y-13724293D01*
X13626015Y-13724293D02*
X13616491Y-13762388D01*
X13616491Y-13762388D02*
X13606967Y-13781436D01*
X13606967Y-13781436D02*
X13597444Y-13790960D01*
X13597444Y-13790960D02*
X13578396Y-13800484D01*
X13578396Y-13800484D02*
X13559348Y-13800484D01*
X13559348Y-13800484D02*
X13540301Y-13790960D01*
X13540301Y-13790960D02*
X13530777Y-13781436D01*
X13530777Y-13781436D02*
X13521253Y-13762388D01*
X13521253Y-13762388D02*
X13511729Y-13724293D01*
X13511729Y-13724293D02*
X13511729Y-13676674D01*
X13511729Y-13676674D02*
X13521253Y-13638579D01*
X13521253Y-13638579D02*
X13530777Y-13619531D01*
X13530777Y-13619531D02*
X13540301Y-13610008D01*
X13540301Y-13610008D02*
X13559348Y-13600484D01*
X13797444Y-13667150D02*
X13797444Y-13800484D01*
X13749825Y-13590960D02*
X13702206Y-13733817D01*
X13702206Y-13733817D02*
X13826015Y-13733817D01*
X13987920Y-13600484D02*
X13949825Y-13600484D01*
X13949825Y-13600484D02*
X13930777Y-13610008D01*
X13930777Y-13610008D02*
X13921253Y-13619531D01*
X13921253Y-13619531D02*
X13902206Y-13648103D01*
X13902206Y-13648103D02*
X13892682Y-13686198D01*
X13892682Y-13686198D02*
X13892682Y-13762388D01*
X13892682Y-13762388D02*
X13902206Y-13781436D01*
X13902206Y-13781436D02*
X13911729Y-13790960D01*
X13911729Y-13790960D02*
X13930777Y-13800484D01*
X13930777Y-13800484D02*
X13968872Y-13800484D01*
X13968872Y-13800484D02*
X13987920Y-13790960D01*
X13987920Y-13790960D02*
X13997444Y-13781436D01*
X13997444Y-13781436D02*
X14006967Y-13762388D01*
X14006967Y-13762388D02*
X14006967Y-13714769D01*
X14006967Y-13714769D02*
X13997444Y-13695722D01*
X13997444Y-13695722D02*
X13987920Y-13686198D01*
X13987920Y-13686198D02*
X13968872Y-13676674D01*
X13968872Y-13676674D02*
X13930777Y-13676674D01*
X13930777Y-13676674D02*
X13911729Y-13686198D01*
X13911729Y-13686198D02*
X13902206Y-13695722D01*
X13902206Y-13695722D02*
X13892682Y-13714769D01*
X14102206Y-13800484D02*
X14140301Y-13800484D01*
X14140301Y-13800484D02*
X14159348Y-13790960D01*
X14159348Y-13790960D02*
X14168872Y-13781436D01*
X14168872Y-13781436D02*
X14187920Y-13752865D01*
X14187920Y-13752865D02*
X14197444Y-13714769D01*
X14197444Y-13714769D02*
X14197444Y-13638579D01*
X14197444Y-13638579D02*
X14187920Y-13619531D01*
X14187920Y-13619531D02*
X14178396Y-13610008D01*
X14178396Y-13610008D02*
X14159348Y-13600484D01*
X14159348Y-13600484D02*
X14121253Y-13600484D01*
X14121253Y-13600484D02*
X14102206Y-13610008D01*
X14102206Y-13610008D02*
X14092682Y-13619531D01*
X14092682Y-13619531D02*
X14083158Y-13638579D01*
X14083158Y-13638579D02*
X14083158Y-13686198D01*
X14083158Y-13686198D02*
X14092682Y-13705246D01*
X14092682Y-13705246D02*
X14102206Y-13714769D01*
X14102206Y-13714769D02*
X14121253Y-13724293D01*
X14121253Y-13724293D02*
X14159348Y-13724293D01*
X14159348Y-13724293D02*
X14178396Y-13714769D01*
X14178396Y-13714769D02*
X14187920Y-13705246D01*
X14187920Y-13705246D02*
X14197444Y-13686198D01*
X14273634Y-13600484D02*
X14273634Y-13638579D01*
X14349825Y-13600484D02*
X14349825Y-13638579D01*
X14645063Y-13876674D02*
X14635539Y-13867150D01*
X14635539Y-13867150D02*
X14616491Y-13838579D01*
X14616491Y-13838579D02*
X14606968Y-13819531D01*
X14606968Y-13819531D02*
X14597444Y-13790960D01*
X14597444Y-13790960D02*
X14587920Y-13743341D01*
X14587920Y-13743341D02*
X14587920Y-13705246D01*
X14587920Y-13705246D02*
X14597444Y-13657627D01*
X14597444Y-13657627D02*
X14606968Y-13629055D01*
X14606968Y-13629055D02*
X14616491Y-13610008D01*
X14616491Y-13610008D02*
X14635539Y-13581436D01*
X14635539Y-13581436D02*
X14645063Y-13571912D01*
X14826015Y-13800484D02*
X14711729Y-13800484D01*
X14768872Y-13800484D02*
X14768872Y-13600484D01*
X14768872Y-13600484D02*
X14749825Y-13629055D01*
X14749825Y-13629055D02*
X14730777Y-13648103D01*
X14730777Y-13648103D02*
X14711729Y-13657627D01*
X14949825Y-13600484D02*
X14968872Y-13600484D01*
X14968872Y-13600484D02*
X14987920Y-13610008D01*
X14987920Y-13610008D02*
X14997444Y-13619531D01*
X14997444Y-13619531D02*
X15006968Y-13638579D01*
X15006968Y-13638579D02*
X15016491Y-13676674D01*
X15016491Y-13676674D02*
X15016491Y-13724293D01*
X15016491Y-13724293D02*
X15006968Y-13762388D01*
X15006968Y-13762388D02*
X14997444Y-13781436D01*
X14997444Y-13781436D02*
X14987920Y-13790960D01*
X14987920Y-13790960D02*
X14968872Y-13800484D01*
X14968872Y-13800484D02*
X14949825Y-13800484D01*
X14949825Y-13800484D02*
X14930777Y-13790960D01*
X14930777Y-13790960D02*
X14921253Y-13781436D01*
X14921253Y-13781436D02*
X14911729Y-13762388D01*
X14911729Y-13762388D02*
X14902206Y-13724293D01*
X14902206Y-13724293D02*
X14902206Y-13676674D01*
X14902206Y-13676674D02*
X14911729Y-13638579D01*
X14911729Y-13638579D02*
X14921253Y-13619531D01*
X14921253Y-13619531D02*
X14930777Y-13610008D01*
X14930777Y-13610008D02*
X14949825Y-13600484D01*
X15254587Y-13800484D02*
X15254587Y-13600484D01*
X15340301Y-13800484D02*
X15340301Y-13695722D01*
X15340301Y-13695722D02*
X15330777Y-13676674D01*
X15330777Y-13676674D02*
X15311730Y-13667150D01*
X15311730Y-13667150D02*
X15283158Y-13667150D01*
X15283158Y-13667150D02*
X15264110Y-13676674D01*
X15264110Y-13676674D02*
X15254587Y-13686198D01*
X15464110Y-13800484D02*
X15445063Y-13790960D01*
X15445063Y-13790960D02*
X15435539Y-13781436D01*
X15435539Y-13781436D02*
X15426015Y-13762388D01*
X15426015Y-13762388D02*
X15426015Y-13705246D01*
X15426015Y-13705246D02*
X15435539Y-13686198D01*
X15435539Y-13686198D02*
X15445063Y-13676674D01*
X15445063Y-13676674D02*
X15464110Y-13667150D01*
X15464110Y-13667150D02*
X15492682Y-13667150D01*
X15492682Y-13667150D02*
X15511730Y-13676674D01*
X15511730Y-13676674D02*
X15521253Y-13686198D01*
X15521253Y-13686198D02*
X15530777Y-13705246D01*
X15530777Y-13705246D02*
X15530777Y-13762388D01*
X15530777Y-13762388D02*
X15521253Y-13781436D01*
X15521253Y-13781436D02*
X15511730Y-13790960D01*
X15511730Y-13790960D02*
X15492682Y-13800484D01*
X15492682Y-13800484D02*
X15464110Y-13800484D01*
X15645063Y-13800484D02*
X15626015Y-13790960D01*
X15626015Y-13790960D02*
X15616491Y-13771912D01*
X15616491Y-13771912D02*
X15616491Y-13600484D01*
X15797444Y-13790960D02*
X15778396Y-13800484D01*
X15778396Y-13800484D02*
X15740301Y-13800484D01*
X15740301Y-13800484D02*
X15721253Y-13790960D01*
X15721253Y-13790960D02*
X15711730Y-13771912D01*
X15711730Y-13771912D02*
X15711730Y-13695722D01*
X15711730Y-13695722D02*
X15721253Y-13676674D01*
X15721253Y-13676674D02*
X15740301Y-13667150D01*
X15740301Y-13667150D02*
X15778396Y-13667150D01*
X15778396Y-13667150D02*
X15797444Y-13676674D01*
X15797444Y-13676674D02*
X15806968Y-13695722D01*
X15806968Y-13695722D02*
X15806968Y-13714769D01*
X15806968Y-13714769D02*
X15711730Y-13733817D01*
X15883158Y-13790960D02*
X15902206Y-13800484D01*
X15902206Y-13800484D02*
X15940301Y-13800484D01*
X15940301Y-13800484D02*
X15959349Y-13790960D01*
X15959349Y-13790960D02*
X15968872Y-13771912D01*
X15968872Y-13771912D02*
X15968872Y-13762388D01*
X15968872Y-13762388D02*
X15959349Y-13743341D01*
X15959349Y-13743341D02*
X15940301Y-13733817D01*
X15940301Y-13733817D02*
X15911730Y-13733817D01*
X15911730Y-13733817D02*
X15892682Y-13724293D01*
X15892682Y-13724293D02*
X15883158Y-13705246D01*
X15883158Y-13705246D02*
X15883158Y-13695722D01*
X15883158Y-13695722D02*
X15892682Y-13676674D01*
X15892682Y-13676674D02*
X15911730Y-13667150D01*
X15911730Y-13667150D02*
X15940301Y-13667150D01*
X15940301Y-13667150D02*
X15959349Y-13676674D01*
X16035539Y-13876674D02*
X16045063Y-13867150D01*
X16045063Y-13867150D02*
X16064111Y-13838579D01*
X16064111Y-13838579D02*
X16073634Y-13819531D01*
X16073634Y-13819531D02*
X16083158Y-13790960D01*
X16083158Y-13790960D02*
X16092682Y-13743341D01*
X16092682Y-13743341D02*
X16092682Y-13705246D01*
X16092682Y-13705246D02*
X16083158Y-13657627D01*
X16083158Y-13657627D02*
X16073634Y-13629055D01*
X16073634Y-13629055D02*
X16064111Y-13610008D01*
X16064111Y-13610008D02*
X16045063Y-13581436D01*
X16045063Y-13581436D02*
X16035539Y-13571912D01*
D13*
X11005000Y-13908000D02*
X11005000Y-14038000D01*
X10940000Y-13973000D02*
X11070000Y-13973000D01*
D11*
X11435539Y-14064484D02*
X11321253Y-14064484D01*
X11378396Y-14064484D02*
X11378396Y-13864484D01*
X11378396Y-13864484D02*
X11359348Y-13893055D01*
X11359348Y-13893055D02*
X11340301Y-13912103D01*
X11340301Y-13912103D02*
X11321253Y-13921627D01*
X11521253Y-14045436D02*
X11530777Y-14054960D01*
X11530777Y-14054960D02*
X11521253Y-14064484D01*
X11521253Y-14064484D02*
X11511729Y-14054960D01*
X11511729Y-14054960D02*
X11521253Y-14045436D01*
X11521253Y-14045436D02*
X11521253Y-14064484D01*
X11597443Y-13864484D02*
X11721253Y-13864484D01*
X11721253Y-13864484D02*
X11654586Y-13940674D01*
X11654586Y-13940674D02*
X11683158Y-13940674D01*
X11683158Y-13940674D02*
X11702205Y-13950198D01*
X11702205Y-13950198D02*
X11711729Y-13959722D01*
X11711729Y-13959722D02*
X11721253Y-13978769D01*
X11721253Y-13978769D02*
X11721253Y-14026388D01*
X11721253Y-14026388D02*
X11711729Y-14045436D01*
X11711729Y-14045436D02*
X11702205Y-14054960D01*
X11702205Y-14054960D02*
X11683158Y-14064484D01*
X11683158Y-14064484D02*
X11626015Y-14064484D01*
X11626015Y-14064484D02*
X11606967Y-14054960D01*
X11606967Y-14054960D02*
X11597443Y-14045436D01*
X11845062Y-13864484D02*
X11864110Y-13864484D01*
X11864110Y-13864484D02*
X11883158Y-13874008D01*
X11883158Y-13874008D02*
X11892682Y-13883531D01*
X11892682Y-13883531D02*
X11902205Y-13902579D01*
X11902205Y-13902579D02*
X11911729Y-13940674D01*
X11911729Y-13940674D02*
X11911729Y-13988293D01*
X11911729Y-13988293D02*
X11902205Y-14026388D01*
X11902205Y-14026388D02*
X11892682Y-14045436D01*
X11892682Y-14045436D02*
X11883158Y-14054960D01*
X11883158Y-14054960D02*
X11864110Y-14064484D01*
X11864110Y-14064484D02*
X11845062Y-14064484D01*
X11845062Y-14064484D02*
X11826015Y-14054960D01*
X11826015Y-14054960D02*
X11816491Y-14045436D01*
X11816491Y-14045436D02*
X11806967Y-14026388D01*
X11806967Y-14026388D02*
X11797443Y-13988293D01*
X11797443Y-13988293D02*
X11797443Y-13940674D01*
X11797443Y-13940674D02*
X11806967Y-13902579D01*
X11806967Y-13902579D02*
X11816491Y-13883531D01*
X11816491Y-13883531D02*
X11826015Y-13874008D01*
X11826015Y-13874008D02*
X11845062Y-13864484D01*
X12035539Y-13864484D02*
X12054586Y-13864484D01*
X12054586Y-13864484D02*
X12073634Y-13874008D01*
X12073634Y-13874008D02*
X12083158Y-13883531D01*
X12083158Y-13883531D02*
X12092682Y-13902579D01*
X12092682Y-13902579D02*
X12102205Y-13940674D01*
X12102205Y-13940674D02*
X12102205Y-13988293D01*
X12102205Y-13988293D02*
X12092682Y-14026388D01*
X12092682Y-14026388D02*
X12083158Y-14045436D01*
X12083158Y-14045436D02*
X12073634Y-14054960D01*
X12073634Y-14054960D02*
X12054586Y-14064484D01*
X12054586Y-14064484D02*
X12035539Y-14064484D01*
X12035539Y-14064484D02*
X12016491Y-14054960D01*
X12016491Y-14054960D02*
X12006967Y-14045436D01*
X12006967Y-14045436D02*
X11997443Y-14026388D01*
X11997443Y-14026388D02*
X11987920Y-13988293D01*
X11987920Y-13988293D02*
X11987920Y-13940674D01*
X11987920Y-13940674D02*
X11997443Y-13902579D01*
X11997443Y-13902579D02*
X12006967Y-13883531D01*
X12006967Y-13883531D02*
X12016491Y-13874008D01*
X12016491Y-13874008D02*
X12035539Y-13864484D01*
X12187920Y-14064484D02*
X12187920Y-13931150D01*
X12187920Y-13950198D02*
X12197443Y-13940674D01*
X12197443Y-13940674D02*
X12216491Y-13931150D01*
X12216491Y-13931150D02*
X12245063Y-13931150D01*
X12245063Y-13931150D02*
X12264110Y-13940674D01*
X12264110Y-13940674D02*
X12273634Y-13959722D01*
X12273634Y-13959722D02*
X12273634Y-14064484D01*
X12273634Y-13959722D02*
X12283158Y-13940674D01*
X12283158Y-13940674D02*
X12302205Y-13931150D01*
X12302205Y-13931150D02*
X12330777Y-13931150D01*
X12330777Y-13931150D02*
X12349824Y-13940674D01*
X12349824Y-13940674D02*
X12359348Y-13959722D01*
X12359348Y-13959722D02*
X12359348Y-14064484D01*
X12454586Y-14064484D02*
X12454586Y-13931150D01*
X12454586Y-13950198D02*
X12464110Y-13940674D01*
X12464110Y-13940674D02*
X12483158Y-13931150D01*
X12483158Y-13931150D02*
X12511729Y-13931150D01*
X12511729Y-13931150D02*
X12530777Y-13940674D01*
X12530777Y-13940674D02*
X12540301Y-13959722D01*
X12540301Y-13959722D02*
X12540301Y-14064484D01*
X12540301Y-13959722D02*
X12549824Y-13940674D01*
X12549824Y-13940674D02*
X12568872Y-13931150D01*
X12568872Y-13931150D02*
X12597443Y-13931150D01*
X12597443Y-13931150D02*
X12616491Y-13940674D01*
X12616491Y-13940674D02*
X12626015Y-13959722D01*
X12626015Y-13959722D02*
X12626015Y-14064484D01*
X13016491Y-13854960D02*
X12845063Y-14112103D01*
X13273634Y-13864484D02*
X13292682Y-13864484D01*
X13292682Y-13864484D02*
X13311729Y-13874008D01*
X13311729Y-13874008D02*
X13321253Y-13883531D01*
X13321253Y-13883531D02*
X13330777Y-13902579D01*
X13330777Y-13902579D02*
X13340301Y-13940674D01*
X13340301Y-13940674D02*
X13340301Y-13988293D01*
X13340301Y-13988293D02*
X13330777Y-14026388D01*
X13330777Y-14026388D02*
X13321253Y-14045436D01*
X13321253Y-14045436D02*
X13311729Y-14054960D01*
X13311729Y-14054960D02*
X13292682Y-14064484D01*
X13292682Y-14064484D02*
X13273634Y-14064484D01*
X13273634Y-14064484D02*
X13254586Y-14054960D01*
X13254586Y-14054960D02*
X13245063Y-14045436D01*
X13245063Y-14045436D02*
X13235539Y-14026388D01*
X13235539Y-14026388D02*
X13226015Y-13988293D01*
X13226015Y-13988293D02*
X13226015Y-13940674D01*
X13226015Y-13940674D02*
X13235539Y-13902579D01*
X13235539Y-13902579D02*
X13245063Y-13883531D01*
X13245063Y-13883531D02*
X13254586Y-13874008D01*
X13254586Y-13874008D02*
X13273634Y-13864484D01*
X13426015Y-14045436D02*
X13435539Y-14054960D01*
X13435539Y-14054960D02*
X13426015Y-14064484D01*
X13426015Y-14064484D02*
X13416491Y-14054960D01*
X13416491Y-14054960D02*
X13426015Y-14045436D01*
X13426015Y-14045436D02*
X13426015Y-14064484D01*
X13559348Y-13864484D02*
X13578396Y-13864484D01*
X13578396Y-13864484D02*
X13597444Y-13874008D01*
X13597444Y-13874008D02*
X13606967Y-13883531D01*
X13606967Y-13883531D02*
X13616491Y-13902579D01*
X13616491Y-13902579D02*
X13626015Y-13940674D01*
X13626015Y-13940674D02*
X13626015Y-13988293D01*
X13626015Y-13988293D02*
X13616491Y-14026388D01*
X13616491Y-14026388D02*
X13606967Y-14045436D01*
X13606967Y-14045436D02*
X13597444Y-14054960D01*
X13597444Y-14054960D02*
X13578396Y-14064484D01*
X13578396Y-14064484D02*
X13559348Y-14064484D01*
X13559348Y-14064484D02*
X13540301Y-14054960D01*
X13540301Y-14054960D02*
X13530777Y-14045436D01*
X13530777Y-14045436D02*
X13521253Y-14026388D01*
X13521253Y-14026388D02*
X13511729Y-13988293D01*
X13511729Y-13988293D02*
X13511729Y-13940674D01*
X13511729Y-13940674D02*
X13521253Y-13902579D01*
X13521253Y-13902579D02*
X13530777Y-13883531D01*
X13530777Y-13883531D02*
X13540301Y-13874008D01*
X13540301Y-13874008D02*
X13559348Y-13864484D01*
X13806967Y-13864484D02*
X13711729Y-13864484D01*
X13711729Y-13864484D02*
X13702206Y-13959722D01*
X13702206Y-13959722D02*
X13711729Y-13950198D01*
X13711729Y-13950198D02*
X13730777Y-13940674D01*
X13730777Y-13940674D02*
X13778396Y-13940674D01*
X13778396Y-13940674D02*
X13797444Y-13950198D01*
X13797444Y-13950198D02*
X13806967Y-13959722D01*
X13806967Y-13959722D02*
X13816491Y-13978769D01*
X13816491Y-13978769D02*
X13816491Y-14026388D01*
X13816491Y-14026388D02*
X13806967Y-14045436D01*
X13806967Y-14045436D02*
X13797444Y-14054960D01*
X13797444Y-14054960D02*
X13778396Y-14064484D01*
X13778396Y-14064484D02*
X13730777Y-14064484D01*
X13730777Y-14064484D02*
X13711729Y-14054960D01*
X13711729Y-14054960D02*
X13702206Y-14045436D01*
X14006967Y-14064484D02*
X13892682Y-14064484D01*
X13949825Y-14064484D02*
X13949825Y-13864484D01*
X13949825Y-13864484D02*
X13930777Y-13893055D01*
X13930777Y-13893055D02*
X13911729Y-13912103D01*
X13911729Y-13912103D02*
X13892682Y-13921627D01*
X14083158Y-13883531D02*
X14092682Y-13874008D01*
X14092682Y-13874008D02*
X14111729Y-13864484D01*
X14111729Y-13864484D02*
X14159348Y-13864484D01*
X14159348Y-13864484D02*
X14178396Y-13874008D01*
X14178396Y-13874008D02*
X14187920Y-13883531D01*
X14187920Y-13883531D02*
X14197444Y-13902579D01*
X14197444Y-13902579D02*
X14197444Y-13921627D01*
X14197444Y-13921627D02*
X14187920Y-13950198D01*
X14187920Y-13950198D02*
X14073634Y-14064484D01*
X14073634Y-14064484D02*
X14197444Y-14064484D01*
X14273634Y-13864484D02*
X14273634Y-13902579D01*
X14349825Y-13864484D02*
X14349825Y-13902579D01*
X14645063Y-14140674D02*
X14635539Y-14131150D01*
X14635539Y-14131150D02*
X14616491Y-14102579D01*
X14616491Y-14102579D02*
X14606968Y-14083531D01*
X14606968Y-14083531D02*
X14597444Y-14054960D01*
X14597444Y-14054960D02*
X14587920Y-14007341D01*
X14587920Y-14007341D02*
X14587920Y-13969246D01*
X14587920Y-13969246D02*
X14597444Y-13921627D01*
X14597444Y-13921627D02*
X14606968Y-13893055D01*
X14606968Y-13893055D02*
X14616491Y-13874008D01*
X14616491Y-13874008D02*
X14635539Y-13845436D01*
X14635539Y-13845436D02*
X14645063Y-13835912D01*
X14806968Y-13931150D02*
X14806968Y-14064484D01*
X14759348Y-13854960D02*
X14711729Y-13997817D01*
X14711729Y-13997817D02*
X14835539Y-13997817D01*
X15064110Y-14064484D02*
X15064110Y-13864484D01*
X15149825Y-14064484D02*
X15149825Y-13959722D01*
X15149825Y-13959722D02*
X15140301Y-13940674D01*
X15140301Y-13940674D02*
X15121253Y-13931150D01*
X15121253Y-13931150D02*
X15092682Y-13931150D01*
X15092682Y-13931150D02*
X15073634Y-13940674D01*
X15073634Y-13940674D02*
X15064110Y-13950198D01*
X15273634Y-14064484D02*
X15254587Y-14054960D01*
X15254587Y-14054960D02*
X15245063Y-14045436D01*
X15245063Y-14045436D02*
X15235539Y-14026388D01*
X15235539Y-14026388D02*
X15235539Y-13969246D01*
X15235539Y-13969246D02*
X15245063Y-13950198D01*
X15245063Y-13950198D02*
X15254587Y-13940674D01*
X15254587Y-13940674D02*
X15273634Y-13931150D01*
X15273634Y-13931150D02*
X15302206Y-13931150D01*
X15302206Y-13931150D02*
X15321253Y-13940674D01*
X15321253Y-13940674D02*
X15330777Y-13950198D01*
X15330777Y-13950198D02*
X15340301Y-13969246D01*
X15340301Y-13969246D02*
X15340301Y-14026388D01*
X15340301Y-14026388D02*
X15330777Y-14045436D01*
X15330777Y-14045436D02*
X15321253Y-14054960D01*
X15321253Y-14054960D02*
X15302206Y-14064484D01*
X15302206Y-14064484D02*
X15273634Y-14064484D01*
X15454587Y-14064484D02*
X15435539Y-14054960D01*
X15435539Y-14054960D02*
X15426015Y-14035912D01*
X15426015Y-14035912D02*
X15426015Y-13864484D01*
X15606968Y-14054960D02*
X15587920Y-14064484D01*
X15587920Y-14064484D02*
X15549825Y-14064484D01*
X15549825Y-14064484D02*
X15530777Y-14054960D01*
X15530777Y-14054960D02*
X15521253Y-14035912D01*
X15521253Y-14035912D02*
X15521253Y-13959722D01*
X15521253Y-13959722D02*
X15530777Y-13940674D01*
X15530777Y-13940674D02*
X15549825Y-13931150D01*
X15549825Y-13931150D02*
X15587920Y-13931150D01*
X15587920Y-13931150D02*
X15606968Y-13940674D01*
X15606968Y-13940674D02*
X15616491Y-13959722D01*
X15616491Y-13959722D02*
X15616491Y-13978769D01*
X15616491Y-13978769D02*
X15521253Y-13997817D01*
X15692682Y-14054960D02*
X15711730Y-14064484D01*
X15711730Y-14064484D02*
X15749825Y-14064484D01*
X15749825Y-14064484D02*
X15768872Y-14054960D01*
X15768872Y-14054960D02*
X15778396Y-14035912D01*
X15778396Y-14035912D02*
X15778396Y-14026388D01*
X15778396Y-14026388D02*
X15768872Y-14007341D01*
X15768872Y-14007341D02*
X15749825Y-13997817D01*
X15749825Y-13997817D02*
X15721253Y-13997817D01*
X15721253Y-13997817D02*
X15702206Y-13988293D01*
X15702206Y-13988293D02*
X15692682Y-13969246D01*
X15692682Y-13969246D02*
X15692682Y-13959722D01*
X15692682Y-13959722D02*
X15702206Y-13940674D01*
X15702206Y-13940674D02*
X15721253Y-13931150D01*
X15721253Y-13931150D02*
X15749825Y-13931150D01*
X15749825Y-13931150D02*
X15768872Y-13940674D01*
X15845063Y-14140674D02*
X15854587Y-14131150D01*
X15854587Y-14131150D02*
X15873634Y-14102579D01*
X15873634Y-14102579D02*
X15883158Y-14083531D01*
X15883158Y-14083531D02*
X15892682Y-14054960D01*
X15892682Y-14054960D02*
X15902206Y-14007341D01*
X15902206Y-14007341D02*
X15902206Y-13969246D01*
X15902206Y-13969246D02*
X15892682Y-13921627D01*
X15892682Y-13921627D02*
X15883158Y-13893055D01*
X15883158Y-13893055D02*
X15873634Y-13874008D01*
X15873634Y-13874008D02*
X15854587Y-13845436D01*
X15854587Y-13845436D02*
X15845063Y-13835912D01*
X11040711Y-14307711D02*
X11040711Y-14166289D01*
X10899289Y-14166289D01*
X10899289Y-14307711D01*
X11040711Y-14307711D01*
X11321253Y-14147531D02*
X11330777Y-14138008D01*
X11330777Y-14138008D02*
X11349824Y-14128484D01*
X11349824Y-14128484D02*
X11397443Y-14128484D01*
X11397443Y-14128484D02*
X11416491Y-14138008D01*
X11416491Y-14138008D02*
X11426015Y-14147531D01*
X11426015Y-14147531D02*
X11435539Y-14166579D01*
X11435539Y-14166579D02*
X11435539Y-14185627D01*
X11435539Y-14185627D02*
X11426015Y-14214198D01*
X11426015Y-14214198D02*
X11311729Y-14328484D01*
X11311729Y-14328484D02*
X11435539Y-14328484D01*
X11521253Y-14309436D02*
X11530777Y-14318960D01*
X11530777Y-14318960D02*
X11521253Y-14328484D01*
X11521253Y-14328484D02*
X11511729Y-14318960D01*
X11511729Y-14318960D02*
X11521253Y-14309436D01*
X11521253Y-14309436D02*
X11521253Y-14328484D01*
X11711729Y-14128484D02*
X11616491Y-14128484D01*
X11616491Y-14128484D02*
X11606967Y-14223722D01*
X11606967Y-14223722D02*
X11616491Y-14214198D01*
X11616491Y-14214198D02*
X11635539Y-14204674D01*
X11635539Y-14204674D02*
X11683158Y-14204674D01*
X11683158Y-14204674D02*
X11702205Y-14214198D01*
X11702205Y-14214198D02*
X11711729Y-14223722D01*
X11711729Y-14223722D02*
X11721253Y-14242769D01*
X11721253Y-14242769D02*
X11721253Y-14290388D01*
X11721253Y-14290388D02*
X11711729Y-14309436D01*
X11711729Y-14309436D02*
X11702205Y-14318960D01*
X11702205Y-14318960D02*
X11683158Y-14328484D01*
X11683158Y-14328484D02*
X11635539Y-14328484D01*
X11635539Y-14328484D02*
X11616491Y-14318960D01*
X11616491Y-14318960D02*
X11606967Y-14309436D01*
X11845062Y-14128484D02*
X11864110Y-14128484D01*
X11864110Y-14128484D02*
X11883158Y-14138008D01*
X11883158Y-14138008D02*
X11892682Y-14147531D01*
X11892682Y-14147531D02*
X11902205Y-14166579D01*
X11902205Y-14166579D02*
X11911729Y-14204674D01*
X11911729Y-14204674D02*
X11911729Y-14252293D01*
X11911729Y-14252293D02*
X11902205Y-14290388D01*
X11902205Y-14290388D02*
X11892682Y-14309436D01*
X11892682Y-14309436D02*
X11883158Y-14318960D01*
X11883158Y-14318960D02*
X11864110Y-14328484D01*
X11864110Y-14328484D02*
X11845062Y-14328484D01*
X11845062Y-14328484D02*
X11826015Y-14318960D01*
X11826015Y-14318960D02*
X11816491Y-14309436D01*
X11816491Y-14309436D02*
X11806967Y-14290388D01*
X11806967Y-14290388D02*
X11797443Y-14252293D01*
X11797443Y-14252293D02*
X11797443Y-14204674D01*
X11797443Y-14204674D02*
X11806967Y-14166579D01*
X11806967Y-14166579D02*
X11816491Y-14147531D01*
X11816491Y-14147531D02*
X11826015Y-14138008D01*
X11826015Y-14138008D02*
X11845062Y-14128484D01*
X12035539Y-14128484D02*
X12054586Y-14128484D01*
X12054586Y-14128484D02*
X12073634Y-14138008D01*
X12073634Y-14138008D02*
X12083158Y-14147531D01*
X12083158Y-14147531D02*
X12092682Y-14166579D01*
X12092682Y-14166579D02*
X12102205Y-14204674D01*
X12102205Y-14204674D02*
X12102205Y-14252293D01*
X12102205Y-14252293D02*
X12092682Y-14290388D01*
X12092682Y-14290388D02*
X12083158Y-14309436D01*
X12083158Y-14309436D02*
X12073634Y-14318960D01*
X12073634Y-14318960D02*
X12054586Y-14328484D01*
X12054586Y-14328484D02*
X12035539Y-14328484D01*
X12035539Y-14328484D02*
X12016491Y-14318960D01*
X12016491Y-14318960D02*
X12006967Y-14309436D01*
X12006967Y-14309436D02*
X11997443Y-14290388D01*
X11997443Y-14290388D02*
X11987920Y-14252293D01*
X11987920Y-14252293D02*
X11987920Y-14204674D01*
X11987920Y-14204674D02*
X11997443Y-14166579D01*
X11997443Y-14166579D02*
X12006967Y-14147531D01*
X12006967Y-14147531D02*
X12016491Y-14138008D01*
X12016491Y-14138008D02*
X12035539Y-14128484D01*
X12187920Y-14328484D02*
X12187920Y-14195150D01*
X12187920Y-14214198D02*
X12197443Y-14204674D01*
X12197443Y-14204674D02*
X12216491Y-14195150D01*
X12216491Y-14195150D02*
X12245063Y-14195150D01*
X12245063Y-14195150D02*
X12264110Y-14204674D01*
X12264110Y-14204674D02*
X12273634Y-14223722D01*
X12273634Y-14223722D02*
X12273634Y-14328484D01*
X12273634Y-14223722D02*
X12283158Y-14204674D01*
X12283158Y-14204674D02*
X12302205Y-14195150D01*
X12302205Y-14195150D02*
X12330777Y-14195150D01*
X12330777Y-14195150D02*
X12349824Y-14204674D01*
X12349824Y-14204674D02*
X12359348Y-14223722D01*
X12359348Y-14223722D02*
X12359348Y-14328484D01*
X12454586Y-14328484D02*
X12454586Y-14195150D01*
X12454586Y-14214198D02*
X12464110Y-14204674D01*
X12464110Y-14204674D02*
X12483158Y-14195150D01*
X12483158Y-14195150D02*
X12511729Y-14195150D01*
X12511729Y-14195150D02*
X12530777Y-14204674D01*
X12530777Y-14204674D02*
X12540301Y-14223722D01*
X12540301Y-14223722D02*
X12540301Y-14328484D01*
X12540301Y-14223722D02*
X12549824Y-14204674D01*
X12549824Y-14204674D02*
X12568872Y-14195150D01*
X12568872Y-14195150D02*
X12597443Y-14195150D01*
X12597443Y-14195150D02*
X12616491Y-14204674D01*
X12616491Y-14204674D02*
X12626015Y-14223722D01*
X12626015Y-14223722D02*
X12626015Y-14328484D01*
X13016491Y-14118960D02*
X12845063Y-14376103D01*
X13273634Y-14128484D02*
X13292682Y-14128484D01*
X13292682Y-14128484D02*
X13311729Y-14138008D01*
X13311729Y-14138008D02*
X13321253Y-14147531D01*
X13321253Y-14147531D02*
X13330777Y-14166579D01*
X13330777Y-14166579D02*
X13340301Y-14204674D01*
X13340301Y-14204674D02*
X13340301Y-14252293D01*
X13340301Y-14252293D02*
X13330777Y-14290388D01*
X13330777Y-14290388D02*
X13321253Y-14309436D01*
X13321253Y-14309436D02*
X13311729Y-14318960D01*
X13311729Y-14318960D02*
X13292682Y-14328484D01*
X13292682Y-14328484D02*
X13273634Y-14328484D01*
X13273634Y-14328484D02*
X13254586Y-14318960D01*
X13254586Y-14318960D02*
X13245063Y-14309436D01*
X13245063Y-14309436D02*
X13235539Y-14290388D01*
X13235539Y-14290388D02*
X13226015Y-14252293D01*
X13226015Y-14252293D02*
X13226015Y-14204674D01*
X13226015Y-14204674D02*
X13235539Y-14166579D01*
X13235539Y-14166579D02*
X13245063Y-14147531D01*
X13245063Y-14147531D02*
X13254586Y-14138008D01*
X13254586Y-14138008D02*
X13273634Y-14128484D01*
X13426015Y-14309436D02*
X13435539Y-14318960D01*
X13435539Y-14318960D02*
X13426015Y-14328484D01*
X13426015Y-14328484D02*
X13416491Y-14318960D01*
X13416491Y-14318960D02*
X13426015Y-14309436D01*
X13426015Y-14309436D02*
X13426015Y-14328484D01*
X13559348Y-14128484D02*
X13578396Y-14128484D01*
X13578396Y-14128484D02*
X13597444Y-14138008D01*
X13597444Y-14138008D02*
X13606967Y-14147531D01*
X13606967Y-14147531D02*
X13616491Y-14166579D01*
X13616491Y-14166579D02*
X13626015Y-14204674D01*
X13626015Y-14204674D02*
X13626015Y-14252293D01*
X13626015Y-14252293D02*
X13616491Y-14290388D01*
X13616491Y-14290388D02*
X13606967Y-14309436D01*
X13606967Y-14309436D02*
X13597444Y-14318960D01*
X13597444Y-14318960D02*
X13578396Y-14328484D01*
X13578396Y-14328484D02*
X13559348Y-14328484D01*
X13559348Y-14328484D02*
X13540301Y-14318960D01*
X13540301Y-14318960D02*
X13530777Y-14309436D01*
X13530777Y-14309436D02*
X13521253Y-14290388D01*
X13521253Y-14290388D02*
X13511729Y-14252293D01*
X13511729Y-14252293D02*
X13511729Y-14204674D01*
X13511729Y-14204674D02*
X13521253Y-14166579D01*
X13521253Y-14166579D02*
X13530777Y-14147531D01*
X13530777Y-14147531D02*
X13540301Y-14138008D01*
X13540301Y-14138008D02*
X13559348Y-14128484D01*
X13721253Y-14328484D02*
X13759348Y-14328484D01*
X13759348Y-14328484D02*
X13778396Y-14318960D01*
X13778396Y-14318960D02*
X13787920Y-14309436D01*
X13787920Y-14309436D02*
X13806967Y-14280865D01*
X13806967Y-14280865D02*
X13816491Y-14242769D01*
X13816491Y-14242769D02*
X13816491Y-14166579D01*
X13816491Y-14166579D02*
X13806967Y-14147531D01*
X13806967Y-14147531D02*
X13797444Y-14138008D01*
X13797444Y-14138008D02*
X13778396Y-14128484D01*
X13778396Y-14128484D02*
X13740301Y-14128484D01*
X13740301Y-14128484D02*
X13721253Y-14138008D01*
X13721253Y-14138008D02*
X13711729Y-14147531D01*
X13711729Y-14147531D02*
X13702206Y-14166579D01*
X13702206Y-14166579D02*
X13702206Y-14214198D01*
X13702206Y-14214198D02*
X13711729Y-14233246D01*
X13711729Y-14233246D02*
X13721253Y-14242769D01*
X13721253Y-14242769D02*
X13740301Y-14252293D01*
X13740301Y-14252293D02*
X13778396Y-14252293D01*
X13778396Y-14252293D02*
X13797444Y-14242769D01*
X13797444Y-14242769D02*
X13806967Y-14233246D01*
X13806967Y-14233246D02*
X13816491Y-14214198D01*
X13930777Y-14214198D02*
X13911729Y-14204674D01*
X13911729Y-14204674D02*
X13902206Y-14195150D01*
X13902206Y-14195150D02*
X13892682Y-14176103D01*
X13892682Y-14176103D02*
X13892682Y-14166579D01*
X13892682Y-14166579D02*
X13902206Y-14147531D01*
X13902206Y-14147531D02*
X13911729Y-14138008D01*
X13911729Y-14138008D02*
X13930777Y-14128484D01*
X13930777Y-14128484D02*
X13968872Y-14128484D01*
X13968872Y-14128484D02*
X13987920Y-14138008D01*
X13987920Y-14138008D02*
X13997444Y-14147531D01*
X13997444Y-14147531D02*
X14006967Y-14166579D01*
X14006967Y-14166579D02*
X14006967Y-14176103D01*
X14006967Y-14176103D02*
X13997444Y-14195150D01*
X13997444Y-14195150D02*
X13987920Y-14204674D01*
X13987920Y-14204674D02*
X13968872Y-14214198D01*
X13968872Y-14214198D02*
X13930777Y-14214198D01*
X13930777Y-14214198D02*
X13911729Y-14223722D01*
X13911729Y-14223722D02*
X13902206Y-14233246D01*
X13902206Y-14233246D02*
X13892682Y-14252293D01*
X13892682Y-14252293D02*
X13892682Y-14290388D01*
X13892682Y-14290388D02*
X13902206Y-14309436D01*
X13902206Y-14309436D02*
X13911729Y-14318960D01*
X13911729Y-14318960D02*
X13930777Y-14328484D01*
X13930777Y-14328484D02*
X13968872Y-14328484D01*
X13968872Y-14328484D02*
X13987920Y-14318960D01*
X13987920Y-14318960D02*
X13997444Y-14309436D01*
X13997444Y-14309436D02*
X14006967Y-14290388D01*
X14006967Y-14290388D02*
X14006967Y-14252293D01*
X14006967Y-14252293D02*
X13997444Y-14233246D01*
X13997444Y-14233246D02*
X13987920Y-14223722D01*
X13987920Y-14223722D02*
X13968872Y-14214198D01*
X14178396Y-14195150D02*
X14178396Y-14328484D01*
X14130777Y-14118960D02*
X14083158Y-14261817D01*
X14083158Y-14261817D02*
X14206967Y-14261817D01*
X14273634Y-14128484D02*
X14273634Y-14166579D01*
X14349825Y-14128484D02*
X14349825Y-14166579D01*
X14645063Y-14404674D02*
X14635539Y-14395150D01*
X14635539Y-14395150D02*
X14616491Y-14366579D01*
X14616491Y-14366579D02*
X14606968Y-14347531D01*
X14606968Y-14347531D02*
X14597444Y-14318960D01*
X14597444Y-14318960D02*
X14587920Y-14271341D01*
X14587920Y-14271341D02*
X14587920Y-14233246D01*
X14587920Y-14233246D02*
X14597444Y-14185627D01*
X14597444Y-14185627D02*
X14606968Y-14157055D01*
X14606968Y-14157055D02*
X14616491Y-14138008D01*
X14616491Y-14138008D02*
X14635539Y-14109436D01*
X14635539Y-14109436D02*
X14645063Y-14099912D01*
X14711729Y-14147531D02*
X14721253Y-14138008D01*
X14721253Y-14138008D02*
X14740301Y-14128484D01*
X14740301Y-14128484D02*
X14787920Y-14128484D01*
X14787920Y-14128484D02*
X14806968Y-14138008D01*
X14806968Y-14138008D02*
X14816491Y-14147531D01*
X14816491Y-14147531D02*
X14826015Y-14166579D01*
X14826015Y-14166579D02*
X14826015Y-14185627D01*
X14826015Y-14185627D02*
X14816491Y-14214198D01*
X14816491Y-14214198D02*
X14702206Y-14328484D01*
X14702206Y-14328484D02*
X14826015Y-14328484D01*
X15064110Y-14328484D02*
X15064110Y-14128484D01*
X15149825Y-14328484D02*
X15149825Y-14223722D01*
X15149825Y-14223722D02*
X15140301Y-14204674D01*
X15140301Y-14204674D02*
X15121253Y-14195150D01*
X15121253Y-14195150D02*
X15092682Y-14195150D01*
X15092682Y-14195150D02*
X15073634Y-14204674D01*
X15073634Y-14204674D02*
X15064110Y-14214198D01*
X15273634Y-14328484D02*
X15254587Y-14318960D01*
X15254587Y-14318960D02*
X15245063Y-14309436D01*
X15245063Y-14309436D02*
X15235539Y-14290388D01*
X15235539Y-14290388D02*
X15235539Y-14233246D01*
X15235539Y-14233246D02*
X15245063Y-14214198D01*
X15245063Y-14214198D02*
X15254587Y-14204674D01*
X15254587Y-14204674D02*
X15273634Y-14195150D01*
X15273634Y-14195150D02*
X15302206Y-14195150D01*
X15302206Y-14195150D02*
X15321253Y-14204674D01*
X15321253Y-14204674D02*
X15330777Y-14214198D01*
X15330777Y-14214198D02*
X15340301Y-14233246D01*
X15340301Y-14233246D02*
X15340301Y-14290388D01*
X15340301Y-14290388D02*
X15330777Y-14309436D01*
X15330777Y-14309436D02*
X15321253Y-14318960D01*
X15321253Y-14318960D02*
X15302206Y-14328484D01*
X15302206Y-14328484D02*
X15273634Y-14328484D01*
X15454587Y-14328484D02*
X15435539Y-14318960D01*
X15435539Y-14318960D02*
X15426015Y-14299912D01*
X15426015Y-14299912D02*
X15426015Y-14128484D01*
X15606968Y-14318960D02*
X15587920Y-14328484D01*
X15587920Y-14328484D02*
X15549825Y-14328484D01*
X15549825Y-14328484D02*
X15530777Y-14318960D01*
X15530777Y-14318960D02*
X15521253Y-14299912D01*
X15521253Y-14299912D02*
X15521253Y-14223722D01*
X15521253Y-14223722D02*
X15530777Y-14204674D01*
X15530777Y-14204674D02*
X15549825Y-14195150D01*
X15549825Y-14195150D02*
X15587920Y-14195150D01*
X15587920Y-14195150D02*
X15606968Y-14204674D01*
X15606968Y-14204674D02*
X15616491Y-14223722D01*
X15616491Y-14223722D02*
X15616491Y-14242769D01*
X15616491Y-14242769D02*
X15521253Y-14261817D01*
X15692682Y-14318960D02*
X15711730Y-14328484D01*
X15711730Y-14328484D02*
X15749825Y-14328484D01*
X15749825Y-14328484D02*
X15768872Y-14318960D01*
X15768872Y-14318960D02*
X15778396Y-14299912D01*
X15778396Y-14299912D02*
X15778396Y-14290388D01*
X15778396Y-14290388D02*
X15768872Y-14271341D01*
X15768872Y-14271341D02*
X15749825Y-14261817D01*
X15749825Y-14261817D02*
X15721253Y-14261817D01*
X15721253Y-14261817D02*
X15702206Y-14252293D01*
X15702206Y-14252293D02*
X15692682Y-14233246D01*
X15692682Y-14233246D02*
X15692682Y-14223722D01*
X15692682Y-14223722D02*
X15702206Y-14204674D01*
X15702206Y-14204674D02*
X15721253Y-14195150D01*
X15721253Y-14195150D02*
X15749825Y-14195150D01*
X15749825Y-14195150D02*
X15768872Y-14204674D01*
X15845063Y-14404674D02*
X15854587Y-14395150D01*
X15854587Y-14395150D02*
X15873634Y-14366579D01*
X15873634Y-14366579D02*
X15883158Y-14347531D01*
X15883158Y-14347531D02*
X15892682Y-14318960D01*
X15892682Y-14318960D02*
X15902206Y-14271341D01*
X15902206Y-14271341D02*
X15902206Y-14233246D01*
X15902206Y-14233246D02*
X15892682Y-14185627D01*
X15892682Y-14185627D02*
X15883158Y-14157055D01*
X15883158Y-14157055D02*
X15873634Y-14138008D01*
X15873634Y-14138008D02*
X15854587Y-14109436D01*
X15854587Y-14109436D02*
X15845063Y-14099912D01*
M02*
